<?xml version="1.0" encoding="UTF-8"?><svg id="a" xmlns="http://www.w3.org/2000/svg" viewBox="0 0 209.32 194.71"><defs><style>.c{fill:#bd4a39;}.d{fill:#1c1c1c;}.e{fill:#6bafc1;}.f{fill:#223d68;}.g{fill:#2a4b7f;}.h{fill:#375e99;}.i{fill:#4e76ad;}.j{fill:#476ea4;}.k{fill:#e9e9e9;}.l{fill:#4067a6;}.m{fill:#cfd7dd;}.n{fill:#495464;}.o{fill:#b2cf68;}.p{fill:#252624;}.q{fill:#f2cc3a;}.r{fill:#3b62a0;}.s{fill:#335892;}.t{fill:#30558d;}</style></defs><g id="b"><path class="n" d="M153.94,193.8l-8.33.06c-2.85-3.97-5.17-7.82-8.39-11.75-.63,4.15-.01,7.8-.34,11.81h-6.87s-.04-35.26-.04-35.26l6.96-.7.07,22.39c3.14-3.57,5.53-7.05,8.27-10.7l7.55.02-8.76,10.65,9.88,13.49Z"/><path class="n" d="M62.84,193.27c-2.49-1.56-2.92-4.51-2.51-7.34.86-5.9,10.04-6.51,14.76-6.57.15-1.24-.11-2.64-.84-3.66-2.06-2.93-8.61-1.22-11.84.33l-.51-5.07c4.14-1.79,8.52-2.74,12.87-1.94s6.99,4.24,7.21,8.7c.27,5.43.14,10.75.12,16.25h-6.28s-.43-3.2-.43-3.2c-2.81,3.95-8.38,5.14-12.56,2.52ZM75.1,183.34c-2.64-.05-8.01-.3-8.25,3.12-.09,1.39.47,2.68,1.81,3.24,1.77.74,3.88.3,5.22-.97s1.39-3.38,1.22-5.39Z"/><path class="n" d="M183.76,193.26c-2.99,1.42-6.6,1.79-9.73.58-2.5-.97-3.77-3.59-3.8-6.23l-.12-12.46-3.81-.09v-5.19s3.99-.1,3.99-.1l.44-7.86,6.24-.53.03,8.29,6.4.02v5.43s-6.43.03-6.43.03c.31,4.17-.46,8.2.41,12.19.54,2.49,3.57,2.35,5.85,1.47l.52,4.44Z"/><path class="n" d="M99.41,193.96c-4.25,1.2-8.78.6-12.81-.86l.28-5.23c2.7,1.57,10.56,3.82,11.25.05.19-1.05-.48-2.16-1.58-2.61l-5.38-2.2c-3.12-1.28-4.82-3.83-4.66-7.13.15-2.97,2.12-5.51,5.27-6.49,3.86-1.2,8.02-.52,11.76,1.13l-.57,4.85c-2.12-1.28-9.29-3.09-9.97-.09-1.07,4.72,11.93,3.04,11.65,11.66-.1,3.12-1.84,5.95-5.26,6.91Z"/><path class="n" d="M125.57,189.06c-1.61,6.91-12.32,6.14-17.59,4.02l.22-5.24c2.45,1.39,10.23,3.85,11.14.3,1.33-5.16-11.76-2.67-11.56-11.74.07-3.21,2.09-5.95,5.4-6.92,3.84-1.13,7.89-.47,11.66,1.12l-.61,4.9c-2.5-1.43-9.94-3.2-10.03.47-.1,4.26,13.86,2.44,11.38,13.1Z"/><path class="n" d="M37.92,189.59c2.16.08,4.08-.39,6.17-1.08l.4,4.97c-4.19,1.32-8.64,1.76-12.8.45-5.39-1.7-8.11-6.81-8-12.29.1-5.01,2.26-9.71,6.99-11.79,4.38-1.92,9.42-1.72,13.78.12l-.7,5.04c-2.89-1.15-5.92-1.67-8.78-.49s-4.05,4.25-4.1,7.31c-.06,4.18,2.57,7.58,7.03,7.75Z"/><polygon class="n" points="55.89 193.87 49.01 193.89 48.98 158.54 55.91 157.85 55.89 193.87"/><rect class="n" x="147.99" y="178.33" width="24.31" height="6.84" transform="translate(-21.65 341.86) rotate(-89.99)"/><circle class="n" cx="159.87" cy="161.3" r="3.88"/><path class="r" d="M.08,83.22l.03-.46c.23.03.29.52-.03.46Z"/><path class="l" d="M137.91,4.43c-.19.43-.55.92-.96,1.12-1.47.68-2.16-1.26-3.87-.93-2.56.49.97,2.4-6.93,2.04-1.14,1.61-8.04,6.27-3.67,7.23-.41,1.27-1.75,3.16-2.96,3.72-1.38.63-3.83.62-5.17.06.04-.93.23-1.76-.69-1.85-1.22-.12-3.02,1.39-3.01,1.59.08,1.5,1.7.73,2.09,1.42.94,1.67-3.26,1.81-3.06,3.01-.29-.54-.63-1.49-1.26-1.45-.93.06-.69,1.19-.5,1.75.27.82,1,.77,1.9.55.69,5.94,9.78-1.54,10.76,4.68-4.69-.03-9.42.01-13.95-.01-.68-4.59.53-8.96-.67-13.51-.78,4.58,0,9.11-.45,13.64l-24.84-.04c-.6-5.14.3-10.09-.6-15.11-.98,5.22.05,10.17-.54,15.15l-24.78-.12c-.45-3.48.36-6.89-.59-10.36-1.04,3.49-.03,6.78-.57,10.33l-25.31-.26c-.26,0-.35-.84-.31-.94C57.15.76,101.39-5.37,137.91,4.43Z"/><path class="s" d="M12.12,96.69c-1.85.78-4.37,1.26-4.77,4.02l13.34-.03c.22.64-.45,1.12-1.1,1.13l-12.1.05c.89,2.64,5.8,2.43,8.29,2.83.05.29.08,1.15-.22,1.28l-1.29.57c-1.33.59-2.61,2.13-2.29,3.44.36,1.48,1.67,2.85,3.35,2.54l-.48-1.95c.98-.12,1.85.43,2.71.98l7.31-2.02c.59.36,1.33.82,1.92.23l-.08,14.94c-4.01.48-7.86-.32-11.75.45,4,1.24,7.98.32,11.68.94.44,2.41-.52,4.78.8,7.12.59-2.45.2-4.84.38-7.55l25.71.38c.52,4.83-.27,9.33.57,13.98,1-2.5.27-5.05.44-7.41l2.89-.14c.52,3.02,3.05,5.54,6.09,4.98.95-1.37-.13-3.05.86-4.21l1.21-.24c.23-.05.56-.65.37-.77-1.27-.78-6.78.4-11.28-1.75l-.02-4.48,12.4.07c-.01,1.26-.39,2.58-.12,4.04,3.99,4.84,5.73.17,8.36,3.73.81,1.1,1.86,1.09,3.16.97l1.43-.13c.31-.03.1-.62.26-.98,1.03,1.13,2.43,1.73,3.85,2.64-.28,1.32-2.4,1.42-3.44,2.21-.64,1.39,1.14,2.14.34,3.03-1.18,1.86.14,4.17-.7,6.24-1.22-.67-.11-2.01-.93-2.96-4.19.6-2.19-4.37-6.84-3.62-.99.16-1.98,1.29-2.91,2.3-2.99-3.33-.68,1.05-6.91,1.82-.5.38-.38,2-1.07,2.16-.8.18-1.64-.14-2.49-.46-.63.12-1.53,1.15-1.77,1.81h-4.47c.35-2.48-11.11-1.18-13.71-1.23-2.01-.04-3.81-.8-5.7.34-1.49-1.24-3.14-.93-4.52-.17-6.71-4.13-11.91-11.03-15.94-17.74,2.32-3.02,1.22-8.73-1.78-11.42-.36,2.1-.86,3.19-2.32,4.13-4-7.8-6.96-16.47-7.85-25.22,2.17.86,1.91,2.23,4.56.95,1.13-.55.68-1.54.87-3.23.76.04,7.35-.3,5.72,1.39Z"/><path class="r" d="M137.91,4.43c11.59,3.11,22.96,7.42,33.07,14.28,11.57,7.85,21.57,17.96,27.96,30.48.57,1.11,1.02,2.06,1.73,3.16.26.65.51,1.47.78,1.98-.31.12-1.04.61-1.34.43l-1.41-.87c-.88-.55-1.82-1.16-2.75-1-1.07.18-1.27,1.19-2.19,2.23-1.28-.77-1.58-2.35-2.11-3.54,1.75.03,3.6.04,5.51-.23-3.31-1.44-6.77-.49-10.15-1.04-.58-4.7.32-9.61-.76-14.59-1.17,4.74-.08,9.65-.73,14.3-.19.14-.68.2-.97.2-1.34-3.77-5.32-1.21-7.29-1.27-2.38-5.98,1.97-5.06,1.83-7.61-.16-2.78-4.7-3.82-7.14-5.06-1.13-3.87,1.31-6.1-1.22-6.77v-1.07c3.05-.72,6.21.39,9.56-.67-3.28-.41-6.5-.17-9.59-.19l-7.09-.05c-.53-.13-1.29-.32-1.89-.19l-.1-5.73c-2.44-.13-4.7-.23-7.14.07-.04,1.36-.09,2.51-.06,3.72-.22.48-.24,1.14-.27,1.93l-21.33.02c-.6-4.52.35-8.74-.75-13.17-1.09,4.44-.05,8.8-.61,13.23l-10.9-.06c-.98-6.22-10.07,1.26-10.76-4.68-.9.22-1.63.27-1.9-.55-.18-.56-.43-1.69.5-1.75.63-.04.97.92,1.26,1.45-.19-1.19,4-1.34,3.06-3.01-.39-.7-2.01.07-2.09-1.42,0-.19,1.79-1.7,3.01-1.59.92.09.73.92.69,1.85,1.33.56,3.79.57,5.17-.06,1.22-.56,2.56-2.45,2.96-3.72-4.37-.95,2.53-5.62,3.67-7.23,7.9.36,4.37-1.56,6.93-2.04,1.71-.32,2.39,1.62,3.87.93.41-.19.77-.68.96-1.12Z"/><path class="g" d="M142.07,126.07c-.92,1.48-1.74,3.03.13,4.69l16.56,14.82c1.93,1.72,4.35,1.81,6.6.96-.49.64-1.19,1.57-1.53,2.33h-13.49c-.92-1.23-2.54-1.87-3.75-3.03-2.04.96-4.01,1.13-5.9.05-1.02.3-2.05.58-2.99.65-.5-1.1-1.21-2.06-2.04-2.33-1.18-.39-1.81.9-2.94,1.7-.87-3.55.68-7.13-.62-10.69-1.19,3.68-.04,7.33-.57,10.73-2.65,1.2-5.3,1.78-7.36-.27,2.04-.68,3.61.38,5.46-.06,1.02-.24,1.71-1.25,1.36-2.29-.23-.68-.97-1.83-1.43-2.52.49-1.05,1.44-1.43.93-2.39-.81-1.5-1.23-.87-2.23-.9-2.1-.07-2.71,1.53-3.91,2.08-10.28,2.1-24.04,3.13-33.43-.74-.45-.45-.91-1.62-1.45-1.79-.86-.27-1.46.11-2.24.59l-3.25-1.29c-1.42-.91-2.82-1.51-3.85-2.64-.87-.95-1.83-1.72-2.19-2.9-.48-1.59-.08-2.87,1.41-3.87.19.01.52.61.71.48.22-.16.49-.73.51-.96.46-.09.97-.11,1.48-.14-.15.26.07,1.13.4,1.05.92-.22,1.83-.57,2.41-1.14.18.69.89,1.08,1.59,1,.58-.07,1.25-.56,1.83-.8,1.36-.53,3.07-.02,4.49-.14,1.49,2.74,6.11,3.16,9.12,2.23,1.01-.31,2.13.09,2.78.49,1.66,1.02.42,5,1.63,6.12,1.29.1,1.88-1.15,2.32-2.61,5.81,5.16,22.06,2.59,26.69-4.16-.21-1.09-.24-2.31.05-3.45.21-.81-1.04-1.56-1.48-1.09.02.5.15,1.82-.38,2.02-.47.18-1.3-.13-1.95-.28-4.37-1.04-9.24-.04-13.95-.4l-.28-1.06c4.19-1.29,10.76-5.39,13.8-7.99l10.93,9.96ZM133.31,139.47l-.45.71c-.08.13.36.12.51.1s.3-.32.34-.47c.03-.11-.34-.43-.4-.33Z"/><path class="t" d="M150.34,148.86l-93.08.02c.24-.66,1.14-1.68,1.77-1.81.85.32,1.68.64,2.49.46.69-.15.57-1.77,1.07-2.16,6.23-.77,3.92-5.16,6.91-1.82.93-1.01,1.93-2.14,2.91-2.3,4.65-.76,2.65,4.22,6.84,3.62.82.95-.29,2.29.93,2.96.84-2.07-.47-4.38.7-6.24.8-.89-.98-1.64-.34-3.03,1.04-.78,3.17-.88,3.44-2.21l3.25,1.29c.78-.47,1.38-.86,2.24-.59.54.17,1,1.34,1.45,1.79,9.39,3.87,23.15,2.85,33.43.74,1.2-.55,1.81-2.15,3.91-2.08,1,.03,1.42-.59,2.23.9.52.96-.44,1.34-.93,2.39.46.7,1.2,1.85,1.43,2.52.35,1.04-.34,2.04-1.36,2.29-1.86.44-3.42-.62-5.46.06,2.06,2.05,4.71,1.47,7.36.27.53-3.4-.61-7.05.57-10.73,1.31,3.56-.24,7.14.62,10.69,1.13-.8,1.76-2.09,2.94-1.7.83.27,1.54,1.23,2.04,2.33.94-.07,1.97-.35,2.99-.65,1.89,1.07,3.85.91,5.9-.05,1.21,1.16,2.83,1.8,3.75,3.03Z"/><path class="h" d="M53.61,69.12c-1.22-.09-2.49-.51-3.89-.43-.97.05-1.21,1.63-1.48,2.33-.1-.64-.37-1.4-.57-2.02.62-1.31.32-2.96-.49-4.03-.86-1.13-2.26-1.66-3.78-1.96,1.8-3.84,5.63-2.05,6.98-3.22.15-.13.1-.74-.08-.67l-1.07.46c-1.86.8-5.4.67-6.43,3.14l-3.45-.5c-.44-2.19-.76-5.25-3.17-6.02,1.26,2.15,3.46,4.37,2.04,6.33-1.16-.42-2.67.22-3.63.8-.19-1.01-4.92,2.44-4.44,3.65-4.67-.1-19.72-2.51-23.14.61.66-1.19-2.77-2.49-2.94-2.49-.32,0-2.53,3.88-1.58,6.58.51,1.46,1.63,2.6,3.25,3.23-.28-.05-1.02.05-1.19.28-.19.26.32.89.51,1.16-.99.01-1.95.3-2.65.93-1.6,1.46-.07,4.81-2.28,5.08-.02-1.29.18-3.88.42-5.15.27.17.95.29,1.17.06.32-.33.54-.9.12-.95l-1.25-.17c.35-6.6,2.49-12.9,4.64-19.01,1.17-.18,2.45-.06,3.68-.14,4.6-3.26,6.71,3,10.39-3.1.65.11,1.38.25,1.74.29s1.04-.86.92-1.15l-.9-.58c-.2-.13-.23-.67-.2-.92,1.84.16,3.87-.31,5.73-.04.64,4.69-.51,9.38.71,14.15,1.27-4.78.09-9.4.61-14.3l25.63.53.07,17.22Z"/><path class="i" d="M120.57,27.36l10.9.06c.56-4.43-.48-8.79.61-13.23,1.1,4.44.15,8.66.75,13.17l21.33-.02c.02-.79.05-1.44.27-1.93l.07,2.86-1.8-.03c-2.17-.69-5.18-.8-7.31,0l-12.8.07.18,21.89,24.2-.06.13-1.96c.48-.39,1-.43,1.03.26l.07,1.72,26.36.06c.29,0,.78-.06.97-.2.65-4.64-.44-9.56.73-14.3,1.08,4.98.18,9.89.76,14.59,3.37.55,6.83-.4,10.15,1.04-1.92.27-3.76.26-5.51.23l-4.74-.08v13.34c.01.28-.33.69-.55.7-.26,0-.65-.38-.65-.71v-13.31s-8.61-.16-8.61-.16c-4.39-.08-8.84-.19-13.24-.05-.33.01-.84.02-1.16,0-1.49-.1-2.85-.11-4.52-.06l.1,5.02.05,3.59c0,.23-.11.68-.12.9-.01.28,0,.75.03,1.04-.89,2.19.88,4.97-1.02,7.23-.68-5.9-.05-11.78-.33-17.66l-24.16-.03-.06,7.44c-.37-.4-.91-.93-1.33-1.29.2-1.86.16-3.8.05-5.81-2.88-.03-5.43-.16-8,.09-.58-.34-1.41-.79-1.99-1.09,3.11-.8,6.47,0,10.09-.35l.07-21.87h-25.12s-.19,18.42-.19,18.42c-.16-.01-.47,0-.64-.01l-.16-18.18-24.97-.08v22.16s5.64.11,5.64.11c-.54.25-1.43.72-1.92,1.06l-3.65-.08-.18,2.7c-.24.17-.6.38-.82.56l-.08-3.32-24.77-.18-.02,17.87c-.24.21-.74.26-1,.23l-.07-.6-.07-17.22-25.63-.53c-.52,4.89.66,9.51-.61,14.3-1.21-4.77-.07-9.46-.71-14.15-1.87-.27-3.9.2-5.73.04-3.61-.31-7.48.84-11.26-.58,5.75-1.15,11.37-.1,17.15-.73l.05-21.83-1.12-.32,2.27-1.97c-.04.1.05.94.31.94l25.31.26c.53-3.55-.47-6.85.57-10.33.95,3.47.14,6.88.59,10.36l24.78.12c.59-4.97-.44-9.92.54-15.15.9,5.02,0,9.97.6,15.11l24.84.04c.45-4.54-.33-9.06.45-13.64,1.21,4.55,0,8.92.67,13.51,4.53.03,9.26-.01,13.95.01ZM27.75,28.09l-.12,22.03,26.1.14.12-22.03-26.1-.14ZM54.54,28.3l-.12,22.17,25.26.14.12-22.17-25.26-.14Z"/><path class="t" d="M161.68,125.57l19.07.44c.07,2.21,2.19,3.55,3.68,5.02.54,1.9-2.13,2.28-3.14,2.95-2.21,1.46-.57,4.02.1,5.78.35.91.64,2.26,1.26,3.28.42.69,1.9.56,3.03.9.95.29,1.32-.33,1.76-1.14.29-.52.05-1.18-.06-1.98-.13-1.02.5-1.63,1.33-1.79.89-.17,1.49.19.99,1.33,2.45.02,1.98-2.5,2.85-3.59,1.11-1.4,2.47-4.48.86-6.26-.2-.95,1.26-2.02,2.33-2.12l.15-2.7,1.14-.05c1.3,1.16,3.07.48,4.68.95-.71,1.07-.79,2.77-1.96,3.49-.88-.39-1.81-.2-2.05.64s-.25,1.99.38,2.38c-2.25,4.01-5.12,7.86-8.76,10.92-2.2,1.85-4.72,4.32-7.64,4.63-6.03.64-11.94.21-17.85.21.34-.76,1.04-1.7,1.53-2.33,1.03-1.35,2.5-2.45,3.26-4.15.87-1.93.09-4.3-1.5-5.78l-9.29-8.66.06-2.35,3.79-.02ZM183.88,145.13l-.64.78.59.48.64-.78-.59-.48Z"/><path class="g" d="M190.54,76.38c2.18.63,4.3.83,6.43-.03.71.23,1.55.3,2.33.28,1.77,1.45,4.57,1.01,6.85,2.13.49.18,1.01.41,1,.93-.04,1.87-4.59.71-4.7,2.14,2.39.47,4.47.94,6.52,1.58.43,5.28.48,10.63.05,15.85-.23-.36-.33-1.14-.35-1.69-2.36.13-4.1,2.4-6.04,2.98-3.04.9-6.36-.68-9.38.66,1.8,1.39,4.18-.01,6.24.84l-2.62,3.25c-8.37,2.41-3.21,1.26-10.37,1.06.07-.9.02-1.72-.71-1.7-.49.28-.1,1.41-.13,1.89s-.07,1.07-.08,1.4c-.03.68-.78,1.19-1.26.47l-.8-1.18c-.21-.31-1.06-.18-1.56-.02-2.7-1.63-5.41-.41-8.07.8-.73-2.46-1.11-4.96-1.48-7.49.25,0,.97,0,1.12.24.17.27.5.89.61,1.2.99,2.71,2.89,3.85,5.75,3.27,1.14-.23,2.68.84,3.62.04,3.37-2.84.79-4.46,6.63-4.72,1.55-.07,2.22-.24,3.36-1.22s3.1.02,3.92-1.15c.26.23.98.29,1.52.1-4.7-3.6-4.38-7.13-7.1-11.49-.01-.22-.13-.64-.19-.87-.04-.38-.01-.93.1-1.21,3.77.8,6.55,2.97,10.14,4.5-2.82-3.52-7.2-4.92-11.04-6.73-.27-.39-.65-.94-.91-1.24-.37-1.58-1.52-2.87-2.41-4.25-.13-.2-.3-.61-.41-.84.88.65,2.51.47,3.41.19Z"/><path class="h" d="M191.66,51.57c.53,1.2.83,2.77,2.11,3.54.92-1.04,1.11-2.05,2.19-2.23.93-.16,1.87.45,2.75,1l1.41.87c.3.18,1.03-.31,1.34-.43,1.84,3.53,2.96,7.37,4.1,11.15-.23.34-.48.92-.71,1.41-.27.04-1.17-.45-1.43-.25s-.53.81-.69,1.16c-2.42-1.63-5.77-1.73-8.75-1.53l-13.93.94c-.77-3.2-4.9-4.7-8.24-4.78-.04-2.03.66-4.18,2.25-5.31,1.01.48,1.94,1.5,3.17,1.61.85-1.73.75-3.19,2.44-4.19l-2.55-3.19,8.62.16v13.31c-.01.32.38.72.64.71.22,0,.57-.41.57-.7v-13.34s4.73.08,4.73.08Z"/><path class="r" d="M20.85,51.55c-.03.24,0,.79.2.92l.9.58c.11.29-.56,1.19-.92,1.15s-1.09-.18-1.74-.29c-3.68,6.1-5.79-.16-10.39,3.1-1.23.07-2.51-.04-3.68.14,3.99-11.29,11.4-21.19,20.44-29.05l1.12.32-.05,21.83c-5.78.62-11.4-.43-17.15.73,3.78,1.42,7.65.27,11.26.58Z"/><path class="t" d="M209.02,99.26c-.4,5.25-1.23,10.64-2.87,15.64-.78,0-1.82.03-2.43.56-.55.48-1.08,1.69-.42,2.33.89-.8,1.53-1.39,2.45-1.39-.51,2.17-1.44,4.23-2.3,6.24-.17,0-.53-.01-.69,0-.21,0-.29.66-.44.81-.62.6-1.48-.56-2.01-.73-1.8-.12-3.18-.78-3.82-2.74l2.49-.29c.51-.79,1.36-1.31,2.2-1.82-.27-2.14-2.66-3.28-4.79-3.13-3.62.25-6.69-.81-9.92-2.19v-.23s-.01-5.68-.01-5.68l-.8-.08c.04-.48-.35-1.61.13-1.89.73-.02.78.79.71,1.7,7.16.2,1.99,1.34,10.37-1.06l2.62-3.25c-2.06-.85-4.44.55-6.24-.84,3.03-1.34,6.34.24,9.38-.66,1.94-.57,3.68-2.85,6.04-2.98.02.55.12,1.33.35,1.69Z"/><path class="t" d="M23,76.4c-.11.12-.15.47-.19.63l-1.25,1.7-6.36.3c-1.09.05-1.88,1.29-3.14.54-2.62,3.74.05,1.09-1.29,5.33-.43,1.35-2.56.47-5,3.95,1.5,1.4,2.52,2.66,3.05,4.1,2.37-.23,4.76.13,6.77,1.18-.56,1.11-1.2,2.45-2.42,3l-1.04-.44c1.62-1.69-4.96-1.35-5.72-1.39-.19,1.69.27,2.68-.87,3.23-2.65,1.28-2.39-.08-4.56-.95-.32-3.19-1.06-6.41-.86-9.68,1.12-1.29,2.38-2.44,3.84-3.57-.04-1.08-1.28-2-1.02-2.86,1.55-5.15,11.37-1.75,11.99-4.66.92,0,2.09.06,2.97-.2.38.92,1.78,1.98,2.75,1.24.33-.25.35-1.37.74-1.39.47-.03,1.17-.05,1.64-.06Z"/><path class="s" d="M203.45,122.65c-.58,1.33-.92,2.72-1.74,3.96-1.6-.46-3.38.21-4.68-.95.6-.04,1.23-.25,1.47-.83l-11.94-.38c-.08-3.21-.27-8.94-.09-11.89,3.23,1.38,6.3,2.44,9.92,2.19,2.13-.15,4.52.99,4.79,3.13-.84.51-1.69,1.03-2.2,1.82l-2.49.29c.64,1.96,2.02,2.62,3.82,2.74.53.17,1.39,1.33,2.01.73.14-.16.23-.81.44-.81.17,0,.53,0,.69,0Z"/><path class="s" d="M208.97,83.41c-2.05-.64-4.13-1.1-6.52-1.58.11-1.43,4.66-.27,4.7-2.14.01-.52-.52-.75-1-.93-2.28-1.12-5.08-.69-6.85-2.13l3.67-.09c.82-2.09-3.38-.86-3.84-1.43,1.55-.66,3.8-.84,4.72-2.43.68-1.17.19-3.98-1.14-4.88.16-.35.43-.95.69-1.16s1.16.29,1.43.25c.23-.49.49-1.08.71-1.41,1.75,5.82,2.92,11.85,3.42,17.93Z"/><path class="s" d="M5.05,76.35c2.79-.04,5.61.54,8.35.05l1.5.42c-.61,2.9-10.43-.49-11.99,4.66-.26.86.98,1.78,1.02,2.86-1.45,1.13-2.72,2.29-3.84,3.57.09-1.44-.25-3.26-.03-4.69.32.06.26-.43.03-.46,0-.11.02-.3.02-.4,2.21-.27.67-3.62,2.28-5.08.69-.63,1.65-.91,2.65-.93Z"/><path class="r" d="M12.92,130.09c-1.44-2.4-2.82-4.79-4.1-7.29,1.46-.94,1.96-2.04,2.32-4.13,3,2.69,4.1,8.4,1.78,11.42Z"/><path class="t" d="M52.79,148.88l-20.75.03c-1.33,0-2.26-.51-3.19-1.08,1.38-.76,3.03-1.07,4.52.17,1.89-1.14,3.7-.38,5.7-.34,2.59.05,14.06-1.25,13.71,1.23Z"/><path class="s" d="M206.15,114.91c-.14.42-.3,1.06-.4,1.51-.93,0-1.56.59-2.45,1.39-.66-.64-.13-1.85.42-2.33.61-.54,1.65-.57,2.43-.56Z"/><path class="s" d="M199.75,130.1c0,1.17-1.15,2.09-1.67,3.02-.63-.39-.61-1.55-.38-2.38s1.17-1.02,2.05-.64Z"/><path class="r" d="M.55,77.21c.05-.26.02-.78.03-1.06l1.25.17c.42.06.2.62-.12.95-.21.22-.9.11-1.17-.06Z"/><path class="j" d="M27.77,108.66l.05,15.79,17.05.04,8.77.18v-5.95c0-1.49.11-3,0-4.49-.04-.49.2-1.46.18-1.95l.57.64c.04.28.18.84.17,1.12-.08,2.63-.12,7.72.11,10.58l21.88.29.61.15.42.98-4.26.21-1.06-.03-5.21-.15-12.4-.07.02,4.48c0,.65-.09,1.45-.14,2.12-.17,2.36.56,4.91-.44,7.41-.83-4.65-.04-9.15-.57-13.98l-25.71-.38c-.18,2.71.21,5.1-.38,7.55-1.32-2.34-.35-4.71-.8-7.12-3.7-.62-7.68.3-11.68-.94,3.9-.77,7.74.03,11.75-.45l.08-14.94v-.94c.01-.19.15-.57.33-.75.16-.16.65.37.65.6Z"/><path class="g" d="M19.38,92.42c.36,1.72,1.17,3.22,2.2,4.64-.45.9-.14,3.12.63,3.65,1.55.34,3.19-.78,4.32.81l-3.8.29c1.75.77,2.34,2.69,4.03,2.87-.22.95-1.25.06-2.04.16-1.71.21-3.34,1.84-5.11,1.27-1.36-.44-2.53-1.2-3.84-1.41-2.49-.4-7.4-.18-8.29-2.83l12.1-.05c.64,0,1.32-.49,1.1-1.13l-13.34.03c.4-2.76,2.92-3.24,4.77-4.02l1.04.44c-.37.16-.92.96-.6,1.24,1.24-.26,2.36-1.18,3.19-2.08,1.01,1.3,3.31.78,4.43-.7-1.18-.46-2.25-.64-3.33-.83.54-1.33,1.25-2.59,2.02-3.87.21.6.43,1.11.51,1.52Z"/><path class="t" d="M29.63,109.07l-1.86-.41c0-.23-.49-.76-.65-.6-.17.18-.32.56-.32.75v.94c-.6.59-1.33.14-1.93-.23l-7.31,2.02c-.86-.55-1.73-1.1-2.71-.98l.48,1.95c-1.68.31-2.98-1.06-3.35-2.54-.32-1.31.96-2.85,2.29-3.44l1.29-.57c.3-.13.27-.99.22-1.28,1.31.21,2.49.97,3.84,1.41,1.77.57,3.39-1.05,5.11-1.27.79-.1,1.82.79,2.04-.16l.13-.73c1.23.07.84,1.65.69,2.91l2.04,2.22Z"/><path class="t" d="M72.26,126.23l.55.51c.13.12.51-.38.51-.48l4.26-.21c1.02-.05,2.06.61,3,.42-.02.22-.29.8-.51.96-.18.13-.52-.47-.71-.48-1.49,1-1.89,2.28-1.41,3.87.35,1.18,1.32,1.95,2.19,2.9-.16.36.05.95-.26.98l-1.43.13c-1.3.12-2.34.13-3.16-.97-2.63-3.56-4.37,1.11-8.36-3.73-.27-1.46.11-2.78.12-4.04l5.21.15Z"/><path class="t" d="M54.54,132.61c.05-.66.14-1.47.14-2.12,4.5,2.15,10.01.96,11.28,1.75.2.12-.14.73-.37.77l-1.21.24c-.99,1.16.09,2.84-.86,4.21-3.04.55-5.56-1.97-6.09-4.98l-2.89.14Z"/><path class="h" d="M184.56,50.22l-26.36-.06-.07-1.72c-.03-.69-.55-.65-1.03-.26l-12.9-1.24c-.5-.05-.85-.62-.87-.99l30.53.3c.5,0,.88-.45.88-.82,0-.35-.4-.77-.86-.77l-15.45-.03c-.07-.26-.13-.61-.07-.83.19-.6,2.26-.42,2.44-1.13.17,0,.49-.05.68-.08.17.6.35,1.19,1.1,1.6l.14-2.55.1-6.74c.01-.77.4-1.76.59-2.4l.06,10.04,7.2.03.05-13.06c2.53.66.09,2.9,1.22,6.77,2.45,1.24,6.98,2.28,7.14,5.06.15,2.55-4.21,1.63-1.83,7.61,1.97.06,5.95-2.5,7.29,1.27Z"/><path class="j" d="M170.74,28.44l-.03-.86c3.09.02,6.3-.22,9.59.19-3.35,1.06-6.51-.05-9.56.67Z"/><path class="f" d="M92.78,126.29c2.3-.19,4.7.28,6.87-.32,2.56.13,5.12.26,7.67.08l-.08,4.72c.38.42.82.82,1.51,1.41.71-2.22,1.22-4.23,1.55-6.38.06,0,.18.02.23.03,1.4.5,3.56.32,5.14.38l3.14,7.37c2.74-.01-1.25-5.81-.82-7.37l9.66.02c1.41,0,2.77-.1,3.91-.68.65.16,1.49.46,1.95.28.53-.2.4-1.52.38-2.02.43-.47,1.68.28,1.48,1.09-.29,1.14-.27,2.36-.05,3.45-4.63,6.75-20.88,9.32-26.69,4.16-.44,1.46-1.04,2.71-2.32,2.61-1.22-1.12.03-5.1-1.63-6.12-.65-.4-1.76-.8-2.78-.49-3.01.93-7.63.52-9.12-2.23Z"/><path class="s" d="M93.24,124.86c2.12-.06,4.29,1.01,6.41,1.11-2.17.61-4.57.13-6.87.32-1.42.12-3.13-.39-4.49.14-.58.24-1.25.73-1.83.8-.7.08-1.41-.31-1.59-1l1.33-1.31c2.34.37,4.74.01,7.04-.06Z"/><path class="t" d="M131.57,125.55c-1.14.57-2.5.68-3.91.68l-9.66-.02c-.14-.3-.29-.71-.38-1.06,4.71.36,9.58-.64,13.95.4Z"/><path class="h" d="M80.54,118.76c-.24,1.97-.03,3.96.04,6.2l3.05.19c-.42.31-.97,1.14-1.57,1.18-.51.03-1.01.04-1.48.14-.94.19-1.98-.47-3-.42l-.42-.98,2.44-.14.12-6.79c.23.17.61.5.83.64Z"/><path class="t" d="M133.31,139.47c.06-.1.43.22.4.33-.04.15-.19.45-.34.47s-.6.03-.51-.1l.45-.71Z"/><path class="s" d="M7,67.58c-1.08.99-1.65,3.11-1.4,4.37.34,1.69,2.18,1.82,3.5,2.71l-.37.55c-.82-.01-2.25-.17-2.99-.31-1.62-.64-2.74-1.78-3.25-3.23-.95-2.7,1.26-6.58,1.58-6.58.17,0,3.6,1.3,2.94,2.49Z"/><path class="s" d="M53.61,69.12l.07.6c-.02.78-.01,2.28-.23,3.06-1.68-.59-3.54-.81-5.2-1.55v-.22c.27-.7.51-2.27,1.48-2.33,1.4-.08,2.67.34,3.89.43Z"/><path class="r" d="M5.73,74.9c.74.14,2.17.29,2.99.31.51,0,1.41.27,1.47-.36,1.15.23,2.22.85,3.21,1.55-2.75.48-5.56-.1-8.35-.05-.19-.27-.7-.9-.51-1.16.17-.23.91-.34,1.19-.28Z"/><rect class="r" x="29.72" y="26.13" width="22.03" height="26.1" transform="translate(1.33 79.7) rotate(-89.68)"/><rect class="r" x="56.03" y="26.82" width="22.17" height="25.26" transform="translate(27.28 106.34) rotate(-89.68)"/><path class="r" d="M121.41,50.68c-3.9-1.9-11.25-3.46-15.15-3.8l.19-18.41h25.12s-.07,21.85-.07,21.85c-3.62.36-6.98-.45-10.09.35Z"/><path class="h" d="M158.26,61.81c1.64,1.4,2.99,3.04,5.12,3.64-.58,1.76-.5,3.74-.61,5.57l-12.44,4.04c-2.63-.15-5.33-.28-7.93.03-2.1-6.14-5.3-11.56-9.72-16.31l.06-7.44,24.16.03c.28,5.88-.35,11.76.33,17.66,1.9-2.26.13-5.03,1.02-7.23Z"/><path class="r" d="M105.62,46.87c-6.83-.24-13.28,1.18-19.49,4.01l-5.65-.11v-22.16s24.97.08,24.97.08l.16,18.18Z"/><path class="h" d="M79.56,55.12c-6.7,5.28-11.44,11.87-14.17,19.95-1.73-.25-3.58-.21-5.32.02l-6.62-2.31c.22-.78.22-2.28.23-3.06.26.03.76-.02,1-.23l.02-17.87,24.77.18.08,3.32Z"/><path class="r" d="M145.39,28.24l.03,4.02c-1.1,2.03.08,4.94-1.25,7.29.68,1.2,1.28,2.22.48,4.02l7.22-.09c.19,0,.63-.12.78-.2.11-.06.04-.38.05-.51.08-1.17.02-3.41.02-4.68.62-.97.75-2.34,1.34-3.63.72-1.57-.56-3.6.51-5l-.02,13.15,6.27.06c-.18.72-2.25.53-2.44,1.13-.07.21,0,.57.07.83l-14.29.09c-.23,0-.87.15-.86.36l.05.86c.02.38.36.95.87.99l12.9,1.24-.13,1.96-24.2.06-.18-21.89,12.8-.07Z"/><path class="s" d="M163.87,51.31c.27.69.46,1.23.09,2.17,1.64-.67,2.7.23,3.76,1.2,1.4,1.29,1.09,2.58.76,4.64,1.07.03,2.47-1.63,2.89-1.35.19.13.41.39.58.62-.38,1.2-.69,2.52-.94,3.82-1.12.02-2.08.1-3.44.37-2.39-3.46-3.07-2.1-7.14-3.52-.17-.06-.32.53-.17.64,1.56,1.19,5.46-.37,6.59,3.16-1.25.51-3.04,1.1-3.47,2.39-2.13-.6-3.49-2.25-5.12-3.64-.02-.29-.04-.76-.03-1.04.2,0,.74-.28.6-.43l-.48-.48-.05-3.59c1.44-.55,2.85-1.15,4.4-1.09,1-1.11.2-2.66.02-3.87.32.02.83,0,1.16,0Z"/><path class="r" d="M177.11,51.36l2.55,3.19c-1.68,1-1.59,2.46-2.44,4.19-1.23-.11-2.16-1.13-3.17-1.61l-.21-.56c-.06-.16-.54.12-.66.28l-1.23,1.74c-.17-.22-.39-.49-.58-.62-.42-.29-1.82,1.38-2.89,1.35.33-2.05.64-3.35-.76-4.64-1.06-.98-2.12-1.87-3.76-1.2.37-.94.18-1.48-.09-2.17,4.4-.15,8.85-.03,13.24.05Z"/><path class="h" d="M131.35,57.49c-2.51-2.12-5.13-4.04-7.95-5.72,2.57-.25,5.13-.12,8-.09.1,2.01.15,3.94-.05,5.81Z"/><path class="r" d="M162.71,51.32c.19,1.2.98,2.76-.02,3.87-1.56-.05-2.96.55-4.4,1.09l-.1-5.02c1.66-.05,3.03-.04,4.52.06Z"/><polygon class="h" points="84.21 51.94 80.38 54.56 80.56 51.86 84.21 51.94"/><path class="h" d="M158.23,60.77c.01-.23.12-.68.12-.9l.48.48c.15.15-.4.42-.6.43Z"/><path class="s" d="M195.89,125.71l-.15,2.7c-1.08.09-2.53,1.16-2.33,2.12,1.62,1.78.25,4.86-.86,6.26-.87,1.09-.39,3.62-2.85,3.59.51-1.14-.09-1.5-.99-1.33-.83.16-1.47.77-1.33,1.79.11.8.35,1.46.06,1.98-.45.8-.81,1.43-1.76,1.14-1.12-.35-2.61-.21-3.03-.9-.62-1.02-.91-2.37-1.26-3.28-.68-1.76-2.31-4.32-.1-5.78,1.01-.67,3.68-1.05,3.14-2.95-1.49-1.47-3.61-2.81-3.68-5.02h4.65c.49,2.5-.38,4.92.68,7.42,1.06-2.55.09-5.04.56-7.55l9.26-.18Z"/><path class="j" d="M186.49,112.33v.23c-.19,2.95,0,8.68.08,11.89l11.94.38c-.25.58-.87.8-1.47.83l-1.14.05-9.26.18c-.46,2.5.51,5-.56,7.55-1.06-2.5-.19-4.92-.68-7.42h-4.65s-19.07-.44-19.07-.44l-.43-1.09,17.98.08,6.27.05.07-13.07.92.79Z"/><path class="h" d="M157.58,118.73c-.08,1.87,2.02,2.43,2.39,4.51-.98-.04-1.16-.75-2.13-1.37l-.02,2.45c1.29.04,2.34.16,3.43.16l.43,1.09-3.79.02-.06,2.35-3.64-3.25,2.55-.21c-.42-2.09.45-3.95.43-5.83l.41.07Z"/><rect class="s" x="183.35" y="145.38" width="1.01" height=".76" transform="translate(-45.45 195.46) rotate(-50.64)"/><path class="s" d="M185.66,106.57l.8.08.03,5.68-.92-.79-.07,13.07-6.27-.05c-1.79-3.61-5.87-.34-7.54-5.14-.45-1.29-2.03-1.34-2.88-2.23-.79-.83.48-2.16.35-3.15-.53-.17-1.68-.33-2.11-.57-.39-.22-.35-1.37-.26-1.83,2.65.06,5.57-.85,6.49-3.16.22-.07.48-.25.62-.43,2.66-1.21,5.37-2.43,8.07-.8.5-.16,1.34-.3,1.56.02l.8,1.18c.49.72,1.23.2,1.26-.47.02-.33.05-.9.08-1.4Z"/><path class="f" d="M174.84,94.17c.9,1.06,2.19,2.02,3.53,2.3,1.47,1.93,9.55,3.28,11.57.2,2.47-.42,5.24,1.18,5.75.02.45.53,1.21,1.05,1.73,1.53-.82,1.17-2.81.19-3.92,1.15s-1.81,1.15-3.36,1.22c-5.84.27-3.26,1.89-6.63,4.72-.94.79-2.49-.27-3.62-.04-2.86.58-4.75-.56-5.75-3.27-.11-.31-.45-.93-.61-1.2-.15-.24-.87-.23-1.12-.24-.37-2.62-.29-5.32.76-8.05.48.86,1.3,1.23,1.67,1.67Z"/><path class="r" d="M199.14,75.11c.45.57,4.65-.66,3.84,1.43l-3.67.09c-.77.02-1.61-.05-2.33-.28.55-.64,1.4-.91,2.16-1.23Z"/><path class="g" d="M21.56,78.73c-.48.65-.7,1.67-1.07,2.39l-.66,1.3c-3.66,1.71-7.77,3.26-10.44,6.62,3.34-1.51,6.12-3.56,9.62-4.43.23.04.25.78.18,1.14-.11.53-.26,1.18-.25,1.71-1.83,1.7-1.59,4.73-3.33,6.67-2.01-1.05-4.4-1.41-6.77-1.18-.53-1.44-1.55-2.7-3.05-4.1,2.44-3.49,4.57-2.6,5-3.95,1.35-4.24-1.33-1.59,1.29-5.33,1.26.74,2.05-.49,3.14-.54l6.36-.3Z"/><path class="s" d="M53.79,111.61c-.7-1.49-4.78-.23-5.22.22s-.83,1.75-.17,2.03c1.98.83,3.73,1.61,5.25.38.11,1.49,0,3,0,4.49-3.45-2.4-3.87.45-9.77-1.45l1.55,3.82c.51,1.25.08,2.39-.55,3.4l-17.05-.04-.05-15.79,1.86.41c1.12.32,2.73.7,3.64-.33,1.14.98,2.51-.45,3.91-.7.19.21.52.36.82.4.37,1.8,2.8,2.64,4.36,2.8,2.33.24,3.52-.85,5.16-2.09.91-.69,2.97-1.1,3.18-2.64-.72-.63-1.58-2.16-.82-3.09.46-.56,1.32-.9,1.38-1.61.81.03,1.55.03,2.39.13l.14,9.68Z"/><path class="t" d="M66.86,102.02c.57.92,1.08,1.99,1.38,3l-5.57.84c1.67,4.47,3.88,8.47,6.13,12.28,1.63,1.09,3.24,2.47,4.48,3.96-1.3.13-2.52.71-3.94,1.4-2.12-4.52-6.54-2.05-7.07-7.12-2.63-.75-5.23-1.31-7.7-2.34,0-.28-.13-.84-.17-1.12l.29-10.84,12.18-.07Z"/><path class="g" d="M79.71,118.12l-.12,6.79-2.44.14-.61-.15c-.39-1.05-.61-1.69.21-2.95-1.42,0-2.41.04-3.49.14-1.24-1.49-2.85-2.87-4.48-3.96-2.24-3.81-4.46-7.81-6.13-12.28l5.57-.84c3.16,5,6.72,9.51,11.48,13.11Z"/><path class="s" d="M73.27,122.1c1.08-.11,2.06-.14,3.49-.14-.82,1.26-.61,1.9-.21,2.95l-21.88-.29c-.23-2.86-.19-7.95-.11-10.58,2.47,1.02,5.07,1.59,7.7,2.34.53,5.07,4.95,2.6,7.07,7.12,1.41-.69,2.63-1.27,3.94-1.4Z"/><path class="h" d="M53.65,118.73v5.95s-8.77-.18-8.77-.18c.63-1.01,1.06-2.14.55-3.4l-1.55-3.82c5.9,1.9,6.32-.96,9.77,1.45Z"/><path class="l" d="M66.29,100.53l.57,1.49-12.18.07-.29,10.84-.57-.64-.03-.68-.14-9.68c-.84-.1-1.58-.1-2.39-.13l-4.94-.16-.21-.9c.3-.02.83-.04,1.1.02.48.11,6.41.11,6.43-.33l.08-1.45c.14-.22.81-.07.81.2v1.7c3.92-.29,8.05.5,11.76-.36Z"/><path class="h" d="M53.79,111.61l.03.68c.03.49-.21,1.46-.18,1.95-1.52,1.23-3.27.45-5.25-.38-.66-.27-.25-1.59.17-2.03s4.52-1.7,5.22-.22Z"/><path class="h" d="M73.32,126.25c0,.09-.38.6-.51.48l-.55-.51,1.06.03Z"/><path class="f" d="M38.84,100.57c-2.27.46-4.81-.85-7.03.9,2.36.21,4.65.14,6.86.19-.05.28-.17.78-.23,1.04-2.34-.09-4.75,4.38-8.39,2.55-1.53-.77-2.61-1.76-2.44-3.82-1.3.63-.72,1.71-.7,2.51l-.13.73c-1.69-.18-2.29-2.1-4.03-2.87l3.8-.29c-1.13-1.59-2.77-.46-4.32-.81-.78-.53-1.09-2.75-.63-3.65,2.81,2.22,8.21,1.21,11.11-.52.95-.57,2.88-1.48,3.38-2.41.26-.49,1.29-.96,1.76-1.63.97,2.67,1.43,5.43,1.01,8.07Z"/><path class="t" d="M15.75,96.3c.34-.39.69-1.18,1.1-1.53,1.08.19,2.15.36,3.33.83-1.11,1.49-3.42,2-4.43.7Z"/><path class="g" d="M38.43,102.7c-.06.93-.39,2.34-.83,3.21-2.02-.61-3.67.93-4.33,2.83-.91,1.03-2.52.65-3.64.33l-2.04-2.22c.15-1.26.55-2.85-.69-2.91-.03-.8-.61-1.89.7-2.51-.17,2.06.91,3.05,2.44,3.82,3.64,1.84,6.05-2.64,8.39-2.55Z"/><path class="t" d="M156.71,84.73l.21,6.21c-2.85.77-8.91-.24-11.02,2.52-1.28,1.67.91,3.55,2.37,4.3,2.66,1.37,5.45,1.06,8.53,1.05l.12-6.12c1.47.66.73,1.83.93,2.76-.21.08-.5.55-.55.77-.05.19.39.45.56.5,0,.66.03,1.33.13,1.96l-.14.41c-.1.03-.93-.19-.94.04l-.09,1.51-11.95-.07c.26,1.33,1.36,1.29,2.23,1.29-.02.73.15,2.15.85,2.36,2.3.68,4.15.09,5.97-1.31l2.83,2.18c.03,4.55-.52,9.24.42,13.59.02,1.88-.85,3.74-.43,5.83l-2.55.21c-.63-.56-1.43-1.26-2.07-1.84,1.49-2.8-7.38-7.31-6.3-10.31l.89.44c1.57,1.62,3.44,3.19,5.59,4.32l-3.7-4.81c-.77-1.47-1.43-8.27-2.12-7.84l-1.17.74c.23-1.8-1.21-3.35-.63-4.84.8-2.02.24-5.31-1.22-6.84.45-2.67.61-5.42.65-8.12,1.24,1.68,10.54,1.41,12.58-.88Z"/><path class="g" d="M145.83,112.55c-1.09,3,7.78,7.51,6.3,10.31-1-.91-2.15-1.92-3.46-2.1s-2.58.76-3.4,1.81l-10.88-9.89c1.59-2.15,3.06-4.15,4.42-6.3l7.02,6.17Z"/><path class="g" d="M64.11,92.22c.14,1.72,1.09,3.43.82,5.09-3.12,1.62-6.9,1.7-10.38,1.46v-7.59c3.3-.26,6.49.24,9.57,1.04Z"/><path class="g" d="M148.61,112.5l-1.85-1.47c-2.41-1.91-4.47-4.39-6.94-6.28,1.31-3.63,3.01-7.17,3.66-11.03,1.46,1.53,2.01,4.82,1.22,6.84-.59,1.49.85,3.03.63,4.84l1.17-.74c.69-.44,1.35,6.36,2.12,7.84Z"/><path class="t" d="M63.69,86.65c.02,1.85.27,3.73.42,5.57-3.08-.8-6.27-1.3-9.56-1.04v7.59c3.47.24,7.25.16,10.37-1.46.77.83.95,2.14,1.36,3.22-3.7.86-7.83.07-11.75.36v-1.7c0-.27-.67-.42-.81-.2l-.08,1.45c-.02.44-5.95.44-6.43.33,1.33.19,1.82-1.44,2.86-2l3.59.15-.06-2.41c0-.24-.01-.64,0-.87l.12-4.48c.08.08.82-.06.82-.33l-.04-5.62c2.61,1.86,6.02,1.34,9.19,1.45Z"/><path class="t" d="M85.55,121.94c-.22,1.29-.88,2.45-1.92,3.21l-3.05-.19c-.06-2.23-.27-4.23-.04-6.2l5.01,3.18Z"/><path class="j" d="M150.34,75.06c-1.08.35-2.23,1.01-3.26,1.5-1.38-.2-2.82-.19-4.23-.21l-.43-1.26c2.6-.31,5.3-.18,7.93-.03Z"/><path class="s" d="M147.07,76.56c-2.15,1.01-2.52,3.16-3.37,5.17l-.86-5.38c1.42.02,2.85,0,4.23.21Z"/><path class="g" d="M44.71,101.78c.59,1.42,1.11,4.7,2.47,5.79.71-2.06-1.25-3.95-.87-5.92l4.94.16c-.06.71-.92,1.05-1.38,1.61-.76.93.1,2.46.82,3.09-.2,1.54-2.27,1.95-3.18,2.64-1.63,1.25-2.83,2.33-5.16,2.09-1.56-.16-3.99-1.01-4.36-2.8,1.37-2.01,1.58-4.52,2.36-6.82l4.35.15Z"/><path class="g" d="M49.06,93.63c1.31,1.26,2.79,2.75,4.54,2.87l.06,2.41-3.59-.15c-1.03.56-1.53,2.19-2.86,2-.27-.06-.8-.04-1.1-.02-.23-1.01-.43-2.19-.37-3.24.72-.44.73-1.49.82-2.58l2.5-1.29Z"/><path class="s" d="M44.44,100.6c.04.3.15.9.27,1.18l-4.35-.15c.09-.26.18-.76.25-1.05l3.84.02Z"/><path class="e" d="M161.73,27.35l-.03,1.09.02,13.26c0,.24-.15.67-.24.89-.18.03-.51.08-.68.08l-6.27-.06.02-13.15-.06-1.18-.07-2.86c-.03-1.21.02-2.37.06-3.72,2.44-.3,4.7-.2,7.14-.07l.1,5.73Z"/><path class="o" d="M170.71,27.58l.03.86v1.07s-.06,13.06-.06,13.06l-7.2-.03-.06-10.04c.1-1.09.07-3.03.02-4.04-.01-.24.12-.68.18-.93l7.09.05Z"/><path class="j" d="M163.62,27.53c-.06.25-.19.69-.18.93l-1.73-.03.03-1.09c.6-.13,1.36.06,1.89.19Z"/><path class="c" d="M152.71,28.25v9.84c0,1.27.07,3.51-.01,4.68h-7.37s.09-10.51.09-10.51l-.03-4.02c2.14-.79,5.14-.68,7.31,0Z"/><path class="l" d="M154.5,28.28l.06,1.18c-1.06,1.4.22,3.43-.51,5-.6,1.29-.72,2.66-1.34,3.63v-9.84s1.79.03,1.79.03Z"/><path class="e" d="M158.43,44.63l15.45.03c.47,0,.87.42.86.77,0,.37-.38.82-.88.82l-30.53-.3-.05-.86c-.01-.22.63-.36.86-.36l14.29-.09Z"/><path class="l" d="M163.44,28.46c.05,1.01.08,2.95-.02,4.04-.19.64-.58,1.63-.59,2.4l-.1,6.74-1,.05-.02-13.26,1.73.03Z"/><path class="r" d="M162.73,41.64l-.14,2.55c-.75-.41-.93-1.01-1.1-1.6.09-.22.24-.66.24-.89l1-.05Z"/><path class="s" d="M145.42,32.26l-.09,10.5h7.37c0,.14.06.45-.05.51-.15.08-.59.2-.78.2l-7.22.09c.8-1.79.19-2.82-.48-4.02,1.34-2.35.15-5.26,1.25-7.29Z"/><path class="t" d="M164.9,101.62c.44,1.53-2.61,6.27-.52,5.94-.2.57.18,1.68.65,2.08.51.44,1.3.68,1.99.69l-.14-1.8c2.17,1.37,3.77.23,5.69-.72l.7.67c-.92,2.31-3.83,3.22-6.49,3.16-.09.46-.13,1.61.26,1.83.43.24,1.58.4,2.11.57.13,1-1.14,2.32-.35,3.15.84.88,2.43.94,2.88,2.23,1.68,4.8,5.75,1.53,7.54,5.14l-17.98-.08c-1.09,0-2.14-.12-3.43-.16l.02-2.45c.98.62,1.15,1.32,2.13,1.37-.36-2.09-2.47-2.64-2.39-4.51l.1-4.24c.89.76,2.01,1.41,3.25,1.25.94-.12,2.19-1,2.35-2.23s-1.27-2.27-2.08-2.74c-1.28-.75-2.41-.33-3.55.22l.08-1.44c4.91-2.29,4.99,2.29,7.28,1.97.64-.45-.27-1.34-.5-1.8-.28-.56-1.65-.36-1.98-.78-1.36-1.68.05-3.71.41-5.57l-1.47-.6c-.28-.11.05-.82.18-1.11l3.24-.04Z"/><path class="j" d="M157.85,99.07l.15,1.42,4.1.04h3.01s-.2,1.08-.2,1.08l-3.24.04-3.89-.02c-.08,2.74.1,5.34-.05,7.92l-.08,1.44.03,3.49-.1,4.24-.41-.07c-.94-4.34-.39-9.04-.42-13.59l-.02-3.19-9.63-.03c-.87,0-1.97.04-2.23-1.29l11.95.07.09-1.51c.01-.22.84,0,.94-.04Z"/><path class="g" d="M170.47,100.56c.61,2.39,1.33,4.92,2.1,7.25-1.91.95-3.52,2.09-5.69.72l.14,1.8c-.69,0-1.48-.25-1.99-.69-.47-.4-.86-1.51-.65-2.08.94-2.61,2.19-5.29,2.46-8.11,1.18.93,2.09,1.42,3.63,1.11Z"/><path class="f" d="M170.83,86.83c.02.62.36,1.53.42,2.16-.68,3.87-1.78,7.69-.79,11.57-1.54.32-2.45-.18-3.63-1.11.41-4.35,1.36-9.11,4-12.62Z"/><path class="g" d="M165.42,94.94c-.01,1.86.04,3.77-.31,5.6h-3.01c-.23-.77-.77-1.78-1.41-1.8l-2.7-.08c-.1-.63-.14-1.3-.13-1.96,1.8-.6,3.26-2.09,4.64-3.45.87.73,1.78,1.79,2.92,1.69Z"/><path class="f" d="M166.84,90.31l-1.42,4.63c-1.14.1-2.05-.96-2.92-1.69.79-.92,1.24-2.43,1.8-3.5.83.26,1.72.45,2.54.55Z"/><path class="g" d="M195.68,96.69c-.51,1.16-3.28-.44-5.75-.02,1.07-1.63,1.51-3.54,2.13-5.63,1.26,2.01,2.22,3.99,3.62,5.65Z"/><path class="t" d="M37.6,105.91l-.43,2.13c-1.39.25-2.77,1.69-3.91.7.67-1.9,2.31-3.45,4.33-2.83Z"/><path class="g" d="M38.84,100.57l-.17,1.1c-2.21-.05-4.5.02-6.86-.19,2.22-1.76,4.76-.45,7.03-.9Z"/><path class="g" d="M162.78,89.19c-.3,2.42-3.01,5.49-4.92,6.25-.21-.93.53-2.09-.93-2.76l-.12,6.12c-3.08.01-5.86.32-8.53-1.05-1.46-.75-3.64-2.62-2.37-4.3,2.11-2.76,8.17-1.75,11.02-2.52.09.13.32.37.44.29.11-.07.31-.26.42-.3.87-.3,2.49-1.08,3.06-1.92.47-.69,1.41-.24,1.92.18Z"/><path class="s" d="M156.76,105.07l-2.83-2.18c-1.82,1.4-3.67,1.99-5.97,1.31-.7-.21-.87-1.63-.85-2.36l9.63.03.02,3.19Z"/><path class="m" d="M202.72,67.81c1.33.89,1.81,3.7,1.14,4.88-.91,1.59-3.17,1.77-4.72,2.43-.76.32-1.61.6-2.16,1.23-2.13.86-4.25.66-6.43.03l-6.19-3.03c-2.07-1.02-3.91-2.52-5.78-3.86-.37-.27-.86-.71-1.16-.97l1.22-.04c.2,0,.21-.85.19-1.01.32-.06.9-.22,1.21-.24l13.93-.94c2.98-.2,6.33-.1,8.75,1.53Z"/><path class="p" d="M189.95,81.28c.26.3.64.84.91,1.24,3.84,1.8,8.21,3.21,11.04,6.73-3.59-1.53-6.37-3.7-10.14-4.5-.11.27-.14.83-.1,1.21-6.44-1.91-14.97,1.64-16.81,8.22-.37-.44-1.2-.81-1.67-1.67-1.05,2.73-1.13,5.43-.76,8.05s.75,5.03,1.48,7.49c-.14.18-.39.36-.62.43l-.7-.67c-.77-2.33-1.49-4.86-2.1-7.25-.99-3.88.11-7.7.79-11.57l.41.88c.2.43.19.44.38-.09,2.32-6.33,11.55-10.04,17.9-8.51Z"/><path class="p" d="M174.05,57.12c-1.59,1.12-2.29,3.28-2.25,5.31,3.34.08,7.47,1.58,8.24,4.78-.31.02-.89.18-1.21.24-1.38-.43-2.78-2.33-2.92-3.68-2.83-1.49-7.46-1.06-8.96,2.78-.5,1.29-.86,2.37-1.82,3.19h-1.13c-.25-.01-.06.55.03.81-.32.3-.85.33-1.26.46.11-1.83.02-3.8.61-5.57.43-1.29,2.22-1.88,3.47-2.39-1.13-3.54-5.02-1.97-6.59-3.16-.15-.11,0-.7.17-.64,4.06,1.42,4.75.06,7.14,3.52,1.35-.27,2.31-.35,3.44-.37.25-1.3.56-2.62.94-3.82l1.23-1.74c.11-.16.6-.44.66-.28l.21.56Z"/><path class="p" d="M184.35,73.34c.89.92,1.74,2.09,2.78,2.85.11.24.28.64.41.84-4.46-3.22-13.33.14-16.27,4.6-.41,1.67-.49,3.57-.44,5.2-2.64,3.51-3.59,8.27-4,12.62-.26,2.81-1.52,5.49-2.46,8.11-2.09.32.96-4.41.52-5.94l.2-1.07c.35-1.83.3-3.74.31-5.6l1.42-4.63c2.34-3.9,3.4-8.66,4.96-12.96.36-.98.87-1.55.04-2.68-.38-.52-.84-1.52-1.81-1.28l-.49-.56c-.13-.15-.85-.11-.82.09l.17.98c.1.58-.07,1.27-.49,1.59s-1.23.21-1.52-.17c-.34-.45-.38-1.28-.12-1.67l.26-.39c.05-.08-.11-.29-.2-.25s-.33.21-.41.16c-.37-.27-1.13-.93-1.54-1.07-.42-.39,1.43-1.29,1-1.55-.17-.1-.57-.27-.75-.23v-.57c2.57.02,5.8.86,7.2,3.42l6.38-2.34-.13-1.35c1.86,1.35,3.7,2.85,5.78,3.86Z"/><path class="q" d="M187.54,77.04c.88,1.38,2.03,2.66,2.41,4.25-6.35-1.53-15.58,2.17-17.9,8.51-.19.53-.18.52-.38.09l-.41-.88c-.06-.63-.4-1.54-.42-2.16-.05-1.63.03-3.53.44-5.2,2.93-4.46,11.81-7.82,16.27-4.6Z"/><path class="q" d="M191.65,85.96c.06.23.18.65.19.87.05,1,.07,2.93.04,4.16-5.2-.98-10.82,1.04-13.51,5.49-1.34-.28-2.63-1.24-3.53-2.3,1.84-6.58,10.38-10.13,16.81-8.22Z"/><path class="p" d="M197.41,98.22c-.53-.47-1.29-.99-1.73-1.53-1.4-1.66-2.35-3.64-3.62-5.65-.62,2.09-1.06,4-2.13,5.63-2.02,3.08-10.1,1.72-11.57-.2,2.69-4.45,8.31-6.47,13.51-5.49.03-1.23.02-3.15-.04-4.16,2.71,4.36,2.39,7.89,7.1,11.49-.54.2-1.27.13-1.52-.1Z"/><path class="s" d="M190.54,76.38c-.9.28-2.53.46-3.41-.19-1.04-.76-1.89-1.92-2.78-2.85l6.19,3.03Z"/><path class="m" d="M165.12,70.32c.18-.04.58.13.75.23.43.25-1.43,1.16-1,1.55-.27.13-.92.53-1.06.84l-3.67,7.96-3.42,3.84c-2.04,2.29-11.34,2.56-12.58.88.02-1.23-.23-2.65-.43-3.88.85-2.01,1.22-4.16,3.37-5.17,1.03-.48,2.19-1.15,3.26-1.5l12.44-4.04c.4-.13.94-.16,1.26-.46l1.09-.24Z"/><path class="o" d="M165.13,69.75v.57s-1.1.24-1.1.24c-.09-.27-.28-.83-.03-.82h1.13Z"/><path class="q" d="M178.83,67.46c.01.16,0,1-.19,1.01l-1.22.04c.3.27.79.71,1.16.97l.13,1.35-6.38,2.34c-1.41-2.56-4.64-3.4-7.19-3.42.96-.82,1.32-1.9,1.82-3.19,1.49-3.84,6.13-4.27,8.96-2.78.15,1.34,1.54,3.25,2.92,3.68Z"/><path class="o" d="M166.41,73.17c-.61.54-.8,1.28-.57,2.19.16.63.95,1.12,1.73,1.19.63.06,1.65-.38,1.87-1.12l.59-2.04c.98-.24,1.43.76,1.81,1.28.83,1.13.32,1.7-.04,2.68-1.56,4.31-2.62,9.07-4.96,12.96-.82-.1-1.71-.29-2.54-.55-.42-.13-.99-.65-1.52-.57-.51-.41-1.46-.87-1.92-.18.15-1.47-1.81-.94-2.57-1.93.19-2.02.94-4.23,1.85-6.19l3.67-7.96c.14-.3.79-.7,1.06-.84.41.14,1.17.81,1.54,1.07Z"/><path class="m" d="M170.03,73.39l-.59,2.04c-.21.74-1.24,1.18-1.87,1.12-.78-.07-1.57-.56-1.73-1.19-.23-.9-.04-1.65.57-2.19.08.06.33-.11.41-.16s.25.17.2.25l-.26.39c-.26.39-.23,1.23.12,1.67.29.38,1.09.5,1.52.17s.6-1.02.49-1.59l-.17-.98c-.04-.2.69-.24.82-.09l.49.56Z"/><path class="p" d="M164.3,89.76c-.56,1.07-1.01,2.57-1.8,3.5-1.38,1.36-2.84,2.85-4.64,3.45-.16-.05-.6-.31-.56-.5.05-.22.34-.68.55-.77,1.91-.76,4.62-3.83,4.92-6.25.54-.08,1.11.44,1.52.57Z"/><path class="s" d="M158.29,87.08c-.63,1.01-.45,2.52-.49,3.85-.11.04-.31.22-.42.3-.12.08-.35-.16-.44-.29l-.21-6.21,3.42-3.84c-.91,1.96-1.66,4.17-1.85,6.19Z"/><path class="t" d="M148.61,112.5l3.7,4.81c-2.16-1.13-4.03-2.7-5.59-4.32.31-.54.18-1.29.04-1.95l1.85,1.47Z"/><path class="s" d="M162.09,100.54l-4.1-.04-.15-1.42.14-.41,2.7.08c.64.02,1.17,1.03,1.41,1.79Z"/><path class="g" d="M53.84,84.73c-.36,2.1-.07,4.28-.12,6.42l-.12,4.48c-2.79-1.13-4.68-3.8-5.55-6.66,1.45-.64,2.96-1.05,4.45-2.02l-2.28-6.24,3.62,4.03Z"/><path class="h" d="M54.5,85.2l.04,5.62c0,.27-.73.41-.82.33.06-2.14-.23-4.31.12-6.42l.65.47Z"/><path class="s" d="M161.66,101.66c-.13.29-.46,1-.18,1.11l1.47.6c-.37,1.86-1.77,3.89-.41,5.57.34.42,1.7.22,1.98.78.23.46,1.13,1.35.5,1.8-2.29.32-2.38-4.25-7.28-1.97.15-2.58-.04-5.18.05-7.92l3.89.02Z"/><path class="h" d="M157.69,114.49l-.03-3.49c1.14-.55,2.27-.98,3.55-.22.81.47,2.23,1.54,2.08,2.74s-1.41,2.1-2.35,2.23c-1.24.16-2.36-.49-3.25-1.25Z"/><path class="t" d="M158.29,87.08c.76.99,2.71.46,2.57,1.93-.57.84-2.19,1.62-3.06,1.92.04-1.33-.14-2.83.49-3.85Z"/><path class="m" d="M30.15,66.96l.48.7c.1.15.65.13.78.13l1.17.76-1.21.92c-.27.21-.23.8.03,1.11-2.21-.06-3.72,1.7-5.54,2.58-2.6,1.26-5.21,2.61-7.98,3.44-.88.26-2.06.2-2.97.2l-1.5-.42c-.99-.7-2.06-1.32-3.21-1.55-.31-.06-.76-.2-1.1-.19-1.32-.89-3.16-1.02-3.5-2.71-.25-1.26.32-3.39,1.4-4.37,3.43-3.12,18.47-.71,23.14-.61Z"/><path class="p" d="M48.24,71.01v.22c-1.07-.47-2.43-.64-3.68-1.03.38.8.61,1.16.92,1.64-.87-.34-1.84-.39-2.55.01-.48.27-1.38.15-1.91.25-1.78.35-2.71,2.43-3.25,4.11l4.97,12.96c.21.54.8,1.51,1.47,1.27.61,2.39,1.66,4.52,1.51,7.05-.06,1.06.14,2.23.37,3.24l.21.9c-.38,1.97,1.58,3.86.87,5.92-1.36-1.09-1.89-4.37-2.47-5.79-.12-.28-.22-.87-.27-1.18-.71-4.89-1.22-10.27-4.63-13.95-.12-1.76-.02-3.99-.91-5.65-2.81-4.06-12.27-7.63-16.09-3.98.03-.16.08-.5.19-.63l2.86-3.23c1.82-.88,3.33-2.64,5.54-2.58,2.33.28,4.15,2.04,6.57,2.54,1.11-2.61,3.84-3.84,6.78-3.5-2.36-4.55-.85-5.06-6.54-7.11,1.42-1.96-.78-4.18-2.04-6.33,2.41.77,2.74,3.83,3.17,6.02l3.45.5c1.04-2.47,4.57-2.34,6.43-3.14l1.07-.46c.17-.07.23.53.08.67-1.35,1.18-5.17-.62-6.98,3.22,1.51.3,2.92.84,3.78,1.96.81,1.06,1.1,2.71.49,4.03.21.63.48,1.38.57,2.02ZM45.07,69.63c0-.06-.05-.11-.11-.11s-.11.05-.11.11.05.11.11.11.11-.05.11-.11Z"/><path class="q" d="M39.82,86.65c.05.68-.34,1.63-.34,2.33l-.6,1.37c-.18-2.23-1.8-3.51-3.16-4.82-3.98-3.83-9.78-5.62-15.23-4.42.37-.72.59-1.74,1.07-2.39l1.25-1.7c3.82-3.65,13.28-.08,16.09,3.98.89,1.66.79,3.89.91,5.65Z"/><path class="p" d="M18.92,87.46l.04,3.34c3.26-.68,6.3-.06,8.99,1.44,0,.57-.12,1.51-.41,1.93-.31.44-1.65.5-2.18.32l-5.98-2.07c-.09-.41-.3-.92-.51-1.52-.77,1.27-1.47,2.53-2.02,3.87-.41.36-.76,1.14-1.1,1.53-.83.9-1.94,1.83-3.19,2.08-.32-.28.23-1.08.6-1.24,1.23-.54,1.86-1.89,2.42-3,1.74-1.95,1.5-4.97,3.33-6.67Z"/><path class="s" d="M23,76.4c-.46,0-1.16.03-1.64.06-.38.03-.41,1.14-.74,1.39-.96.74-2.37-.32-2.75-1.24,2.77-.83,5.37-2.18,7.98-3.44l-2.86,3.23Z"/><path class="d" d="M32.69,96.54c-2.89,1.74-8.3,2.74-11.11.52-1.04-1.42-1.84-2.92-2.2-4.64l5.98,2.07c.54.19,1.87.12,2.18-.32.3-.42.41-1.36.41-1.93,1.84,1.03,3.77,2.3,4.73,4.3Z"/><path class="m" d="M48.25,71.24c1.67.73,3.52.96,5.2,1.55l6.62,2.31c1.6.56,3.2,1.75,4.51,2.72-.34,2.93-.93,5.86-.89,8.83-3.17-.1-6.58.42-9.19-1.45l-.65-.47-3.62-4.03c-1.36-1.51-2.78-8.09-4.74-8.85-.31-.48-.54-.84-.92-1.64,1.25.39,2.61.56,3.69,1.03Z"/><path class="f" d="M46.58,89.64c.63,1.39,1.36,2.91,2.48,4l-2.5,1.29c-.09,1.09-.1,2.14-.82,2.58.15-2.52-.9-4.65-1.51-7.05l2.35-.82Z"/><circle class="q" cx="44.96" cy="69.63" r=".11"/><path class="q" d="M32.67,88.8c1.74,1.13,2.62,3.58,3.4,5.33-.5.93-2.43,1.84-3.38,2.41-.96-2-2.89-3.27-4.73-4.3-2.69-1.51-5.73-2.13-8.99-1.44l-.04-3.34c0-.53.15-1.18.25-1.71,4.59-1.6,9.47.43,13.5,3.04Z"/><path class="p" d="M35.71,85.54c-.23,1.76-1.57,2.45-3.04,3.26-4.03-2.62-8.9-4.64-13.5-3.04.07-.36.05-1.1-.18-1.14-3.49.86-6.27,2.92-9.62,4.43,2.67-3.35,6.78-4.91,10.44-6.62l.66-1.3c5.45-1.19,11.25.59,15.23,4.42Z"/><path class="d" d="M39.47,88.99c1.43,3.66,2.05,7.74,1.14,11.59-.07.29-.16.79-.25,1.05-.79,2.3-1,4.81-2.36,6.82-.3-.05-.64-.19-.82-.4l.43-2.13c.45-.87.78-2.28.83-3.21.07-.26.19-.75.23-1.04l.17-1.1c.42-2.64-.04-5.4-1.01-8.07-.47.67-1.5,1.15-1.76,1.63-.78-1.75-1.66-4.2-3.4-5.33,1.47-.8,2.81-1.49,3.04-3.26,1.36,1.31,2.98,2.59,3.16,4.82l.6-1.37Z"/><path class="p" d="M48.05,88.97c.87,2.86,2.76,5.53,5.55,6.66,0,.23,0,.64,0,.87-1.75-.12-3.24-1.61-4.54-2.87-1.12-1.08-1.86-2.61-2.48-4,.41-.14,1.05-.48,1.47-.67Z"/><path class="c" d="M45.48,71.85c1.96.76,3.38,7.35,4.74,8.85l2.28,6.24c-1.49.97-3,1.39-4.45,2.02-.43.19-1.07.53-1.47.67l-2.35.82c-.68.24-1.26-.73-1.47-1.27l-4.97-12.96c.53-1.68,1.47-3.76,3.25-4.11.06.09.21.33.33.52.09.14.36.11.56.21.14.07-.44.04-.97-.11-.41.59-.63,2.2-.2,2.86.68,1.03,2.22,1.16,2.98.53.83-.7,1.28-2.09.35-2.82-.55-.44-1.15-.75-1.14-1.44.7-.4,1.68-.35,2.55-.01Z"/><path class="m" d="M42.94,71.86c0,.7.59,1,1.14,1.44.92.74.48,2.12-.35,2.82-.75.63-2.3.5-2.98-.53-.44-.67-.22-2.27.2-2.86.53.14,1.11.17.97.11-.2-.1-.47-.07-.56-.21-.12-.19-.27-.42-.33-.52.53-.1,1.43.02,1.91-.25ZM42.42,73.48c0-.13-.11-.24-.24-.24s-.24.11-.24.24.11.24.24.24.24-.11.24-.24Z"/><circle class="c" cx="42.18" cy="73.48" r=".24"/><path class="q" d="M38.21,62.52c5.69,2.05,4.18,2.56,6.54,7.11-2.94-.34-5.67.89-6.78,3.5-2.42-.5-4.24-2.26-6.57-2.54-.26-.31-.3-.91-.03-1.11l1.21-.92-1.17-.76c.79-1.69,2.74-2.66,3.18-4.48.96-.58,2.47-1.21,3.63-.8Z"/><path class="p" d="M34.58,63.32c-.44,1.82-2.39,2.78-3.18,4.48-.13,0-.67.03-.78-.13l-.48-.7c-.48-1.2,4.24-4.66,4.44-3.65Z"/><path class="g" d="M93.24,124.86c-2.3.07-4.7.42-7.04.06l1.06-2.14,5.98,2.08Z"/><path class="j" d="M65.39,75.07c-.28.84-.34,2.01-.81,2.75-1.31-.97-2.91-2.16-4.51-2.72,1.74-.23,3.59-.27,5.32-.02Z"/><path class="h" d="M10.2,74.85c-.07.62-.96.37-1.47.36l.37-.55c.34-.01.79.13,1.1.19Z"/><path class="f" d="M44.44,100.6l-3.84-.02c.92-3.85.3-7.93-1.14-11.59,0-.7.39-1.65.34-2.33,3.41,3.68,3.92,9.05,4.63,13.95Z"/><path class="k" d="M105.62,46.87c.17,0,.48,0,.64.01,3.9.34,11.25,1.9,15.15,3.8.58.31,1.41.75,1.99,1.09,2.82,1.68,5.45,3.6,7.95,5.72.42.36.96.89,1.33,1.29,4.43,4.75,7.62,10.17,9.72,16.31l.43,1.26.86,5.38c.2,1.23.45,2.65.43,3.88-.04,2.71-.2,5.45-.65,8.12-.65,3.86-2.35,7.4-3.66,11.03-.53.32-.69,1.1-1.01,1.61-1.35,2.15-2.82,4.15-4.42,6.3l10.88,9.89c-.61.78-1.02,1.71-1.84,2.37l-10.69-8.93c-.21-.17-.66-.42-.9-.52s-.51.44-.71.61c-3.04,2.6-9.61,6.7-13.8,7.99-.65.2-1.45.48-2.11.62-1.57.32-3.2.56-4.69,1.12-.06,0-.17-.03-.23-.03-.75,0-2.17.2-2.98.26-2.55.18-5.12.04-7.67-.08-2.12-.1-4.29-1.18-6.41-1.11l-5.98-2.08c-.45-.31-1.21-.62-1.71-.84l-5.01-3.18c-.22-.14-.6-.46-.83-.64-4.76-3.59-8.32-8.11-11.48-13.11-.3-1.01-.81-2.08-1.38-3l-.57-1.49c-.41-1.07-.59-2.39-1.36-3.22.28-1.66-.68-3.37-.82-5.09-.15-1.84-.39-3.73-.42-5.57-.04-2.97.55-5.9.89-8.83.47-.74.52-1.9.81-2.75,2.73-8.08,7.47-14.67,14.17-19.95.22-.18.58-.39.82-.56l3.83-2.63c.49-.34,1.39-.81,1.92-1.06,6.21-2.83,12.65-4.25,19.49-4.01ZM140.62,86.5c0-20.2-16.37-36.57-36.57-36.57s-36.57,16.37-36.57,36.57,16.37,36.57,36.57,36.57,36.57-16.37,36.57-36.57Z"/><path class="e" d="M152.13,122.86c.64.58,1.44,1.28,2.07,1.84l3.64,3.25,9.29,8.66c1.59,1.48,2.37,3.86,1.5,5.78-.76,1.69-2.23,2.8-3.26,4.15-2.26.85-4.67.77-6.6-.96l-16.56-14.82c-1.86-1.67-1.05-3.21-.13-4.69.51-.12.94-.78,1.36-1.13.82-.66,1.22-1.59,1.84-2.37.82-1.05,2.16-1.98,3.4-1.81,1.3.18,2.45,1.19,3.46,2.1Z"/><path class="m" d="M143.43,124.94c-.43.35-.85,1.01-1.36,1.13l-10.93-9.96c.2-.17.47-.71.71-.61s.69.34.9.52l10.69,8.93Z"/><path class="p" d="M117.34,124.09l.28,1.06c.09.35.24.75.38,1.06-.44,1.56,3.55,7.36.82,7.37l-3.14-7.37-.45-1.5c.66-.13,1.46-.42,2.11-.62Z"/><path class="f" d="M87.26,122.78l-1.06,2.14-1.33,1.31c-.58.57-1.5.93-2.41,1.14-.33.08-.56-.79-.4-1.05.6-.03,1.15-.86,1.57-1.18,1.04-.77,1.7-1.92,1.92-3.21.5.22,1.26.53,1.71.84Z"/><path class="d" d="M140.62,86.5c0,20.2-16.37,36.57-36.57,36.57s-36.57-16.37-36.57-36.57,16.37-36.57,36.57-36.57,36.57,16.37,36.57,36.57ZM75.5,72.92l-.95,2.41c-2.05,5.19-2.61,11.04-1.74,16.69.03.23.54.6.7.6-.84,2.47,1.21,4.72,1.91,7.03.63,2.05,2.3,3.45,3.21,5.25,3.43,6.78,15.4,11.18,21.66,12.55l.84.18c.82.18,2.45.14,3.38.15,1.17.01,2.32-.11,3.45-.31,1.21-.22,2.84.12,3.68-.91.81.25,1.61-.27,2.36-.43,1.52-.33,3.38-.8,4.45-1.91.57,0,1.46-.35,1.57-1.04,3.05-.59,5.69-3.6,7.83-5.98.63-.7,1.41-1.38,1.99-2.16,3.61-4.78,5.62-10.48,6.1-16.41.34-4.18-.4-8.09-1.62-12.01-3.75-12.04-15.14-20.45-27.62-21.4-13.05-.99-26.41,5.6-31.19,17.71Z"/><path class="g" d="M139.82,104.76c2.47,1.88,4.53,4.36,6.94,6.28.13.66.26,1.41-.04,1.95l-.89-.44-7.02-6.17c.32-.51.48-1.3,1.01-1.61Z"/><path class="p" d="M110.31,125.8c-.34,2.15-.84,4.16-1.55,6.38-.69-.59-1.12-.99-1.51-1.41l.08-4.72c.81-.06,2.23-.25,2.98-.26Z"/><path class="t" d="M115.23,124.71l.45,1.5c-1.58-.06-3.73.13-5.14-.38,1.49-.56,3.12-.8,4.69-1.12Z"/><path class="s" d="M134.31,76.6c-2.01.9-.81,2.03-3.53,2.69-1.96.47-4.14-3.53-7.38-2.87-.27.41-.39,1.49-.82,1.6l-1.98.49c-.35-1.41-1.55-1.62-3.03-1.51,0-.75-.34-2.04-.62-2.73.5-.01,1.26-.06,1.7-.19,1.77-.54-2.39-6.28-6.21-6.34,2.74-3.06,9.32-.21,8.67-3.62-2.75,1.92-6.2.54-8.49,2.18-1.1-1.26-3.53-2.35-4.96-1.64-.28.14-.4.95-.54,1.18s-.91.31-.99.05c-.11-.35-.27-.95-.37-1.36l-.32-1.34c-.07-.3-.64-.35-1.04-.22-.31.1-.73.71-.59,1,.18.36.55.84.42,1.05-.17.27-.67.55-.97.62-.83-2.01-1.47-5.29-4.14-5.68,2.14,3.05,4.17,5.77,3.64,9.48-3.41-.23-6.44,1.62-9.1,3.05l-2.37,1.27c-1.32-3.17-3.62,1.42-9.18-1.31-3.39-.39-5.86,1.36-6.62.46,4.78-12.11,18.14-18.7,31.19-17.71,12.48.95,23.87,9.35,27.62,21.4Z"/><path class="m" d="M112.73,81.24l.64-.02c.06,0,.15,0,.19.01.17.17.4.34.61.48,1.08.69,2.29.93,3.43,1.27l5.57,1.68,12.75,3.95c-.48,5.93-2.49,11.63-6.1,16.41-1.39.92-8.13-6.81-8.79-7.66-2.9-3.75-4.78-12.95-7.51-13.49.28-.52-1.77-2.33-1.45-2.43l.64-.2Z"/><path class="m" d="M90.22,76.75c.35.77,1.04,1.37,1.92,1.35,1.14.98-.49,2.61-1.08,3.85-2.99,1.06-5.23,3.51-7.88,5.13-3.15,1.92-6.91,3.09-9.67,5.54-.16,0-.66-.37-.7-.6-.86-5.66-.3-11.5,1.74-16.69l15.67,1.43Z"/><path class="h" d="M134.31,76.6c1.22,3.92,1.96,7.83,1.62,12.01l-12.75-3.95c.82-1.28-1.6-2.2-2.57-6.15l1.98-.49c.43-.11.54-1.19.82-1.6,3.23-.66,5.42,3.35,7.38,2.87,2.72-.66,1.52-1.79,3.53-2.69Z"/><path class="r" d="M91.3,73.76c-.85.46-1.05,1.96-1.08,2.99l-15.67-1.43.95-2.41c.76.9,3.23-.85,6.62-.46,5.56,2.73,7.86-1.87,9.18,1.31Z"/><path class="g" d="M127.85,107.18c-2.14,2.38-4.78,5.39-7.83,5.98-.61-1.52-1.76-2.81-2.08-4.42l5.62-2.45c.57-1.47-.3-2.98-.78-4.28,2.11,1.56,3.18,4.2,5.07,5.17Z"/><path class="f" d="M111.64,116.55c-.84,1.03-2.47.69-3.68.91l-2.39-9.21c-.07-.26.04-.78.06-1.05.64-4.02,5.82,8.61,6.02,9.35Z"/><path class="i" d="M83.17,87.08l-3.89,4.51c-1.44.49-6.01,5.65-3.2,6.37v.24s-.29-.07-.29-.07c-.06-.02-.1.22-.07.27l.15.22c-.12.32-.29.7-.46,1.02-.7-2.31-2.75-4.56-1.91-7.03,2.76-2.45,6.52-3.62,9.67-5.54Z"/><path class="g" d="M115.89,109.73c.66,1.58,1.59,3.05,2.57,4.47-1.08,1.12-2.94,1.59-4.45,1.91l-1.73-4.92c1.15-.61,2.36-1.13,3.61-1.47Z"/><path class="s" d="M129.84,105.03c-.58.77-1.36,1.45-1.99,2.16-1.89-.97-2.95-3.61-5.07-5.17-.56-1.52-1.91-3.04-1.73-4.65.66.85,7.39,8.58,8.79,7.66Z"/><path class="f" d="M104.51,117.77c-.92-.01-2.56.03-3.38-.15l2.04-2.78c.6.97,1.02,1.91,1.34,2.93Z"/><path class="t" d="M112.63,66.29c-1.25.89-2.25,2.32-3.29,3.53l-5.39-.61c-.33-1.1-.27-2.58-.68-3.57.3-.07.81-.35.97-.62.14-.22-.24-.69-.42-1.05-.14-.29.28-.9.59-1,.4-.13.96-.08,1.04.22l.32,1.34c.1.41.26,1.02.37,1.36.08.25.85.18.99-.05s.26-1.04.54-1.18c1.43-.71,3.86.38,4.96,1.64Z"/><path class="t" d="M120.61,78.52c.97,3.95,3.39,4.87,2.57,6.15l-5.57-1.68c.3-1.06-.1-1.94-.76-2.84.14-.93.74-2.2.73-3.15,1.47-.11,2.68.1,3.03,1.51Z"/><path class="t" d="M112.45,67.74c3.82.06,7.98,5.8,6.21,6.34-.43.13-1.2.18-1.7.19-1.35-2.31-3.86-3.46-6.61-3.99.04-1.31,1.43-1.81,2.09-2.55Z"/><path class="h" d="M79.29,91.58c-.05.22-.11.65-.22.84-.79,1.36-2.32,3.96-2.98,5.53-2.81-.72,1.76-5.88,3.2-6.37Z"/><path class="p" d="M105.56,108.25l2.39,9.21c-1.13.2-2.28.33-3.45.31-.32-1.02-.73-1.95-1.34-2.93l-2.04,2.78-.84-.18c-2.65-7.56-13.98-12.99-21.66-12.55-.91-1.8-2.59-3.2-3.21-5.25.17-.32.34-.7.46-1.02l.21.04c10.26-2.62,24.2,3.31,28.52,13.05.49-1.28.69-2.35.95-3.46Z"/><path class="p" d="M112.73,81.24l-.64.2c-.32.1,1.73,1.91,1.45,2.43l-2.12-.42c-1.04-1.36-5.04-.57-5.22,1.19-1.37-.98-4.07,4.25-4.53,5.38l8.11,20.01c.36.89,1.57,1.66,2.49,1.17l1.73,4.92c-.75.16-1.55.68-2.36.43-.2-.74-5.38-13.37-6.02-9.35.18-3.14-.37-6.22-1.41-9.3-5.14-6.17-18.72-11.3-25.15-5.48.11-.19.18-.61.22-.84l3.89-4.51c2.65-1.62,4.89-4.07,7.88-5.13,5.03,1.1,6.24,2.39,11.05,3.9,1.79-4.4,6.72-7.04,10.62-4.61Z"/><path class="q" d="M100.29,117.44c-6.26-1.36-18.23-5.77-21.66-12.55,7.68-.45,19,4.99,21.66,12.55Z"/><path class="p" d="M117.94,108.75c.32,1.6,1.47,2.9,2.08,4.42-.1.69-1,1.04-1.57,1.04-.97-1.42-1.91-2.9-2.57-4.47l2.05-.99Z"/><path class="p" d="M103.26,65.64c.41,1,.36,2.48.68,3.57l5.39.61c1.04-1.21,2.04-2.64,3.29-3.53,2.29-1.63,5.74-.25,8.49-2.18.65,3.41-5.93.56-8.67,3.62-.66.74-2.05,1.23-2.09,2.55,2.75.53,5.26,1.68,6.61,3.99.28.69.62,1.98.62,2.73,0,.95-.59,2.22-.73,3.15.66.9,1.06,1.78.76,2.84-1.15-.35-2.35-.58-3.43-1.27-.14-.17-.42-.39-.61-.48-.05-.02-.13-.02-.19-.01-1.55-1.87-2.32-3.61-3.3-6.09-1.8-4.57-9.31-7.12-12.88-3.57-2.04,2.03-3.87,4.52-5.05,6.54-.88.02-1.57-.58-1.92-1.35.02-1.03.22-2.53,1.08-2.99l2.37-1.27c2.66-1.43,5.69-3.28,9.1-3.05.54-3.71-1.49-6.43-3.64-9.48,2.67.4,3.31,3.67,4.14,5.68Z"/><path class="q" d="M113.37,81.22l-.64.02c-3.9-2.43-8.83.21-10.62,4.61-4.8-1.52-6.01-2.8-11.05-3.9.59-1.24,2.22-2.86,1.08-3.85,1.18-2.03,3.01-4.52,5.05-6.54,3.57-3.55,11.08-.99,12.88,3.57.98,2.48,1.75,4.22,3.3,6.09Z"/><path class="q" d="M114.18,81.72c-.21-.14-.44-.31-.61-.48.2.09.47.31.61.48Z"/><path class="q" d="M105.62,107.2c-.02.27-.13.8-.06,1.05-.26,1.11-.47,2.18-.95,3.46-4.32-9.74-18.26-15.67-28.52-13.05v-.71c.65-1.57,2.18-4.17,2.97-5.53,6.43-5.82,20.01-.7,25.15,5.48,1.04,3.08,1.59,6.16,1.41,9.3Z"/><path class="h" d="M76.09,98.19v.47l-.21-.04-.15-.22c-.04-.05,0-.29.07-.27l.3.07Z"/><path class="i" d="M113.54,83.88c2.73.55,4.61,9.74,7.51,13.49-.18,1.61,1.17,3.13,1.73,4.65.48,1.3,1.35,2.81.78,4.28l-5.62,2.45-2.05.99c-1.25.33-2.46.85-3.61,1.47-.92.49-2.13-.28-2.49-1.17l-8.11-20.01c.46-1.13,3.16-6.35,4.53-5.38-.11,1.07-.24,2.26-.22,3.38.03,1.55,1.41,2.61,2.59,2.77,1.62.22,2.93-.74,3.34-2.09.47-1.54-.21-3.11-1.62-3.61l-.67-.75,1.81-.89,2.12.42Z"/><path class="e" d="M111.42,83.45l-1.81.89.67.75-.87-.09c-.83-.35-1.61-.39-2.5-.26l-.72-.1c.18-1.76,4.18-2.54,5.22-1.19Z"/><path class="m" d="M106.92,84.74c-.22.59.34,1.06.86,1.42-.72.89-.84,2.07-.07,2.77.83.76,1.89.86,2.56.06,1.69-2.03-.95-2.86-.85-4l.87.09c1.41.51,2.09,2.07,1.62,3.61-.41,1.35-1.72,2.31-3.34,2.09-1.18-.16-2.57-1.22-2.59-2.77-.02-1.12.11-2.31.22-3.38l.72.1Z"/><path class="p" d="M109.42,85c-.1,1.14,2.55,1.97.85,4-.67.8-1.73.7-2.56-.06-.77-.71-.65-1.89.07-2.77-.52-.36-1.08-.83-.86-1.42.89-.13,1.67-.09,2.5.26Z"/></g></svg>
