<?xml version="1.0" encoding="UTF-8"?><svg id="a" xmlns="http://www.w3.org/2000/svg" viewBox="0 0 191.83 194.05"><defs><style>.c{fill:#a6c0c3;}.d{fill:#337cba;}.e{fill:#deebf1;}.f{fill:#78d0e9;}.g{fill:#60c7cb;}.h{fill:#384556;}.i{fill:#2b67a2;}.j{fill:#7ebe46;}.k{fill:#3173b2;}.l{fill:#3177b8;}.m{fill:#b2e0de;}.n{fill:#9cbbbb;}.o{fill:#f9efd6;}.p{fill:#f19033;}.q{fill:#2c6ca9;}.r{fill:#3275b5;}.s{fill:#274257;}.t{fill:#fbe168;}.u{fill:#4688c4;}.v{fill:#4280b8;}.w{fill:#c8e1a0;}.x{fill:#feffff;}.y{fill:#f2c02e;}</style></defs><g id="b"><path class="h" d="M32.98,191.4c-2.75,3.67-9.17,3.34-12.06.11-3.35-3.75-3.07-11.07,1.56-13.96,1.7-1.06,3.75-1.27,5.72-1.15,1.79.11,3.01.95,4.33,2.34l.08-10.03,5.08.04.02,20.59.17,4.05-4.31.04-.6-2.03ZM32.26,187.88c.89-2.9.64-7.34-3.16-7.71-1.96-.19-3.76.79-4.49,2.65-.64,1.65-.62,3.53.08,5.14s2.15,2.47,3.75,2.49,3.01-.87,3.83-2.57Z"/><path class="h" d="M51.93,191.48c-2.4,3.28-8.32,3.33-10.39.36-1.25-1.8-1.18-4.51.45-6.12,2.32-2.29,6.28-2.1,9.42-2.24.39-.52.12-1.81-.32-2.34-1.7-2.07-5.94-.54-8.44.44l-1.04-3.57c3.31-1.5,6.85-2.03,10.44-1.36,2.63.49,4.51,2.65,4.55,5.38l.11,7.44c.01.99.8,1.42,1.7,1.69.25.33.22,1.74-.16,2.16-1.97,1.03-5.34,1.05-6.34-1.84ZM51.56,188.5c.1-.68.08-1.44.06-2.17-1.61-.07-2.99-.07-4.37.5-.92.38-1.42,1.46-1.26,2.33s.99,1.56,1.99,1.7c1.64.23,3.32-.61,3.58-2.36Z"/><path class="h" d="M85.7,191.54c-1.97,2.59-5.78,2.98-8.32,1.93-2.08-.87-3.07-2.9-2.77-5.08.2-1.52.96-2.83,2.4-3.54s3.13-1.15,4.75-1.21l3.68-.14c.01-.8-.08-1.72-.52-2.36-1.41-2.06-6.2-.55-8.44.44l-1.02-3.57c3.22-1.47,6.67-1.98,10.2-1.4,2.69.44,4.71,2.59,4.75,5.41l.11,7.51c.01.98.85,1.52,1.86,1.63l-.2,2.11c-2.01,1.04-5.36,1.14-6.48-1.73ZM85.29,188.9c.2-.75.16-1.7.12-2.55-1.51-.07-2.84-.07-4.15.4-1.05.38-1.62,1.46-1.45,2.42.16.89.98,1.61,1.99,1.75,1.51.21,3.07-.43,3.5-2.01Z"/><path class="h" d="M166.4,190.35c2.31.34,4.26-.12,6.48-.97l.93,3.22c-3.91,1.99-10.35,2.14-13.88-.9-1.97-1.7-2.71-4.23-2.65-6.81.08-3.54,2.08-6.68,5.43-7.9,1.93-.7,4.05-.76,6.07-.37,4.52.88,6.23,5.52,5.57,9.91l-11.65.02c.24,2.16,1.71,3.5,3.71,3.8ZM169.34,183.49c.16-1.4-.26-2.89-1.61-3.51-1.15-.53-2.49-.27-3.47.48-.88.67-1.48,1.76-1.53,3.04h6.6Z"/><path class="h" d="M134.57,189.35c.4,1.02.73,2.15.98,3.36-5.22,2.2-13.86,2.1-15.95-4.18-1.33-4.01-.26-8.71,3.53-10.97,1.7-1.01,3.63-1.21,5.59-1.19,3.74.03,6.84,2.66,7.26,6.44.13,1.22.09,2.38.03,3.72l-11.47.02c.1,2.16,1.74,3.47,3.74,3.85,2.11.2,3.89-.13,6.29-1.05ZM131.1,183.5c-.02-1.2-.22-2.24-.9-2.96-.97-1.03-2.5-1.02-3.68-.39-1.28.68-1.97,1.93-2,3.35h6.58Z"/><polygon class="h" points="151.28 176.87 156.67 176.94 150.06 193.48 143.95 193.48 137.06 176.9 142.78 176.87 147.16 189 149.6 181.85 151.28 176.87"/><path class="h" d="M72.25,189.9l.36,3.37c-2.32.74-4.48.94-6.83.53-2.09-.37-3.47-2.13-3.51-4.29l-.15-8.61-2.88-.2-.04-3.73,3-.08.04-4.82,5.1-.02.03,4.8,4.88.09.09,3.81-4.97.07-.06,6.71c0,.82.55,2.1,1.29,2.36,1.16.4,1.94.28,3.64,0Z"/><path class="h" d="M93.85,192.76l.53-3.47c1.89.74,7.69,2.7,8.31.1.74-3.08-8.35-1.68-8.73-7.67-.14-2.17,1.12-4.01,3.24-4.71,3.15-1.04,6.48-.8,9.66.37l-.58,3.63c-1.87-.79-6.41-1.93-7.23-.13-1.44,3.16,9.67,1.78,8.66,8.82-.78,5.42-9.69,4.76-13.87,3.05Z"/><rect class="h" x="105" y="182.52" width="16.56" height="5.27" transform="translate(-72.04 298.17) rotate(-89.92)"/><path class="h" d="M114.87,168.26c1.42.7,1.89,2.21,1.56,3.54s-1.62,2.37-3.19,2.36c-1.34,0-2.51-.76-3-1.82-.56-1.21-.4-2.75.67-3.66s2.66-1.06,3.96-.42Z"/><path class="q" d="M191.45,79c-.4-.06-.44-.46-.02-.52l.02.52Z"/><path class="l" d="M107.11,7.4c-2.56,2.63-3.06,6.64-1.23,9.81s5.56,4.74,9.12,3.83l.05,10.18-1.18.29.07,1.05c.02.26.7.38,1.03.52l.02,2.6c-.57-.15-1.44,2.31-2.22,3.52-.48.74-2.67,3.07-3.49,2.73-.3-.12-.67-.67-.78-.97,2.86-1.74,4.62-4.53,4.34-8.05-.23-2.97-2.2-5.45-4.57-6.57-4.63-2.18-9.75-.03-11.54,4.97l-15.68-.04c-.33.23-.39,1.17-.27,1.49l15.73.09.23,2.89c-1.44-.24,2.21,5.54.79,5.69l-.84.09c-1.42-2.87-1.83-3.82-5.09-5.41-.52-.25-1.47-1.22-1.96-.95-2.01,1.13-3.19.76-4.19,1.36,0-.17-.15-.84-.36-.94l-1.97-.96c-.83-.4-2.92-.36-3.58.34-1.51,1.6-2.85,2.8-4.79,3.67l-2.38,1.07c-2.57,1.15-4.44-.11-6.15,1.04-1.36.92-1.79,2.16-1.73,3.68.03.91.53,1.52,1.33,1.76-.5.66-1.03,1.3-1.61,1.87.04-.02-.14-.53-.28-.52l-2.58.04c-1.34.02-2.73.66-3.93.75-2.27.17-4.49.59-6.79,1.34-3.64,1.18-7.54,2.96-7.25,7.56l.17,2.65-8.22.04c-.11-.01-.5-.42-.5-.59l-.03-26.79,25.48.06,3.72.04c1.97,2.9,4.97,4.61,8.61,4.08,2.9-.42,4.27-1.5,6.06-3.6.54-.64.84-1.1.89-1.95l.15-3.05.34-.04c.71-.08-.95-8.53-9.02-8.44-6.08.35-9.46,5.73-8.47,11.53l-27.33-.06c-.4,0-.42-.91-.42-1.2v-11.75c-.35-.63-1.13-.38-1.48-.27-.24-.36-.46-.79-.6-1.19,4.17-1.95,8.44-3.5,13.06-4.7,5.94-1.55,11.77-2.83,17.89-3.44l1.44-.14,1.66-.14,2.25-.28c.76-.09,2.08-.29,2.77-.17-1.14-.19,9.34-.95,9.45-.71-.28,2.99,1.18,5.88,3.75,7.44s5.81,1.51,8.33-.13,3.89-4.57,3.52-7.55l10.25.51ZM54.43,23.68c0-1.14-.92-2.06-2.06-2.06s-2.06.92-2.06,2.06.92,2.06,2.06,2.06,2.06-.92,2.06-2.06Z"/><path class="k" d="M33.32,17.9c-.21,3.25-.12,9.04-.03,12.06,0,.27-.15.83-.27,1.16l-11.78.03c-2.24,0-4.27-.25-6.5-.01-.41.04-.22,1.35.25,1.35l15.68.07,2.55.06-.03,12.15v3.67s-.02,9.61-.02,9.61c0,.12-.02.65-.13.66l-.78.05-2.44.17,1.22.94-17.91.03H2.86c.04-2.08.55-4.15,1.06-6.31,3.15-13.13,9.1-24.48,20.44-32.23,2.74-1.88,5.49-3.29,8.36-4.63.14.41.36.83.6,1.19ZM31.99,46.41c0-.99-.8-1.79-1.79-1.79s-1.79.8-1.79,1.79.8,1.79,1.79,1.79,1.79-.8,1.79-1.79Z"/><path class="l" d="M159.93,18.21c-.19,2.05,2.5,1.96,3.54,3.95.19.78.07,1.83.05,2.53-3.94-1.29-8.4-.68-11.91,1.42-2.22,1.33-3.62,3.16-4.82,5.23l-1.84.07-3.91.19-3.97-1.87c-.27-.13-1.15.04-1.34.27-.21.28-.45.87-.45,1.24-.62.06-1.38.15-2.13.15l-16.42-.03-.1-10.92c2.13-1.07,3.69-3.03,4.26-5.34s.11-4.77-1.28-6.71c9.04.66,17.79,2.36,26.55,4.7,4.47,1.19,8.8,2.81,12.95,4.59.27.11.68.44.81.55ZM144.55,25.57l.61.03c.91.04-1.1-5.07-1.37-5.68-.58-1.31-2.56.15-3.13.55-.45.31-.45,1.44-.05,1.78l3.94,3.32Z"/><path class="v" d="M188.19,130.64c-.71,2.48-1.33,5.04-2.56,7.34-6.15,1.64-13.65,4.26-19.95,5.52l-7.36,1.47-.15,2.33c-.01.18-.58.4-.74.32-.2-.1-.65-.44-.7-.66l-.35-1.69c-9.7,1.58-19.35,2.61-29.21,3.15l-4.25.23c.03-.46-.4-1.51-.87-1.61l-3.48-.77-2.16-.99c-1.46-.67-1.42-2.29-1.66-3.56l-.46-2.43c-.05-.54-.05-1.06.03-1.52l1.29-.04c6.9-.2,13.68.24,20.43.27,8.45.03,16.83-.32,25.42-1.32s16.62-2.65,24.66-5.57c.7-.25,1.44-.4,2.05-.5Z"/><path class="i" d="M24.36,126.7c.25.66,2.83.11,2.69,2.65s-2.22,1.38-1.48,3.01l.75,1.66c.42.93.7,2.12,1.17,3,.41.77,1.09,1.41,1.33,2.21-.5.77-.54,1.84.06,2.53s1.59.69,2.36.37c1.24.14,1.1-1.16,1.85-1.09l.19,4.33c-.85,2.52,2.36,1.14,4.86,2.92,1.03.73,1.71,1.07,2.89,1.39,1.71.46,3.51,1.16,5.04,1.97.87.46,1.57.97,2.52,1.16s1.84.35,2.67.61c1.22.38,2.45.73,3.76.62,1.18-.1,1.44,1.88,2.85,1.64,1.51-.25,2.83-.18,4.27.11l3.64.52c.94.14,1.82.06,2.66.52h14.16s-.03.27-.03.27v.26l-36.15.13-12.59.12c-12.45.12-20.91-12.24-24.64-22.55,1.58-.12,3.37-.87,4.74-1.77l7.97-5.2,2.45-1.41Z"/><path class="k" d="M19.65,61.7l-.31.75c-1.09,2.65,2.2,1.37,1.55,5.72l-.35,2.34c-.16,1.05-.39,2.14-.29,3.19.33,3.4-.54.67.83,3.96,3.26.19,1.9.49,3.29,1.32.67.4,1.88.74,2.36,1.33.26.32.33,1.53.71,1.63,2.01.55,1.4-.33,3.77.8-1.24.68-2.58,1.33-3.89,2.14-2.02,1.25-3.44,3.26-5.08,4.87l-1.53-.26-.02-.39c0-.18-1.97-.22-2.22-.75-.83-1.71-.45-3.19-1.73-3.98-.7-.44-1.5-.27-2.38-.22-1.01.06-2.61-.24-3.44-.9-.92-.73-1.42-1.97-2.09-2.86-.41-.55-.71-1.03-1.02-1.61l-.95-1.77c-.44-.81-1.46-2.22-2.4-2.52-1-.33-2.27.02-3.16.05.2-4.31.38-8.65,1.13-12.92l17.2.06Z"/><path class="q" d="M2.1,91.1c.54.09,1.13.17,1.88.17h16.61c.24-.01.71.28.66.32-.25.42-.44,1.39-.58,1.87-2.51,4.91-2.02,11.72.56,16.82.12.23.25.69.3.89-1.03-.32-2.49.29-3.4.89l-11.9,7.84c-.41.27-1.11.55-1.45.73-1.86-8.36-2.88-16.8-3.37-25.48-.07-1.22-.02-3.09.08-4.09l.59.03Z"/><path class="q" d="M165.68,143.5c0,1.01-.33.02-2.24,1.39-2.31,1.65-.88,3.1-2.75,4.09l-2.75,1.46c-.29.15-1.08.03-1.25-.2s-.26-.76-.29-1.16l-.11-1.26-1.71,1.68c-1.97,1.93-2.27,1.45-4.63,1.51l-1.12.72c-2.42.14-3.26.68-4.03,3.17-.33,1.06-1.54.71-3.85,1.38-2.67.78-2.79,0-3.07,1.12l-32.49.02.11-1.87.16-6.52,7.63-.05,9.65-.3,4.25-.23c9.86-.54,19.5-1.57,29.21-3.15l.35,1.69c.05.22.5.56.7.66.16.08.73-.15.74-.32l.15-2.33,7.36-1.47Z"/><path class="i" d="M185.63,137.98c-2.66,7.02-8.36,13.88-15.35,17.22-2.32,1.11-4.85,2.21-7.5,2.2l-24.91-.03c.28-1.12.4-.34,3.07-1.12,2.31-.67,3.52-.31,3.85-1.38.77-2.49,1.61-3.03,4.03-3.17l1.12-.72c2.36-.06,2.66.42,4.63-1.51l1.71-1.68.11,1.26c.04.4.13.92.29,1.16s.96.36,1.25.2l2.75-1.46c1.87-.99.44-2.43,2.75-4.09,1.91-1.37,2.24-.38,2.24-1.39,6.3-1.26,13.8-3.88,19.95-5.52Z"/><path class="k" d="M170.45,61.84l.7,1.59c.56-.63.57-1.01.5-1.6l18.15-.14.43,1.9c1.11,4.92,1.01,9.95,1.18,14.88-.42.06-.38.47.02.52.02.41-.06,1.19,0,1.59-1.79.15-2.6,2.39-3.6,2.02l-3.24-1.2-.06-.92c-.01-.17-.3-.43-.44-.51-.05-.14-.39-.55-.59-.55l-9.13.02c-.12,0-.59-.15-.6-.16.25-2.46,2.97-.66,4.1-1.87.92-.99.08-3.05-.59-3.96-1.33-1.8-1.7-1.18-2.73-2.71l-.73-1.08-1.28,1.89c-1.2-.15-2.55.88-2.68.52l-.23-.64c-1.09-3.03-2.04-2.27-2.31-3.55-.69-3.26,2.78-3.85,1.75-6.08l1.37.02Z"/><path class="k" d="M189.5,59.88c-.89.05-1.84.1-2.87.09l-17-.08c.02-.17.33-.97.61-1l1.47-.14c.31-.03.99-.1,1.31-.25.74-.35.61-1.47.26-2.04l-.53-.87c-.02-.67,2.4-2.15,2.24-3.87l-.05-.56c-.01-.13.26-.22.37-.24.99.22,2.33,2.38,3.64,1.07.51-.51.55-1.75-.12-2.09-1.39-.7-3.95-1.9-5.28-1.82.21-2.42,1.61-.66,1.17-3.51-.2-1.32-.59-2.96-1-4.11-.09-.24.13-.9-.04-1.03l-.68-.52c.05-.34,0-.97,0-1.34l.33-.39c.09-.11-.25-.37-.33-.39v-.52c.08-.07.43-.5.29-.61l-.54-.43-.29-1.55c.06-.18.56-.57.8-.56l4.72.03c.18,0,.68-.17.73-.21.16.13.5.44.66.66,3.22,4.36,5.52,9.07,7.27,14.21,1.36,4,2.44,8.01,2.87,12.08Z"/><path class="q" d="M191.44,80.59c.67,5.62.41,26.81-.27,32.88l-.87,7.75c-.02.18-.21.62-.26.77-.79-.09-1.69-.18-2.6-.14l-3.14.14-.06-20.43c0-3.15-.15-6.31.02-9.46l6.92.05c.39,0,.35-1.47-.05-1.48l-6.87-.12-.18-10.55c.14.08.43.34.44.51l.06.92,3.24,1.2c1,.37,1.81-1.87,3.6-2.02Z"/><path class="u" d="M79.7,28.13c.09-1.86-1.5-4.68-3.54-6.12-2.88-2.04-6.75-1.99-9.61.07-3.36,2.42-4.31,6.72-2.56,10.57l-3.72-.04-25.48-.06.03,26.79c0,.16.39.58.5.59l8.22-.04c.03.54.14,1.23.22,1.78l-8.95.03.04,19.93c-.52.25-1.21.35-1.78.53.04-.6.1-1.3.1-2.01v-18.47s-13.53.03-13.53.03l-17.2-.06c.11-.61.2-1.21.41-1.75h10.27s17.91-.04,17.91-.04l-1.22-.94,2.44-.17.78-.05c.12,0,.13-.54.13-.66v-9.61s.02-3.67.02-3.67l.03-12.15-2.55-.06-15.68-.07c-.46,0-.65-1.31-.25-1.35,2.23-.24,4.26.02,6.5.01l11.78-.03c.13-.33.28-.89.27-1.16l1.51-.04c0,.29.01,1.2.42,1.2l27.33.06c-.99-5.8,2.39-11.18,8.47-11.53,8.07-.09,9.73,8.36,9.02,8.44l-.34.04ZM33.03,59.73c0-.07-.06-.13-.13-.13s-.13.06-.13.13.06.13.13.13.13-.06.13-.13Z"/><path class="u" d="M153.63,60.14l2.34.47c-.02.08.61.54.78.42.31-.22.85-.71,1.04-.93l1.07-.28c.28.04.91.18,1.28.18l9.49-.09,17,.08c1.03,0,1.98-.05,2.87-.09.2.55.18,1.22.31,1.81l-18.15.14h-1.21s-1.37-.02-1.37-.02l-10.83-.05v28.69s12.16.08,12.16.08l.08,1.05-.39.49-11.47-.02c-.25.67-.28.9-.29,1.26l-1.81.05-.21-1.39-6.64-.05-21.46-.16-7.4.02c-.25,0-.81-.11-.97-.17.5-.49.85-1.34,1.54-1.63l2.35.26,13.12.09,19.67.14.06-28.24c0-.34-.5-.62-.68-.61l-10.86.12c.1-.57.19-1.26.23-1.84,2.4.31,6.17-.2,8.37.24Z"/><path class="q" d="M20.71,89.5c-.12.03-.61.13-.79.13l-17.81-.03-.5-.1c-.07-.08-.45-.65-.47-1.01-.22-4.13-.04-9.48.17-13.93.89-.03,2.17-.37,3.16-.05.93.31,1.96,1.71,2.4,2.52l.95,1.77c.32.59.61,1.07,1.02,1.61.67.88,1.17,2.13,2.09,2.86.83.66,2.43.96,3.44.9.88-.05,1.67-.22,2.38.22,1.27.79.89,2.27,1.73,3.98.25.52,2.21.56,2.22.75l.02.39Z"/><path class="q" d="M188.19,130.64c-.62.09-1.36.24-2.05.5-8.04,2.92-16.12,4.58-24.66,5.57s-16.97,1.35-25.42,1.32c-.02-.09.33-.53.52-.58l3.34-.76c3.32-.76,1.86.35,5.36-1.7l11.23-.69,2.61-.31,8.85-1.09c.7-.48,1.68-.09,2.44-.22l6.41-1.13c1.56-.28,3.35-.75,4.88-1.14.45-.12.58-1.3.5-1.62l2.01-.58.11-4.7,4.63.06c.27,0,.89-.46.94-.54-.14,1.95-1.1,5.59-1.68,7.62Z"/><path class="k" d="M177.5,31.51l-6.03.07c-1.68-3.09-4.52-5.77-7.96-6.89.02-.7.14-1.75-.05-2.53-1.04-1.99-3.73-1.9-3.54-3.95,1.21.4,2.38,1.12,3.63,1.79,5.08,2.73,9.49,6.26,13.36,10.54.23.26.48.72.59.97Z"/><path class="u" d="M177.5,31.51c.51.34.93.86,1.2,1.42-.05.04-.55.21-.73.21l-4.72-.03c-.25,0-.74.38-.8.56-.3-.66-.62-1.45-.97-2.09l6.03-.07Z"/><path class="v" d="M190.04,121.98c-.04.28-.16.77-.18,1.04-.05.08-.67.55-.94.54l-4.63-.06v-1.51s3.14-.14,3.14-.14c.91-.04,1.82.05,2.6.14Z"/><path class="k" d="M2.11,89.61v1.49s-.6-.03-.6-.03c.04-.4.02-1.05.11-1.56l.5.1Z"/><polygon class="v" points="82.88 157.38 82.58 157.38 82.58 157.12 82.88 157.38"/><path class="d" d="M85.45,36.54c-.96.57-4.12,3.2-4.47,4.37l.41.67c-.16.15-.65.61-.65.8v3.15c-.41.56-1.09.68-1.82.73l-.79-.63c-.56-.45-1.24-1.14-1.84-1.47-2.15-1.18-4.45-.98-6.76-.43-.43.1-.78.41-.9.7l-1.77,1.11-1.06.66c-.79-.24-1.29-.86-1.33-1.76-.05-1.52.37-2.76,1.73-3.68,1.71-1.15,3.58.11,6.15-1.04l2.38-1.07c1.94-.87,3.28-2.07,4.79-3.67.66-.69,2.75-.74,3.58-.34l1.97.96c.21.1.35.77.36.94Z"/><path class="d" d="M96.73,35.74c.13.22.32.55.47.89,1.62,3.61,5.47,5.58,9.39,4.73l1.91-.41c.11.3.48.85.78.97.82.34,3.01-1.99,3.49-2.73.78-1.21,1.65-3.67,2.22-3.52l.16,3.49c-2.76,2.17-2.83,3.68-3.27,7-.8.86-3.67-1.03-3.89-1.71-.25-.75-.61-1.23-1.27-1.13-2.22.33-4.1.58-6.37.58-.95,0-2.53-1.59-3.65-1.34.02-.26-.03-.77-.03-1.04l.84-.09c1.42-.16-2.22-5.94-.79-5.69Z"/><path class="u" d="M96.73,31.31c-.05.39-.26,1.15-.23,1.54l-15.73-.09c-.12-.33-.06-1.26.27-1.49l15.68.04Z"/><path class="v" d="M34.8,29.92l-1.51.04c-.09-3.01-.18-8.8.03-12.06.35-.1,1.13-.36,1.47.27v11.75Z"/><circle class="e" cx="52.37" cy="23.68" r="2.06"/><path class="d" d="M156.52,93.37l-3.49.09-.08,21.72.14,2.8-.22,5.62h-3.37s-.21-3.75-.21-3.75l-.05-15.52-12.68.04v19.99s-.52-.77-.52-.77l-.93.85c-1.59.81-.83,1.67-1.87,2.05,0-.34-.16-.97-.24-1.31v-.28s.12-.26.12-.26l-.13-8.99-12.71-.04v6.39s-3.66-.11-3.66-.11l.04-23.43-.03-3.12c.54-.68,1.04-1.57,1.74-2.25l1.47-1.44c.16.05.72.17.97.17l7.4-.02,21.46.16,6.64.05.21,1.39Z"/><path class="q" d="M47.94,125.37l.26,1.79c-1.62,1.61-.44,4,.74,4.63.41.22,1.11-1.45,2.92-1.27,1.69,2.62,2.14-.18,4.77,1.5-.23.45-.58,1.45-.5,1.93.18,1.17,1.29,1.51,2.3,1.63-.15.38-.36.77-.66,1.24-.49.76.07,1.89.94,2.22l2.49.96c.49.19,1.55.29,1.86.63l1.3,1.46c.23.25.62.85.64,1.04-.94.52-1.71.94-2.47,1.63-.26.24.08,1.14.39,1.24l1.67.55c1.52.5,3.11,1.03,4.5,1.69.14.71.3,1.57.56,2.18.15.35,1.25.02,1.43-.31.21-.39.75-.66,1.24-.66.78.01,1.15-.53,1.69-.82l2.67-1.41c.49-.26,1.17.39,1.57.5l1.94.54c.82.23,1.54.34,2.21,0l.13,6.75.06,1.83h-14.16c-.84-.47-1.72-.4-2.66-.53l-3.64-.52c-1.44-.29-2.76-.36-4.27-.11-1.42.23-1.67-1.75-2.85-1.64-1.31.11-2.54-.24-3.76-.62-.83-.26-1.77-.42-2.67-.61-.95-.2-1.65-.7-2.52-1.16-1.54-.81-3.34-1.51-5.04-1.97-1.18-.32-1.86-.66-2.89-1.39-2.5-1.78-5.71-.4-4.86-2.92.13.07,1.32-.08,1.34-.41.07-.94.13-2.64.14-3.68l.11-16.16c4.31,1.2,8.72,1.24,13.08.24Z"/><path class="d" d="M121.38,89.98c.11-.24.35-.71.59-.97l15.62-17.63c.65-.73,6.1-1.83,7.02-7.16l.43-2.47,10.86-.12c.19,0,.68.27.68.61l-.06,28.24-19.67-.14-13.12-.09-2.35-.26Z"/><path class="k" d="M72.08,136.12l-.17,11.07c.93.12,1.7-.44,1.74-1.21l.17-3.86-.27-6.71.06-11.81h8.45s-.83.94-.83.94c-2.12,2.44-1.88,6.1.65,8.08.22.17.58.85.58,1.16l-.04,14.48c-.67.34-1.39.22-2.21,0l-1.94-.54c-.4-.11-1.08-.76-1.57-.5l-2.67,1.41c-.54.28-.91.83-1.69.82-.49,0-1.03.27-1.24.66-.19.34-1.29.66-1.43.31-.26-.61-.42-1.48-.56-2.18-1.39-.66-2.98-1.2-4.5-1.69l-1.67-.55c-.31-.1-.65-1-.39-1.24.76-.69,1.53-1.11,2.47-1.63-.03-.19-.42-.79-.64-1.04l-1.3-1.46c-.31-.35-1.38-.45-1.86-.63l-2.49-.96c-.88-.34-1.43-1.47-.94-2.22.3-.47.51-.86.66-1.24.63-.32,1.31-.8,1.5-1.33.28-.77-.16-1.91-.68-2.23-.76-.48-1.75-.37-2.62,0-2.63-1.68-3.08,1.12-4.77-1.5-1.81-.18-2.51,1.48-2.92,1.27-1.18-.63-2.36-3.02-.74-4.63l-.26-1.79c1.5-.35,2.99-1.38,4.46-1.85,1.61.11,3.25.14,5.01.15l14.45.04c.16,4.41.27,8.36.21,12.42ZM66.85,132.75c0-.97-.79-1.76-1.76-1.76s-1.76.79-1.76,1.76.79,1.76,1.76,1.76,1.76-.79,1.76-1.76Z"/><path class="k" d="M170.09,92.08c.12,0,.36.06.49.08l-.15,15.13-.39,23.67,10.31-1.93c.66-.12,1.27-.21,1.83-.25.08.32-.04,1.5-.5,1.62-1.53.39-3.32.87-4.88,1.14l-6.41,1.13c-.76.13-1.74-.26-2.44.22l-8.85,1.09-2.61.31-11.23.69c-3.5,2.04-2.03.94-5.36,1.7l-3.34.76c-.2.05-.55.49-.52.58-6.76-.03-13.54-.47-20.43-.27l-1.29.04-8.56-.34v-3.92c0-.4.79-.97,1.06-1.2,2.29-1.95,2.32-5.47.35-7.67-.22-.24-.42-.6-.52-.81,2.37-.27,5.41-.21,7.85-.22.22,0,.47.71.39.79l.04,5.94c0,1.28.36,2.56.83,3.68l1.38-.26.02.4c.01.2,1.05.19,1.05,0v-.44s.55-.02.55-.02c-.18,1.57,6.4,1.6,7.08,1.47l3.62-.65c1.41-.25,2.81-.28,4.14-.31.94-.02,1.6.11,2.29-.61l.66-.68,13.03-.4-.11-5.01c0,.07.46-.21.46-.34l.02-2.1-.5-.27c0-.35.06-.91.04-1.24h3.37s.05,8.8.05,8.8l13.9-1-.18-20.7v-17.36s-8.3-.02-8.3-.02c.01-.36.04-.59.29-1.26l11.47.02ZM114.25,133.34c.53-.19.57-2,.12-2.32-.89-.62-2.82-.64-3.88.04-.73.46-2.11,2.03-1.72,2.33.55.43,4.11.43,5.48-.05Z"/><path class="d" d="M135.31,32.89c.73.5,5.21.41,5.98-.02,1.63.14,3.29.15,4.93.07l.03.44-.17.28c-1.17,7.81,3.85,9.85,4.52,12.9.61,2.78.05,4.28.98,6.26l-.08,1.53c-.36.35-.41,1.01-.14,1.45,1.2,1.87-.36,1.4.61,2.49l1.65,1.86c-2.2-.44-5.97.08-8.37-.24l.23-2.93c.13-1.71-.61-3.5-1.91-4.65-2.61-2.3-8.26-3.34-11.89-4.14-.4-.09-1.06-.02-1.41-.05l-.79-.05c1.86-4-1.22-9-5.72-10.19-2.42-.64-4.67-.29-7.05.5v-5.52s8.85.03,8.85.03l9.74-.02Z"/><path class="d" d="M43.76,61.66l.34,2.38c.73,5.1,5.2,6.09,7.02,7.38,1.2.85,2.23,2.42,3.24,3.54l4.72,5.25,8.2,9.47c-.49.06-1.14.13-1.74.13h-8.07c-1.58-1.56-3.14-3.17-5.06-4.51-4.77-3.33-10.55-4.49-16.3-3.75-.45.06-.92.07-1.27.06l-.04-19.93,8.95-.03Z"/><path class="d" d="M72.07,95.31c-.05.19-.16.7-.16.97l.07,12.37-.03,10.67-1.42.14c-.65.68-.31,1.71.39,2.42l-16.16.1c3.8-3.22,6.18-7.69,6.94-12.7.08-.56.17-1.13-.06-1.44,1.08-5.65,0-11.3-2.94-16.25.43-.06,1.05-.14,1.57-.14l7.4.03c.26,0,.76-.09.95-.14,1.23,1.25,2.38,2.58,3.44,3.97Z"/><path class="d" d="M85.46,122.25c-.02-.08-.56-.31-.76-.31l-11.01-.05.05-3.83-.22-7.6.02-6.3.11-7.09,9.08,10.09,3.01,3.35.07,10.97c0,.23-.17.7-.35.76Z"/><path class="l" d="M103.56,122.28c-.16-.08-.74-.21-.74-.5v-11.16s6.23-6.97,6.23-6.97l4.69-5.29c.31-.35.79-.75,1.09-.99.03.22.12.72.12,1.04l-.02,23.47-10.28.05c-.35,0-.96.24-1.09.36Z"/><path class="u" d="M73.65,97.08l-.11,7.09-.02,6.3.22,7.6-.05,3.83,11.01.05c.2,0,.74.24.76.31-.56.16-1.61.56-2.23.83l-1.18.52h-8.45s-.06,11.81-.06,11.81l-.58.37c-.21.13-.63.29-.88.34.06-4.06-.05-8.01-.21-12.42l-14.45-.04c-1.75,0-3.4-.03-5.01-.15.64-.6,1.71-1,2.36-1.55l16.16-.1c-.7-.7-1.04-1.73-.39-2.42l1.42-.14.03-10.67-.07-12.37c0-.27.1-.78.16-.97.41.54,1.11,1.26,1.58,1.77Z"/><path class="d" d="M114.33,137.79c-.08.46-.08.98-.03,1.52l.46,2.43c.24,1.27.19,2.89,1.66,3.56l2.16.99,3.48.77c.47.1.9,1.15.87,1.61l-9.65.3-.19-.38c-2.25-.13-3.23-.62-4.87-1.57-2.75-1.6-.71-3.42-2.52-3.51l.06-6.05,8.56.34Z"/><path class="u" d="M120.28,121.97v1.59s-2.65.04-2.65.04c-.25,0-.77.14-1,.19-.26.07-.68.18-.95.29l-.78.33c.08-.08-.17-.79-.39-.79-2.44,0-5.48-.05-7.85.22l-3.1-1.57c.13-.12.74-.36,1.09-.36l10.28-.05.02-23.47c0-.32-.09-.82-.12-1.04.28-.83,1.3-1.42,1.8-2.05l.03,3.12-.04,23.43,3.67.11Z"/><path class="u" d="M67.28,89.69c.42.48.92,1.21,1.35,1.64-.2.05-.69.14-.95.14l-7.4-.03c-.52,0-1.14.08-1.57.14-.29-.49-.9-1.29-1.23-1.77h8.07c.59,0,1.24-.06,1.74-.12Z"/><path class="k" d="M113.28,148.96l-7.63.05.05-5.51c1.82.09-.23,1.9,2.52,3.51,1.64.96,2.62,1.44,4.87,1.57l.19.38Z"/><circle class="e" cx="30.21" cy="46.41" r="1.79"/><path class="t" d="M144.55,25.57l-3.94-3.32c-.4-.33-.4-1.46.05-1.78.57-.4,2.55-1.86,3.13-.55.27.6,2.28,5.72,1.37,5.68l-.61-.03Z"/><path class="t" d="M141.04,31.59l.25,1.28c-.78.43-5.25.52-5.98.02l-.02-1.65c0-.37.23-.96.45-1.24.18-.24,1.07-.4,1.34-.27l3.97,1.87Z"/><path class="u" d="M146.79,31.34l-.57,1.6c-1.64.08-3.3.07-4.93-.07l-.25-1.28,3.91-.19,1.84-.07Z"/><path class="q" d="M33.12,124.53l.07,14.49-.1,2.03c-.74-.07-.6,1.23-1.85,1.09.81-.8,1-1.87.16-2.84-.27-.31-1-1.15-1.34-.92l-1.24.86c-.24-.81-.92-1.45-1.33-2.21-.47-.88-.76-2.06-1.17-3l-.75-1.66c-.73-1.63,1.35-.36,1.48-3.01s-2.45-1.99-2.69-2.65c.76-1.02,3.91-2.43,4.49-3.42l1.26-.32,3.02,1.56Z"/><path class="v" d="M34.86,125.13l-.11,16.16c0,1.04-.07,2.74-.14,3.68-.02.33-1.21.48-1.34.41l-.19-4.33.1-2.03-.07-14.49c.41.21,1.27.47,1.74.6Z"/><path class="r" d="M31.24,142.14c-.78.33-1.79.3-2.36-.37s-.55-1.76-.06-2.53l1.24-.86c.33-.23,1.06.6,1.34.92.84.97.65,2.04-.16,2.84Z"/><path class="l" d="M33.08,82.15l-1.87.59c-2.37-1.13-1.77-.25-3.77-.8-.39-.11-.45-1.31-.71-1.63-.48-.59-1.69-.93-2.36-1.33-1.39-.83-.03-1.13-3.29-1.32-1.37-3.29-.5-.56-.83-3.96-.1-1.04.14-2.14.29-3.19l.35-2.34c.65-4.36-2.64-3.08-1.55-5.72l.31-.75,13.52-.03v18.47c0,.72-.05,1.41-.1,2.01Z"/><path class="u" d="M20.71,89.5l1.53.26c-.26.59-.64,1.27-.98,1.84.04-.04-.42-.34-.66-.34H3.99c-.75.02-1.35-.07-1.88-.16v-1.49s17.82.03,17.82.03c.18,0,.67-.1.79-.13Z"/><path class="r" d="M169.08,61.82c1.03,2.23-2.44,2.81-1.75,6.08.27,1.29,1.22.53,2.31,3.55l.23.64c.13.35,1.48-.68,2.68-.52l1.28-1.89.73,1.08c1.03,1.53,1.4.91,2.73,2.71.67.91,1.51,2.97.59,3.96-1.13,1.21-3.85-.59-4.1,1.87l-3.03.23-.16,10.25c0,.2-.13.65-.17.77l-12.14-.08v-28.69s10.81.05,10.81.05Z"/><path class="r" d="M171.66,61.83c.07.59.05.96-.5,1.6l-.7-1.59h1.21Z"/><path class="r" d="M173.55,48.1c-.17,1.89.88,1.56,1.76,2.83-.11.02-.38.11-.37.24l.05.56c.16,1.72-2.26,3.2-2.24,3.87-.98-.2-2.26-2.81-3.35-2.35-1,1.59,1.33,4.36,2.31,5.51l-1.47.14c-.28.03-.59.83-.61,1l-9.49.09c-.36,0-.99-.13-1.28-.18.25-.43.32-.9.33-1.55l1.18-.38c.6-.19.48-1.36.02-1.74l.04-1.53c2.61.52,1.83-3.1,4.1-5.3,2.8-2.71,6.73-2.66,8.45-10.39l.68.52c.17.13-.04.79.04,1.03.41,1.15.8,2.8,1,4.11.44,2.85-.96,1.09-1.17,3.51Z"/><path class="t" d="M175.31,50.93c-.88-1.28-1.92-.94-1.76-2.83,1.33-.09,3.89,1.11,5.28,1.82.66.34.63,1.58.12,2.09-1.31,1.3-2.65-.85-3.64-1.07Z"/><path class="t" d="M172.75,55.6l.53.87c.35.57.48,1.69-.26,2.04-.32.15-.99.22-1.31.25-.99-1.15-3.31-3.92-2.31-5.51,1.09-.45,2.37,2.15,3.35,2.35Z"/><path class="u" d="M184.27,92.1c.02-.45,0-1.1,0-1.56l6.87.12c.4,0,.44,1.48.05,1.48l-6.92-.05Z"/><circle class="k" cx="32.9" cy="59.73" r=".13"/><path class="r" d="M120.29,123.56l.1,2.32-.09,7.21,12.9-.02.04-1.86c.01.06.46-.19.46-.32l.03-1.62-.51-.25.03-2.56c1.05-.38.28-1.24,1.87-2.05l.93-.85.53.77c0,.13.01.36,0,.48-.11,2.03-.12,5.92-.02,8.13l-.66.68c-.69.72-1.35.59-2.29.61-1.33.03-2.72.06-4.14.31l-3.62.65c-.68.12-7.26.09-7.08-1.47.28-.4.53-.98.58-1.41s-.45-1.47-.93-1.52l-1.74-.18-.06-6.83c.23-.06.75-.19,1-.19l2.66-.04Z"/><path class="g" d="M58.44,135.57c-1.01-.12-2.12-.46-2.3-1.63-.08-.48.27-1.47.5-1.93.88-.37,1.86-.48,2.62,0,.52.32.97,1.46.68,2.23-.2.53-.87,1.01-1.5,1.33Z"/><path class="v" d="M73.54,135.41l.27,6.71-.17,3.86c-.03.77-.81,1.33-1.74,1.21l.17-11.07c.25-.06.68-.21.88-.34l.58-.37Z"/><circle class="g" cx="65.1" cy="132.75" r="1.76"/><path class="v" d="M116.62,123.8l.06,6.83,1.74.18c.48.05.98,1.08.93,1.52s-.31,1.01-.58,1.41l-.55.02c-.29,0-.81-.02-1.08.03l-1.38.26c-.47-1.12-.82-2.4-.83-3.68l-.04-5.94.78-.33c.27-.11.68-.22.95-.29Z"/><path class="v" d="M114.25,133.34c-1.37.48-4.93.48-5.48.05-.39-.31.99-1.87,1.72-2.33,1.06-.67,2.99-.66,3.88-.04.45.31.41,2.13-.12,2.32Z"/><path class="r" d="M118.23,133.75v.44c0,.18-1.04.19-1.05,0l-.02-.4c.27-.05.79-.02,1.08-.03Z"/><path class="y" d="M163.52,24.69c3.44,1.13,6.28,3.8,7.96,6.89.35.64.67,1.43.97,2.09l.29,1.55c.06.33.16.72.25,1.05v.52s0,.79,0,.79c0,.37.05,1,0,1.34-1.72,7.73-5.66,7.68-8.45,10.39-2.27,2.2-1.49,5.82-4.1,5.3l-5.85-1.16-3.02-.63c-.93-1.98-.37-3.48-.98-6.26-.67-3.05-5.7-5.09-4.52-12.9.05-.03.18-.18.17-.28l-.03-.44.57-1.6c1.2-2.07,2.6-3.9,4.82-5.23,3.5-2.1,7.97-2.71,11.91-1.42ZM156.26,51.23c.54.1,1.08.04,1.8-.07.59-.09,1.09-.28,1.52-.82,2.72-3.43,3.66-3.28,7.08-6.01,2.44-1.94,3.49-4.96,2.94-8.08-.94-5.35-5.74-9.13-11.13-8.78-2.93.19-5.6,1.41-7.28,3.76-1.88,2.63-2.22,5.85-.71,8.73s3.13,3.47,3.54,6.97c.19,1.63.54,3.18,1,4.84l1.25-.52Z"/><path class="r" d="M172.99,36.27c-.09-.33-.19-.72-.25-1.05l.54.43c.14.11-.21.54-.29.61Z"/><path class="r" d="M173,37.58v-.79c.08.02.41.29.33.39l-.33.39Z"/><path class="m" d="M160.41,56.14c.46.38.58,1.55-.02,1.74l-1.18.38c-.02.66-.08,1.13-.33,1.55l-1.07.28c-.25.07-.8.12-1.06.22l-.76.29-2.34-.47-1.65-1.86c-.97-1.09.59-.62-.61-2.49-.28-.44-.22-1.09.14-1.45.86.07,1.89.15,2.83.37l6.07,1.42Z"/><path class="d" d="M157.8,60.09c-.19.22-.73.71-1.04.93-.17.12-.81-.33-.78-.42l.76-.29c.26-.1.81-.16,1.06-.22Z"/><path class="q" d="M160.45,54.61l-.04,1.53-6.07-1.42c-.94-.22-1.96-.3-2.83-.37l.08-1.53,3.02.63,5.85,1.16Z"/><path class="u" d="M146.07,33.65l.17-.28c0,.09-.13.24-.17.28Z"/><path class="t" d="M158.05,51.16l1.4-7.73c.12-.68.53-1.6.81-2.09.87.62,3.54,2.81,4.02,1.39.26-.77-.12-1.94-.86-2.36-2.84-1.63-3.18.78-5.95-1.06-1.28-.85-2.73-1.09-4.11-.37-.48.25-.93,1.13-.58,1.52,1.11,1.25,2.53,1.16,4,.4.14.29.45,1.12.39,1.43l-1.13,6.57c-.14.83-.04,1.67.21,2.35l-1.25.52c-.46-1.66-.81-3.21-1-4.84-.41-3.49-1.97-3.99-3.54-6.97s-1.17-6.1.71-8.73c1.67-2.34,4.34-3.56,7.28-3.76,5.39-.35,10.19,3.43,11.13,8.78.55,3.12-.5,6.14-2.94,8.08-3.42,2.73-4.36,2.58-7.08,6.01-.43.54-.93.73-1.52.82Z"/><path class="o" d="M158.05,51.16c-.72.11-1.26.17-1.8.07-.25-.68-.35-1.52-.21-2.35l1.13-6.57c.05-.31-.25-1.14-.39-1.43-1.47.76-2.89.85-4-.4-.35-.39.1-1.27.58-1.52,1.38-.72,2.83-.49,4.11.37,2.77,1.84,3.11-.57,5.95,1.06.73.42,1.12,1.59.86,2.36-.48,1.42-3.15-.77-4.02-1.39-.29.49-.69,1.41-.81,2.09l-1.4,7.73Z"/><path class="s" d="M145.26,59.9c-.05.58-.13,1.27-.23,1.84l-.43,2.47c-.92,5.33-6.37,6.43-7.02,7.16l-15.62,17.63c-.23.26-.47.74-.59.97-.69.29-1.03,1.14-1.54,1.63l-1.47,1.44c-.7.68-1.2,1.57-1.74,2.25-.5.63-1.53,1.22-1.8,2.05-.31.24-.78.64-1.09.99l-4.69,5.29-6.22,6.97v11.16c0,.29.57.42.73.5l3.1,1.57c.1.21.3.56.52.81,1.97,2.2,1.94,5.71-.35,7.67-.27.23-1.06.81-1.06,1.2v3.92s-.07,6.05-.07,6.05l-.05,5.51-.16,6.52-.11,1.87-1.18,2.29c-1.31,2.54-4.22,4.01-7.1,4.28-6.3.6-11.79-.22-14.23-6.58l-.3-.26.03-.26-.06-1.83-.13-6.75.04-14.48c0-.3-.36-.99-.58-1.16-2.53-1.98-2.77-5.64-.65-8.08l.83-.95,1.18-.52c.62-.27,1.67-.67,2.23-.83.18-.05.36-.53.35-.76l-.07-10.97-3.01-3.35-9.08-10.09c-.46-.52-1.16-1.23-1.58-1.77-1.07-1.39-2.21-2.71-3.44-3.97-.42-.43-.93-1.16-1.35-1.64l-8.2-9.47-4.72-5.25c-1.01-1.12-2.04-2.69-3.24-3.54-1.83-1.3-6.29-2.28-7.02-7.38l-.34-2.38c-.08-.55-.19-1.24-.22-1.78l-.17-2.65c-.29-4.59,3.61-6.37,7.25-7.56,2.3-.75,4.52-1.17,6.79-1.34-.09.07-.49.3-.71.36-3.3.84-6.8,1.68-9.44,3.9-.95.8-1.23,1.99-1.07,3.07l1.05,7.05c.21,1.39,1.01,2.6,2.24,3.3,1.68.95,3.44,1.7,5.33,2.21,4.28,1.18,8.4,2.06,12.86,2.68,18.73,2.6,41.42,2.5,59.95-1.13,3.86-.76,7.51-1.78,11.03-3.38,1.65-.75,2.62-2.18,2.89-3.91l.79-5.01c.08-.5.08-1.29.11-1.72,1.81-4.69-9.51-6.67-12.16-7.61.35.02,1.01-.04,1.41.05,3.63.8,9.28,1.84,11.89,4.14,1.3,1.15,2.04,2.94,1.91,4.65l-.23,2.93ZM89.47,108.93v15.61c1.1.24,2.08.4,3.05.5,1.23.13,2.44.12,3.66-.02.94-.11,1.89-.27,2.79-.67l-.15-15.21,7.09-7.87,24.78-28.17c-1.38.13-2.47.21-3.7.53l-1.91.51-2.51.36c-11.39,1.61-22.68,2.3-34.23,1.94-6.93-.21-13.69-.06-20.2-1.48l-2.27-.49-2.44-.23c-.45-.04-1.34-.55-1.75-.62l-3.67-.61,11.14,12.86,16.91,19.42c1.16,1.33,2.26,2.47,3.4,3.63ZM82.71,127.96c-.2,2.12,3.03,3.31,4.83,3.72,3.77.87,7.53.91,11.32.3,1.93-.31,4.97-.52,6.54-3.16.34-.57.52-1.29.12-2.01-.53-.97-1.64-1.58-2.7-1.74-.77,1.04-1.71,1.89-2.99,2.19-3.51.82-11.94,1.46-14.22-2.3-1.4.29-2.97,1.35-2.9,3ZM85.99,152.92c-.3,2.1.35,4.17,1.81,5.82.71.81,1.73.93,2.66,1.48,1.69.98,5.49.74,7.11,0,.3-.14,1-.2,1.34-.42,1.92-1.19,3.25-3.23,3.25-5.61v-19.71c-4.08.85-7.76,1.02-11.76.72-1.42-.11-2.84-.58-4.53-.87l.12,18.59Z"/><path class="s" d="M128.74,48.04c-.14.69-.65,1.95-.99,2.56-.92,1.1-2.33,2.54-3.77,2.98-2.89.87-6,.36-8.38-1.49-1.04-.81-2.17-3.96-3.04-3.06l-.19,1.44c.43.32.59.6.6.89v1.27c.04,2.8-.7,4.48-2.32,6.67l-1.05,1.04c4.87-.25,9.45-.68,14.06-1.52,2.24-.4,5.56-1.46,7.19-3.35.86-1,.9-2.36.15-3.36l-.68-.91c1.38.07,6.03,1.81,6.18,3.56.28,3.25-13.33,5.19-15.9,5.42l-13.63,1.22c-1.27.11-2.41.14-3.74.16-11.42.17-22.63-.03-34-1.24-4.14-.44-7.95-1.26-11.92-2.22-1.25-.3-5.06-1.78-5.04-3.32.02-1.86,5.77-3.67,7.21-3.59l-1.87,2.1c-.42.48.05,1.96.51,2.42,2.79,2.76,5.93,3.11,9.71,3.77l-1.37-1.31c-1.86-1.78-2.78-4.08-2.62-6.67l-.41-1.08c.29-.77.55-1.57.75-2.35.58-.57,1.11-1.21,1.61-1.87l1.06-.66,1.77-1.11c.36.01,1.13.1,1.51.04,3.7-.53,4.67.39,7.46,1.89,1.37,1.62,2.5,3.58,2.4,5.91l-.1,2.32c-1.07,2.72-2.99,4.61-6.04,5.74l13.69.15,12.57-.13c-.44-.46-.88-.79-1.29-1.06-2.17-2.49-2.72-5.73-1.85-8.89,1.52-1.87,1.76-3.25,4.54-4.37s5.51-.45,8.14.86c.54.27,1.56.34,2.06.82l1.29-.18c.12-.02.09-.38-.02-.43l-.4-.16c.24-.32.46-.89.5-1.47.27-3.63,3.22-6.32,6.77-6.76,2.68-.33,5.15.55,6.96,2.49,1.64,1.75,2.42,4.38,1.93,6.85ZM125.37,46.27c0-2.43-1.97-4.4-4.4-4.4s-4.4,1.97-4.4,4.4,1.97,4.4,4.4,4.4,4.4-1.97,4.4-4.4ZM76.62,52.32c0-2.56-2.08-4.64-4.64-4.64s-4.64,2.08-4.64,4.64,2.08,4.64,4.64,4.64,4.64-2.08,4.64-4.64ZM109.38,53.54c0-2.59-2.1-4.68-4.68-4.68s-4.68,2.1-4.68,4.68,2.1,4.68,4.68,4.68,4.68-2.1,4.68-4.68Z"/><path class="o" d="M64.2,48.07c-.2.78-.47,1.58-.75,2.35-1.29-.02-2.84.11-3.96.77-1.44-.08-7.19,1.73-7.21,3.59-.02,1.54,3.79,3.02,5.04,3.32,3.97.96,7.78,1.78,11.92,2.22,11.37,1.21,22.59,1.41,34,1.24,1.33-.02,2.47-.05,3.74-.16l13.63-1.22c2.57-.23,16.18-2.17,15.9-5.42-.15-1.76-4.8-3.5-6.18-3.56-.78-.39-1.71-.61-2.58-.6.34-.61.85-1.87.99-2.56l.76.05.79.05c2.66.94,13.97,2.93,12.16,7.61-2.79,4.73-19.8,7.07-25.19,7.62-14.55,1.47-29.02,1.55-43.59.22-5.79-.53-24.57-2.84-27.47-7.94-.16-1.08.11-2.26,1.07-3.07,2.64-2.22,6.13-3.06,9.44-3.9.22-.06.62-.28.71-.36,1.19-.09,2.58-.73,3.93-.75l2.58-.04c.13,0,.32.5.28.52Z"/><path class="u" d="M116.64,20.42l.1,10.92,16.42.03c.75,0,1.5-.09,2.13-.15l.02,1.65-9.74.02-8.85-.03v5.52c2.38-.79,4.64-1.13,7.06-.5,4.5,1.18,7.58,6.19,5.72,10.19l-.76-.05c.49-2.47-.29-5.09-1.93-6.85-1.81-1.94-4.28-2.82-6.96-2.49-3.54.44-6.5,3.13-6.77,6.76-.04.58-.26,1.16-.5,1.47l.4.16c.11.04.14.41.02.43l-1.29.18c-.49-.48-1.51-.55-2.06-.82-2.62-1.31-5.3-2-8.14-.86s-3.02,2.5-4.54,4.37c-.08-.11-.08-.13-.15-.17-.07-.03-.45.06-.5.12l-.64.9-2.65-.33c-.31-.04-.81-.19-1.07-.29l.78-.58c.58-.43,1.5-.94,1.96-1.39.57.3,1.97.39,2.42-.11l2.25-2.47-2.95-.14.29-3.35c1.12-.25,2.7,1.34,3.65,1.34,2.27,0,4.15-.25,6.37-.58.66-.1,1.02.38,1.27,1.13.22.67,3.09,2.57,3.89,1.71.44-3.32.51-4.83,3.27-7l-.16-3.49-.02-2.6c-.34-.14-1.02-.26-1.03-.52l-.07-1.05,1.18-.29-.05-10.18c.57-.15,1.12-.35,1.65-.62Z"/><path class="p" d="M142.45,55.75c-.03.43-.03,1.22-.11,1.72l-.79,5.01c-.27,1.73-1.24,3.16-2.89,3.91-3.52,1.6-7.17,2.62-11.03,3.38-18.53,3.63-41.22,3.73-59.95,1.13-4.46-.62-8.58-1.5-12.86-2.68-1.88-.52-3.65-1.26-5.33-2.21-1.23-.7-2.03-1.9-2.24-3.3l-1.05-7.05c2.89,5.1,21.68,7.41,27.47,7.94,14.57,1.33,29.04,1.25,43.59-.22,5.39-.55,22.41-2.89,25.19-7.62Z"/><path class="c" d="M125.1,74.15c-.1.43-.41.83-.78,1.25l-5.41,6.12c-.38.43-.78.81-1.16,1.1-.12-.86-.83-1.72-1.59-1.91-.9-.23-1.91.08-2.36.94-.35.67-.18,1.65.28,2.13.44.45,1.15.73,1.76.82-.24.45-.61,1.01-1,1.45l-2.54,2.81c-1.18-.24-.93,2.26-3.05,3.28l-.74-.89c-.53-.64-1.68-.48-2.21.12s-.57,1.66.16,2.3c.23.2.78.43,1.05.51-.25.55-.65.95-1.08,1.36-.53.44-1.96-.71-2.13-.33l-.38.84-.23-.87c-.27.64-.48,1.46-.8,2.01l-1.08,1.86c-.13.22-.57.47-.83.48l-.65-.67c.06-.61.11-1.55,0-2.23-.06-.36-1.47-.2-1.42.17l.21,1.74c-.96.02-2.58,1.51-2.11,2.75-.88-.03-1.76-.16-2.64-.35.99-1.24,1.34-2.88.23-4.4.36-.3.61-.98.4-1.29-1.01-1.45-.9-2.8-2.15-3-2.77-.44-2,1.78-3.42,2.16-.6.16-1.35.04-1.67-.41.19-.92.27-2.43-.73-3.18l1.19-.67,1.51-.85c.77.77,1.68,1.45,2.68,1.41,1.15-.04,2.22-.71,2.62-1.84.62-1.74-.64-3.5-2.33-3.68-1.83-.2-3.32,1.14-3.27,3.21-2.12-.87-.16-.51-3.62-1.95-.56-.23-1.66,0-2.62.11-.07-.79-.16-1.75-.19-2.54-.03-.95.61-2.05-.13-3.03-.99-1.29-2.91-1.73-4.29-.66-.93.72-1.4,2.52-.92,3.65-.25.31-1.04.29-1.31.03l-.91-.89c.12-.45.3-1.21.2-1.72-.23-1.16-1.86-1.82-3.04-1.3-.5-.53-1.15-.9-1.85-1.08.03-1.19-.75-2.14-1.8-2.68-.21-.46-.5-.93-.8-1.38,6.51,1.42,13.27,1.26,20.2,1.48,11.54.36,22.84-.33,34.23-1.94l2.51-.36ZM104.55,79.32c.09-.75-.75-1.61-1.28-1.77-.64-.2-1.52-.05-2.01.44-.44.45-.61,1.3-.39,1.73.29.58.91.91,1.6.91.84,0,1.94-.19,2.07-1.3ZM99.64,82.49c0-1.55-1.25-2.8-2.8-2.8s-2.8,1.25-2.8,2.8,1.25,2.8,2.8,2.8,2.8-1.25,2.8-2.8ZM110.16,82.55c0-1.27-1.03-2.3-2.3-2.3s-2.3,1.03-2.3,2.3,1.03,2.3,2.3,2.3,2.3-1.03,2.3-2.3ZM88.51,82.01c-.36-.58-1.47-.83-2.06-.67-.49.13-1.2.73-1.35,1.36-.2.85.41,1.59.96,1.84.76.34,1.63.21,2.14-.28s.82-1.41.31-2.25ZM105.55,87.23c0-1.22-.99-2.2-2.2-2.2s-2.2.99-2.2,2.2.99,2.2,2.2,2.2,2.2-.99,2.2-2.2ZM101.96,92.62c0-1.55-1.25-2.8-2.8-2.8s-2.8,1.25-2.8,2.8,1.25,2.8,2.8,2.8,2.8-1.25,2.8-2.8Z"/><path class="e" d="M63.45,74.24c.03.1.25.62.39.77l2.94,3.25c.27.29.66.58.91.74l.17.21c.05.13.26.62.39.77l6.12,6.91,2.23,2.52c.56.63,1.08,1.21,1.67,1.64.39.73.99,1.35,1.66,1.85.17.39.45.9.85,1.36l4.21,4.76c.22.25,1.22.24,1.46.22l-.36,1.05c1.79,2.03,4.1,5.46,6.98,5.94s5.5-1.01,6.6-3.36c.68-.3,1.26-.9,1.55-1.59.85-.63,1.58-1.42,2.4-2.31.54-.59.79-1.33.74-2.08l1.01-.07c.14-.01.26-.43.28-.51l.78-.77c.43-.41.83-.81,1.08-1.36.76-.47,1.38-1.21,1.75-2.03,2.12-1.02,1.87-3.53,3.05-3.28l2.54-2.81c.39-.43.75-.99,1-1.45.79-.46,1.45-1.18,1.9-1.99.38-.29.78-.67,1.16-1.1l5.41-6.12c.37-.42.68-.82.78-1.25l1.91-.51c1.23-.32,2.31-.4,3.7-.53l-24.78,28.17-7.09,7.87c-.67-.11-1.86.38-2.67.6-1.43.17-2.36-1.01-3.64.16l-3.05-.97c-1.13-1.16-2.24-2.31-3.4-3.63l-16.91-19.42-11.14-12.86,3.67.61c.4.07,1.3.58,1.75.62Z"/><path class="e" d="M97.57,160.22c.03-.75-.65-1.27-1.4-1.49l-1.17-.35c3.44-2.32,3.75-2.98,3.32-6.99.26-.9.29-2.06-.29-2.85-.86-1.19-2.64-1.21-3.43-.05l.51,2.39c.07.33.02,1.09-.05,1.43l-.84.88c-.96-.94-2.48-.96-3.7-.32v-2.52c.42.02,1.33-.07,1.72-.26,1.23-.59,1.67-1.86,1.28-2.98s-1.62-1.8-3.03-1.51l-.09-10.38c4,.3,7.68.13,11.77-.72v19.71c0,2.39-1.35,4.42-3.26,5.61-.34.21-1.04.28-1.34.42ZM98.54,141.58c0-1.62-1.32-2.94-2.94-2.94s-2.94,1.32-2.94,2.94,1.32,2.94,2.94,2.94,2.94-1.32,2.94-2.94Z"/><path class="f" d="M90.4,135.2l.09,10.38c-.72.28-1.44.92-1.59,1.51-.23.89.02,1.97.64,2.46l.97.78v2.52s-.33.33-.33.33l-2.64-.18-1.54-.09-.12-18.59c1.69.3,3.11.77,4.53.87Z"/><path class="e" d="M105.39,128.81c-1.92.13-4.86.81-6.86.91-5.27.25-10.77-.2-15.82-1.77-.07-1.65,1.51-2.71,2.9-3,2.27,3.75,10.71,3.11,14.22,2.3,1.28-.3,2.22-1.15,2.99-2.19,1.07.16,2.17.77,2.7,1.74.39.72.21,1.45-.12,2.01Z"/><path class="x" d="M96.17,109.74l.03,15.29c-1.22.14-2.43.15-3.66.02v-15.15c1.27-1.17,2.2,0,3.64-.16Z"/><path class="n" d="M92.52,109.9v15.15c-.97-.1-1.95-.25-3.04-.5v-15.61s3.04.97,3.04.97Z"/><path class="c" d="M98.83,109.14l.15,15.21c-.9.41-1.85.56-2.79.67l-.03-15.29c.81-.21,2-.71,2.67-.6Z"/><path class="w" d="M98.31,151.39c.44,4.01.12,4.67-3.32,6.99l1.17.35c.76.23,1.44.75,1.4,1.49-1.62.74-5.42.98-7.11,0,.04-1.02.23-2.05.49-3.06.58.35,1.8.39,2.46.08s1.28-1.08,1.42-1.64c.17-.66-.02-1.84-.61-2.42l.84-.88c.07-.34.12-1.1.05-1.43l1.71,1.2,1.5-.69Z"/><path class="f" d="M98.53,129.72l.32,2.25c-3.79.61-7.54.57-11.32-.3-1.8-.41-5.02-1.6-4.83-3.72,5.05,1.57,10.55,2.02,15.82,1.77Z"/><path class="n" d="M90.18,153.19c-.71,1.35-.75,3.05.77,3.97-.26,1.01-.45,2.04-.49,3.06-.93-.54-1.95-.67-2.66-1.48-1.46-1.66-2.11-3.72-1.81-5.82l1.54.09,2.64.18Z"/><path class="m" d="M105.39,128.81c-1.58,2.64-4.61,2.85-6.54,3.16l-.32-2.25c2.01-.09,4.94-.78,6.86-.91Z"/><path class="n" d="M68.16,74.97c.3.45.58.91.8,1.38-.32,0-.95.09-1.21.25s-.27.92-.22,1.22l.17,1.19c-.26-.16-.65-.45-.91-.74l-2.94-3.25c-.14-.16-.36-.67-.39-.77l2.44.23,2.27.49Z"/><path class="s" d="M121.15,13.12c0-4.52-3.66-8.18-8.18-8.18s-8.18,3.66-8.18,8.18,3.66,8.18,8.18,8.18,8.18-3.66,8.18-8.18ZM117.62,13.16c0-2.59-2.1-4.68-4.68-4.68s-4.68,2.1-4.68,4.68,2.1,4.68,4.68,4.68,4.68-2.1,4.68-4.68Z"/><circle class="t" cx="112.94" cy="13.16" r="4.68"/><path class="s" d="M96.92,7.85c0-4.34-3.52-7.85-7.85-7.85s-7.85,3.52-7.85,7.85,3.52,7.85,7.85,7.85,7.85-3.52,7.85-7.85ZM93.63,7.87c0-2.51-2.03-4.54-4.54-4.54s-4.54,2.03-4.54,4.54,2.03,4.54,4.54,4.54,4.54-2.03,4.54-4.54Z"/><circle class="j" cx="89.09" cy="7.87" r="4.54"/><path class="v" d="M83.3,48.81c2.43,2.16,5.57,2.64,8.67,1.8.26.1.76.25,1.07.29l2.65.33c-.03,1.34-.27,2.94.24,4.25l1.01,2.6c.33.86,1.03,1.4,1.88,1.19.41.27.85.6,1.29,1.06l-12.57.13-13.69-.15c3.06-1.13,4.97-3.02,6.04-5.74,1.43-.47,1.08-4.51.87-5.67l2.53-.09ZM89.42,56.95c0-1.41-1.14-2.55-2.55-2.55s-2.55,1.14-2.55,2.55,1.14,2.55,2.55,2.55,2.55-1.14,2.55-2.55Z"/><path class="r" d="M123.97,53.57l-.33,2.62.03,2.62c-4.62.83-9.19,1.26-14.06,1.52l1.05-1.04c.69.1,1.29-.17,1.93-.57l1.14-.72c-1.12-1.42,0-1.01.21-4.96.02-.3,0-.8.19-.81l.73-.02c.23,0,.72-.09.74-.13,2.38,1.85,5.49,2.36,8.38,1.49Z"/><circle class="r" cx="120.97" cy="46.27" r="4.4"/><path class="i" d="M63.45,50.42l.41,1.08c-.15,2.59.76,4.89,2.62,6.67l1.37,1.31c-3.79-.66-6.92-1.01-9.71-3.77-.47-.46-.94-1.94-.51-2.42l1.87-2.1c1.12-.66,2.67-.79,3.96-.77Z"/><path class="q" d="M130.32,51.2l.68.91c.75,1,.72,2.36-.15,3.36-1.63,1.89-4.95,2.94-7.19,3.35l-.03-2.62.33-2.62c1.45-.43,2.85-1.88,3.77-2.98.87,0,1.8.21,2.58.6Z"/><path class="u" d="M115.59,52.08s-.5.13-.74.13l-.73.02c-.19,0-.18.51-.19.81-.21,3.95-1.33,3.54-.21,4.96l-1.14.72c-.64.4-1.24.67-1.93.57,1.62-2.19,2.36-3.86,2.33-6.67v-1.27c-.01-.29-.18-.57-.61-.89l.19-1.44c.87-.9,1.99,2.25,3.04,3.06Z"/><path class="u" d="M78.92,46.25l-1.32.1c-2.79-1.5-3.76-2.42-7.46-1.89-.38.05-1.15-.03-1.51-.04.12-.29.47-.59.9-.7,2.31-.55,4.61-.75,6.76.43.61.33,1.28,1.02,1.84,1.47l.79.63Z"/><circle class="j" cx="71.98" cy="52.32" r="4.64"/><path class="g" d="M78.92,46.25c.2.31.46.71.72,1.07l1.13,1.58c.21,1.16.57,5.2-.87,5.67l.1-2.32c.1-2.33-1.04-4.29-2.4-5.91l1.32-.1Z"/><circle class="w" cx="104.69" cy="53.54" r="4.68"/><path class="g" d="M96.98,50.39c-.88,3.15-.32,6.4,1.85,8.89-.86.22-1.55-.32-1.88-1.19l-1.01-2.6c-.51-1.31-.27-2.91-.24-4.25l.64-.9c.04-.06.43-.15.5-.12.08.04.08.06.15.17Z"/><path class="s" d="M79.7,28.13l-.15,3.05c-.04.85-.35,1.31-.89,1.95-1.79,2.11-3.16,3.18-6.06,3.6-3.63.53-6.64-1.19-8.61-4.08-1.75-3.85-.81-8.15,2.56-10.57,2.86-2.06,6.73-2.1,9.61-.07,2.04,1.44,3.63,4.26,3.54,6.12ZM76.2,28.72c0-2.62-2.13-4.75-4.75-4.75s-4.75,2.13-4.75,4.75,2.13,4.75,4.75,4.75,4.75-2.13,4.75-4.75Z"/><circle class="y" cx="71.45" cy="28.72" r="4.75"/><path class="e" d="M94.71,48.65c.36-.35,1.4-2.55,1.72-2.72l2.95.14-2.25,2.47c-.45.49-1.85.41-2.42.11Z"/><path class="s" d="M108.5,40.96l-1.91.41c-3.91.84-7.77-1.12-9.39-4.73-.15-.34-.34-.67-.47-.89l-.23-2.89c-.03-.39.17-1.15.23-1.54,1.79-5,6.91-7.16,11.54-4.97,2.37,1.12,4.34,3.61,4.57,6.57.28,3.53-1.48,6.31-4.34,8.05ZM109.47,33.55c0-2.59-2.1-4.69-4.69-4.69s-4.69,2.1-4.69,4.69,2.1,4.69,4.69,4.69,4.69-2.1,4.69-4.69Z"/><circle class="g" cx="104.78" cy="33.55" r="4.69"/><path class="s" d="M96.68,41.53c0,.27.06.78.03,1.04l-.29,3.35c-.32.17-1.36,2.37-1.72,2.72-.46.45-1.38.96-1.96,1.39l-.78.58c-3.1.84-6.24.36-8.67-1.8-.69-.61-1.38-2.94-2.55-3.29v-3.15c-.01-.19.47-.65.64-.8l-.41-.67c.35-1.17,3.51-3.8,4.47-4.37s2.17-.23,4.19-1.36c.49-.27,1.44.69,1.96.95,3.26,1.59,3.67,2.54,5.09,5.41ZM93.2,43.27c0-2.38-1.93-4.31-4.31-4.31s-4.31,1.93-4.31,4.31,1.93,4.31,4.31,4.31,4.31-1.93,4.31-4.31Z"/><circle class="t" cx="88.9" cy="43.27" r="4.31"/><path class="e" d="M83.3,48.81l-2.53.09-1.13-1.58c-.26-.37-.52-.76-.72-1.07.72-.06,1.41-.17,1.83-.73,1.17.35,1.86,2.68,2.55,3.29Z"/><path class="n" d="M72.61,80.1c-.82.36-1.02,1.99-.58,2.58.89,1.2,2.23,1.14,3.42.44l.91.89c.27.26,1.05.28,1.31-.03.35.82,1.93,1.38,2.7,1.43.98.06,2.01-.62,2.64-1.39.03.79.12,1.75.19,2.54.97-.12,2.07-.34,2.62-.11,3.45,1.43,1.49,1.07,3.62,1.95l.29.9-1.51.85-1.19.67c-1.18-.88-2.98-.58-3.86.6-.6.81-.65,1.81-.26,2.62s1.44,1.43,2.55,1.26c.82-.12,1.65-.73,2.3-1.3.31.45,1.06.58,1.67.41,1.42-.38.64-2.6,3.42-2.16,1.25.2,1.14,1.55,2.15,3,.21.31-.04.99-.4,1.29-.49-.67-2.14-.81-2.88-.68-.95.18-1.96.96-2.25,2.03-.36,1.33.33,2.55,1.33,3.16,1.06.64,2.32.49,3.56-.11.88.19,1.75.32,2.64.35.39,1.03,1.69,1.52,2.68,1.59-1.1,2.35-3.85,3.82-6.6,3.36s-5.19-3.91-6.98-5.94l.36-1.05c-.24.02-1.24.03-1.46-.22l-4.21-4.76c-.4-.46-.69-.97-.85-1.36.92.1,1.74-.46,1.75-1.63,0-.43-.24-1.26-.54-1.53-.85-.78-2.49-.26-2.61.07s-.22.91-.27,1.24c-.59-.42-1.12-1.01-1.67-1.64l-2.23-2.52-6.12-6.91c-.13-.15-.34-.64-.39-.77l1.24.45c.51.19,1.31-.18,1.65-.64.71.19,1.36.55,1.85,1.08Z"/><path class="i" d="M94.61,96.53c1.11,1.52.76,3.16-.23,4.4-1.24.59-2.51.74-3.56.11-1-.6-1.7-1.82-1.33-3.16.29-1.07,1.3-1.85,2.25-2.03.73-.14,2.38,0,2.88.68Z"/><path class="y" d="M83.01,84.02c-.63.77-1.66,1.45-2.64,1.39-.78-.04-2.36-.61-2.7-1.43-.48-1.14-.01-2.93.92-3.65,1.38-1.07,3.31-.63,4.29.66.74.98.1,2.08.13,3.03Z"/><circle class="k" cx="99.16" cy="92.62" r="2.8"/><path class="i" d="M89.73,89.3l-.29-.9c-.06-2.07,1.44-3.41,3.27-3.21,1.69.19,2.95,1.94,2.33,3.68-.4,1.12-1.47,1.8-2.62,1.84-1,.03-1.91-.64-2.68-1.41Z"/><circle class="i" cx="96.84" cy="82.49" r="2.8"/><path class="k" d="M87.04,90.82c1.01.75.92,2.26.73,3.18-.66.57-1.49,1.18-2.3,1.3-1.11.17-2.15-.43-2.55-1.26s-.34-1.81.26-2.62c.88-1.18,2.68-1.48,3.86-.6Z"/><circle class="j" cx="107.86" cy="82.55" r="2.3"/><circle class="g" cx="103.34" cy="87.23" r="2.2"/><path class="i" d="M99.12,98.53c.32,0,.92.21,1.22.33l.65.67.25,1.76c-.29.69-.86,1.28-1.55,1.59-.99-.07-2.29-.56-2.68-1.59-.47-1.24,1.15-2.74,2.11-2.75Z"/><path class="i" d="M117.76,82.62c-.46.8-1.11,1.53-1.9,1.99-.61-.09-1.33-.37-1.76-.82-.47-.48-.63-1.47-.28-2.13.45-.86,1.46-1.17,2.36-.94.76.19,1.47,1.05,1.59,1.91Z"/><path class="i" d="M75.45,83.12c-1.19.7-2.54.76-3.42-.44-.44-.59-.23-2.22.58-2.58,1.19-.53,2.81.14,3.04,1.3.1.51-.08,1.27-.2,1.72Z"/><path class="j" d="M88.51,82.01c.51.83.22,1.74-.31,2.25s-1.38.62-2.14.28c-.56-.25-1.16-.99-.96-1.84.15-.63.86-1.23,1.35-1.36.59-.15,1.7.09,2.06.67Z"/><path class="n" d="M106.45,95.54l-.78.77h-1.32s.04.59.04.59c.05.76-.2,1.49-.74,2.08-.82.89-1.55,1.69-2.4,2.31l-.25-1.76c.26,0,.7-.26.83-.48l1.08-1.86c.32-.55.53-1.37.8-2.01l.23.87.38-.84c.17-.38,1.6.77,2.13.33Z"/><path class="n" d="M104.55,79.32c-.13,1.12-1.23,1.31-2.07,1.3-.7,0-1.31-.33-1.6-.91-.22-.43-.05-1.28.39-1.73.49-.5,1.37-.64,2.01-.44.53.16,1.36,1.02,1.28,1.77Z"/><path class="j" d="M68.96,76.34c1.04.53,1.83,1.49,1.8,2.68-.34.46-1.14.83-1.65.64l-1.24-.45-.17-.21-.17-1.19c-.04-.31-.04-1.07.22-1.22s.89-.24,1.21-.25Z"/><path class="i" d="M109.27,92.15c-.37.82-.99,1.56-1.75,2.03-.27-.08-.82-.31-1.05-.51-.73-.63-.68-1.71-.16-2.3s1.68-.76,2.21-.12l.74.89Z"/><path class="n" d="M100.34,98.86c-.3-.12-.9-.33-1.22-.33l-.21-1.74c-.04-.37,1.36-.53,1.42-.17.11.68.06,1.62,0,2.23Z"/><path class="i" d="M79.94,92.9c-.67-.49-1.27-1.12-1.66-1.85.05-.33.16-.92.27-1.24s1.76-.85,2.61-.07c.29.27.54,1.1.54,1.53,0,1.16-.83,1.72-1.75,1.63Z"/><path class="c" d="M105.66,96.3c-.02.08-.14.5-.28.51l-1.01.07-.04-.58h1.32Z"/><circle class="j" cx="95.6" cy="141.58" r="2.94"/><path class="j" d="M94.22,153.18c.59.58.78,1.76.61,2.42-.14.56-.74,1.33-1.42,1.64s-1.88.27-2.46-.08c-1.52-.92-1.47-2.62-.77-3.97l.34-.33c1.22-.64,2.74-.62,3.7.32Z"/><path class="j" d="M90.51,150.34l-.97-.78c-.61-.49-.86-1.57-.64-2.46.15-.6.88-1.23,1.59-1.51,1.4-.29,2.63.36,3.03,1.51s-.06,2.4-1.28,2.98c-.4.19-1.3.28-1.73.26Z"/><path class="j" d="M98.31,151.39l-1.5.69-1.71-1.2-.51-2.39c.79-1.15,2.57-1.14,3.43.05.57.8.55,1.95.29,2.85Z"/><circle class="c" cx="86.87" cy="56.95" r="2.55"/><path class="s" d="M21.54,111.17c2.26.69,4.77,4.32,6.27,6.37l.72.98c-.94.15-.31,1.44.02,3.17l.3,1.59c-.58.98-3.73,2.4-4.49,3.42l-2.45,1.41-7.97,5.2c-1.37.89-3.17,1.65-4.74,1.77C4.93,135.4-.02,132.65,0,127.65c.01-2.41,1.31-4.56,3.39-5.94.5-.33,1.02-.77,1.41-1.08.34-.19,1.04-.46,1.45-.73l11.9-7.84c.91-.6,2.37-1.2,3.4-.89ZM8.66,121.54c-1.23.6-2.53,1.37-3.58,2.37-1.44,1.37-1.57,3.39-.65,5,.85,1.5,2.47,2.42,4.47,2.16,1.25-.16,2.5-.79,3.58-1.55l12.63-8.87c.81-.57,1.22-1.6.71-2.53-.65-1.19-1.54-2.36-2.81-3.01-.38-.77-1.67-1.83-2.66-1.29-2.14,1.15-4.02,2.57-6.04,3.9l-5.66,3.82Z"/><path class="x" d="M57.48,89.82c.33.48.94,1.28,1.23,1.77,2.93,4.95,4.02,10.59,2.94,16.25-2.06,10.78-11.9,16.99-22.79,15.08l-.17-1.93-.17-1.88c.81.17,1.93.12,2.93.14,7.81.19,14.81-4.93,16.64-12.58,2.23-9.35-3.68-18-12.23-21.07-6.52-2.34-14.29-.95-19.23,4.35-.9.97-2.27,2.92-2.77,4.01-.14-.02-.5-.25-.57-.43l-.19-.55c-.05-.16-.62-.16-.77-.08l-1.38.74-.26-.17c.14-.48.33-1.44.58-1.87.34-.57.72-1.24.98-1.84,1.64-1.61,3.05-3.62,5.08-4.87,1.32-.81,2.65-1.46,3.89-2.14l1.87-.59c.57-.18,1.26-.28,1.78-.53.35,0,.82,0,1.27-.06,5.75-.75,11.53.41,16.3,3.75,1.92,1.34,3.47,2.95,5.06,4.51Z"/><path class="e" d="M23.85,93.96l-.48,1.03c-.29.13-.29.18,0,.28-1.58,3.77-1.26,8.6.41,12.3.11.25,1.02.51,1.26.56v1.9c3.14,4.77,7.99,7.95,13.47,9.08l.17,1.88.17,1.93c-5.06-.88-6.02-1.72-10.33-4.39l-.72-.98c-1.5-2.05-4-5.68-6.27-6.37-.05-.2-.18-.66-.3-.89-2.58-5.1-3.06-11.9-.56-16.82l.26.17,1.38-.74c.15-.08.71-.08.77.08l.19.55c.06.18.43.41.57.43Z"/><path class="h" d="M54.76,121.97c-.65.55-1.72.95-2.36,1.55-1.48.47-2.96,1.5-4.46,1.85-4.36,1.01-8.77.96-13.08-.24-.47-.13-1.33-.39-1.74-.6l-3.02-1.56-1.26.32-.3-1.59c-.33-1.73-.96-3.03-.02-3.17,4.3,2.67,5.27,3.51,10.33,4.39,10.89,1.9,20.73-4.3,22.79-15.08.23.31.15.88.06,1.44-.76,5.02-3.14,9.48-6.94,12.7Z"/><path class="s" d="M38.51,119.1c-5.49-1.13-10.33-4.31-13.49-9.08v-1.9c-.23-.05-1.13-.32-1.25-.56-1.67-3.7-1.98-8.53-.41-12.3v-.28s.47-1.03.47-1.03c.51-1.09,1.87-3.04,2.77-4.01,4.94-5.3,12.72-6.69,19.23-4.35,8.56,3.08,14.46,11.72,12.23,21.07-1.83,7.65-8.83,12.76-16.64,12.58-1-.02-2.12.02-2.93-.14ZM50.11,112.74c2.86-2.24,4.56-5.35,4.87-8.84.7-7.93-4.98-13.84-12.46-15.27-3.41-.65-6.83-.17-9.91,1.43-5.87,3.05-8.41,9.75-6.04,15.95,1.38,3.61,4.06,6.39,7.5,8.18,5.2,2.71,11.32,2.24,16.04-1.45Z"/><path class="x" d="M23.38,95.27c-.29-.09-.29-.14,0-.28v.28Z"/><path class="f" d="M50.11,112.74c-4.72,3.7-10.84,4.17-16.04,1.45-3.43-1.79-6.11-4.57-7.5-8.18-2.37-6.2.17-12.9,6.04-15.95,3.08-1.6,6.49-2.08,9.91-1.43,7.47,1.42,13.15,7.34,12.46,15.27-.31,3.5-2.01,6.6-4.87,8.84ZM40.12,97.34c-.14,1.41-.44,2.96.1,4.39,1.48,3.95,6.07,5.38,9.6,3.19,1.17-.73,2.4-1.7,2.87-3.02.69-1.93.19-4.23-1.1-5.79s-3.28-2.61-5.49-2.66c-.38-4.73-6.65-4.64-10.09-3.59-.71.22-1.33.82-1.75,1.49,3.91,1.35.29,4.98,3.54,5.74.73.17,1.61.24,2.33.26ZM33.98,102.97c0-1.31-1.06-2.38-2.38-2.38s-2.38,1.06-2.38,2.38,1.06,2.38,2.38,2.38,2.38-1.06,2.38-2.38Z"/><path class="x" d="M46.09,93.45c-2.55-.06-4.7,1.62-5.97,3.89-.72-.02-1.6-.09-2.33-.26-3.24-.76.38-4.39-3.54-5.74.41-.67,1.04-1.27,1.75-1.49,3.45-1.05,9.71-1.14,10.09,3.59Z"/><circle class="x" cx="31.61" cy="102.97" r="2.38"/><path class="j" d="M46.09,93.45c2.2.05,4.18,1.09,5.49,2.66s1.79,3.86,1.1,5.79c-.47,1.33-1.7,2.29-2.87,3.02-3.53,2.19-8.11.76-9.6-3.19-.54-1.43-.23-2.98-.1-4.39,1.27-2.28,3.42-3.95,5.97-3.89ZM50.14,98.72c-.39-1.77-2.13-2.95-3.83-2.79-1.22.12-2.05.98-2.44,1.95-.41,1.04-.24,2.19.46,3.15.94,1.29,2.51,1.71,4.02,1.05,1.06-.47,2.14-1.78,1.79-3.36Z"/><path class="w" d="M50.14,98.72c.35,1.59-.73,2.89-1.79,3.36-1.5.67-3.08.24-4.02-1.05-.7-.97-.87-2.11-.46-3.15.38-.97,1.21-1.83,2.44-1.95,1.69-.16,3.44,1.01,3.83,2.79Z"/><path class="j" d="M8.66,121.54c.06.91.18,1.66.42,2.74.82-.33,1.3-.5,1.83-.86l11.26-7.56.85-.74c1.27.64,2.16,1.82,2.81,3.01.51.93.1,1.96-.71,2.53l-12.63,8.87c-1.09.76-2.34,1.39-3.58,1.55-2,.26-3.62-.66-4.47-2.16-.92-1.62-.79-3.63.65-5,1.04-1,2.35-1.77,3.58-2.37Z"/><path class="w" d="M23.02,115.11l-.85.74-11.26,7.56c-.53.35-1.01.53-1.83.86-.24-1.08-.36-1.83-.42-2.74l5.66-3.82c2.02-1.33,3.91-2.74,6.04-3.9.99-.53,2.28.52,2.66,1.29Z"/><path class="r" d="M170.59,92.16c-.13-.03-.37-.08-.49-.08l.39-.49c.03.15.1.43.1.58Z"/><path class="d" d="M149.48,127.54l-.02-2.71.5.27-.02,2.1c0,.14-.47.42-.46.34Z"/><path class="o" d="M173.77,79.29s.48.16.6.16l9.13-.02c.19,0,.54.42.59.55l.18,10.55c0,.46.02,1.11,0,1.56-.17,3.14-.03,6.31-.02,9.46l-.68-.41c-.18-.11-.71-.05-.86.1-.05-.25-.25-.96-.25-1.27l.08-17.57c0-.4-.27-.95-.61-.95l-9.78-.11.06,14.71-.28,3.11-.31,2.62-.31,2.6c-.09.77-.17,1.57.11,2.12-.29.28-.64.59-.97.79l.15-15.13c0-.15-.07-.43-.1-.58l-.08-1.05c.04-.12.17-.57.17-.77l.16-10.25,3.03-.23Z"/><path class="m" d="M184.25,101.55l.06,20.43v1.51s-.12,4.7-.12,4.7l-2.01.58c-.56.04-1.17.13-1.83.25l-10.31,1.93.39-23.67c.33-.2.68-.51.97-.79l1.07-.5-.04,22.36,10.02-1.71-.03-2.31-.03-22.82.3-.29c.15-.15.68-.21.86-.1l.68.41Z"/><path class="w" d="M182.71,101.24l-.3.29-9.92,4.47-1.07.5c-.28-.55-.2-1.35-.11-2.12l.31-2.6.31-2.62.28-3.11-.06-14.71,9.78.11c.34,0,.6.56.61.95l-.08,17.57c0,.31.2,1.02.25,1.27Z"/><polygon class="g" points="182.41 101.53 182.44 124.34 182.47 126.65 172.44 128.36 172.48 106 182.41 101.53"/><path class="m" d="M132.07,125.02l.93.14c.08.35.25.98.24,1.31l-.03,2.56.02,2.18-.04,1.86-12.9.02.09-7.21c.23-.13.69-.7.71-1.02l6.84.31c1.43.07,2.83-.03,4.14-.17Z"/><path class="o" d="M133.12,124.61l-.11.26v.28s-.94-.14-.94-.14c-.06-.49-.11-1.09-.12-1.69l-.09-6.07-10.38-.07-.28,5.67-.1,2.02c-.02.31-.48.88-.71,1.02l-.1-2.32v-1.59s-.02-6.39-.02-6.39l12.71.04.13,8.99Z"/><path class="m" d="M133.01,124.87l.11-.26-.11.26Z"/><path class="w" d="M132.07,125.02c-1.3.14-2.71.23-4.14.17l-6.84-.31.1-2.02.28-5.67,10.38.07.09,6.07c0,.6.06,1.2.12,1.69Z"/><path class="k" d="M133.23,131.21l-.02-2.18.51.25-.03,1.62c0,.13-.45.37-.46.32Z"/><path class="o" d="M156.52,93.37l1.81-.05,8.3.02v17.36s-.2.43-.2.43c-.05.11-.33-.15-.47-.24l-1.06.58v-16.31s-10.05-.06-10.05-.06c-.32,0-.72.56-.7.91.16,4.82.78,9.42.22,14.18l-.3,2.6c-.14,1.17-.08,2.25-.25,3.37l-.2,1.33-.55.47-.14-2.8.08-21.72,3.49-.09Z"/><path class="m" d="M166.63,110.7l.18,20.7-13.9,1-.05-8.8.22-5.62.55-.47.98.05.38,12.36,9.8-.51-.15-17.45c.04-.13.14-.41.26-.47l1.06-.58c.14.08.41.35.47.24l.2-.43Z"/><path class="w" d="M164.91,111.48c-.12.07-.22.34-.26.47l-2.48,1.33-6.82,3.37c-.28.14-.73.62-.72.9l-.98-.05.2-1.33c.17-1.12.11-2.2.25-3.37l.3-2.6c.55-4.75-.06-9.36-.22-14.18-.02-.35.38-.91.7-.91l10.05.06v16.31Z"/><path class="g" d="M164.65,111.95l.15,17.45-9.8.51-.38-12.36c0-.28.44-.76.72-.9l6.82-3.37,2.48-1.33Z"/><path class="o" d="M149.3,119.84c-.47-.22-.96-.39-1.45-.46l.06-12.34c0-.19-.03-.51-.06-.63-.04-.17-.55-.25-.76-.25l-8.51.04.09,16.26-1.25.48-.02.92c0,.33-.52.81-.81.96,0-.12,0-.35,0-.48v-19.99s12.68-.04,12.68-.04l.05,15.52Z"/><path class="m" d="M149.3,119.84l.21,3.76c.02.33-.04.89-.04,1.24l.02,2.71.11,5.01-13.03.4c-.1-2.2-.09-6.1.02-8.13.29-.15.81-.63.81-.96l1.18-.35.16,7.05,8.98-.11-.04-9.28c0-.46-.05-.97-.08-1.33l.26-.47c.49.07.98.23,1.45.46Z"/><path class="w" d="M147.85,119.39l-.26.47c-.96.51-1.94.68-3.16.84-1.34.17-5.61,1.83-5.85,2.82l-1.18.35.02-.92,1.25-.48-.09-16.26,8.51-.04c.21,0,.72.08.76.25.03.12.06.44.06.63l-.06,12.34Z"/><path class="g" d="M147.59,119.85c.04.36.08.87.08,1.33l.04,9.28-8.98.11-.16-7.05c.24-.99,4.51-2.65,5.85-2.82,1.23-.16,2.2-.33,3.16-.84Z"/></g></svg>
