<?xml version="1.0" encoding="UTF-8"?><svg id="a" xmlns="http://www.w3.org/2000/svg" viewBox="0 0 209.07 174.65"><defs><style>.c{fill:#89b04f;}.d{fill:#5b8bc7;}.e{fill:#ecd99d;}.f{fill:#e68862;}.g{fill:#ae9481;}.h{fill:#2b2c2e;}.i{fill:#fcfcfc;}</style></defs><g id="b"><path class="d" d="M13.24,118.56c-1.16.27-2.08-.7-2.23-1.57-.18-1.05.54-1.9,1.61-2.16l2.78-.68c.98-.24,1.93-.01,2.34.85.37.78.36,2.22-.67,2.55-1.22.39-2.48.71-3.82,1.02Z"/><path class="c" d="M10.92,80.85c-.87.22-1.77-.06-2.15-.84-.32-.65-.11-1.92.78-2.28,1.33-.53,2.87-.96,4.31-1.12.93-.1,1.39.91,1.45,1.56.07.75-.26,1.64-1.09,1.85l-3.3.82Z"/><path class="h" d="M21.76,115.07c.79.75,1.87.97,2.98.59l3.06-1.03c1.1-.37,1.66-1.36,1.43-2.43-.7-3.17-7.7-.37-7.84,1.32-.67-1.76-1.17-3.43-1.65-5.21-.18-.65-.54-1.11-1.28-.99-5.12.82-10.24,1.44-15.36,1.02-1.71-.14-2.98-1.09-3.09-2.65-.1-1.46.8-2.81,2.43-3.24l14.87-3.92c.91-.24.28-1.57.26-2.14l-.34-9.6.4-7.93c.27-5.35,1.58-10.56,2.99-15.71,6.34-23.21,22.22-41.94,43.52-52.88C76.05,4.16,89.01,1.07,102.42.2c33.08-2.14,65.22,12.8,84.69,39.74,2.98,4.13,5.48,8.42,7.79,12.98.76,1.51,1.05-.89,5.67-.65,1.89.1,3.25,1.36,3.13,3.36-.1,1.79,1.86.58,4.21,2.42.93.73,1.25,1.95,1.14,3.09-.1,1.01-.75,2.1-1.88,2.56-1.18.49-2.53.26-3.75,0,.03,2,.14,3.91-.55,5.75-.28.73-1.25,1.66-1.05,2.53,1.44,6.19,1.86,12.29,2.28,18.57.11,1.72.03,2.99-.13,4.68-.59,6.39-1.18,12.61-3.16,18.74-3,9.3-6.81,18.3-13.27,25.63l-5.75,6.53-.14,15.46c-.06,7.28-8.43,12.8-15.78,12.81l-40.51.04-15.34.02-16.53.05-5.27-.04-37.29-.02c-2.34,0-4.37.48-6.65-.11-3.26-.43-6.01-3.07-6.01-6.55l-.03-23.28c-7.23-8.76-12.92-18.74-16.49-29.46ZM128.46,20.95c.17-.53.99-.92,1.32-1.46.55-.53,5.21-3.54,3.34-4.3-1.22-.49-5.89,3.68-6.9,7.02-.13.43,1.09.79,1.39.53.45-.39,1.57-1.8.85-1.79ZM131.62,23.95l-1.95,1.31c-2.82-2.22-8.55-3.59-11.4-1.8-.08,0-.18,0-.24.03-.07.04-.22.19-.24.22-.1.02-.3.03-.4.06-1.44.38-3.8,2.23-4.29,4.01,1.84,1.43,2.72,3.38,3.54,5.5.38.98,2.06,1.07,2.83,1.52,1.41.83,2.75.8,4.11,1.11,3.59.82,7.31.93,10.88-.42,1.11-.42,1.58-1.43,1.18-2.62-1.71-5.01-5.41-5.91-3.94-7.17,5.07-4.3,11.52-6.17,18.14-5.8,1.69.09,2.5-3.29-8.03-1.02-3.79.82-7.5,2.4-10.19,5.08ZM100.24,30.54c2.06-.12,4.35,1.23,4.41,3.49l.11,4.03.05.89c1.53-1.45,2.53.28,3.83.56,1.73.38,3.94-1.16,5.49-1.89.75-.36,1.2-1.52,1.29-2.32.03-.28.06-.84,0-1.31-.46-4.51-4.92-7.75-9.49-6.94-2.6.46-4.8,1.51-6.79,3.31l1.09.19ZM74.4,45.97l1.11-1.28c1.37-1.58,2.53-3.36,3.77-5.16.82-1.18,2.33-1.55,3.62-.81l3.61,2.06c.35.2.96.27,1.26.15.34-.13.75-1.04.74-1.4l-.23-5.6c-.12-2.96-5.33-3.9-8.28-4.12l-.45-.03c-.72-.05-1.45,0-2.14.16-.12,0-.34,0-.45-.02-.76-.17-2.24.06-3.15.31-6.32,1.76-11.84,5.24-15.61,10.66-1.07,1.53-2.32,3.38-2.29,5.29.02,1.41,1.95,2.48,3.21,2.92,4.08,1.42,8.42,1.69,12.68.9.51-.09,2.8-3.52,2.61-4.01ZM100.68,41.57c1.02,0,1.76-.91,1.76-1.8v-5.13c0-.95-.78-1.77-1.76-1.78l-5.12-.02c-1.06,0-1.88.77-1.89,1.82v5.09c0,.98.8,1.82,1.79,1.82h5.21ZM91.68,41.61c-.79-2.87.55-6.47-1.02-7.23-.26-.19-.52-.43-.7-.38-.14.04-.39.26-.34.4s.34.59.27.77c-.83,1.97-.61,5.39,1.79,6.44ZM120.18,43.39h.22c1.81.99,3.3-.19,5.32.43,2.71,3.49,2.24,5.64,5.29,4.78-.38-1.12-1.08-1.89-1.29-3.04-.36-1.92-1.36-4.88-3.65-5.12-.7-.07-2.04.26-2.7.42-2.87-.24-5.6-.59-7.94-2.57-1.01.29-2,.79-2.47,1.41,1.07,2.33,5.12,3.64,7.22,3.68ZM70.33,54.04c-3.48,3.36-7.3,6.06-12.11,7.41-.35.1-.8.56-.79.85,0,.33.8.85,1.21.76,9.95-2.09,14.74-8.32,20.35-15.93,1.16-1.58,1.92-2.86,2.2-5.03l2.46,1.67c3.77,2.55,8.68,4.06,11.75.24-2.23-.69-4.25-.94-6.4-1.35-4.32-.82-7.12-4.96-8.86-2.51l-2.65,3.75c-2.41,3.4-4.62,6.74-7.15,10.15ZM108.66,50.24l2.5,7.97c1.29,4.1,8.48,9.89,9.57,7.88.7-1.28-4.3-2.84-6.56-7.94-1.45-3.27-1.55-6.32-2.94-8.79-.17-2.6-3.28-9.26-4.4-9.68-.5-.19-1.28,0-1.52.33-.34.47-.43,1.33-.18,1.87l1.96,4.29,1.58,4.06ZM101.77,43.83c-.49.15-.96.72-.98,1.31l-.22,5.92c-.14,3.89-4.11,5.46-3.8,6.47.45,1.45,5.4-1.71,5.69-6.8l.37-6.6c0-.15-.21-.68-.34-.64l-.73.33ZM119.84,48.94l-1.19-3.74c-.37-1.15-1.66-1.84-2.84-1.68-.32,2.39,2.13,2.15,2.33,5.74.02.29.75.42,1.02.37.23-.04.76-.44.68-.69ZM83.54,45.19c-.14-.48-1.39-1.48-1.66-1.03-.46.78-1.01,1.93-1.5,2.93,1.24-.4,2.19-1.05,3.16-1.9ZM77.99,60.83c5.69-2.33,7.45-8.32,8.35-13.85.08-.49-.68-.99-1.07-1.12-.33-.11-1.15-.01-1.25.44-1.49,6.62-1.22,8.88-6.98,13.26-.24.18-.32.87-.13,1.08.16.17.78.32,1.08.19ZM123.36,60.11c.56.77,2.17,1.38,2.98,1.69.04.02.12.01.19.02.2.48,1,.65,1.57.83l.36.12,1.11.51c.09.04.28.05.37.07,1.49,1.07,4.83,1.84,6.51,2.27.08.02.26.02.35.01,1.16.38,3.42.69,4.58.83.09.01.26,0,.35,0l1.13.03c.28,0,.76-.01,1.01.02.59.09,1.7.2,2.41.19.16,0,.43,0,.57,0,1.01.05,2.8-.02,3.71-.21.09-.02.28,0,.37,0l.49-.02c.14,0,.43.01.57,0,1.15-.12,3.38-.41,4.57-.81.21,0,.59-.02.78-.05.53-.07,1.72-.37,2.43-.61.11.01.32-.03.43-.06,1.18-.24,5.32-.99,5.85-1.84.68-1.1-4.72-.69-4.6-.69l-4.46-.18h-6.27s-5.27-.02-5.27-.02l-3.91-.21c-.34-.02-.93.03-1.24-.01-1.44-.22-2.88-.37-4.34-.42-.28,0-.8.03-1.06,0-.62-.1-1.84-.35-2.61-.53.62-.68,1.35-.33,2.01-.33.16,0,.44,0,.59.02.7.15,2.13.24,2.85.19.1,0,.28,0,.39,0h.69s1.88.02,1.88.02h.24s1.89,0,1.89,0h.25s1.88,0,1.88,0c2.12,0,5.83.06,7.75-.19.25-.03.76-.04,1.01,0,1.39.22,4.07.18,5.61.19h.38s.26,0,.26,0c.1,0,.29-.01.38,0,1.41.18,4.23.32,5.84.24-.63-1.02-2.42-1.06-3.49-.91-1.01-.54-2.11-1.12-3.33-1.36-4.14-.83-8.11-1.37-12.32-1.98-8.14-1.16-16.13-.81-24.55-1.43,12.76-1.45,28.51-.41,40.64,2.88.02.03.18.18.25.18.15,0,.47-.02.62.02.64.15,1.88,1,2.63.36-.84-.58-2.61-1.33-3.51-1.61-.09-.03-.27-.03-.36-.01-.57-.44-1.29-.48-1.97-.68-5.75-1.64-11.64-3.52-17.71-3.86-1.51-.08-2.33-.19-3.86-.57-4.17-1.04-21.23-1.51-21.78,2.28-.28,1.92,4.2,4.82,5.92,5.62ZM65.14,56.66c.64-.28,1.02-1.01.9-1.57-.39-1.82-5.17-.75-6.73-.05-.98.44-1.09,1.8-.76,2.59.38.93,1.66,1.17,2.62.75l3.97-1.72ZM198.48,56.83c1.36-.5,2.67-.46,2.68-1.13.03-1.37-4.41-.42-5.35.88.75,1,1.65.63,2.67.25ZM185.2,58.51c.18-.14.45-.61.37-.82-.06-.18-.38-.56-.57-.66-5.05-2.71-11.22-2.49-16.22.77h6.12c1.4,0,2.57.47,3.41,1.37.95,1.03,1.02,2.22,1.08,3.84,4.89.16,2.56-1.9,5.8-4.5ZM195.44,73.23c3.12-1.32,5.32-4.39,5.32-7.69s-2.04-6.26-5.11-7.62c-3.57-1.58-7.66-.85-10.08,2.05s-2.62,6.93-.51,10.19c2.31,3.56,6.32,4.78,10.37,3.06ZM52.29,64.36l2.87-1.73c.97-.58,1.32-1.71.83-2.66-1.22-2.33-4.45.16-6.1,1.25-.9.59-.85,2.05-.29,2.78s1.74.92,2.69.35ZM205.18,61.23c.37.1,1.54-.26,1.27-.55-1.87-2.08-6.62-1.54-6,.03.51,1.29,1.47-.35,4.73.53ZM175.42,68.83c.96,0,1.66-.86,1.66-1.7v-5.15c.02-1.03-.72-1.9-1.77-1.9h-5.11c-.99,0-1.86.72-1.86,1.73v5.28c0,1,.88,1.75,1.86,1.75h5.21ZM179.45,72.42c.64,1.15,4-.94,4.5-1.6-1.42-2.23-2.03-4.4-1.64-7l-2.98.29c0,.69-.02,1.45.04,2.15.21,2.51-1.29,4.59-3.85,4.89l1.28,1.81c.64.91,2.27.42,2.65-.55ZM45.98,67.58c.85-.51.75-1.83.24-2.47-.41-.51-1.42-1.12-2.18-.78-2.09.94-5.55,2.04-4.44,4.37s4.58-.03,6.39-1.11ZM67.19,100.58c-.28-.04.43-.83.77-.93,6.38-1.94,9.36-7.66,10.01-8.09.09-.06.23.15.22.26-.18,1.42-2.66,4.09-3.99,5.57,2.5.79,5.14.91,7.69.73,1.42-.1,2.26.4,3.32,1.2,2.92,2.21,5.6,4.54,8.89,6.32,1.73.94,4.66.98,6.36.21,1.42-.64.35-2.55-.48-3.15-2.57-1.84-3.76,1.28-6.7-4.42l4.24-.97c3.65-.84,7.06-2.47,10.53-3.96-1.63-.89-3.43-.6-4.68-2.04,6.33,1.8,19.58.99,24.18-3.69,1.04-1.05.82-2.27,0-3.28l-3.39-4.13c-4.02-4.9-10.37-7.19-16.57-8.53l.02,1.53-2.77-3.38c-2.57-3.14-9.07-6.75-11.76-3.76-.73.81-1.11,2.17-.96,3.42.6,4.83,4.38,8.24,9.02,9.64-.2.3-.81.5-1.17.4-3.65-1.04-6.44-3.58-8.03-7.13-4.43-1.39-8.83-2.74-13.5-3.17.44,2.28.28,4.44.36,6.66.09,2.6-1.5,4.68-4.2,4.64l-5.71-.08c-2.18-.03-3.41-2.31-3.42-4.31l-.04-5.65c-7.27,2.11-13.85,6.41-17.58,12.99-1.92,3.39-3.97,6.28-7.37,8.35-2.88,2.15-6.1,3.58-9.43,5.08-8.57,3.86-17.42,5.94-26.79,8.33,13.02.24,26.08-2.43,37.16-8.61l6.74-3.76c2.66,4.65,6.44,6.05,11.18,7.51-.33.69-.69,1.55-.77,2.11-.07.5.45,1.55,1.13,1.65,4.97.74,9.9.99,14.96,1.18l.37-1.25,1.04.97c.92-.78.7-1.97-.04-2.79-2.05-2.29-5.61-1.21-8.84-1.66ZM110.75,71.36c-.5-2.72-2.12-4.68-4.3-5.88-1.46-.7-3.07-.62-4.31.6,5.17,3.32,2.1,4.52,8.61,5.27ZM169.88,71.16c-2.12-.38-3.44-1.54-3.77-3.41-.04-.77-.02-1.99-.2-2.64-.12-.45-1.58.13-1.63.62-.42,4.06,2.62,7.82,4.3,7.05.61-.28,1.39-1.04,1.3-1.62ZM164.04,70.83c-.91-1.57-1.13-3.15-1.1-5.1l-6.97,1.58c.46,2.1,1.6,3.94,3.08,5.2,1.8-1,6.05.16,4.99-1.68ZM154.6,77.53c1.69-1.24,2.68-2.26,3.98-4.3-2.46-.66-2.66-4.44-4.21-5.23-2.19-1.1-5.68.9-8.28-.08.16,3.14,1.65,5.8,3.98,7.57.92.7,2.05,1.01,2.88,1.89.41.44,1.16.39,1.64.14ZM152.48,78.67c-3.66-1.83-5.98-4.6-7.41-8.05-.02-.66-.08-1.91-.79-2.16-1.38-.49-3.39-.71-4.77-.57-.78.08-2.35,1.07-2.35,1.85-.01,4.45,2.72,8.15,6.29,10.39,1.1.69,2.07,2.31,3.58,1.85,1.93-.59,3.84-1.93,5.45-3.32ZM32.14,73.96l3.07-1.32c1.13-.48,1.59-1.61,1.16-2.65-.4-.95-1.59-1.43-2.65-.97l-3.28,1.42c-1.03.45-1.36,1.6-.99,2.6.35.93,1.58,1.39,2.69.91ZM74.72,78.29c1.17,0,1.82-.99,1.82-1.95v-4.95c0-.96-.66-1.91-1.73-1.92h-5.3c-.96-.01-1.81.74-1.81,1.73v5.32c0,.97.84,1.78,1.8,1.78h5.22ZM144.81,82.93l-2.87-2.1c-3.33-2.43-5.6-5.86-6.23-10.17-3.41,2.16-8.15,9.83-3.18,12.58,3.39,1.87,8.46,1.34,12.27-.31ZM186.64,96.54c.07-1.1-5.1-2.81-6.46-9.88-.67-3.47-1.48-6.9-2.97-10.06-.55-1.16-1.57-1.85-1.65-3.32-.04-.72-1-1.3-1.56-1.18-.85.18-1.1.94-1.01,1.8.15,1.33,1.22,2.19,1.77,3.4,3.44,7.59,2.03,14.26,8.44,18.29-.97-.61,3.31,2.86,3.43.95ZM21.88,77.83l3.13-1.08c1.12-.38,1.45-1.51,1.2-2.59-.55-2.43-4.65-.41-6.3.29-.95.41-1,1.8-.6,2.47.52.85,1.48,1.27,2.56.9ZM167.67,87.55l2.66-9.85c.13-.49,2.68-5.22.42-4.85-.29.05-.92.32-1.07.58-2.06,3.7-3.19,7.46-4,11.61-1.85,9.43-8.08,9.99-6.68,11.56.74.82,6.83-2.27,8.66-9.06ZM152.01,88.58c3.51-3.81,6.22-7.97,9.12-12.16,1.19-1.71,4.2.59,5.46-.11.47-.26,1.19-1.18,1.19-1.84s-1.52-1.21-2.11-.97c-.89.37-1.73.56-2.57.1-1.3-.72-2.69-.31-3.64.79-4.46,5.17-6.76,10.35-11.96,15.15-2.96,2.74-8.67,3.29-8.22,4.55.09.24.65.61.92.58,4.58-.57,8.58-2.59,11.8-6.08ZM183.85,77.38c.17.04.5.18.66.26.06.05.17.14.22.19.42.41,1.2,1.27,1.53,1.85l4.26,7.53c3.02,5.33,10.15,7.22,10.94,5.65.63-1.25-5.32-.78-8.49-6.55l-3.57-6.5c-.92-1.68-2.06-3.38-3.56-4.56-.87-.68-2.28-.36-3.21-.64l-.23-.24c-.08-.08-.33-.12-.4-.21-.42-.48-2.19-.62-2.21.21-.03,1.81,2.77,2.72,4.08,3ZM114.75,103.49c.48.01,1.19-.31,1.44-.69.82-1.25-.42-3.21-2.64-3.77-3.67-.93-2.95-4.62-7.65-2.8-2.21.86-4.42.59-6.71,1.72,3.61,1.73,7.77.76,9.45,4.02,1.3,2.52,3.42,1.45,6.11,1.51ZM134.58,104.87c2.52-1.25,4.65-2.43,6.72-4.16.81-.67-.73-3.59-1.73-3.11-2.6,1.25-5.22,2.68-7.39,4.53-.82.7,1.34,3.27,2.4,2.74ZM50.66,104.92c-.54-2.09-5.32-1.65-7.26-.86-.94.39-1.23,1.59-1.06,2.41s1.12,1.57,2.1,1.39c1.27-.23,6.65-1.24,6.21-2.94ZM124.91,110.13c1.89-.84,3.41-1.71,5.03-2.71.73-.45.51-1.54.16-2.21-.26-.5-1.06-1.11-1.81-.69-1.77.99-3.71,1.82-5.26,3.22-.86.78.89,2.83,1.88,2.39ZM35.28,111.88c1.99-1.05,4.91-1.15,4.39-3.51-.22-1.01-1.45-1.96-2.61-1.62-1.28.37-2.54.83-3.76,1.36s-1.57,2.09-.99,3.08,1.89,1.28,2.98.7ZM121.19,111.41c.07-.34-.38-.92-.66-1.19-.86-.83-1.64-.71-2.61-.21-1.42.74-3.15,1.19-4.19,2.48-.48.6.23,1.52.63,1.84.48.39,1.32.58,1.92.3,1.51-.69,4.66-1.91,4.91-3.23ZM111.08,117.02c.9-.5.45-1.86,0-2.42-.56-.7-1.5-.77-2.35-.31-1.25.68-2.51,1.35-3.71,2.1-.78.49-.35,1.65.04,2.09,1.23,1.4,4.11-.4,6.01-1.45ZM53,122.13c.63.18,1.34-.34,1.76-.78.3-.32.82-1.21.26-1.68-1.11-.92-5.79-2.99-7.1-.86-.21.34-.3,1.34.11,1.53,1.68.79,3.21,1.28,4.97,1.79ZM101.41,121.26c.73-.27,1.24-1.11,1.11-1.77-.11-.6-.82-1.56-1.6-1.4-1.89.38-4.04.86-5.45,2.18-.52.48.07,1.36.43,1.65,1.37,1.12,3.37.13,5.51-.66ZM63.95,124.28c.23-.48.19-1.46-.38-1.84-1.77-1.21-5.58-1.61-6.39.54-.19.51-.13,1.72.47,1.91,1.95.64,5.33,1.46,6.31-.61ZM92.71,122.46c-.47-1.73-4.3-.95-5.62-.55-.57.17-.95,1.07-.93,1.52.02.56.58,1.31,1.24,1.24,1.5-.15,5.83-.3,5.31-2.21ZM77.65,125.66c1.54.05,5.62.06,5.43-2.14-.04-.47-.69-1.26-1.25-1.27-1.57-.04-5.86-.13-5.64,2.03.07.72.67,1.36,1.47,1.38ZM172.13,164.69l-1.42-7.25c-1.99.98-3.75,1.85-5.8,1.82s-3.71-1.29-3.71-3.46l-.04-13.68,9.74.08-.05-8.36-9.65-.04v-11.6s-9.84,1.72-9.84,1.72l-1.31,10.42-4.88,1.19c-.53.13-1.08.68-1.07,1.24l.04,5.39,5.72-.03-.03,9.46c-.02,5.7-1.21,13.53,6.29,15.39,5.31,1.31,11.07.52,16.02-2.28ZM73.26,124.3c-.05-1.97-4.03-1.5-5.23-1.14-.62.18-1.09,1.04-1.03,1.54.06.53.62,1.15,1.21,1.2,1.52.13,5.1.5,5.05-1.6ZM129.56,162.74c1.58,5.48,8.88,5.22,12.77,3.77l.36-5.18c.12-1.67-2.75-.25-2.78-3.26l-.14-14.78c-.04-3.74-2.22-6.72-5.42-8.45-6.91-3.74-17.52-1.95-24.62.97-.64.26-.99.82-.83,1.5l1.61,6.66c3.71-2.31,14.83-4.84,17.64-1.5,1.1,1.31.99,4.41.67,5.03-.41.82-21.44-2.25-22.06,10.04-.19,3.74,1.75,7.1,5.28,8.79,5.86,2.8,12.9,1.23,17.51-3.58ZM69.44,166.77h10.08c.37-7.05-.38-13.78.27-20.71.35-3.67,5.49-5.58,8.44-4.13,1.45.71,2.1,2.22,2.11,3.76l.08,21.01,10.98-.07-.03-23.31c-.68-6.46-3.49-9.96-10.09-10.38-5.1-.32-9.78,1.71-12.77,6.05-2.52-6.95-11.56-7.24-16.7-4.54-1.93,1.02-3.17,2.5-4.88,3.97l-1.03-4.59-9.17-.07-.03,14.59c0,2.32-.06,4.44-.03,6.74l.13,11.59,10.9.09c.35-7.11-.41-13.93.27-20.88.3-3.01,4.51-4.77,6.97-4.43,2.13.29,3.45,1.73,3.45,3.73l-.02,20.55c-.07.56.38,1.04,1.06,1.04Z"/><path class="d" d="M21.76,115.07c-.2-.59-.3-1.09-.37-1.55.14-1.69,7.14-4.49,7.84-1.32.24,1.07-.33,2.06-1.43,2.43l-3.06,1.03c-1.12.38-2.19.16-2.98-.59Z"/><path class="i" d="M69.44,166.77c-.69,0-1.14-.47-1.06-1.04l.02-20.55c0-2-1.32-3.44-3.45-3.73-2.46-.34-6.67,1.42-6.97,4.43-.69,6.96.08,13.78-.27,20.88l-10.9-.09-.13-11.59c-.03-2.3.03-4.42.03-6.74l.03-14.59,9.17.07,1.03,4.59c1.71-1.46,2.95-2.95,4.88-3.97,5.14-2.7,14.19-2.41,16.7,4.54,2.99-4.34,7.66-6.37,12.77-6.05,6.61.42,9.42,3.92,10.09,10.38l.03,23.31-10.98.07-.08-21.01c0-1.53-.66-3.05-2.11-3.76-2.95-1.44-8.09.47-8.44,4.13-.66,6.93.1,13.66-.27,20.71h-10.08Z"/><path class="i" d="M129.56,162.74c-4.61,4.81-11.64,6.39-17.51,3.58-3.54-1.69-5.47-5.05-5.28-8.79.62-12.29,21.65-9.22,22.06-10.04.31-.62.43-3.72-.67-5.03-2.81-3.34-13.93-.81-17.64,1.5l-1.61-6.66c-.17-.68.19-1.24.83-1.5,7.1-2.92,17.7-4.7,24.62-.97,3.2,1.73,5.39,4.71,5.42,8.45l.14,14.78c.03,3.01,2.9,1.59,2.78,3.26l-.36,5.18c-3.89,1.46-11.2,1.71-12.77-3.77ZM128.84,156.59c.61-1.12.29-2.5.2-3.7-3.04.02-10.53-.44-10.79,3.75-.1,1.49.43,2.91,2.04,3.42,3.11.99,6.91-.45,8.56-3.46Z"/><path class="i" d="M172.13,164.69c-4.95,2.79-10.71,3.59-16.02,2.28-7.5-1.86-6.31-9.69-6.29-15.39l.03-9.46-5.72.03-.04-5.39c0-.55.55-1.11,1.07-1.24l4.88-1.19,1.31-10.42,9.83-1.72v11.6s9.65.04,9.65.04l.05,8.36-9.74-.08.04,13.68c0,2.17,1.61,3.43,3.71,3.46s3.8-.83,5.8-1.82l1.42,7.25Z"/><path class="f" d="M134.58,104.87c-1.06.52-3.22-2.04-2.4-2.74,2.17-1.85,4.79-3.28,7.39-4.53,1-.48,2.54,2.44,1.73,3.11-2.07,1.72-4.2,2.91-6.72,4.16Z"/><path class="d" d="M35.28,111.88c-1.09.57-2.39.32-2.98-.7s-.18-2.58.99-3.08,2.48-.99,3.76-1.36c1.16-.34,2.39.61,2.61,1.62.52,2.36-2.39,2.46-4.39,3.51Z"/><path class="d" d="M50.66,104.92c.44,1.7-4.95,2.7-6.21,2.94-.98.18-1.94-.61-2.1-1.39-.17-.82.12-2.02,1.06-2.41,1.94-.79,6.72-1.23,7.26.86Z"/><path class="c" d="M52.29,64.36c-.95.57-2.13.38-2.69-.35s-.61-2.19.29-2.78c1.65-1.09,4.88-3.58,6.1-1.25.5.94.14,2.07-.83,2.66l-2.87,1.73Z"/><path class="c" d="M32.14,73.96c-1.11.48-2.35.02-2.69-.91-.37-1-.04-2.16.99-2.6l3.28-1.42c1.06-.46,2.25.02,2.65.97.44,1.03-.03,2.16-1.16,2.65l-3.07,1.32Z"/><path class="c" d="M45.98,67.58c-1.8,1.09-5.33,3.34-6.39,1.11s2.35-3.42,4.44-4.37c.76-.35,1.77.27,2.18.78.52.64.61,1.96-.24,2.47Z"/><path class="c" d="M21.88,77.83c-1.09.37-2.04-.04-2.56-.9-.41-.67-.36-2.07.6-2.47,1.65-.7,5.75-2.72,6.3-.29.25,1.08-.08,2.21-1.2,2.59l-3.13,1.08Z"/><path class="f" d="M124.91,110.13c-.99.44-2.74-1.61-1.88-2.39,1.54-1.39,3.48-2.23,5.26-3.22.75-.42,1.55.19,1.81.69.34.67.56,1.75-.16,2.21-1.61,1.01-3.14,1.87-5.03,2.71Z"/><path class="c" d="M65.14,56.66l-3.97,1.72c-.96.42-2.24.18-2.62-.75-.33-.79-.22-2.15.76-2.59,1.56-.7,6.33-1.78,6.73.05.12.56-.26,1.29-.9,1.57Z"/><path class="f" d="M121.19,111.41c-.25,1.32-3.4,2.53-4.91,3.23-.6.28-1.43.09-1.92-.3-.4-.33-1.11-1.25-.63-1.84,1.04-1.28,2.77-1.74,4.19-2.48.97-.5,1.75-.62,2.61.21.28.27.72.85.66,1.19Z"/><path class="f" d="M63.95,124.28c-.98,2.08-4.35,1.25-6.31.61-.6-.2-.66-1.41-.47-1.91.81-2.15,4.62-1.75,6.39-.54.57.39.61,1.36.38,1.84Z"/><path class="f" d="M111.08,117.02c-1.9,1.05-4.78,2.85-6.01,1.45-.39-.44-.82-1.6-.04-2.09,1.19-.75,2.45-1.42,3.71-2.1.85-.46,1.79-.4,2.35.31.45.56.89,1.93,0,2.42Z"/><path class="f" d="M53,122.13c-1.77-.51-3.3-1.01-4.97-1.79-.41-.19-.32-1.19-.11-1.53,1.3-2.13,5.99-.06,7.1.86.57.47.05,1.36-.26,1.68-.41.44-1.13.96-1.76.78Z"/><path class="f" d="M101.41,121.26c-2.14.79-4.14,1.78-5.51.66-.36-.29-.95-1.17-.43-1.65,1.41-1.32,3.56-1.8,5.45-2.18.78-.16,1.49.8,1.6,1.4.13.67-.38,1.5-1.11,1.77Z"/><path class="f" d="M77.65,125.66c-.8-.03-1.39-.67-1.47-1.38-.21-2.16,4.07-2.07,5.64-2.03.56.01,1.21.81,1.25,1.27.19,2.21-3.89,2.19-5.43,2.14Z"/><path class="f" d="M92.71,122.46c.52,1.91-3.81,2.06-5.31,2.21-.67.07-1.22-.68-1.24-1.24-.02-.45.36-1.35.93-1.52,1.32-.4,5.15-1.18,5.62.55Z"/><path class="f" d="M73.26,124.3c.05,2.1-3.53,1.73-5.05,1.6-.59-.05-1.15-.67-1.21-1.2-.06-.5.41-1.35,1.03-1.54,1.2-.35,5.18-.82,5.23,1.14Z"/><path class="i" d="M67.19,100.58c3.22.45,6.78-.63,8.84,1.66.74.83.96,2.02.04,2.79l-1.04-.97-.37,1.25c-5.06-.18-9.99-.43-14.96-1.18-.68-.1-1.2-1.15-1.13-1.65.08-.56.44-1.41.77-2.11-4.74-1.46-8.53-2.86-11.18-7.51l-6.74,3.76c-11.08,6.18-24.14,8.85-37.16,8.61,9.37-2.39,18.22-4.47,26.79-8.33,3.33-1.5,6.55-2.93,9.43-5.08,3.4-2.07,5.45-4.96,7.37-8.35,3.73-6.58,10.31-10.88,17.58-12.99l.04,5.65c.02,2,1.25,4.28,3.42,4.31l5.71.08c2.7.04,4.29-2.04,4.2-4.64-.08-2.23.09-4.39-.36-6.66,4.67.43,9.07,1.78,13.5,3.17,1.59,3.55,4.38,6.09,8.03,7.13.37.1.97-.09,1.17-.4-4.65-1.4-8.42-4.81-9.02-9.64-.16-1.25.22-2.61.96-3.42,2.69-2.99,9.19.62,11.76,3.76l2.77,3.38-.02-1.53c6.2,1.34,12.55,3.63,16.57,8.53l3.39,4.13c.83,1.01,1.04,2.23,0,3.28-4.61,4.69-17.85,5.5-24.18,3.69,1.25,1.43,3.05,1.14,4.68,2.04-3.47,1.49-6.87,3.12-10.53,3.96l-4.24.97c2.94,5.69,4.13,2.58,6.7,4.42.83.59,1.9,2.5.48,3.15-1.7.77-4.63.73-6.36-.21-3.29-1.78-5.97-4.11-8.89-6.32-1.06-.8-1.9-1.3-3.32-1.2-2.56.18-5.19.06-7.69-.73,1.33-1.48,3.81-4.15,3.99-5.57.01-.11-.13-.32-.22-.26-.65.43-3.64,6.16-10.01,8.09-.35.11-1.06.89-.77.93ZM115.46,84.38c1.3-.25,1.88-1.36,1.84-2.36-.05-1.12-.66-2.13-1.68-2.35s-2.23-.08-2.69.93c-.41.9-.35,2.02.18,2.84.4.62,1.38,1.12,2.35.94Z"/><path class="d" d="M74.72,78.29h-5.22c-.96.02-1.79-.79-1.79-1.76v-5.32c0-.99.84-1.75,1.8-1.74h5.3c1.07.01,1.73.97,1.73,1.93v4.95c0,.95-.64,1.94-1.81,1.95Z"/><path class="g" d="M114.75,103.49c-2.69-.07-4.81,1.01-6.11-1.51-1.68-3.26-5.84-2.3-9.45-4.02,2.3-1.14,4.51-.87,6.71-1.72,4.7-1.82,3.98,1.88,7.65,2.8,2.22.56,3.46,2.52,2.64,3.77-.25.38-.96.7-1.44.69Z"/><path class="i" d="M110.75,71.36c-6.51-.75-3.45-1.95-8.61-5.27,1.24-1.23,2.85-1.3,4.31-.6,2.18,1.2,3.8,3.15,4.3,5.88Z"/><path class="h" d="M115.46,84.38c-.97.19-1.95-.32-2.35-.94-.53-.82-.6-1.94-.18-2.84.47-1.02,1.7-1.16,2.69-.93s1.63,1.23,1.68,2.35c.04.99-.54,2.11-1.84,2.36Z"/><path class="h" d="M128.84,156.59c-1.65,3.01-5.45,4.45-8.56,3.46-1.61-.51-2.13-1.93-2.04-3.42.27-4.18,7.75-3.73,10.79-3.75.09,1.2.42,2.58-.2,3.7Z"/><path class="e" d="M160.78,56.64c.38.52,1.43.77,1.97.68.09-.02.27-.02.36.01l.84.59c.17.12.14.41.04.66-.15-.04-.46,0-.62-.02-.01-.02-.18-.16-.25-.18-12.14-3.29-27.88-4.33-40.64-2.88,8.42.62,16.41.26,24.55,1.43,4.21.6,8.18,1.15,12.32,1.98,1.22.24,2.32.82,3.33,1.36-.65.09-1.56.7-2.34.67-.09-.01-.28,0-.38,0-.01-.01-.13-.16-.13-.17s-.12.15-.13.17h-.38c-1.8-.46-3.84-.7-5.61-.19-.25-.04-.76-.04-1.01,0-2.48-.56-5.2-.11-7.75.19h-1.88c-.09-.06-.16-.06-.25,0h-1.89c-.1-.07-.16-.07-.24,0h-1.88s-.24-.11-.34-.13-.31.08-.35.11c-.11,0-.29,0-.39,0-.86-.36-1.97-.48-2.85-.19-.14-.03-.43-.02-.59-.02.57-.8-2.47-.23-2.81.21,1.04.88,2.35,1.16,3.42.65.26.04.78,0,1.06,0,1.13.82,2.96.67,4.34.42.32.05.9,0,1.24.01,1.13.58,2.95,1.05,3.91.21l5.27.02.04.23c.01.08.36.19.45.19h5.27c.1,0,.45-.11.46-.19l.04-.23,4.46.18,2.25.49c-.57,1.29-2.57.97-3.5,2.03-.11.02-.32.07-.43.06-.65-.09-2.1-.14-2.43.61-.19.03-.57.04-.78.05-1.55.06-3.45-.25-4.57.81-.14.01-.43,0-.57,0,0-.04-.04-.43-.13-.37l-.26.19c-.06.05-.07.11-.11.2-.09,0-.28-.02-.37,0-1.18-.26-2.81-.68-3.71.21-.15,0-.41,0-.57,0-.57-.59-1.72-.59-2.41-.19-.25-.04-.74-.02-1.01-.02l-.66-.42c-.17-.11-.52.15-.47.39-.09,0-.26.01-.35,0-.08-.88-3.88-.87-4.58-.83-.09,0-.26,0-.35-.01-.35-.39-.7-.58-1.47-.8l-5.04-1.46c-.09-.03-.28-.03-.37-.07-.15-.41-.66-.54-1.11-.51l-.36-.12c-.33-.52-.94-.79-1.57-.83-.06,0-.15,0-.19-.02-.29-1.23-2.08-1.27-2.98-1.69-1.71-.8-6.19-3.7-5.92-5.62.54-3.8,17.61-3.32,21.78-2.28,1.52.38,2.34.49,3.86.57,6.07.34,11.96,2.23,17.71,3.86Z"/><path class="e" d="M195.44,73.23c-4.05,1.71-8.05.5-10.37-3.06-2.12-3.26-1.99-7.19.51-10.19s6.51-3.63,10.08-2.05c3.07,1.36,5.11,4.25,5.11,7.62s-2.21,6.37-5.32,7.69ZM198.37,67.6c1.08-2.68.21-5.67-1.91-7.45-.69-.58-1.61-.83-2.47-.6-.56.15-1.36.76-1.69,1.47-1.22,2.65-.5,5.83,1.65,7.77.71.64,1.75.84,2.68.58.6-.17,1.37-.89,1.73-1.76Z"/><path class="e" d="M152.48,78.67c-1.61,1.38-3.52,2.73-5.45,3.32-1.51.46-2.48-1.16-3.58-1.85-3.57-2.24-6.3-5.95-6.29-10.39,0-.78,1.57-1.77,2.35-1.85,1.38-.15,3.39.08,4.77.57.71.25.78,1.5.79,2.16,1.42,3.44,3.75,6.21,7.41,8.05Z"/><path class="e" d="M144.81,82.93c-3.81,1.65-8.88,2.19-12.27.31-4.97-2.75-.24-10.42,3.18-12.58.63,4.31,2.9,7.74,6.23,10.17l2.87,2.1Z"/><path class="e" d="M152.01,88.58c-3.22,3.49-7.22,5.51-11.8,6.08-.27.03-.84-.34-.92-.58-.45-1.26,5.26-1.81,8.22-4.55,5.19-4.8,7.5-9.98,11.96-15.15.95-1.1,2.34-1.5,3.64-.79.84.46,1.68.27,2.57-.1.59-.25,2.11.33,2.11.97s-.72,1.58-1.19,1.84c-1.26.7-4.27-1.6-5.46.11-2.91,4.19-5.61,8.35-9.12,12.16Z"/><path class="e" d="M154.6,77.53c-.48.25-1.23.29-1.64-.14-.83-.88-1.97-1.19-2.88-1.89-2.33-1.77-3.83-4.43-3.98-7.57,2.6.98,6.09-1.03,8.28.08,1.56.79,1.76,4.57,4.21,5.23-1.3,2.04-2.29,3.06-3.98,4.3Z"/><path class="f" d="M175.42,68.83h-5.21c-.98.02-1.86-.73-1.86-1.73v-5.28c0-1.01.87-1.73,1.86-1.73h5.11c1.05,0,1.79.87,1.78,1.9v5.15c-.02.84-.72,1.7-1.68,1.7Z"/><path class="e" d="M181.98,74.17c.08.09.32.13.4.21l.23.24c.93.28,2.34-.04,3.21.64,1.5,1.17,2.64,2.88,3.56,4.56l3.57,6.5c3.17,5.77,9.12,5.3,8.49,6.55-.79,1.57-7.92-.32-10.94-5.65l-4.26-7.53c-.33-.58-1.11-1.44-1.53-1.85-.06-.05-.15-.15-.22-.19-.16-.08-.48-.22-.66-.26-.49-1.16-3.66-1.29-3.49-2.77.05-.48,1.19-.53,1.62-.44Z"/><path class="e" d="M186.64,96.54c-.12,1.91-4.39-1.56-3.43-.95-6.41-4.02-5-10.7-8.44-18.29-.55-1.21-1.63-2.07-1.77-3.4-.09-.86.16-1.62,1.01-1.8.56-.12,1.52.46,1.56,1.18.08,1.47,1.1,2.16,1.65,3.32,1.49,3.15,2.3,6.58,2.97,10.06,1.36,7.07,6.53,8.78,6.46,9.88Z"/><path class="e" d="M167.67,87.55c-1.83,6.79-7.92,9.88-8.66,9.06-1.4-1.57,4.83-2.13,6.68-11.56.81-4.15,1.94-7.91,4-11.61.15-.26.78-.54,1.07-.58,2.26-.37-.29,4.36-.42,4.85l-2.66,9.85Z"/><path class="e" d="M185.2,58.51c-3.25,2.6-.92,4.66-5.8,4.5-.06-1.62-.13-2.81-1.08-3.84-.84-.91-2.01-1.37-3.41-1.37h-6.12c5-3.27,11.17-3.48,16.22-.78.19.1.51.49.57.66.08.21-.19.68-.37.82Z"/><path class="e" d="M179.45,72.42c-.38.96-2.01,1.46-2.65.55l-1.28-1.81c2.56-.3,4.06-2.37,3.85-4.89-.06-.7-.05-1.46-.04-2.15l2.98-.29c-.39,2.6.22,4.77,1.64,7-.49.66-3.86,2.75-4.5,1.6Z"/><path class="e" d="M164.04,70.83c1.06,1.84-3.18.68-4.99,1.68-1.48-1.26-2.63-3.11-3.08-5.2l6.97-1.58c-.03,1.96.19,3.53,1.1,5.1Z"/><path class="e" d="M169.88,71.16c.09.58-.69,1.34-1.3,1.62-1.68.77-4.72-2.99-4.3-7.05.05-.49,1.51-1.06,1.63-.62.17.65.16,1.87.2,2.64.33,1.86,1.65,3.03,3.77,3.41Z"/><path class="e" d="M205.18,61.23c-3.25-.88-4.21.76-4.73-.53-.62-1.57,4.13-2.11,6-.03.26.29-.9.65-1.27.55Z"/><path class="e" d="M198.48,56.83c-1.02.38-1.92.75-2.67-.25.94-1.29,5.38-2.25,5.35-.88-.01.67-1.32.63-2.68,1.13Z"/><path class="e" d="M160.19,64.94c.93-1.06,2.93-.74,3.5-2.03l-2.25-.49c-.12,0,5.28-.42,4.6.69-.52.85-4.67,1.6-5.85,1.84Z"/><path class="e" d="M181.98,74.17c-.43-.1-1.56-.05-1.62.44-.17,1.49,3,1.62,3.49,2.77-1.31-.28-4.12-1.19-4.08-3,.01-.83,1.79-.69,2.21-.21Z"/><path class="e" d="M160.34,60.94c.78.04,1.7-.57,2.34-.67,1.07-.15,2.86-.11,3.49.91-1.61.08-4.42-.06-5.84-.24Z"/><path class="e" d="M136.45,65.61c-1.68-.42-5.02-1.2-6.51-2.27l5.04,1.46c.77.22,1.12.41,1.47.8Z"/><path class="e" d="M156.97,62.23l-.04.23c-.01.08-.36.19-.46.19h-5.27c-.09,0-.44-.11-.45-.19l-.04-.23h6.27Z"/><path class="e" d="M152.69,60.74c-1.92.26-5.63.19-7.75.19,2.54-.3,5.27-.75,7.75-.19Z"/><path class="e" d="M163.99,58.58c.1-.25.13-.54-.04-.66l-.84-.59c.9.28,2.67,1.03,3.51,1.61-.75.64-1.99-.21-2.63-.36Z"/><path class="e" d="M159.32,60.93c-1.54,0-4.23.03-5.61-.19,1.78-.51,3.82-.27,5.61.19Z"/><path class="e" d="M156.55,65.66c-1.19.4-3.41.69-4.57.81,1.11-1.06,3.02-.75,4.57-.81Z"/><path class="e" d="M134.28,60.7c-.66,0-1.39-.35-2.01.33.77.18,1.99.43,2.61.53-1.06.52-2.38.23-3.42-.65.34-.45,3.39-1.01,2.81-.21Z"/><path class="e" d="M141.37,66.46c-1.15-.15-3.42-.45-4.58-.83.7-.04,4.49-.04,4.58.83Z"/><path class="e" d="M140.28,61.99c-1.37.25-3.21.4-4.34-.42,1.45.05,2.9.2,4.34.42Z"/><path class="e" d="M145.44,62.22c-.97.84-2.78.37-3.91-.21l3.91.21Z"/><path class="e" d="M126.34,61.8c-.81-.31-2.43-.92-2.98-1.69.91.42,2.7.46,2.98,1.69Z"/><path class="e" d="M150.55,66.49c-.91.19-2.69.26-3.71.21.9-.89,2.53-.47,3.71-.21Z"/><path class="e" d="M146.28,66.7c-.71,0-1.82-.1-2.41-.19.7-.4,1.84-.41,2.41.19Z"/><path class="e" d="M159.76,65c-.7.24-1.89.54-2.43.61.33-.75,1.77-.69,2.43-.61Z"/><path class="e" d="M137.71,60.92c-.71.05-2.15-.04-2.85-.19.88-.29,1.99-.17,2.85.19Z"/><path class="e" d="M162.75,57.32c-.53.1-1.59-.16-1.97-.68.67.19,1.4.24,1.97.68Z"/><path class="e" d="M128.1,62.65c-.57-.18-1.37-.36-1.57-.83.63.05,1.23.31,1.57.83Z"/><path class="e" d="M129.57,63.28l-1.11-.51c.46-.03.96.1,1.11.51Z"/><path class="e" d="M142.85,66.49l-1.13-.03c-.05-.24.3-.5.47-.39l.66.42Z"/><path class="e" d="M151.42,66.47l-.49.02c.03-.09.04-.15.11-.2l.26-.19c.09-.07.13.33.13.37Z"/><path class="e" d="M138.79,60.93h-.69s.25-.15.35-.13.3.1.34.13Z"/><path class="g" d="M182.62,74.62l-.23-.24.23.24Z"/><path class="g" d="M184.73,77.83c-.05-.05-.16-.14-.22-.19.06.03.16.13.22.19Z"/><path class="e" d="M159.96,60.94h-.26s.13-.17.13-.17.12.15.13.17Z"/><path class="e" d="M143.06,60.94h-.25c.09-.06.17-.06.25,0Z"/><path class="e" d="M140.91,60.94h-.24c.09-.08.15-.07.24,0Z"/><path class="g" d="M163.37,58.57c-.07,0-.23-.15-.25-.18.07.02.24.16.25.18Z"/><path class="f" d="M198.37,67.6c-.35.87-1.12,1.59-1.73,1.76-.93.26-1.97.06-2.68-.58-2.16-1.94-2.87-5.12-1.65-7.77.33-.71,1.12-1.31,1.69-1.47.86-.23,1.78.02,2.47.6,2.12,1.78,2.99,4.77,1.91,7.45Z"/><path class="f" d="M80,29.8c.47.71,1.24.65,2.2.92,1.81.51,4.42,1.48,5.39,3.31.36.68.45,6.12-.1,6.14-.16,0-.61.01-.78-.09l-3.29-1.86c-1.53-.87-3.44-.76-4.51.73l-3.06,4.24c-.23.31-.32,1.11-.35,1.48l-1.11,1.28c-.95,1.1-1.76,2.26-2.71,3.53-3.51.12-6.87.25-10.32-.36-1.45-.26-2.79-1-4.06-1.73-.71-.41-.9-1.5-.63-2.26,1.3-3.62,3.63-6.39,6.57-8.86,3.35-2.83,7.39-4.6,11.69-5.62.75-.18,1.43-.45,2.02-.76.11.03.33.02.45.02.3.16.81.38,1.16.44.3.04.78-.34.98-.59l.45.03Z"/><path class="f" d="M123.59,35.91c-10.82-4.46-3.27-.87-9.79-8.3.97-2.44,3.06-2.51,3.6-3.84.1-.03.3-.04.4-.06.08-.01.23-.18.24-.22.05-.03.15-.03.24-.03,2.33-.21,4.65-.59,7.05.08,1.46.41,2.86,1.53,4.16,2.12s1.6-1.15,2.15-1.7c2.69-2.68,6.4-4.26,10.19-5.08,10.53-2.27,9.73,1.12,8.03,1.02-6.62-.36-13.07,1.5-18.14,5.8-1.48,1.25,2.23,2.16,3.94,7.17.41,1.19-.07,2.2-1.18,2.62-3.57,1.36-7.29,1.25-10.88.42Z"/><path class="f" d="M115.43,33.99c.05.47.03,1.03,0,1.31-.93-.09-.74,1.08-1.47,1.58-6.71,4.6-5.41-.64-9.19,1.18l-.11-4.03c-.06-2.25-2.35-3.61-4.41-3.49.28-1.31,2.12-1.25,3.67-2.55,1.38-.06,2.95-.54,4.37-.42,2.65.22,5.13,2.16,5.98,4.55.31.87.44,1.58,1.17,1.87Z"/><path class="c" d="M100.68,41.57h-5.21c-.99,0-1.8-.84-1.8-1.82v-5.09c0-1.04.83-1.82,1.89-1.82l5.12.02c.98,0,1.75.83,1.75,1.78v5.13c0,.88-.74,1.8-1.76,1.8Z"/><path class="f" d="M111.23,49.36c.07,1.09.17,2.04.57,3.24.72,2.2,1.11,4.49,2.22,6.56,1.47,2.73,3.72,4.51,6.2,6.51-1.78.98-6.32-3.95-7.13-5.14-1.92-2.81-2.51-6.13-3.53-9.33-.15-.49-.48-.82-.9-.95l-1.58-4.06-1.96-4.29c-.25-.54-.15-1.41.18-1.87.25-.34,1.02-.52,1.52-.33,1.12.42,4.23,7.08,4.4,9.68Z"/><path class="f" d="M70.33,54.04c-.64.86-.86,1.93-1.92,2.66-1.36.94-2.7,1.97-4.13,2.85-1.93,1.19-4.23,1.44-6.11,3.04,10.86-2.27,15.88-9.45,21.74-17.96.35-.51.05-1.86.43-2.33,2.04-2.52,6.46,6.48,13.9,2.24-1.47-.84-3.06-.7-4.61-1.04-5.67-1.24-7.8-5.03-9.25-2.87l-6.95,10.34c-.84,1.25-1.8,2.31-3.12,3.08,2.53-3.4,4.74-6.74,7.15-10.15l2.65-3.75c1.74-2.45,4.54,1.69,8.86,2.51,2.14.41,4.17.66,6.4,1.35-3.07,3.82-7.98,2.31-11.75-.24l-2.46-1.67c-.28,2.17-1.03,3.45-2.2,5.03-5.6,7.61-10.4,13.84-20.35,15.93-.4.08-1.2-.44-1.21-.76,0-.29.45-.75.79-.85,4.81-1.35,8.63-4.06,12.11-7.41Z"/><path class="f" d="M123.37,40.86c.66-.16,2.01-.49,2.7-.42,2.29.23,3.3,3.2,3.65,5.12.21,1.16.91,1.92,1.29,3.04-3.04.86-2.58-1.29-5.29-4.78-1.2-1.54-2.2.43-4.32-.69-.31-.17-.79,0-1,.27h-.22c-2.07-.82-4.51-1.3-6.06-3.17-.19-.23.13-.83.38-.93,1.74-.66,3.85,2.82,8.87,1.57Z"/><path class="f" d="M76.95,29.9c-.59.31-1.27.58-2.02.76-4.29,1.02-8.34,2.8-11.69,5.62-2.93,2.48-5.26,5.25-6.57,8.86-.27.76-.08,1.84.63,2.26,1.27.73,2.61,1.48,4.06,1.73,3.45.61,6.8.48,10.32.36.95-1.27,1.76-2.43,2.71-3.53.19.49-2.1,3.92-2.61,4.01-4.27.79-8.6.52-12.68-.9-1.26-.44-3.19-1.51-3.21-2.92-.02-1.92,1.23-3.76,2.29-5.29,3.77-5.41,9.29-8.9,15.61-10.66.91-.25,2.39-.48,3.15-.31Z"/><path class="f" d="M108.66,50.24c.42.13.74.46.9.95,1.02,3.21,1.61,6.53,3.53,9.33.81,1.19,5.35,6.11,7.13,5.14-2.48-2-4.74-3.78-6.2-6.51-1.11-2.06-1.5-4.35-2.22-6.56-.39-1.2-.5-2.15-.57-3.24,1.39,2.47,1.5,5.52,2.94,8.79,2.26,5.1,7.26,6.66,6.56,7.94-1.1,2.01-8.29-3.78-9.57-7.88l-2.5-7.97Z"/><path class="f" d="M77.99,60.83c-.3.12-.93-.02-1.08-.19-.18-.2-.1-.89.13-1.08,5.75-4.38,5.48-6.63,6.98-13.26.1-.45.92-.55,1.25-.44.39.13,1.15.63,1.07,1.12-.9,5.53-2.66,11.52-8.35,13.85ZM77.4,60.26c3.19-.76,5.09-3.31,6.3-6.06.47-.93,3.02-7.62,1.05-7.75-1.8,7.49-1.66,8.45-7.35,13.81Z"/><path class="f" d="M75.51,44.69c.03-.37.12-1.17.35-1.48l3.06-4.24c1.07-1.49,2.98-1.59,4.51-.73l3.29,1.86c.17.1.62.09.78.09.55-.02.45-5.47.1-6.14-.98-1.84-3.59-2.8-5.39-3.31-.96-.27-1.73-.21-2.2-.92,2.95.22,8.16,1.16,8.28,4.12l.23,5.6c.01.36-.4,1.27-.74,1.4-.3.12-.9.05-1.26-.15l-3.61-2.06c-1.29-.73-2.8-.37-3.62.81-1.25,1.8-2.41,3.58-3.77,5.16Z"/><path class="f" d="M101.77,43.83c-1.47,5.75,1.39,8.94-4.4,13.35,2.42-.35,3.17-2.54,4.22-4.43.49-2.93.5-5.85.18-8.91l.73-.33c.13-.05.35.49.34.64l-.37,6.6c-.29,5.08-5.24,8.25-5.69,6.8-.31-1,3.66-2.57,3.8-6.47l.22-5.92c.02-.6.49-1.16.98-1.31Z"/><path class="f" d="M115.43,33.99c-.72-.29-.86-1-1.17-1.87-.85-2.39-3.33-4.33-5.98-4.55-1.42-.12-2.99.36-4.37.42-1.56,1.3-3.39,1.24-3.67,2.55l-1.09-.19c1.99-1.79,4.19-2.85,6.79-3.31,4.57-.81,9.03,2.44,9.49,6.94Z"/><path class="f" d="M91.68,41.61c-2.4-1.05-2.61-4.47-1.79-6.44.07-.17-.23-.63-.27-.77s.2-.36.34-.4c.18-.05.44.19.7.38,1.56.76.22,4.36,1.02,7.23Z"/><path class="f" d="M119.84,48.94c.08.24-.45.65-.68.69-.27.04-1-.09-1.02-.37-.2-3.59-2.65-3.35-2.33-5.74,1.19-.15,2.47.53,2.84,1.68l1.19,3.74Z"/><path class="f" d="M117.4,23.77c-.54,1.33-2.63,1.4-3.6,3.84,6.52,7.44-1.03,3.84,9.79,8.3-1.36-.31-2.7-.27-4.11-1.11-.77-.46-2.45-.54-2.83-1.52-.83-2.13-1.7-4.07-3.54-5.5.49-1.78,2.85-3.63,4.29-4.01Z"/><path class="f" d="M123.37,40.86c-5.03,1.25-7.14-2.23-8.87-1.57-.25.1-.56.7-.38.93,1.55,1.88,3.99,2.35,6.06,3.17-2.1-.04-6.15-1.35-7.22-3.68.47-.62,1.46-1.12,2.47-1.41,2.34,1.98,5.07,2.33,7.94,2.57Z"/><path class="f" d="M129.78,19.48c.81-1.35,2.02-2.31,3.2-3.7-2.9,1.02-5.04,3.64-6.11,6.38.9.07,1.13-.67,1.59-1.23.73-.01-.4,1.4-.85,1.79-.3.26-1.52-.1-1.39-.53,1.01-3.34,5.67-7.51,6.9-7.02,1.87.75-2.79,3.76-3.34,4.3Z"/><path class="f" d="M115.42,35.3c-.1.8-.55,1.96-1.29,2.32-1.55.74-3.76,2.28-5.49,1.89-1.3-.29-2.3-2.01-3.83-.56l-.05-.89c3.78-1.81,2.48,3.42,9.19-1.18.72-.5.54-1.67,1.47-1.58Z"/><path class="f" d="M131.62,23.95c-.55.55-.86,2.29-2.15,1.7s-2.7-1.71-4.16-2.12c-2.4-.67-4.72-.29-7.05-.08,2.86-1.79,8.58-.42,11.4,1.8l1.95-1.31Z"/><path class="f" d="M129.78,19.48c-.33.55-1.15.93-1.32,1.46-.46.56-.69,1.3-1.59,1.23,1.07-2.74,3.21-5.37,6.11-6.38-1.18,1.39-2.39,2.34-3.2,3.7Z"/><path class="f" d="M83.54,45.19c-.97.85-1.92,1.5-3.16,1.9.49-1,1.05-2.15,1.5-2.93.26-.45,1.52.56,1.66,1.03Z"/><path class="f" d="M125.73,43.82c-2.02-.62-3.51.56-5.32-.43.21-.27.69-.43,1-.27,2.12,1.12,3.13-.85,4.32.69Z"/><path class="f" d="M79.55,29.77c-.2.25-.68.64-.98.59-.35-.05-.86-.27-1.16-.44.69-.16,1.42-.21,2.14-.16Z"/><path class="g" d="M117.79,23.71s.17-.18.24-.22c-.01.04-.17.2-.24.22Z"/><path class="f" d="M70.33,54.04c1.32-.77,2.28-1.83,3.12-3.08l6.95-10.34c1.45-2.15,3.58,1.64,9.25,2.87,1.56.34,3.14.2,4.61,1.04-7.44,4.24-11.87-4.76-13.9-2.24-.38.47-.08,1.82-.43,2.33-5.86,8.51-10.88,15.69-21.74,17.96,1.88-1.6,4.18-1.85,6.11-3.04,1.42-.88,2.77-1.9,4.13-2.85,1.06-.73,1.28-1.8,1.92-2.66Z"/><path class="f" d="M77.4,60.26c5.69-5.36,5.55-6.32,7.35-13.81,1.96.13-.58,6.82-1.05,7.75-1.2,2.75-3.11,5.3-6.3,6.06Z"/><path class="f" d="M101.77,43.83c.31,3.06.31,5.98-.18,8.91-1.05,1.89-1.8,4.08-4.22,4.43,5.79-4.41,2.93-7.6,4.4-13.35Z"/></g></svg>
