<?xml version="1.0" encoding="UTF-8"?><svg id="a" xmlns="http://www.w3.org/2000/svg" viewBox="0 0 210.33 194.63"><defs><style>.c{fill:#373324;}.d{fill:#2b2e2f;}.e{fill:#de825e;}.f{fill:#86aa4c;}.g{fill:#e5d194;}.h{fill:#656ba5;}.i{fill:#fdfeff;}.j{fill:#a06c2b;}.k{fill:#fff;}.l{fill:#ca8369;}</style></defs><g id="b"><path class="k" d="M97.31,0v.2c-3.49.44-7.09.86-10.67,1.72l-4.28,1.03c-5.06,1.22-13.56,4.37-18.14,6.79l-3.19,1.69c-2.17,1.15-4.2,2.38-6.22,3.77l-3.26,2.24c-1.37.94-2.6,1.94-3.89,2.98-5.47,4.41-10.53,9.62-14.78,15.21-2.39,3.14-5.55,8.04-7.32,11.52l-1.71,3.36-1.53,3.42c-2.99,6.67-5.21,15.48-6.25,22.76l-.35,2.42c-1.34-.46-3.5.23-4.95.75-.9.32-1.36,1.15-1.22,2.08.37,2.59,4.44.5,5.82.46.04.82-.02,1.63-.07,2.56-.3,5.34-.15,11.12.58,16.28l-3.37.96-6.54,1.7c-1.16.3-2.88.69-3.79,1.3-1.14.77-1.57,2.13-1.11,3.42.7,1.93,2.73,2.13,4.61,2.11,5.11-.05,6.78-.23,11.61-.77l.75,2.92,1.09,3.64c.72,2.42,1.53,4.74,2.52,7.06l1.35,3.16c.54,1.25,1.11,2.38,1.72,3.61,2.15,4.34,4.6,8.39,7.42,12.33,1.03,1.45,1.98,2.8,3.15,4.12.47.53.72,1.16.74,1.92l-.09,10.41.02,7.65c.02,6.97-1.32,16.37,1.24,22.67.76,1.87,2.05,3.85,3.99,4.6l1.21.47c.06.03.06.07.01.11H0V0h97.31ZM14.81,120.65l2.32-.56c.31-.08.59-.16.87-.29,1.08-.5,1.09-1.9.59-2.79-.47-.83-1.48-.89-2.34-.7-1.06.23-3.57.67-4.03,1.46s-.47,2.52.91,2.9c.52.14,1.06.13,1.68-.01Z"/><path class="k" d="M119.68,0h90.64v194.63h-40.22c-.09-.13.03-.16.19-.19,6.63-1.4,10.64-5.94,12.73-12.19,1.32-3.94,1.89-9.13,1.95-13.33l.2-14.7v-3.76c0-.61.17-1.18.56-1.63l1.18-1.37,1.25-1.28c1.92-1.97,5.27-6.44,6.85-8.83,2.41-3.64,4.35-7.58,6.04-11.61.84-2,1.5-3.98,2.2-6.03,1.53-4.45,3.09-11.63,3.54-16.29l.34-3.59c.59-6.15.02-14.26-.94-20.41-.4-2.58-1.4-7.33-2.2-9.59-.13-.36-.14-3-.09-3.65l1.61.2c.75.09,1.51.02,2.18-.34,1.25-.68,1.85-2.02,1.68-3.43-.36-3.04-3.29-3.13-4.52-3.58-1.43-.53,0-2.61-2.19-3.89-1.19-.69-3.31-.64-4.46-.47-.17-.6-.44-1.18-.77-1.79l-1.73-3.18c-3.67-6.76-9.03-13.84-14.35-19.37-.8-.83-1.5-1.62-2.34-2.39l-2.86-2.64c-1.34-1.24-2.68-2.39-4.11-3.52l-2.55-2c-2.84-2.24-5.74-4.14-8.86-6.02-5.47-3.29-11.09-5.99-17.12-8.16-5.45-1.97-10.83-3.58-16.54-4.46l-5.37-.83-1.74-.16c-.15-.01-.29,0-.21-.16Z"/><polygon class="g" points="98.88 0 97.31 .2 97.31 0 98.88 0"/><path class="h" d="M14.81,120.65c-.62.15-1.16.16-1.68.01-1.38-.37-1.36-2.12-.91-2.9s2.97-1.24,4.03-1.46c.86-.18,1.87-.12,2.34.7.51.89.49,2.29-.59,2.79-.29.13-.56.22-.87.29l-2.32.56Z"/><path class="h" d="M119.68,0c-.07.15.06.14.21.16l1.74.16,5.37.83c5.71.88,11.09,2.49,16.54,4.46,6.02,2.18,11.64,4.87,17.12,8.16,3.12,1.88,6.02,3.78,8.86,6.02l2.55,2c1.43,1.13,2.77,2.28,4.11,3.52l2.86,2.64c.83.77,1.54,1.56,2.34,2.39,5.32,5.53,10.68,12.62,14.35,19.37l1.73,3.18c.33.61.6,1.19.77,1.79-.6.09-2.46,1.72-3.03.53-1.08-2.27-3.12-6.03-4.5-8.1l-2.83-4.27-2-2.68-2.27-2.83c-1.18-1.48-3.76-4.36-5.1-5.7l-2.07-2.05-1.54-1.41-3.42-3.05c-1.99-1.78-7.17-5.57-9.46-7l-2.8-1.74c-2.51-1.56-5.03-2.95-7.72-4.19l-2.7-1.25c-1.8-.84-3.58-1.52-5.45-2.23C123.92,1.34,101.71.64,81.77,6.24c-3.14.88-6.09,1.81-9.08,3.05l-3.06,1.27c-5.61,2.33-14.31,7.42-18.94,11.28l-4.7,3.93-1.51,1.45c-.78.75-1.57,1.42-2.31,2.21l-2.27,2.43c-1.61,1.72-3.01,3.51-4.45,5.38-2,2.62-5.45,7.84-6.92,10.72l-1.81,3.53c-1.13,2.22-2.84,6.45-3.66,8.85-1.17,3.41-3.02,10.07-3.52,13.53l-.62,4.29c-.74,5.16-.96,12.64-.57,17.84.09,1.24.15,2.42.39,3.64.28,1.45-1.32,1.16-2.85,1.6-.73-5.16-.88-10.94-.58-16.28.05-.93.11-1.74.07-2.56.8-1.1,1.02-2.05.35-3.29l.35-2.42c1.04-7.28,3.26-16.08,6.25-22.76l1.53-3.42,1.71-3.36c1.77-3.48,4.93-8.38,7.32-11.52,4.25-5.59,9.31-10.8,14.78-15.21,1.29-1.04,2.52-2.04,3.89-2.98l3.26-2.24c2.02-1.39,4.05-2.62,6.22-3.77l3.19-1.69c4.58-2.42,13.08-5.57,18.14-6.79l4.28-1.03c3.57-.86,7.17-1.28,10.67-1.72l1.57-.2h20.8Z"/><path class="f" d="M15.72,79.09c.68,1.25.46,2.2-.35,3.29-1.39.04-5.45,2.12-5.82-.46-.14-.93.32-1.76,1.22-2.08,1.45-.52,3.61-1.21,4.95-.75Z"/><path class="j" d="M160.01,53.74l-4.24.02c-.56,0-1.08-.03-1.6-.16-.89-.23-1.01-1.08-1.01-1.97l.03-9.04-.02-5.12c-.01-3.32,1.82-3,1.94-5.75.09-2,.28-3.93.61-5.91.18-1.12.2-2.18.02-3.28-.04-.24-.06-.52.08-.73.37-.54,2.69-.36,3.38-.25.39.06.66.33.61.72-.16,1.29-.16,2.57.03,3.89.28,1.9.49,3.74.6,5.66.14,2.5,1.93,2.6,1.91,5.47l-.03,5.49v3.73c0,1.46.15,5.11,0,5.99-.18,1.06-1.17,1.24-2.32,1.25ZM161.06,49.13c.63-.12.65-.95.65-1.42v-8.1c0-.32-.02-.61-.09-.9-.14-.65-.85-.63-1.5-.63h-4.37c-.74.01-1.72-.09-1.9.62-.08.3-.11.58-.11.9v7.31c0,.88-.18,2.11.73,2.25.3.04.58.06.89.06h4.54c.38,0,.71-.01,1.15-.08Z"/><path class="g" d="M161.06,49.13c-.44.07-.77.07-1.15.07h-4.54c-.32,0-.59,0-.89-.05-.91-.13-.72-1.37-.72-2.25v-7.31c0-.32.03-.61.1-.9.19-.71,1.16-.61,1.9-.61h4.37c.65-.01,1.36-.04,1.5.62.07.3.1.58.1.9v8.1c0,.47-.04,1.3-.66,1.42ZM157.58,41.19c-.06,0-.13.06-.19.07-.2-.12-.41-.28-.71-.42-.2-.09-.4.1-.34.31.1.35.2.6.29.85-.02.06-.01.12-.03.18-.13.38-.12.79-.02,1.17l-.06.22c-.03.13-.07.27-.08.46-.05.68.67.99,1.1,1.07.12.02.3.03.42,0,.25-.06.55-.15.8-.36.74-.61.32-1.84.2-2.54-.02-.12-.05-.3-.01-.42l.2-.63c.04-.14-.04-.3-.18-.29-.25.02-.42.11-.59.14-.08.02-.18-.03-.26-.02.03-.28.08-1.59-.3-1.64-.4-.06-.78,1.05-.23,1.84ZM155.9,47.66c.17-.33.15-.6.09-.9-.07-.64-.75-.65-1.43-.65-.08.52-.06,1.03-.03,1.63.1.16.26.18.45.15.33-.01.58-.06.92-.24ZM157.26,47.09c.17-.17.02-.26-.19-.31-.15,0-.35-.12-.24-.21.19-.16.42-.07.64-.15.24-.27-.95-.3-1.14-.32l-.08,1.71c.14-.03,1.47.17,1.2-.2-.24-.07-.45-.08-.68-.19-.1-.28.06-.3.48-.33ZM158.88,46.97l-.56-.28c-.06-.34.7-.23.7-.37,0-.15-.71-.15-1.09-.19-.07.56-.08,1.09-.04,1.76.15.05,1.56,0,1.27-.25-.24-.04-.41-.05-.65-.12-.17-.04-.24-.24-.09-.31.17-.08.33-.04.45-.24ZM160.65,47.83c.23.48.16-1.4.17-1.17-.03-.55-.73-.5-1.28-.49-.06.31-.1,1.54.1,1.63.24.1.27-.33.46-.53l.54.56Z"/><path class="g" d="M158.36,41.01c.26.09-.48.2-.39.21l.13-.23c.08,0,.18.04.26.02Z"/><path class="g" d="M158.95,42.21l-.26-.04.03-.44c.06-.05.15.01.22.06-.04.12,0,.3.01.42Z"/><path class="g" d="M157.97,41.22c-.04.3-.13.58-.07,1.01.34.05.56-.04.79-.07-.18.13-1.46,1.25-.7,1.49.15.05,1.39-.43.85-.06-.71.48-.99.42-.89,1.51-.12.03-.3.02-.42,0,0-.16,0-.33-.03-.56-.08-.64-.58-.79-.99-.98l.06-.22.6.29c.22.04.36-.05.45-.17s.12-.29,0-.48c-.34-.36-.69-.6-1.04-.81.02-.06.01-.12.03-.18l.78.33c.2-.08.25-.25.17-.45-.05-.25-.12-.44-.18-.61.06-.01.13-.08.19-.07l.39.03Z"/><path class="j" d="M155.9,47.66c-.34.18-.59.23-.92.24-.2.02-.35,0-.45-.15-.02-.6-.05-1.11.03-1.63.69,0,1.36.01,1.43.65.05.3.08.57-.09.9ZM155.62,46.64c-.18-.24-.5-.24-.66.04.09.21.22.24.33.23.13-.01.25-.05.33-.26ZM155.61,47.2c-.29-.23-.52-.16-.64.07.08.2.21.23.33.23s.29,0,.32-.3Z"/><path class="j" d="M160.65,47.83l-.54-.56c-.2.19-.23.63-.46.53-.2-.09-.16-1.32-.1-1.63.55-.01,1.25-.07,1.28.49-.01-.23.05,1.65-.17,1.17ZM160.51,46.61c-.29-.23-.52-.16-.64.07.08.2.21.23.33.23s.29,0,.32-.3Z"/><path class="j" d="M157.26,47.09c-.42.03-.58.05-.48.33.23.11.44.12.68.19.27.37-1.07.16-1.2.2l.08-1.71c.19.02,1.37.05,1.14.32-.22.08-.45-.01-.64.15-.11.09.09.22.24.21.21.05.36.15.19.31Z"/><path class="j" d="M158.88,46.97c-.13.21-.28.16-.45.24-.15.07-.08.27.09.31.24.06.41.08.65.12.29.25-1.12.3-1.27.25-.05-.66-.03-1.19.04-1.76.38.04,1.09.03,1.09.19,0,.14-.76.03-.7.37l.56.28Z"/><path class="j" d="M158.94,41.79c-.07-.05-.15-.11-.22-.06l-.03.44c-.23.03-.45.12-.79.07-.06-.43.03-.71.07-1.01-.09,0,.65-.12.39-.21.17-.03.34-.12.59-.14.14-.01.23.15.18.29l-.2.63Z"/><path class="j" d="M157.39,41.26c.06.18.13.36.18.61.08.2.03.37-.17.45l-.78-.33c-.09-.24-.19-.5-.29-.85-.06-.21.15-.4.34-.31.3.14.51.3.71.42Z"/><path class="j" d="M158.11,40.99l-.13.23-.39-.03c-.56-.79-.17-1.9.23-1.84.37.05.32,1.36.3,1.64Z"/><path class="j" d="M157.95,45.1c-.1-1.09.18-1.03.89-1.51.55-.37-.7.11-.85.06-.76-.24.51-1.35.7-1.49l.26.04c.12.7.54,1.93-.2,2.54-.25.21-.54.3-.8.36Z"/><path class="j" d="M156.58,43.35c-.1-.39-.11-.79.02-1.17.35.21.69.45,1.04.81.11.19.08.36,0,.48s-.23.21-.45.17l-.6-.29Z"/><path class="j" d="M157.54,45.1c-.43-.09-1.15-.39-1.1-1.07.02-.19.05-.34.08-.46.41.19.91.34.99.98.03.23.03.4.03.56Z"/><path class="g" d="M155.62,46.64c-.08.21-.2.25-.33.26-.12.01-.24-.01-.33-.23.17-.27.48-.27.66-.04Z"/><path class="g" d="M155.61,47.2c-.02.29-.2.3-.32.3s-.24-.02-.33-.23c.13-.24.35-.3.64-.07Z"/><path class="g" d="M160.51,46.61c-.02.29-.2.3-.32.3s-.24-.02-.33-.23c.13-.24.35-.3.64-.07Z"/><path class="h" d="M203.99,69.84c.81,2.26,1.8,7.01,2.2,9.59.96,6.16,1.53,14.27.94,20.41l-.34,3.59c-.44,4.66-2.01,11.83-3.54,16.29-.7,2.05-1.36,4.03-2.2,6.03-1.7,4.03-3.63,7.97-6.04,11.61-1.58,2.39-4.93,6.86-6.85,8.83l-1.25,1.28-1.18,1.37c-.39.45-.55,1.01-.55,1.63v3.76s-.21,14.7-.21,14.7c-.06,4.19-.63,9.39-1.95,13.33-2.09,6.25-6.11,10.79-12.73,12.19-.15.03-.28.06-.19.19H42.4s.05-.09-.01-.11l-1.21-.47c-1.94-.76-3.23-2.73-3.99-4.6-2.55-6.31-1.22-15.71-1.24-22.67l-.02-7.65.09-10.41c-.01-.76-.26-1.38-.74-1.92-1.17-1.32-2.11-2.67-3.15-4.12-2.82-3.94-5.27-7.99-7.42-12.33-.61-1.23-1.19-2.36-1.72-3.61l-1.35-3.16c-.99-2.32-1.8-4.64-2.52-7.06l-1.09-3.64-.75-2.92c.85-.1,2.48-.82,3.04.19.32.57,1.25,4.23,1.7,5.53.08.22.44-.88,1.51-1.47,1.71-.95,6.09-2.52,6.55.31.2,1.25-.39,1.95-1.53,2.34l-2.78.95c-2.1.72-3.29-.57-2.99.23l.92,2.46c1.57,4.19,4.81,11.13,7.19,14.8l1.3,2.01c.55.85,1.06,1.67,1.65,2.48l2.48,3.42c.66.91,1.33,1.75,2.07,2.61.41.47.62,1.06.62,1.72l-.05,12.56.04,8.83c0,1.34-.07,2.61-.16,3.95-.16,2.44-.17,4.8-.16,7.24,0,2.78.59,7.5,2.17,9.76.66.94,1.58,1.56,2.71,1.8,2.17.47,4.27.32,6.49.27l2.93-.06h18.43s18.63.02,18.63.02l9.04.04,7.66-.04,13.13-.05h4.13s6.5-.01,6.5-.01l25.85-.03,6.07-.02h4.58c2.85-.01,6.07-1.21,8.29-2.97,2-1.59,3.79-4.48,4.66-6.92,1.57-4.39,1.99-9.1,2.06-13.78l.11-8.21v-2.76s.07-7.86.07-7.86c0-.73.26-1.38.73-1.9l1.4-1.54,1.77-1.97c4.05-4.52,6.9-8.44,9.68-13.88,4.29-8.4,7.53-19.21,8.24-28.64l.27-3.65c.4-5.39-.29-14.53-1.35-19.86l-.65-3.27c-.11-.54-.01-1.07.27-1.53,1.1-1.76.58-2.17,1.44-3.21Z"/><path class="d" d="M198.21,54.69c1.15-.17,3.27-.22,4.46.47,2.19,1.27.75,3.36,2.19,3.89,1.23.45,4.16.54,4.52,3.58.17,1.4-.43,2.75-1.68,3.43-.67.36-1.43.44-2.18.34l-1.61-.2c-.05.65-.04,3.29.09,3.65-.85,1.04-.34,1.45-1.44,3.21-.28.46-.38.99-.27,1.53l.65,3.27c1.05,5.33,1.75,14.47,1.35,19.86l-.27,3.65c-.7,9.43-3.94,20.23-8.24,28.64-2.78,5.44-5.64,9.36-9.68,13.88l-1.77,1.97-1.4,1.54c-.47.52-.73,1.16-.73,1.9l-.07,7.86v2.76s-.11,8.21-.11,8.21c-.06,4.68-.49,9.39-2.06,13.78-.87,2.43-2.65,5.33-4.66,6.92-2.22,1.76-5.44,2.96-8.29,2.96h-4.58s-6.07.03-6.07.03l-25.85.03h-6.5s-4.13.01-4.13.01l-13.13.05-7.66.04-9.04-.04-18.63-.03h-18.43s-2.93.07-2.93.07c-2.23.05-4.33.2-6.49-.27-1.13-.25-2.06-.86-2.71-1.8-1.58-2.26-2.16-6.98-2.17-9.76,0-2.44,0-4.81.16-7.24.09-1.34.16-2.6.16-3.95l-.04-8.83.05-12.56c0-.66-.21-1.25-.62-1.72-.74-.85-1.41-1.69-2.07-2.61l-2.48-3.42c-.59-.82-1.1-1.64-1.65-2.48l-1.3-2.01c-2.38-3.67-5.62-10.61-7.19-14.8l-.92-2.46c-.3-.8.88.49,2.99-.23l2.78-.95c1.14-.39,1.73-1.1,1.53-2.34-.46-2.84-4.84-1.27-6.55-.31-1.07.59-1.44,1.69-1.51,1.47-.45-1.3-1.38-4.96-1.7-5.53-.56-1.01-2.19-.29-3.04-.19-4.83.54-6.5.72-11.61.77-1.88.02-3.92-.18-4.61-2.11-.46-1.29-.03-2.66,1.11-3.42.91-.61,2.63-1,3.79-1.3l6.54-1.7,3.37-.96c1.53-.44,3.13-.15,2.85-1.6-.24-1.22-.29-2.4-.39-3.64-.39-5.19-.17-12.68.57-17.84l.62-4.29c.5-3.46,2.35-10.12,3.52-13.53.82-2.4,2.53-6.64,3.66-8.85l1.81-3.53c1.48-2.89,4.92-8.1,6.92-10.72,1.43-1.87,2.84-3.66,4.45-5.38l2.27-2.43c.74-.79,1.53-1.46,2.31-2.21l1.51-1.45,4.7-3.93c4.63-3.86,13.33-8.95,18.94-11.28l3.06-1.27c2.99-1.24,5.95-2.17,9.08-3.05,19.94-5.6,42.15-4.89,61.56,2.47,1.87.71,3.65,1.39,5.45,2.23l2.7,1.25c2.69,1.25,5.21,2.63,7.72,4.19l2.8,1.74c2.29,1.43,7.47,5.22,9.46,7l3.42,3.05,1.54,1.41,2.07,2.05c1.34,1.33,3.92,4.22,5.1,5.7l2.27,2.83,2,2.68,2.83,4.27c1.37,2.07,3.42,5.83,4.5,8.1.57,1.19,2.43-.44,3.03-.53ZM99.86,32.54c.02.07-.04.16-.01.23.14.35.46.6.91.67l1.52.24c3.58.57,2.36,5.91,2.75,7.52.03.11.25.04.34.04h.2s.18,1.13.18,1.13c-1.15.37-.39,2.35.03,3.14.6,1.13,1.81,3.8,2.11,4.96.27,1.04.76,1.68,1.14,3.16.17.66.47,1.23.66,1.88l1.05,3.49c.46,1.53,1.3,3.93,2.42,5.02.5.49.95.99,1.4,1.53.52.62,1.11,1.1,1.71,1.64,1.15,1.05,3.66,2.46,4.99,1.68.54-.32.61-.92.26-1.41-.64-.89-1.52-1.19-2.41-2.14-.29-.31-.59-.57-.91-.86-1.66-1.53-2.02-2.23-3.05-4.23-.69-1.35-1.6-5.6-2.4-7.59s-1.32-5.02-2.47-6.95c-.77-1.29-.77-1.85-1.54-3-.08-.12-.02-.27.15-.28l.97-.07c1.73-.12,1.78-.53,3.46-.83.24.82.06,1.41.8,2.13.93.91,1.27,1.05,2.5,1.48-.84,1.47-.79,2.34.47,3.6s.7,2.07,1.62,3.09c.14.15.17.47.47.55.55.15,1.19-.08,1.48-.6.41-.73-.32-2.11-.65-3.43-.26-1.07-1.03-1.83-.88-2.08.19-.3,1.71.03,2.22.14,3.07.66,4.48-.32,5.22,1.07s2.39,4.7,4.4,4.08c.28-.09.42-.31.54-.48.42-.55.16-1.11-.24-1.8-1.36-2.31-.37-4.07-3.32-6.33-.85-.65-1.72-.53-2.78-.36-2,.32-3.83-.02-5.79-.49-.49-.12-.93-.32-1.32-.63-1.59-1.27-2.97-.73-2.35-1.79.82-1.42.51-1.94,1.09-3.34.23.01.41.13.62.25,1.25.74,1.72.73,3.02,1.31.99.44,1.99.71,3.08.84,2.89.35,4.27.88,7.19.56.78-.08,1.53-.1,2.28-.29l2.18-.56c1.16-.3,1.55-1.53,1.53-2.52,0-.61-.72-2.49-1.01-2.92l-.95-1.39c-.32-.48-.65-.89-1.09-1.27-.72-.62-1.11-1.48-.45-2.27,1.27-1.51,2.61-1.49,4.24-2.65,1-.72,1.63-.53,2.9-1.23.94-.52,2-.52,3.34-.96,1.24-.41,2.44-.26,3.93-.41,1.78-.18,4.2.68,4.05-1.2-.05-.62-.42-1.07-1.04-1.19-2.75-.55-7.32.09-10.07.86-1.98.56-3.61,1.3-5.41,2.23-2.66,1.37-4.07,3.88-5.63,3.16-.46-.21-.98-.31-1.35-.6-.13-.1,0-.38.09-.44,1.39-.92.94-1.83,2.31-3.17,1.29-1.27,2.41-1.79,3.19-2.69.72-.82.95-2.25-.02-2.48-1.1-.27-2.48.56-3.24,1.38-1.24,1.33-2.23,2.11-3.11,3.54-.72,1.16-.58,1.14-.99,2.38s-2.39-.35-4.46,0c-2.64.45-4.73,1.12-6.85,2.77-.6.46-1.01,1.1-1.37,1.76-.22.41-.22.82-.41,1.3-.05.14-.41,0-.56-.08l-1.81-.82c-.59-.27-1.19-.45-1.86-.48-2.31-.11-3.52.02-5.6.85-1.79.72-1.95.92-3.47,2.07-.21.16-.23.38-.15.55ZM160.01,53.74c1.15,0,2.14-.19,2.32-1.25.15-.88,0-4.53,0-5.99v-3.73s.03-5.49.03-5.49c.01-2.87-1.77-2.97-1.91-5.47-.11-1.92-.33-3.76-.6-5.66-.19-1.32-.2-2.6-.03-3.89.05-.39-.23-.66-.61-.72-.68-.11-3.01-.3-3.38.25-.14.2-.12.48-.08.73.19,1.1.17,2.16-.02,3.28-.32,1.98-.52,3.91-.61,5.91-.12,2.76-1.96,2.44-1.94,5.75l.02,5.12-.03,9.04c0,.89.13,1.74,1.01,1.97.52.14,1.04.16,1.6.16l4.24-.02ZM56.67,49.01c.02.22.23.42.24.64.07,1.43,1.96,1.99,3.29,2.37l2.43.68c2.31.65,3.9.3,6.15.57,1.66.2,4.08-.93,3.85-.14s-1.33,1.93-1.97,2.83c-.25.35-.53.64-.85.92l-1.15,1.02c-.26.23-.52.42-.86.5-.87.23-.32-1.35-.97-1.85-1.57-1.22-3.19-.86-4.92-.31l-1.77.56c-1.33.42-1.59,1.96-1.42,3.12s1.33,1.68,2.25,1.54l.88-.13c.24-.03.38.34.2.49-1.42,1.22-4.23.89-4.19,2.89.06,2.61,7.02-.69,8.02-1.01.52-.17.97-.43,1.39-.78,1.23-1.01,2.15-1.32,3.55-2.53s2.62-2.25,3.78-3.67l2.74-3.35c.39-.48.68-1.01,1.11-1.45,1.36-1.38.94-2.33,2.62-2.62.09-.02.27.03.36.06.87.32,1.31-.25,2.22-.69.64-.31.16,1.92.07,2.24-.41,1.51-.34,2.37-.86,3.64l-.69,1.68c-.52,1.27-1.04,1.48-1.86,2.66-1.12,1.62-3.03,1.87-3.17,3.68-.04.43.18.8.62.92,1.15.3,2.21-.17,2.69-1.13,1.44-.22,2.99-2.02,3.76-3.3.41-.67,1.23-1.97,1.39-2.53.21-.77.52-1.45.73-2.21l.56-1.98c.62-2.19.25-1.64.56-3.77,2.02.61,4.2,1.07,6.24.15.99-.44,2.18-.87,2.38-1.95.27-1.54-1.87-1.17-3.55-1.61-1.31-.34-2.97-.47-3.75-.77-.25-.09-.54-.49-.33-.68.27-.25.59-.33.79-.64.21-.33.22-.68.38-1.01.07-.14.3.02.39.13.51.71.68,1.68,1.29,1.81.27.06.51-.02.71-.07.08-.02.22-.02.29-.07.33-.25.31-.87.26-1.4-.22-2.27.84-6-1.77-6.35-1.22-.17-.78,2.96-1.15,1.8-.32-1-.12-2.42-.84-3.16-1.25-1.27-2.5-2.01-4.28-2.36l-2.31-.45c-.59-.11-1.15-.18-1.76-.18l-2.57-.02c-1.69-.01-3.91.39-5.43,1.03-1.42.6-1.92.53-3.34,1.34l-1.63.92c-.64.36-1.23.75-1.9,1.07s-1.29.75-1.84,1.28c-1.25,1.19-1.87,1.56-3.02,2.87l-1.57,1.78c-.41.47-.69,1-.99,1.54l-1.34,2.4c-.55.98-.68,3.34-.14,2.98ZM95.36,43.94c.12-.01.24.03.36.03-.23.28.97.53,1.52.48,2.22-.22,4.1.17,5.46-.64.39-.23.62-.55.66-1l.18-1.99c.15-1.68.4-5.49-1.74-5.84-.98-.16-3.08.03-4.77-.11-1.16-.09-2.52.16-2.9,1.4-.14.44-.18.89-.16,1.36.07,1.53-.07,3.75.04,4.75.09.86.53,1.64,1.36,1.56ZM97.51,59.64v.2c-.1.07-.22.1-.3.23.49.54.98.81,1.65.54,1.01-.42,2.18-1.55,2.92-2.38.7-.78,1.44-2.56,1.55-3.76l.32-3.8c.05-.59.49-5.01-.18-4.88-4.29-.86-1.46,6.79-3.35,9.59-.74,1.1-.71,1.7-1.68,2.43-.62.47-1.24,1.01-.92,1.83ZM145.14,85.35c.04-.12-.02-.26,0-.38-.03.02.86-.93.79-.7l.22.04c.67.83,2.48.07,3.39-.51s1.71-1.03,2.64-1.47c.51-.24.88-.64.99-1.2l.19-.95c2.39.77,2.62-.59,3.39-.56.17,0,.18.22.16.29-.02.08-.08.17-.21.26-1.52.98-1.18,2.05-2.73,3.55-1.16,1.12-1.92,3.36-3.61,4.82-1,.86-1.4,1.93-2.96,2.98-.47.32-.9.62-1.32.99-.7.62-1.79.78-3.1,1.42-1.56.77-2.95.56-3.55,2.25.18.09.28.11.38.14l.27.44c.69,1.14,2.38.22,4.08-.07.53-.09.99-.26,1.44-.52,1.21-.73,1.85-.55,3.08-1.44l1.95-1.4c.99-.71,1.91-1.48,2.64-2.44l.85-1.12.84-.91,1.42-1.9c.32-.43.62-.82,1.03-1.17.74-.63.53-1.09,1.19-1.9.46-.57.83-1.14,1.25-1.74l1.84-2.65c.74-1.07,1.9-.99,3.03-.56,2.23.84,3.04-.36,2.87.65l-.25,1.44c-.27,1.57-.78,1.79-.98,3.13-.11.77-.37,1.44-.53,2.19l-.44,1.94c-.17.73-.43,1.4-.61,2.13-.29,1.17-1.27,2.53-2.07,3.44l-1.18,1.36c-.47.53-.96.98-1.4,1.54s-1.36.9-1.2,1.77c.17.91,1.2.96,2.07.69l1.82-.56c1.12-.34.97-1.25,2.33-2.57.54-.53.93-1.14,1.39-1.74,1.67-2.13,1.31-2.86,2.15-4.92.45-1.09.47-2.25.87-3.65l.83-2.97c.06-.23.13-.41.17-.69.02-.12-.22-.13-.28-.11l.03-.39c.23.02.49-.09.54-.41l.25-1.56c.04-.05.04-.13.07-.19.21-.09.43-.25.44-.57,0-.13.02-.23-.1-.21.06-.13.13-.26.17-.4.61-.58,1.06-1.94.41-2.57-.2-.19-.37-.48-.6-.63-.95-.59-.72-1.36-1.03-1.28l.02-.22c.04-.12.14-.25.14-.4l-.97-.3c-.77-.24-1.35-.71-1.83-1.34-1.26-1.67-.19-2.62-1.25-3.46,0-.19-.04-.4-.05-.59-.05-.58-.12-1.15-.13-1.73,0-.28.04-.57.02-.85-.11-.22-.33-.45-.33-.77,0-.24.2-.39.3-.53l.04-.45c.02-.18.05-.42-.15-.58-.24-.19-.53-.28-.85-.31l-1.82-.21c-.66-.08-1.25-.24-1.82-.55-1.24-.67-2.09-.26-3.93-.98-1.02-.4-5.67-.8-7.58-1.23-.84-.19-3.37-.53-3.41-.59s-.02-.16.05-.32c.38-.08.74-.1,1.15-.05l4.43.46c.99.1,1.91.25,2.86.5,1.78.46,2.4.29,4.35.91.76.24,2.81.91,3.39.96,1.16.09,1.7.33,2.7.4l.39.03.22.43c.17.06.32.02.53-.06.05-.22.06-.39.06-.54v-.2c.09-.11.21-.2.26-.34-1.63-.64-1.72-1.34-3.42-1.19-.17-.09-.4-.14-.58-.19.02-.13.1-.29.05-.44-1.05-.07-1.67-.36-2.46-.35-.05,0-.1,0-.14,0,.11-.11.11-.26-.09-.3-1.05-.27-2.01-.58-3-.96-1.39-.54-4.84-1.08-5.95-1.49-1.91-.72-2.85-.43-4.6-.71l-2.74-.43c-.68-.11-1.31-.2-2-.2-1.73-.01-2.16-.58-4.25-.76l-3.58-.32c-1.53-.14-4.69-.26-6.12-.1-1.61.18-2.93.11-4.21.33-1.16.2-2.43.2-3.36.55l-1.7.64c-1.21.45-1.82,1.71-1.39,2.94.33.93.92,1.68,1.71,2.26l1.46,1.07c.55.4,1.06.78,1.66,1.11,1.33.75,1.09.91,2.79,1.71,1.23.58,2.41,1.13,3.68,1.63,1.09.43,1.49,1,2.47,1.23.72.17,1.36.42,2.04.7.57.23,3.3.92,3.94.99.29.03,4.23.54,3.52.95-.47.27-1.26,0-3.1,1.27-1.07.73-.43,2.06-.5,3.19-.01.2-.33.2-.41.02l-.6-1.28c-.07-.15-.15-.16-.29-.07l-1.59.99c-.92.57-1.1,1.34-1.94,2.38-.65.8-.71,1.51-1.34,2.59-.76,1.3-1.16,4.41-.12,5.72s1.95,2.03,3.55,2.33c1.78.34,5.14.68,6.81.23,1.95-.53,3.29-.38,3.69-1.55ZM170.29,59.45l-.35.2c-.12-.08-.21-.19-.39-.25-.06.24-.03.36-.03.49-.04.06-.1.12-.11.22.14.04.22.09.3.09,0,.09.02.2.12.26l.28-.25h.59c1.06,1.35,5.09-.93,7.05,1.2.95,1.04.99,1.16,1.79,2.16l.15.35c-.08-.05-.22-.08-.31.04-.03.4-.02.69.05,1.05l.35,1.34v.18c-.13-.01-.26-.07-.41-.03-.05.3-.07.48-.06.75l.05,1.43c.04,1.18-.28,2.93-1.41,3.51l-.79.41c-.4.21-.69.47-.94.75l-.21.24c-.88.82-2.62.31-2.82,1.64-.1.71-.04,1.35.06,2.11.15.06.3-.02.42-.03.03.13.15.24.19.37.11.29.24.59.42.93.52,1,.56,1.79,1.26,2.05l.06.17s.02.12.02.22c0,.21.05.28.21.18.02.06,0,.13.02.2,0,.05.01.11,0,.2,0,.19.03.26.17.19l.02.2c.08.88.28,2.77.96,3.35.01.06,0,.13,0,.2-.02.66.04,1.33.25,2.04.62,2.07.59,3.85,1.5,5.17.8,1.17.84,2.03,1.65,2.88l1.44,1.51c1.03,1.07,3.84,3.19,5.31,2.2.09-.06-.16-.26-.19-.29v-.59c.06-.07.13-.13.23-.3-.15-.05-.31-.06-.46-.08-.08-.05-.11-.18-.19-.22-.45-1.51-2.46-2.21-3.4-4.01-1.06-2.04-.71-.97-1.68-3.42-.91-2.29-.43-2.8-1.13-4.77-.76-2.16-.24-1.92-1.24-4.23l-1.13-2.63c-.58-1.34-1.68-2.79-.84-2.69s1.78-.04,2.65-.09c.29-.01-.26,1.93,1.47,3.07.91.6,3.28.71,4.37,2.3.27.4.52.79.73,1.22.37.75.82,1.38,1.25,2.09l.96,1.58c.41.67.82,1.27,1.15,1.99.49,1.05,1.09,2,1.75,2.93,1.26,1.78,2.81,2.47,4.5,3.56.43.27.86.48,1.36.59s4.62,1.17,3.97.13l.39-.35c.11-.05.22-.11.37-.22.05-.3-.11-.57-.42-.68-.15-.05-.28-.05-.54-.06-.07,0-.14,0-.2-.02-.81-1.28-3.38-1.49-5.03-3.21l-1.06-1.1c-1.44-1.5-2.06-3.87-3.05-5.18-.32-.43-.52-.9-.81-1.34-1.55-2.32-1.23-3.1-3.79-5.61-1.36-1.33-2.67-.68-4.96-1.81-.58-.29.6-1.21,1-1.43,1.28-.71,1.43-1.72,1.73-1.56.73.39.88,1.35,1.87,1.98l1.19.77c2.01,1.29,4.44,1.15,6.71.68.85-.17,2.02-.74,3.02-1.11.93-.34,1.04-1.04,1.92-1.98.57-.61.99-1.71,1.51-2.63.59-1.06.61-2.32.53-3.55-.11-1.77-1.53-2.03-.53-3.55.17-.03.38.05.55,0-.42.28,1.76.29,1.95.29,1.46-.04,3.75.62,3.38-.66-.07-.24-.31-.31-.43-.41l-.43-.39c-.17-1.13-3.31-1.24-4.31-1-.5.12-.72.49-.93.85l-.21.36c-.43-.02-.91-.03-1.32-.44l-1.1-1.1c-.16-.19-.31-.35-.36-.57.19-.15.33-.23.52-.32l1.62-.76c.38-.18.65-.43.84-.72l.16-.02c.16,0,.34.04.56-.01.07-.26.12-.41.1-.61-.14-.08-.23-.12-.28-.17l-.36-.37c-.09-.15-.2-.3-.42-.42-.81-.25-2.85.32-3.73.6-1.2.38-1.11,1.28-2.47,1.46-2.39.32-3.31-1.17-5.17.73l-.35.18-.36-.34c-.04.1-.05.23-.08.53l-.78.37c0-.17-.11-.18-.26-.08l-1,.62c-.11.04-.49-.99-.47-.67l-.02-.7c-.09-.44-.38-.83-.88-1.01-1.05-.37-2.04-.88-2.88-1.06l-2.07-.46c-1.32-.29-2.7-.3-4.03,0l-2.91.66c-.98.22-2.48.76-2.94,1.55ZM51.2,67.12c.55.93,3.32-.52,3.95-.98l1.6-1.16c1-.72.9-2.35.35-3.18s-2.11-1.17-3.17-.63c-1.59.81-2.47,1.04-3.75,2.53-.54.63-.75,1.44-.54,2.23.17.67.67,1.08,1.57,1.19ZM177.33,63.37v-.18s-.18-.2-.18-.2l-.18-.19c-.25-.66-.68-.83-1.54-.83l-3.77.02c-.61,0-1.19.05-1.75.21-1.45.41-1.58,1.75-1.57,3.12v3.35c0,1.16.37,2.63,1.74,2.78s4.65.25,5.88.1c1.49-.18,1.98-1.56,1.99-2.9l.02-2.74c0-1.05.22-2.16-.64-2.54ZM40.81,68.68c-.08.05-.16.16-.25.19-.2.06-.42.11-.61.33-.22.75-.11,1.53.28,2.23,1.55,1.7,4.07.66,5.7-.39.44-.28.86-.56,1.23-.92.93-.92.91-2.33-.02-3.24s-2.43-.85-3.18-.48l-1.77.89c-.65.32-1.08.82-1.38,1.39ZM6.28,107.11l-1.01.21c-.88.18.79.2,1.04.19l4.21-.1c1.96-.05,3.84-.27,5.79-.48,5.75-.62,11.91-2.06,17.31-4.09,4.13-1.55,5.78-2.42,9.57-4.53l2.04-1.13c.68-.38,1.29-.77,2-1.11,1.88-.9,1.65-1.35,2.03-.58,1.22,2.44,3.37,4.06,5.78,5.24,1.05.51,2.06,1.08,3.2,1.33l1.68.37c.27.06-.39,1.42-.5,1.91-.21.92.28,1.76,1.19,2.01.56.15,1.11.21,1.7.27l5.33.54,3.91.22c.78.04,3.38.24,3.73.06.4-.21.33-.87.58-.91.23-.03.5.52.87.59.4.08,1.1-1.45.04-2.64-1.47-1.65-3.78-1.56-5.9-1.59l-2.61-.04c-.2,0-.45-.13-.3-.31.82-1.01,2.2-.87,4.18-2.19,2.1-1.4,3.89-3.12,5.41-5.14.05-.06,1.4-1.95,1.3-1.25-.34,2.51-4.38,5.43-3.7,5.66,3.64,1.23,7.17.5,8.5.76.59.12,1.12.38,1.6.73,3.35,2.37,5.7,4.67,9.3,6.59,1.8.96,4.74,1.24,6.49.36,1.08-.55.8-1.91.15-2.68-.56-.66-1.31-1.06-2.18-1.15l-1.57-.17c-1.69-.19-2.6-1.83-3.25-3.34-.1-.24,0-.36.24-.39,3.88-.61,7.05-1.61,10.61-3.15l3.31-1.44c.96-.42-2.28-.83-3.83-1.74-.1-.06-.07-.23.06-.23.15,0,2.9.45,3.98.52,5.65.38,11.83-.03,16.96-2.56.98-.48,1.84-1.12,2.63-1.86,1.2-1.13.66-2.56-.31-3.65-.51-.57-.96-1.11-1.4-1.74-.65-.94-1.53.2-2.87-.43-1.79-.85-1.77-2.32-2.5-2.89-.29-.22-.66-.15-.85.15-.7,1.07.27,3.97-2.24,5.66-1.56,1.05-4.19,1.67-5.74.54-2.55-1.85-.99-4.26-3.57-3.66-.97.22-1.89.38-2.86.54l-3.33.58c-2.38.41-1.96.69-2.57,2.19-.17.43-.54.59-.89.55-.39-.05-.7-.34-.71-.82-.04-1.63,1.06-2.81,2.69-3.17l7.56-1.67c.78-.17,1.47-.41,2.15-.81,1.34-.8,3.58-1.49,5.15-1.71,1.76-.25,3.4.22,4.77-.56.11-.06.03-.25-.07-.31-3.32-2.15-8.05-3.79-11.93-4.57-.16-.03-.27-.06-.42-.02l.02.92c0,.15-.26.2-.35.08l-2.12-2.62c-1.79-2.2-4.49-4.12-7.24-4.9-2.26-.64-4.92-.13-5.57,2.42-.55,2.15.5,4.74,1.7,6.53,1.33,1.98,3.45,3.46,5.65,4.35l1.16.47c.55.22-.28.72-1.75.16-2.53-.96-4.55-2.51-6.01-4.78-.63-.97-.72-1.96-1.83-2.28l-3.52-1.03c-2.1-.62-6.79-1.73-8.88-1.79-.39-.01.02,1.59.04,2.41l.08,3.52c.03,1.33-.19,2.76-.96,3.82-.98,1.35-2.39,1.49-4.01,1.48l-3.94-.03c-1.85-.01-3.38-.55-4.05-2.42-.89-2.48.04-7.51-.62-7.45-1.28.13-4.22,1.45-5.47,2.06-1.61.79-4.37,2.43-5.69,3.56-2.14,1.84-3.98,3.69-5.48,6.1l-1.88,3.02c-1.42,2.29-2.77,3.89-4.9,5.52-3.44,2.64-7.26,4.51-11.25,6.21-1.93.82-3.77,1.59-5.75,2.29-2.7.94-5.29,1.79-8.07,2.52l-11.2,2.91ZM111.05,73.66c.53.08-.07-3.34-3.5-5.58-2.4-1.56-5.15.06-4.62.45l1.02.76c1.06.79,1.87,1.78,2.69,2.81.91,1.13,2.86,1.33,4.41,1.56ZM33.93,76.12c1.07.04,1.8-.31,2.82-.91,1.2-.71,1.28-2.78.18-3.87-1.32-1.3-3.18-.22-4.61.41l-1.48.65c-1.22.54-1.22,2.11-.9,3.2.41,1.35,2.82,1.54,3.98.52ZM74.47,80.59c.52,0,.93-.02,1.32-.12,1.37-.34,1.48-1.58,1.48-2.76v-3.36c-.02-1.13-.25-2.3-1.51-2.57-.4-.09-.78-.09-1.2-.09h-3.32c-.59,0-1.15.04-1.7.21-1.12.35-1.16,1.54-1.15,2.63v3.38c0,1.11.14,2.34,1.38,2.57.41.08.8.09,1.24.09h3.47ZM26.28,79.44c1.24-.6,1.38-2.04,1.11-3.23s-1.88-1.55-2.97-1.21l-3.61,1.13c-1.28.4-1.36,2.17-1.06,3.21.14.5.51.83,1,.98,1.8.58,3.88-.09,5.55-.89ZM112.19,105.88l2.58-.09c.48-.02.92-.08,1.36-.25.69-.27,1.04-.93.91-1.66-.17-.93-.79-1.64-1.61-2.1-1.37-.77-2.53-.59-3.86-2.04-1.46-1.6-2.22-2.3-4.79-1.38-2.81,1.01-4.8.93-6.72,1.75-.1.04-.14.16-.05.19.79.3,1.54.56,2.36.8,2.41.71,5.18.33,6.72,2.89.79,1.32,1.4,1.96,3.1,1.9ZM141.29,103.61c.33-.08.77-.15.88-.69.25-1.26-.02-3.07-1.59-3.36-.64-.12-1.28,0-1.83.35l-1.81,1.13c-1.8,1.12-2.76,1.19-4.33,2.72-.95,1.27.14,2.96,1.21,3.55.76.42,1.69.3,2.37-.14l.86-.56c1.02-.66,2.08-1.17,3.16-1.72.52-.27.88-.66,1.08-1.29ZM180.29,104.42l-14.11-.02c-.55,0-1.68-.07-1.42.3.18.27.35.5.56.75l4.48,5.33,2.89,3.39,1.55,1.79c.43.5.69,1.06.69,1.73v1.79s0,5.89,0,5.89c0,1.14.34,2.49-.71,2.72l-1.46.32-2.46.67c-.35.1-.66.19-.98.37-.99.58,1.63.51,1.64.51h9.03s3.24.11,2.14-.5c-.79-.44-3.83-1.14-4.89-1.37s-.73-1.64-.73-2.73v-5.7s-.03-2.06-.03-2.06c0-.55.18-1.03.54-1.43l1.65-1.9,2.33-2.77,2.69-3.19,2.5-2.98c.16-.19.32-.37.43-.62s-.13-.32-.36-.32h-4.73c.12-.84,2.26-3.18,1.72-3.59-.31-.23-.8.37-1.01.73l-1.04,1.72c-.27.45-.57.82-.87,1.17ZM50.73,108.41c.54-.34.84-.94.64-1.57-.5-1.66-5.24-1.45-7-.66-1.06.47-1.55,1.6-1.19,2.7.42,1.3,1.83,1.37,3,1.08s3.66-.99,4.55-1.54ZM130.46,106.95c-.13-.23-.25-.5-.53-.7-.39-.28-.89-.23-1.31,0l-2.45,1.31c-1.09.58-4.19,2.42-3.02,3.93.35.46.78.84,1.31,1.08,1.13.52,2.4-.29,3.5-.89l1.79-.96c.54-.29,1.01-.67,1.35-1.19.5-.77.48-2.23-.64-2.57ZM36.09,114.1l2.35-.93c.47-.19.9-.37,1.32-.64,1-.63.9-1.9.38-2.76-.64-1.06-2.21-1.03-3.22-.63l-2.67,1.07c-1.43.57-1.73,2.03-1.13,3.22.52,1.03,1.88,1.11,2.96.68ZM117.67,116.56l2.51-1.31c.87-.45,1.98-1.08,1.43-2.2-.62-1.27-2.08-1.39-3.33-.82-1.16.53-2.25,1.09-3.32,1.78-.31.2-.6.51-.67.88-.19,1,.52,1.88,1.52,2.01.63.08,1.24,0,1.86-.33ZM112.04,119.1c.3-.17.79-.36.69-.91-.24-1.33-1.04-2.42-2.45-2.44-.38,0-.72.15-1.05.33-1.22.66-2.75,1.31-3.69,2.01-.55.41-.82,1.04-.72,1.73.11.82.69,1.46,1.5,1.7.75.22,1.54.12,2.24-.23,1.71-.86,3.11-.9,3.49-2.19ZM55.93,121.65c-.19-.4-.48-.79-.95-1.02-1.92-.91-4.42-1.64-6.27-.3-.53.38-.7.94-.56,1.58.15.67.53,1.18,1.18,1.42,1.29.48,4.79,1.95,5.86,1.12.67-.52,1.76-2,.75-2.81ZM101.73,124.1c.46-.18.87-.41,1.22-.75.87-.82.72-2,.08-2.89-.84-1.18-2.41-.68-3.63-.24-1.04.38-3.18,1.06-3.61,1.89-.53,1.01-.04,2.18,1.02,2.6,1.67.66,3.27.03,4.93-.61ZM93.4,124.36c0-.05,0-.12,0-.17-.11-.43-.17-.76-.82-.93-1.66-.44-3.66-.19-5.2.44-1.07.43-1.19,1.71-.84,2.62.18.45.53.72,1.01.8,1.08.19,4.63-.11,5.68-.94.52-.41.73-1.08.43-1.69-.07-.16-.14-.25-.26-.14ZM64.78,125.58c-.02-.53-.26-1.02-.74-1.25-1.51-.75-4.32-1.22-5.49-.23-.57.48-.84,1.22-.75,1.96.18,1.42,2.98,1.59,4.21,1.63,1.42.06,2.83-.52,2.76-2.11ZM82.99,127.12c.56-.31.81-.86.74-1.48s-.53-1.08-1.18-1.19c-1.5-.25-4-.11-5.17.83-.58.47-.68,1.23-.26,1.85.89,1.29,4.61.69,5.88,0ZM171.35,160.61c-.06-.36-.11-.66-.27-1.01-2.31,1.02-4.9,2.35-7.46,1.3-1.61-.66-2.02-2.06-2.02-3.73v-8.83c0-1.3,0-2.51-.07-3.8-.02-.28.2-.38.44-.37l2.04.07h4.9s1.64.07,1.64.07c.24,0,.5.03.67-.14.15-.16.16-.43.16-.67l-.06-3.6c-.02-1.23-.04-2.39.03-3.61.01-.26-.13-.45-.39-.44l-2.05.09h-4.9s-2.23.07-2.23.07c-.19,0-.28-.16-.26-.35.09-1.29.08-2.51.08-3.81l.02-7.13c0-.28-.05-.39-.33-.34l-2.39.42-4.82.86-1.71.24c-.45.06-.69.37-.73.82l-.16,1.8-.67,5.61c-.15,1.24.06,2.27-1.04,2.52l-3.51.81c-.78.18-1.44.47-1.56,1.3-.11.75,0,3.69-.1,5.26-.02.23.09.26.31.25.96-.06,1.86-.02,2.81-.05l2.43-.08c.25,0,.3.1.27.34-.1,1.04-.08,2.02-.07,3.05.03,2.78-.01,5.46-.14,8.24-.16,3.5-.1,8.83,2.7,11.26,2.58,2.25,6.98,2.7,10.3,2.47,2.49-.18,4.79-.83,7.07-1.77l1.55-.64c.45-.18.64-.56.58-1.05-.08-.61-.85-4.1-1.09-5.46ZM73.55,125.37c-.16-.38-.47-.69-.98-.74-1.12-.09-3.17-.13-4.17.27-.7.27-1.11.89-1.11,1.65,0,1.2.67,1.78,1.83,1.91s3.26.13,4.29-.32c.64-.29.97-.89.95-1.59-.02-.47-.22-.85-.8-1.18ZM75.44,168.78l3.88.05c.3,0,.61,0,.82-.2.33-.3.17-1.81.17-2.45v-5.88s-.08-3.14-.08-3.14c-.03-1.53-.04-2.99.03-4.52l.15-3.13c.08-1.73.33-3.11,1.65-4.28,1.65-1.46,4.18-2.14,6.28-1.46s2.67,2.68,2.67,4.78v17.82c0,1.05-.32,2.44.59,2.43l3.38-.07c2.2-.04,4.32-.06,6.51.04.39.02.62-.2.62-.58l-.02-1.62v-15.48s-.1-4.72-.1-4.72c-.07-3.76-.95-7.46-4.25-9.61-2.82-1.83-6.98-2.04-10.19-1.36-3.05.65-6.36,2.67-8.06,5.32-.1.15-.36.2-.43,0-1.26-3.29-4.06-5.02-7.44-5.52-3.69-.54-7.41.04-10.44,2.26-1.11.82-2.03,1.74-3.02,2.71-.15.14-.39.15-.45-.06-.96-3.63-.3-4.24-2.31-4.22l-3.97.03c-3.32.03-3.99-.56-3.97.74l.06,3.41v3.73s-.01,7.26-.01,7.26v12.74s-.02,3.97-.02,3.97c0,.28.02.58.2.79.17.19.48.24.75.24l5.33-.04c.99,0,4.34.16,4.65-.1.18-.15.19-.42.18-.65l-.05-1.84v-7.84c0-2.49-.16-7.94.18-10.14.61-3.96,5.58-5.59,8.4-4.21,1.84.9,2.04,2.81,2.03,4.72l-.04,5.12v12.16c0,.67-.06,1.28.01,1.92.1.94.96.91,1.89.9l4.44-.03ZM129.5,165.39c.19-.16.32-.32.57-.43.19.21.26.42.38.67,1.78,4.26,7.94,4.23,11.67,3.18.79-.22.85-.89.86-1.63.02-1.01.24-3.48.2-3.95-.04-.37-.24-.64-.58-.77l-1-.38c-.45-.17-.76-.51-.91-.98-.35-1.06-.33-3.64-.33-4.92v-9.22c.01-2.58-.36-5.12-1.97-7.14-1.49-1.88-3.26-2.94-5.5-3.72-6.87-2.37-16.15-.9-22.73,1.92-1.08.47-.52,1.8-.31,2.68l.97,4.16c.09.37.17.68.32,1.07.21,0,.39-.11.61-.21,3.34-1.92,16.11-5.07,17.53-.1.32,1.11.41,2.23.28,3.38-.09.82-.87.84-1.61.82-4.11-.11-7.58.03-11.56.94-2.64.6-4.91,1.44-6.79,3.4-.99,1.04-1.66,2.28-1.98,3.69-.89,3.95.49,7.97,4.08,10.02,1.13.65,2.31,1.07,3.58,1.35,5.21,1.15,10.4-.06,14.22-3.82ZM76.19,183.74l-.05-3.07c0-.15-.01-.4.12-.39l1.92.13c.13,0,.11-.29.11-.44v-2.4s-1.22.08-1.22.08c-.22.01-.59.06-.73-.13-.22-.32-.05-.82.19-1.09.32-.37,1.32-.17,1.8-.19-.29-1.29.46-3.39-.72-3.49-1.38-.12-3.21-.07-4.32.81-.68.54-1.08,1.32-1.1,2.2l-.04,1.53c0,.18-.11.32-.29.33l-.87.03c.11.76.07,1.35.04,2.05-.04.94,1.25.27,1.17,1.5l-.1,1.68-.06,2.74c0,.19.15.2.32.19.69-.05,3.88-.01,3.88-.09l-.06-1.96ZM123.36,185.61c-.29-2.43.18-6.38-.41-8.22-.72-2.25-3.07-2.82-4.96-1.9-.73.35-1.16,1.13-1.35,1.07-.48-.15.17-3.77-.22-3.74-1.33.1-2.52.11-3.86,0-.14.06-.11.23-.1.41.04.81.06,1.56.06,2.37v7.05c0,1.08-.01,2.06-.07,3.14,1.4-.08,2.7-.09,4.11.02-.05-1.97-.21-4.1.04-6,.12-.55.47-.95.93-1.07s1.02-.07,1.36.39c.26.34.35.79.35,1.23l-.04,5.34c.08.14.27.08.46.08,1.03-.08,1.98-.07,3.03-.02.25-.02.58.11.68-.15ZM87.02,182.35l-.92-.05c-.78-.04-.81-.88-.82-1.57l-.04-2.46c0-.21.03-.34.25-.31l1.41.16c.66.07.52-1.56.5-2.39-.02-.97-2.16,0-2.16-.44l.03-1.98c-1.29.1-2.18.35-3.59.57-.21.03-.36.19-.36.4l.03,1.03c0,.15-1.12-.04-1.29.12.11.93.09,1.66.06,2.55,0,.19.91-.09,1.14.12.33.31-.32,4.1.25,5.88.71,2.18,3.36,2.14,5.41,1.99.27-.02.46-.26.47-.52.04-1.11.33-3.06-.36-3.1ZM68.77,183.25v-5.3s.07-2.41.07-2.41c0-.23-.08-.28-.3-.27-4.86.37-3.62-.83-3.78,1.3-.06.72-.41-.91-1.81-1.32-2.56-.74-5.05.92-5.63,3.48s-.02,5.74,2.65,6.88c1,.43,2.12.43,3.15.1,1.17-.37,1.65-1.82,1.66-1.12l.03,1.19c1.29-.08,2.53-.09,3.89,0,.23.01.08-1.98.08-2.54ZM93.82,182.47c-.45-.33-.67-.8-.63-1.34.36-.11.63-.12.97-.11l3.55.04,2.52.03c-.02-2.38-.7-4.63-2.99-5.57-2.49-1.02-5.91-.33-7.26,2.32-1.22,2.4-.7,5.86,1.85,7.36,1.48.87,3.59,1,5.17.46s3.03-2.06,3.01-3.69l-2.51-.04c-1.71-.03-1.8,1.36-3.67.55ZM102.64,185.79c.82-.16,4.21.09,4.21-.08l-.07-3.2c-.03-1.18.37-2.77,1.77-2.79l1.48-.03c-.17-.91.09-4.2-.16-4.53-.11-.15-1.77-.15-2.67,1.31-.13.21-.78,1.83-.74.72l.07-1.65c.01-.24-.09-.28-.32-.26-1.12.08-2.17.07-3.29,0-.23-.02-.3.04-.3.27l.07,2.61v4.9s-.07,2.74-.07,2.74ZM136.87,180.54c0-3.06-2.48-5.53-5.53-5.53s-5.53,2.48-5.53,5.53,2.48,5.53,5.53,5.53,5.53-2.48,5.53-5.53ZM153.15,182.26c0,1.14-.01,2.21-.07,3.34-.01.2.14.21.32.19,1.22-.08,2.37-.07,3.6,0,.62.04-.19-3.22.38-4.89.47-1.4,1.84-1.24,3.04-1.13-.16-.7.11-4.41-.1-4.62-.15-.15-1.96-.12-2.78,1.37-.06.11-.69,1.85-.64.66l.06-1.45c0-.14.04-.46-.09-.45-1.16.05-2.18.04-3.3.02-.31,0-.51.16-.49.47l.08,1.85v4.63ZM150.11,177.86l.07-1.75c.06-1.39-1.07-.59-3.88-.84-.23-.02-.3.05-.29.27.06,1.27.2,5.05-.12,6-.16.5-.59.77-1.1.77-.57,0-1.02-.3-1.18-.84-.44-1.46.15-5.68-.22-6.07-.2-.22-3.68-.2-3.87,0-.23.25-.06,3.2-.07,4.1-.02,1.29-.04,3.1.33,4.24.63,1.93,2.64,2.54,4.46,2.04,1.43-.39,1.85-2.03,1.89-1.38.06.9-.25,1.41.39,1.37,1.16-.07,2.24-.1,3.4-.01.22.02.25-.1.24-.31-.06-1.03-.06-1.99-.06-3.01v-4.6ZM172.18,181.18c-.36-1.56-1.82-2.31-3.34-2.33h-1.49c-.39-.02-.71-.08-1.1-.19-.2-.19-.21-.44-.05-.67,1.13-.45,4.03,0,4.95-.13.66-.1.67-2.51.01-2.58-.11-.01-5.41.08-5.75.12-1.09.15-2.09.72-2.63,1.69-.62,1.11-.68,3.27.74,4.3s3.12.48,4.73.96c.17.19.17.43.01.64-1.55.39-3.89.11-5.62.07v2.74c2.28-.19,3.76-.06,6-.12.58-.04,1.11-.1,1.64-.3,1.79-.65,2.29-2.5,1.9-4.2Z"/><path class="i" d="M75.44,168.78l-4.44.03c-.93,0-1.79.03-1.89-.9-.07-.64-.02-1.25-.02-1.92v-12.16s.05-5.12.05-5.12c.02-1.91-.19-3.83-2.03-4.72-2.82-1.38-7.79.25-8.4,4.21-.34,2.2-.19,7.65-.19,10.14v7.84s.06,1.84.06,1.84c0,.23,0,.5-.18.65-.31.26-3.66.09-4.65.1l-5.33.04c-.27,0-.58-.05-.75-.24-.18-.2-.2-.51-.2-.79l.03-3.97v-12.74s0-7.26,0-7.26v-3.73s-.05-3.41-.05-3.41c-.02-1.3.65-.72,3.97-.74l3.97-.03c2.01-.02,1.34.59,2.31,4.22.05.21.3.2.45.06.99-.97,1.91-1.9,3.02-2.71,3.03-2.22,6.75-2.81,10.44-2.26,3.39.5,6.18,2.22,7.44,5.52.08.2.33.15.43,0,1.7-2.66,5.01-4.68,8.06-5.32,3.22-.68,7.37-.47,10.19,1.36,3.31,2.15,4.18,5.85,4.25,9.61l.09,4.72v15.48s.03,1.62.03,1.62c0,.38-.23.59-.62.58-2.19-.1-4.31-.08-6.51-.04l-3.38.07c-.91.02-.59-1.38-.59-2.43v-17.82c0-2.1-.52-4.09-2.67-4.78s-4.63,0-6.28,1.46c-1.31,1.17-1.56,2.55-1.65,4.28l-.15,3.13c-.07,1.53-.06,2.99-.03,4.52l.07,3.14v5.88c.01.64.18,2.15-.16,2.45-.21.19-.52.2-.82.2l-3.88-.05Z"/><path class="i" d="M129.5,165.39c-3.83,3.76-9.01,4.97-14.22,3.82-1.28-.28-2.45-.7-3.58-1.35-3.58-2.05-4.97-6.08-4.08-10.02.32-1.42.99-2.65,1.98-3.69,1.88-1.96,4.15-2.8,6.79-3.4,3.98-.91,7.46-1.04,11.56-.94.74.02,1.52,0,1.61-.82.13-1.15.04-2.27-.28-3.38-1.42-4.97-14.2-1.82-17.53.1-.22.1-.4.22-.61.21-.15-.39-.24-.69-.32-1.07l-.97-4.16c-.2-.87-.77-2.21.31-2.68,6.58-2.83,15.86-4.29,22.73-1.92,2.25.77,4.02,1.84,5.5,3.72,1.6,2.02,1.98,4.56,1.97,7.14v9.22c-.01,1.28-.03,3.86.32,4.92.15.47.46.8.91.98l1,.38c.34.13.54.4.58.77.05.47-.17,2.93-.2,3.95-.02.74-.07,1.41-.86,1.63-3.74,1.05-9.89,1.08-11.67-3.18-.12-.25-.19-.45-.38-.67-.25.11-.38.27-.57.43ZM126.49,161.62c1.25-.62,2.22-1.58,2.88-2.82s.46-2.31.43-3.7c-.03-.25-.2-.34-.45-.35l-3.3.16c-2.3.11-6.56.47-7.18,3.22-.32,1.42.07,3.09,1.47,3.85,1.71.93,4.4.52,6.15-.36Z"/><path class="i" d="M171.35,160.61c.24,1.36,1,4.85,1.09,5.46.07.49-.13.86-.58,1.05l-1.55.64c-2.28.94-4.58,1.59-7.07,1.77-3.32.23-7.72-.22-10.3-2.47-2.8-2.44-2.86-7.76-2.7-11.26.12-2.78.17-5.46.14-8.24-.01-1.04-.03-2.01.07-3.05.02-.24-.02-.35-.27-.34l-2.43.08c-.95.03-1.85,0-2.81.05-.22.01-.33-.02-.31-.25.11-1.57,0-4.51.1-5.26.12-.83.78-1.12,1.56-1.3l3.51-.81c1.09-.25.89-1.29,1.04-2.52l.67-5.61.16-1.8c.04-.45.28-.76.73-.82l1.71-.24,4.82-.86,2.39-.42c.29-.05.33.05.33.34l-.02,7.13c0,1.3,0,2.52-.08,3.81-.01.18.07.35.26.35l2.23-.06h4.9s2.05-.09,2.05-.09c.26-.01.4.17.39.44-.07,1.23-.05,2.39-.03,3.61l.06,3.6c0,.24,0,.51-.16.67-.17.17-.43.15-.67.14l-1.64-.07h-4.9s-2.04-.07-2.04-.07c-.24,0-.46.1-.44.37.07,1.29.07,2.5.07,3.8v8.83c0,1.67.41,3.07,2.02,3.73,2.56,1.05,5.14-.28,7.46-1.3.16.35.2.65.27,1.01Z"/><path class="h" d="M74.47,80.59h-3.47c-.43-.02-.83-.03-1.24-.11-1.23-.23-1.37-1.46-1.37-2.57v-3.38c0-1.09.03-2.29,1.15-2.63.55-.17,1.1-.2,1.7-.21h3.32c.42,0,.8,0,1.2.09,1.26.27,1.49,1.43,1.49,2.57v3.36c.02,1.18-.09,2.42-1.46,2.76-.39.1-.8.12-1.32.12Z"/><path class="l" d="M112.19,105.88c-1.7.06-2.3-.58-3.1-1.9-1.54-2.56-4.3-2.19-6.72-2.89-.82-.24-1.57-.5-2.36-.8-.09-.03-.04-.15.05-.19,1.92-.81,3.91-.74,6.72-1.75,2.57-.92,3.34-.22,4.79,1.38,1.32,1.46,2.49,1.28,3.86,2.04.81.46,1.44,1.18,1.61,2.1.13.73-.22,1.39-.91,1.66-.44.17-.88.24-1.36.25l-2.58.09Z"/><path class="h" d="M36.09,114.1c-1.08.43-2.44.35-2.96-.68-.6-1.18-.3-2.65,1.13-3.22l2.67-1.07c1.01-.4,2.58-.44,3.22.63.52.87.61,2.13-.38,2.76-.42.27-.85.45-1.32.64l-2.35.93Z"/><path class="h" d="M50.73,108.41c-.89.56-3.41,1.26-4.55,1.54s-2.57.22-3-1.08c-.36-1.1.13-2.22,1.19-2.7,1.76-.79,6.5-1,7,.66.19.63-.1,1.24-.64,1.57Z"/><path class="f" d="M40.55,68.86c.09-.03.17-.14.25-.19.97-.57,3.59-2.18,4.68-2.09.97.09,1.73.82,1.89,1.78.11.66-.17,1.28-.72,1.64-1.25.84-3.16,2.01-4.65,2.02-.98,0-1.73-.67-1.79-1.65-.04-.57.14-1.07.34-1.52Z"/><path class="l" d="M64.78,125.58c.07,1.59-1.33,2.17-2.76,2.11-1.24-.05-4.04-.21-4.21-1.63-.09-.74.18-1.48.75-1.96,1.16-.99,3.98-.52,5.49.23.48.24.71.73.74,1.25Z"/><path class="c" d="M141.29,103.61c.87-.98.89-2.08.03-3.21-.6-.79-1.58-.5-2.33-.07l-2.5,1.44c-.52.3-.99.6-1.48,1.04-.65.28-1.31.58-1.91,1.07-1.1.89-.02,2.4.83,2.94,1.06.67,2.13-.17,3.03-.69l2.74-1.59c.53-.31.99-.66,1.6-.94-.2.63-.56,1.02-1.08,1.29-1.08.56-2.14,1.06-3.16,1.72l-.86.56c-.69.44-1.62.56-2.37.14-1.07-.6-2.16-2.29-1.21-3.55,1.58-1.54,2.53-1.6,4.33-2.72l1.81-1.13c.55-.34,1.18-.47,1.83-.35,1.57.3,1.84,2.1,1.59,3.36-.11.53-.55.6-.88.69Z"/><path class="c" d="M130.46,106.95c-.64-.32-1.38-.46-2.14-.03l-2.9,1.65c-.54.31-1.05.63-1.51,1.05-.82.75-.38,1.81.32,2.38.76.63,1.7.25,2.48-.18l2.91-1.6c.31-.17.59-.34.84-.57.8-.74.47-1.69,0-2.69,1.12.34,1.14,1.8.64,2.57-.34.52-.81.9-1.35,1.19l-1.79.96c-1.1.59-2.37,1.41-3.5.89-.53-.24-.96-.62-1.31-1.08-1.17-1.51,1.94-3.35,3.02-3.93l2.45-1.31c.42-.22.92-.28,1.31,0,.27.2.4.47.53.7Z"/><path class="c" d="M26.28,79.44c-1.66.8-3.75,1.47-5.55.89-.49-.16-.85-.48-1-.98-.29-1.04-.21-2.81,1.06-3.21l3.61-1.13c1.1-.34,2.71.05,2.97,1.21s.13,2.63-1.11,3.23ZM25.78,79.17c1.28-.54,1.6-1.74,1.22-2.93-.65-2.03-4.74-.13-6.05.39-.62.25-.99.77-1.01,1.45-.04,1.14.74,2.05,1.89,2.15,1,.09,2.97-.65,3.96-1.07Z"/><path class="c" d="M101.73,124.1c-1.66.64-3.26,1.26-4.93.61-1.05-.41-1.55-1.59-1.02-2.6.43-.82,2.57-1.51,3.61-1.89,1.23-.45,2.79-.94,3.63.24.64.89.79,2.07-.08,2.89-.36.34-.76.57-1.22.75ZM97.7,121.48c-.1-.01-.28.09-.38.13-.26.09-.55.22-.83.43-.55.4-.67,1.1-.27,1.66,1.22,1.68,4.23.41,5.86-.25.39-.16.78-.41.93-.83.26-.71.07-1.55-.48-2.08-.4-.39-1-.43-1.53-.3-.18.05-3.87,1.09-3.3,1.25Z"/><path class="l" d="M117.67,116.56c-.62.32-1.23.41-1.86.33-1-.13-1.71-1.01-1.52-2.01.07-.37.36-.68.67-.88,1.07-.69,2.16-1.25,3.32-1.78,1.26-.57,2.71-.44,3.33.82.55,1.12-.57,1.75-1.43,2.2l-2.51,1.31ZM117.78,116.03l2.97-1.58c.48-.25.62-.78.38-1.26-.66-1.31-2.27-.91-3.36-.33l-1.91,1.03c-.31.17-.58.36-.79.63-.4.5-.34,1.17.15,1.59.84.73,1.75.35,2.57-.09Z"/><path class="l" d="M82.99,127.12c-1.27.7-4.99,1.3-5.88,0-.42-.62-.32-1.38.26-1.85,1.18-.94,3.67-1.08,5.17-.83.65.11,1.1.54,1.18,1.19s-.18,1.18-.74,1.48ZM81.43,127.26c.98-.16,2.13-1.2,1.62-1.89-.67-.9-3.68-.62-4.95-.18-.71.25-.99,1.08-.57,1.68.5.72,2.89.52,3.91.39Z"/><path class="c" d="M93.4,124.19c-1.65-1-3.79-.81-5.63-.12-.69.26-1.04.88-.94,1.6.07.53.39.94.94,1.06,1.22.26,3.43-.18,4.64-.59,1.05-.36.97-1.01,1-1.78.12-.11.19-.02.26.14.29.61.09,1.28-.43,1.69-1.05.82-4.6,1.12-5.68.94-.48-.08-.84-.36-1.01-.8-.36-.91-.23-2.19.84-2.62,1.54-.63,3.54-.88,5.2-.44.65.17.71.5.82.93Z"/><path class="c" d="M51.2,67.12c.98-.04,1.54-.09,2.48-.68l1.94-1.22c.33-.21.62-.41.89-.69.72-.75.74-1.94-.03-2.67s-2.24-.48-3.19.05c-.88.49-1.7,1.02-2.52,1.58-.88.61-1.14,1.7-.56,2.61.23.36.52.62,1,1.01-.9-.11-1.4-.52-1.57-1.19-.2-.79,0-1.6.54-2.23,1.28-1.49,2.17-1.73,3.75-2.53,1.06-.54,2.65-.17,3.17.63s.65,2.46-.35,3.18l-1.6,1.16c-.63.46-3.4,1.91-3.95.98Z"/><path class="c" d="M40.55,68.86c-.19.45-.37.95-.34,1.52.06.98.81,1.65,1.79,1.65,1.49-.01,3.4-1.18,4.65-2.02.55-.37.83-.99.72-1.64-.16-.96-.92-1.69-1.89-1.78-1.09-.1-3.71,1.52-4.68,2.09.3-.57.74-1.07,1.38-1.39l1.77-.89c.75-.38,2.28-.41,3.18.48s.95,2.32.02,3.24c-.37.37-.79.64-1.23.92-1.63,1.05-4.15,2.09-5.7.39-.39-.69-.5-1.47-.28-2.23.19-.23.41-.27.61-.33Z"/><path class="c" d="M73.55,125.37c-1.16-.58-6.22-.94-5.8,1.51.11.63.56,1.05,1.2,1.15,1.13.17,3.27.21,4.29-.26.92-.42.76-1.49.31-2.4.58.33.78.7.8,1.18.02.7-.31,1.3-.95,1.59-1.02.46-3.14.45-4.29.32s-1.83-.71-1.83-1.91c0-.76.41-1.37,1.11-1.65,1-.39,3.05-.36,4.17-.27.51.04.82.36.98.74Z"/><path class="l" d="M93.4,124.19c.01.05,0,.12,0,.17-.03.77.05,1.42-1,1.78-1.22.41-3.42.85-4.64.59-.55-.12-.87-.52-.94-1.06-.1-.72.25-1.34.94-1.6,1.84-.69,3.98-.88,5.63.12ZM92.62,125.53c.39-.29.39-.8.02-1.12-1.01-.89-3.25-.5-4.42-.09-.49.17-.83.59-.88,1.1-.2,1.83,4.54.68,5.29.12Z"/><path class="c" d="M112.04,119.1c.25-.69.24-1.48-.2-2.17-.67-1.07-1.92-.88-2.89-.32l-2.5,1.43c-.72.41-1.4.96-1.16,1.88.32,1.21,1.61,1.47,2.76,1.1,1.61-.52,2.39-1.11,3.99-1.91-.39,1.29-1.78,1.33-3.49,2.19-.7.35-1.49.45-2.24.23-.8-.24-1.38-.88-1.5-1.7-.1-.7.17-1.32.72-1.73.94-.7,2.47-1.35,3.69-2.01.33-.18.67-.33,1.05-.33,1.41.02,2.21,1.12,2.45,2.44.1.55-.39.75-.69.91Z"/><path class="c" d="M33.93,76.12c1.23-1.08,4.04-1.23,3.38-3.54-.24-.84-.92-1.38-1.81-1.38-.56,0-1.08.13-1.59.36l-2.18.97c-1.33.59-2.07,1.72-1.37,3,.79,1.43,2.31.86,3.57.59-1.16,1.02-3.58.83-3.98-.52-.33-1.09-.32-2.66.9-3.2l1.48-.65c1.43-.63,3.29-1.71,4.61-.41,1.1,1.08,1.01,3.16-.18,3.87-1.02.6-1.75.95-2.82.91Z"/><path class="c" d="M55.93,121.65c-1.91-.72-4.05-2.18-6.35-1.43-.84.27-1.31,1.18-.92,1.99s3.69,1.68,4.71,1.98c.75.22,1.47.05,1.99-.44.48-.46.74-1.14.57-2.1,1.01.8-.08,2.29-.75,2.81-1.07.83-4.57-.64-5.86-1.12-.65-.24-1.04-.75-1.18-1.42s.04-1.19.56-1.58c1.85-1.34,4.35-.61,6.27.3.48.23.76.61.95,1.02Z"/><path class="c" d="M201.69,95.17c-.11-.37-.29-.71-.58-.97.25.01.38,0,.54.06.31.11.47.38.42.68-.15.12-.26.18-.37.22Z"/><path class="d" d="M126.49,161.62c-1.76.87-4.44,1.29-6.15.36-1.39-.76-1.79-2.42-1.47-3.85.62-2.75,4.88-3.11,7.18-3.22l3.3-.16c.25,0,.42.1.45.35.02,1.39.22,2.48-.43,3.7s-1.63,2.19-2.88,2.82Z"/><path class="i" d="M180.29,104.42c-.33.82-.83,1.48-1.18,2.29-1.16-.09-2.15-.14-3.12.8-1.16,1.12-1.05,2.66,0,3.96l-1.1,2.37c-.05.14-.06.28.06.32.61-.97,1.17-1.36,1.64-2.32,1.15.03,2.29.1,3.22-.89,1.16-1.22.86-2.74-.1-4.02.67-.83,1.07-1.75,1.79-2.53h4.73c.23,0,.47.07.36.32s-.27.43-.43.62l-2.5,2.98-2.69,3.19-2.33,2.77-1.65,1.9c-.35.41-.54.89-.54,1.43l.03,2.06v5.7c-.01,1.09-.34,2.5.72,2.73s4.1.93,4.89,1.37c1.1.61-2.16.5-2.14.5h-9.03s-2.63.07-1.64-.51c.32-.19.63-.28.98-.37l2.46-.67,1.46-.32c1.05-.23.72-1.59.71-2.72v-5.89s0-1.79,0-1.79c0-.68-.26-1.24-.69-1.73l-1.55-1.79-2.89-3.39-4.48-5.33c-.21-.25-.38-.48-.56-.75-.25-.37.87-.3,1.42-.3l14.11.02Z"/><path class="l" d="M181.49,104.39c-.72.78-1.12,1.7-1.79,2.53l-.59-.22c.35-.81.85-1.47,1.18-2.29.3-.34.6-.72.87-1.17l1.04-1.72c.21-.36.71-.96,1.01-.73.54.41-1.6,2.75-1.72,3.59Z"/><path class="f" d="M179.11,106.71l.59.22c.96,1.27,1.26,2.8.1,4.02-.94.99-2.07.92-3.22.89l-.6-.37c-1.04-1.3-1.15-2.84,0-3.96.97-.94,1.97-.89,3.12-.8Z"/><path class="l" d="M176.58,111.83c-.48.96-1.03,1.35-1.64,2.32-.12-.04-.11-.18-.06-.32l1.1-2.37.6.37Z"/><path class="f" d="M64.35,59.76c-1.36.66-4.36,2.23-5.09.07-.37-1.09.03-2.25,1.24-2.67,1.29-.45,6.49-1.65,6.24.7-.06.54-.4.94-.88,1.17l-1.52.73Z"/><path class="i" d="M123.36,185.61c-.1.27-.43.13-.68.15-1.04-.05-1.99-.06-3.03.02-.18,0-.38.06-.46-.08l.04-5.34c0-.43-.09-.89-.35-1.23-.34-.46-.9-.51-1.36-.39s-.8.51-.93,1.07c-.25,1.91-.09,4.03-.04,6-1.42-.11-2.71-.1-4.11-.02.06-1.08.08-2.06.08-3.14v-7.05c0-.81-.02-1.56-.06-2.37,0-.17-.04-.34.1-.41,1.33.1,2.52.09,3.86,0,.39-.03-.26,3.59.22,3.74.19.06.62-.72,1.35-1.07,1.89-.91,4.24-.35,4.96,1.9.59,1.84.12,5.78.41,8.22Z"/><path class="i" d="M150.11,177.86v4.6c-.01,1.02,0,1.98.05,3.01.01.21-.02.33-.24.31-1.17-.09-2.24-.06-3.4.01-.64.04-.33-.48-.39-1.37-.04-.65-.46.99-1.89,1.38-1.82.49-3.83-.12-4.46-2.04-.37-1.13-.34-2.95-.33-4.24.01-.9-.16-3.85.07-4.1.19-.2,3.67-.22,3.87,0,.36.39-.22,4.61.22,6.07.16.54.61.85,1.18.84.51,0,.94-.28,1.1-.77.32-.96.18-4.73.12-6-.01-.22.06-.29.29-.27,2.81.25,3.94-.55,3.88.84l-.07,1.75Z"/><path class="i" d="M172.18,181.18c.39,1.71-.1,3.56-1.9,4.2-.54.19-1.07.26-1.64.3-2.24.06-3.72-.07-6.01.12v-2.74c1.74.04,4.08.31,5.63-.07.16-.21.15-.45-.01-.64-1.61-.48-3.25.12-4.73-.96s-1.36-3.19-.74-4.3c.54-.97,1.53-1.53,2.63-1.69.34-.05,5.64-.14,5.75-.12.66.08.65,2.48-.01,2.58-.92.14-3.82-.32-4.95.13-.16.23-.15.48.05.67.39.11.71.18,1.1.18h1.49c1.52.03,2.98.78,3.34,2.34Z"/><path class="i" d="M76.19,183.74l.06,1.96c0,.08-3.19.04-3.88.09-.18.01-.33,0-.32-.19l.06-2.74.1-1.68c.08-1.22-1.21-.55-1.17-1.5.03-.7.06-1.29-.04-2.05l.87-.03c.18,0,.29-.15.29-.33l.04-1.53c.02-.88.42-1.66,1.1-2.2,1.11-.88,2.93-.93,4.32-.81,1.18.11.43,2.21.72,3.49-.47.02-1.48-.18-1.8.19-.24.27-.41.77-.19,1.09.14.2.51.15.73.13l1.21-.08v2.4c.01.15.03.45-.1.44l-1.92-.13c-.14,0-.12.24-.12.39l.05,3.07Z"/><path class="i" d="M87.02,182.35c.69.03.4,1.99.36,3.1,0,.26-.2.5-.47.52-2.05.15-4.7.2-5.41-1.99-.58-1.78.08-5.57-.25-5.88-.23-.21-1.15.06-1.14-.12.03-.89.05-1.62-.06-2.55.17-.15,1.3.04,1.29-.12l-.03-1.03c0-.21.15-.37.36-.4,1.42-.21,2.3-.47,3.59-.57l-.03,1.98c0,.44,2.14-.52,2.16.44.02.84.16,2.46-.5,2.39l-1.41-.16c-.21-.02-.25.1-.25.31l.04,2.46c.01.69.04,1.53.82,1.57l.92.05Z"/><path class="i" d="M102.64,185.79l.07-2.74v-4.9s-.07-2.61-.07-2.61c0-.23.07-.29.3-.27,1.12.08,2.16.09,3.29,0,.23-.02.33.02.32.26l-.07,1.65c-.05,1.1.61-.51.74-.72.9-1.46,2.56-1.46,2.67-1.31.24.33-.02,3.62.16,4.53l-1.48.03c-1.4.03-1.8,1.62-1.77,2.79l.07,3.2c0,.17-3.4-.08-4.21.08Z"/><path class="i" d="M153.15,182.26v-4.63s-.08-1.85-.08-1.85c-.01-.31.18-.48.49-.47,1.12.02,2.14.03,3.3-.02.13,0,.09.31.09.45l-.06,1.45c-.05,1.19.58-.55.64-.66.82-1.48,2.63-1.52,2.78-1.37.21.21-.05,3.92.1,4.62-1.2-.11-2.56-.27-3.04,1.13-.56,1.67.24,4.93-.38,4.89-1.23-.08-2.37-.09-3.6,0-.18.01-.33,0-.32-.19.06-1.13.07-2.2.07-3.34Z"/><path class="i" d="M68.77,183.25c0,.56.15,2.56-.08,2.54-1.36-.09-2.6-.07-3.89,0l-.03-1.19c-.01-.7-.49.75-1.66,1.12-1.02.32-2.14.33-3.15-.1-2.67-1.14-3.23-4.25-2.65-6.88s3.07-4.22,5.63-3.48c1.4.41,1.75,2.04,1.81,1.32.17-2.13-1.08-.93,3.78-1.3.23-.02.31.03.3.27l-.06,2.41v5.3ZM64.81,180.52c0-1.04-.84-1.88-1.88-1.88s-1.88.84-1.88,1.88.84,1.88,1.88,1.88,1.88-.84,1.88-1.88Z"/><circle class="d" cx="62.93" cy="180.52" r="1.88"/><path class="i" d="M136.87,180.54c0,3.06-2.48,5.53-5.53,5.53s-5.53-2.48-5.53-5.53,2.48-5.53,5.53-5.53,5.53,2.48,5.53,5.53ZM133.21,180.53c0-1.02-.83-1.85-1.85-1.85s-1.85.83-1.85,1.85.83,1.85,1.85,1.85,1.85-.83,1.85-1.85Z"/><circle class="d" cx="131.36" cy="180.53" r="1.85"/><path class="i" d="M93.82,182.47c1.87.82,1.96-.58,3.67-.55l2.51.04c.02,1.63-1.43,3.15-3.01,3.69s-3.68.41-5.17-.46c-2.55-1.5-3.07-4.96-1.85-7.36,1.35-2.64,4.77-3.34,7.26-2.32,2.29.94,2.97,3.19,2.99,5.57l-2.52-.03-3.55-.04c-.34,0-.61,0-.97.11-.04.54.19,1.01.63,1.34ZM96.48,179.24c-.33-.72-.94-1.04-1.69-1-1.39.09-1.72,1.35-1.55,1.37.45.07,3.63.48,3.24-.38Z"/><path class="d" d="M96.48,179.24c.39.86-2.79.44-3.24.38-.17-.03.15-1.28,1.55-1.37.75-.05,1.37.27,1.69,1Z"/><path class="l" d="M141.29,103.61c-.62.28-1.07.63-1.6.94l-2.74,1.59c-.9.52-1.97,1.35-3.03.69-.85-.54-1.93-2.04-.83-2.94.61-.49,1.27-.8,1.91-1.07-.54,1.02-2.22,1.19-1.81,2.57.23.8.92,1.3,1.78,1.21.38-.04.71-.2,1.02-.41,1.1-.78,1.58-.85,2.76-1.57l1.96-1.2c.86-.53.92-1.53.58-2.36s-1.38-.63-2.06-.3l-1.47.71c-1.07.52-1.48,1.04-2.76,1.36.49-.44.96-.74,1.48-1.04l2.5-1.44c.75-.43,1.73-.72,2.33.07.86,1.13.84,2.23-.03,3.21Z"/><path class="l" d="M130.46,106.95c.48,1,.81,1.96,0,2.69-.26.24-.54.4-.84.57l-2.91,1.6c-.78.43-1.72.81-2.48.18-.7-.58-1.14-1.63-.32-2.38.46-.42.97-.74,1.51-1.05l2.9-1.65c.76-.43,1.5-.29,2.14.03ZM126.81,111.29c.88-.55,1.76-.98,2.69-1.42.74-.35,1.13-1.08.93-1.89-.18-.71-.86-1.09-1.55-.88-.31.1-4.19,2.35-4.46,2.62-.53.52-.54,1.37.04,1.87.63.55,1.74.09,2.37-.3Z"/><path class="f" d="M25.78,79.17c-.99.42-2.96,1.16-3.96,1.07-1.14-.1-1.92-1.01-1.89-2.15.02-.68.39-1.2,1.01-1.45,1.31-.53,5.4-2.43,6.05-.39.38,1.19.06,2.39-1.22,2.93Z"/><path class="e" d="M97.32,121.61c.1-.04.28-.14.38-.13.49.06.98-.04,1.51-.26.74-.31,2.47-.92,3.08-.23.39.45.43,1.12.15,1.63s-1.76.86-2.71,1.26c-.87.37-1.83.37-2.67-.06-.41-.21-.58-.63-.42-1.05.18-.46.45-.81.68-1.17Z"/><path class="l" d="M97.32,121.61c-.23.35-.5.71-.68,1.17-.17.42,0,.84.42,1.05.84.43,1.8.43,2.67.06.95-.4,2.43-.75,2.71-1.26s.24-1.19-.15-1.63c-.6-.69-2.34-.08-3.08.23-.53.22-1.02.33-1.51.26-.57-.16,3.12-1.2,3.3-1.25.53-.13,1.12-.09,1.53.3.55.53.74,1.36.48,2.08-.15.41-.54.67-.93.83-1.63.66-4.64,1.93-5.86.25-.4-.55-.28-1.26.27-1.66.28-.2.56-.33.83-.43Z"/><path class="e" d="M117.78,116.03c-.83.44-1.74.82-2.57.09-.49-.43-.55-1.09-.15-1.59.22-.27.49-.47.79-.63l1.91-1.03c1.09-.58,2.7-.98,3.36.33.24.47.09,1.01-.38,1.26l-2.97,1.58Z"/><path class="e" d="M81.43,127.26c-1.02.13-3.4.32-3.91-.39-.42-.6-.14-1.43.57-1.68,1.28-.44,4.28-.72,4.95.18.52.69-.63,1.73-1.62,1.89Z"/><path class="f" d="M51.2,67.12c-.48-.39-.77-.65-1-1.01-.57-.91-.32-2.01.56-2.61.83-.57,1.64-1.09,2.52-1.58.95-.53,2.38-.81,3.19-.05s.75,1.92.03,2.67c-.27.28-.57.48-.89.69l-1.94,1.22c-.94.59-1.5.64-2.48.68Z"/><path class="l" d="M73.55,125.37c.46.91.61,1.98-.31,2.4-1.02.47-3.16.43-4.29.26-.65-.1-1.1-.52-1.2-1.15-.41-2.45,4.64-2.09,5.8-1.51ZM72.6,127.65c.54-.17.84-.49.92-.89.06-.34.05-.74-.28-1.03-.62-.55-3.95-.58-4.59.05-.43.43-.44,1.14-.03,1.58.6.65,2.92.4,3.98.28Z"/><path class="e" d="M92.62,125.53c-.75.57-5.49,1.71-5.29-.12.05-.5.39-.93.88-1.1,1.17-.41,3.42-.8,4.42.09.37.33.37.83-.02,1.12Z"/><path class="l" d="M112.04,119.1c-1.6.8-2.37,1.39-3.99,1.91-1.15.37-2.43.11-2.76-1.1-.24-.91.44-1.46,1.16-1.88l2.5-1.43c.97-.56,2.22-.75,2.89.32.44.7.45,1.48.2,2.17ZM111.4,118.84c.64-.53.38-1.46-.12-1.94-.59-.58-1.61-.18-2.24.18l-2.25,1.27c-.67.38-1.17.99-.91,1.67.73,1.9,4.42-.43,5.52-1.18Z"/><path class="f" d="M33.93,76.12c-1.27.27-2.78.84-3.57-.59-.71-1.28.04-2.41,1.37-3l2.18-.97c.51-.23,1.03-.36,1.59-.36.9,0,1.57.55,1.81,1.38.66,2.3-2.15,2.45-3.38,3.54Z"/><path class="l" d="M55.93,121.65c.17.96-.08,1.64-.57,2.1-.52.49-1.24.66-1.99.44-1.02-.3-4.33-1.19-4.71-1.98s.07-1.72.92-1.99c2.31-.74,4.45.71,6.35,1.43ZM54.23,123.78c.84-.06,1.39-.75,1.26-1.49-.14-.81-2.65-1.5-3.44-1.7-1.15-.29-3.18-.14-3,1.21.05.35.36.59.69.71l2.62.94c.57.2,1.17.38,1.88.33Z"/><path class="e" d="M135,102.81c1.28-.32,1.68-.84,2.76-1.36l1.47-.71c.68-.33,1.71-.55,2.06.3s.28,1.83-.58,2.36l-1.96,1.2c-1.17.72-1.66.79-2.76,1.57-.31.22-.64.37-1.02.41-.85.09-1.54-.41-1.78-1.21-.41-1.38,1.26-1.55,1.81-2.57Z"/><path class="e" d="M126.81,111.29c-.63.39-1.73.85-2.37.3-.58-.5-.56-1.34-.04-1.87.27-.27,4.15-2.52,4.46-2.62.69-.21,1.37.17,1.55.88.21.8-.19,1.54-.93,1.89-.93.44-1.81.87-2.69,1.42Z"/><path class="e" d="M72.6,127.65c-1.06.12-3.37.37-3.98-.28-.41-.44-.4-1.15.03-1.58.63-.63,3.97-.6,4.59-.05.32.29.34.69.28,1.03-.08.39-.38.71-.92.89Z"/><path class="e" d="M111.4,118.84c-1.11.76-4.79,3.08-5.52,1.18-.26-.68.24-1.29.91-1.67l2.25-1.27c.63-.36,1.65-.75,2.24-.18.5.48.76,1.41.12,1.94Z"/><path class="e" d="M54.23,123.78c-.71.05-1.3-.12-1.88-.33l-2.62-.94c-.33-.12-.64-.36-.69-.71-.18-1.35,1.85-1.51,3-1.21.79.2,3.3.89,3.44,1.7.13.74-.42,1.44-1.26,1.49Z"/><path class="i" d="M6.31,107.52l-.03-.4,11.2-2.91c2.78-.72,5.38-1.57,8.07-2.52,1.98-.69,3.82-1.47,5.75-2.29,3.99-1.7,7.81-3.57,11.25-6.21,2.13-1.63,3.47-3.23,4.9-5.52l1.88-3.02c1.49-2.41,3.34-4.26,5.48-6.1,1.31-1.13,4.08-2.78,5.69-3.56,1.25-.61,4.2-1.93,5.47-2.06.66-.07-.27,4.96.62,7.45.67,1.87,2.19,2.41,4.05,2.42l3.94.03c1.62.01,3.04-.13,4.01-1.48.77-1.06.99-2.49.96-3.82l-.08-3.52c-.02-.83-.43-2.42-.04-2.41,2.09.06,6.77,1.18,8.88,1.79l3.52,1.03c1.11.32,1.2,1.31,1.83,2.28,1.46,2.27,3.48,3.82,6.01,4.78,1.47.56,2.3.06,1.75-.16l-1.16-.47c-2.2-.89-4.32-2.37-5.65-4.35-1.2-1.79-2.25-4.38-1.7-6.53.65-2.55,3.31-3.05,5.57-2.42,2.75.77,5.46,2.69,7.24,4.9l2.12,2.62c.1.12.36.07.35-.08l-.02-.92c.15-.04.27,0,.42.02,3.88.78,8.61,2.42,11.93,4.57.1.06.18.25.07.31-1.37.78-3,.31-4.77.56-1.56.22-3.8.91-5.15,1.71-.67.4-1.37.63-2.15.81l-7.56,1.67c-1.63.36-2.72,1.54-2.69,3.17.01.47.33.77.71.82.34.04.72-.12.89-.55.61-1.5.2-1.78,2.57-2.19l3.33-.58c.97-.17,1.89-.32,2.86-.54,2.58-.59,1.02,1.82,3.57,3.66,1.56,1.13,4.18.5,5.74-.54,2.51-1.68,1.54-4.59,2.24-5.66.2-.3.57-.37.85-.15.73.57.7,2.04,2.5,2.89,1.34.64,2.22-.51,2.87.43.44.63.89,1.17,1.4,1.74.97,1.1,1.52,2.52.31,3.65-.79.74-1.64,1.38-2.63,1.86-5.13,2.53-11.31,2.94-16.96,2.56-1.08-.07-3.83-.52-3.98-.52-.12,0-.16.17-.06.23,1.55.91,4.79,1.32,3.83,1.74l-3.31,1.44c-3.55,1.55-6.73,2.55-10.61,3.15-.25.04-.34.16-.24.39.65,1.51,1.56,3.16,3.25,3.34l1.57.17c.87.1,1.62.49,2.18,1.15.65.77.94,2.14-.15,2.68-1.75.88-4.69.6-6.49-.36-3.6-1.92-5.95-4.22-9.3-6.59-.49-.34-1.01-.61-1.6-.73-1.33-.27-4.86.46-8.5-.76-.68-.23,3.36-3.16,3.7-5.66.09-.7-1.26,1.18-1.3,1.25-1.52,2.02-3.31,3.74-5.41,5.14-1.98,1.32-3.35,1.18-4.18,2.19-.15.18.1.31.3.31l2.61.04c2.12.03,4.42-.06,5.9,1.59,1.06,1.18.36,2.71-.04,2.64s-.64-.63-.87-.59c-.26.04-.18.69-.58.91-.35.19-2.96-.01-3.73-.06l-3.91-.22-5.33-.54c-.59-.06-1.14-.12-1.7-.27-.91-.25-1.41-1.09-1.19-2.01.11-.49.77-1.85.5-1.91l-1.68-.37c-1.13-.25-2.15-.82-3.2-1.33-2.41-1.18-4.56-2.8-5.78-5.24-.38-.76-.15-.31-2.03.58-.71.34-1.32.73-2,1.11l-2.04,1.13c-3.79,2.11-5.45,2.98-9.57,4.53-5.4,2.03-11.56,3.46-17.31,4.09-1.95.21-3.83.44-5.79.48l-4.21.1Z"/><path class="i" d="M111.05,73.66c-1.55-.23-3.5-.43-4.41-1.56-.82-1.03-1.63-2.03-2.69-2.81l-1.02-.76c-.53-.39,2.22-2.01,4.62-.45,3.43,2.24,4.03,5.66,3.5,5.58Z"/><path class="h" d="M6.28,107.11l.03.4c-.24,0-1.92,0-1.04-.19l1.01-.21Z"/><path class="c" d="M186.98,98.49c-.14.1-.18-.03-.3-.22-.05-.08,0-.13.06-.16.16.02.31.03.46.08-.1.17-.17.23-.23.3Z"/><path class="g" d="M160.69,58.7s.1,0,.14,0c-.72.15,2.44.8,2.41.79.18.04.41.1.58.19,1.25.64,2.14.73,3.16,1.53v.2s-.81.18-.81.18l-.39-.03c.09-.12,0-.17-.15-.19-.97-.17-1.83-.51-2.77-.77-1.97-.54-3.9-.96-5.91-1.32l-3.16-.56c-1.74-.31-3.43-.53-5.19-.69l-6.34-.56c-2.25-.2-4.42-.22-6.68-.18l-5.62.1c-1.9.03-3.66.21-5.8.3-.22,0-.21.4,0,.4,1.09-.01,2.09-.05,3.15.03,2.65.2,5.21.23,7.88.29,5.2.13,10.62.52,15.73,1.33l3.74.6c.9.14,1.77.26,2.66.46l2.45.54c2.02.45,2.47,1.06,4.1,1.21l1.09.11c.57.05,1.03.25,1.43.51l-.04.45c-2.8-.02-5.1-.29-8.09-.36l-4.45-.09c-1.92-.04-3.16.32-4.6.13-2.19-.29-3.41-.02-5.59-.01h-5.49c-1.83.02-3.36-.31-4.93-.12-1.03.12,1.8.81,3.36.81,1.12,0,2.18.14,3.3.23,2.32.19,4.56.34,6.9.34l9.22.02,7.86.16c.91.02,1.75.09,2.55.2.02.28-.02.57-.02.85-1.12.45-2.28.82-3.54,1.11l-4.3.98c-2.58.59-4.27.73-6.87.98s-4.96.19-7.48.05l-2.61-.15c-1.1-.06-2.12-.31-3.2-.51-2.39-.43-5.27-1.17-7.43-2.2-.86-.41-1.71-.76-2.59-1.12-1.68-.68-3.2-1.55-4.74-2.51-1.45-.91-5.96-3.49-5.59-5.6.09-.53.46-.94.94-1.18,1.48-.75,3.04-1.22,4.71-1.39l3.05-.3c2.5-.25,5.06-.22,7.58-.05,3.03.21,3.34.21,6.37.88,2.11.47,4.45.39,6.85.8,2.52.43,4.95.92,7.39,1.63l3.97,1.15c.64.18,1.23.3,1.81.36Z"/><path class="c" d="M160.69,58.7c-.58-.06-1.18-.18-1.81-.36l-3.97-1.15c-2.45-.71-4.87-1.2-7.39-1.63s-4.74-.33-6.85-.8c-3.03-.67-3.34-.67-6.37-.88-2.52-.17-5.07-.2-7.58.05l-3.05.3c-1.66.16-3.22.64-4.71,1.39-.48.24-.85.66-.94,1.18-.38,2.11,4.13,4.69,5.59,5.6,1.54.96,3.06,1.83,4.74,2.51.89.36,1.73.71,2.59,1.12,2.16,1.03,5.04,1.78,7.43,2.2,1.08.19,2.1.44,3.2.51l2.61.15c2.53.15,4.96.2,7.48-.05s4.28-.39,6.87-.98l4.3-.98c1.26-.29,2.42-.66,3.54-1.11.01.58.08,1.16.13,1.73-.17-.04-.35-.09-.59-.1-.64-.04-1.17.43-1.2,1.1-.11,2.33.81,4.6,2.54,6.18.74.68,1.82.62,2.52-.06.28-.28.49-.55.68-.81.3-.08.08.69,1.03,1.28-.77.2-1.27.44-1.71,1.29-1.48,2.87-2.33,5.35-3.08,8.5l-1.02,4.28c-.79,3.32-2.92,6.1-5.58,8.15-.42.32-.85.84-.77,1.26.11.56,1.39.3,2.01-.02,2.72-1.42,5.16-4.22,6.23-7.14,1.27-3.47,1.64-6.08,2.71-9.4.06-.02.3,0,.28.11-.04.28-.1.46-.17.69l-.83,2.97c-.39,1.4-.42,2.56-.87,3.65-.84,2.06-.48,2.79-2.15,4.92-.46.59-.85,1.21-1.39,1.74-1.36,1.32-1.21,2.22-2.33,2.57l-1.82.56c-.87.27-1.9.22-2.07-.69s.76-1.2,1.2-1.77.93-1.01,1.4-1.54l1.18-1.36c.8-.91,1.78-2.27,2.07-3.44.18-.73.45-1.39.61-2.13l.44-1.94c.17-.74.42-1.42.53-2.19.19-1.34.71-1.57.98-3.13l.25-1.44c.18-1.01-.64.18-2.87-.65-1.13-.42-2.28-.51-3.03.56l-1.84,2.65c-.41.6-.79,1.17-1.25,1.74-.66.81-.45,1.27-1.19,1.9-.41.35-.71.74-1.03,1.17l-1.42,1.9-.84.91-.85,1.12c-.73.97-1.66,1.73-2.64,2.44l-1.95,1.4c-1.24.88-1.87.71-3.08,1.44-.45.27-.91.43-1.44.52-1.7.29-3.39,1.21-4.08.07,1.14.3,3.8-.43,5.02-.9,3.66-1.4,6.07-3.36,8.59-6.33,1.29-1.52,2.44-3.04,3.59-4.67l4.29-6.08c1.09-1.54,3.25-.12,4.63-.11.99,0,1.8-.65,1.94-1.63.12-.82-.89-1.41-2.02-1.17-1.19.25-1.56.4-2.79-.07-1.55-.59-2.71.06-3.69,1.23-1.54,1.85-2.93,3.72-4.3,5.71-2.2,3.2-3.25,4.74-5.91,7.63-2.39,2.6-4.78,3.59-8.05,4.68-.47.16-2.14.96-1.57,1.25-.1-.03-.21-.05-.38-.14.6-1.68,1.99-1.48,3.55-2.25,1.31-.64,2.4-.81,3.1-1.42.42-.37.85-.67,1.32-.99,1.55-1.05,1.95-2.12,2.96-2.98,1.69-1.45,2.44-3.69,3.61-4.82,1.55-1.49,1.21-2.56,2.73-3.55.13-.08.2-.18.21-.26.02-.07,0-.29-.16-.29-.77-.04-1,1.33-3.39.56l-.19.95c-.11.56-.48.96-.99,1.2-.93.44-1.77.92-2.64,1.47s-2.71,1.34-3.39.51c2,.39,5.26-1.83,6.74-3.28-1.4-1.05-2.12-1.22-3.52-2.43-.72-.62-2.24-2.64-2.78-3.48-1.49-2.35-.6-3.74-1.93-4.35-1.03-.47-2.82-.61-4-.57s-2.97.77-2.96,2.2c.03,3.86,2,6.7,4.88,9.07,1.24,1.01,2.43,1.49,3.33,2.8.08-.23-.82.72-.79.7-1.47-.95-2.92-1.93-4.28-3.17-2.32-2.11-4.14-5.45-4.57-8.59-.02-.12-.19-.27-.3-.18-1.77,1.54-2.47,2.4-3.67,4.38-1.63,2.68-2.42,6.55.86,8.18,3.76,1.87,8.26,1.15,11.95-.23-.41,1.17-1.74,1.02-3.69,1.55-1.67.46-5.03.11-6.81-.23-1.59-.3-2.56-1.08-3.55-2.33-1.04-1.31-.63-4.42.12-5.72.63-1.08.69-1.79,1.34-2.59.84-1.04,1.02-1.81,1.94-2.38l1.59-.99c.14-.09.22-.08.29.07l.6,1.28c.08.18.4.18.41-.02.08-1.14-.56-2.46.5-3.19,1.84-1.27,2.63-1,3.1-1.27.72-.41-3.22-.92-3.52-.95-.63-.07-3.36-.76-3.94-.99-.68-.27-1.32-.52-2.04-.7-.98-.24-1.37-.8-2.47-1.23-1.27-.5-2.45-1.05-3.68-1.63-1.7-.79-1.46-.96-2.79-1.71-.6-.34-1.11-.71-1.66-1.11l-1.46-1.07c-.78-.57-1.38-1.33-1.71-2.26-.44-1.23.18-2.49,1.39-2.94l1.7-.64c.93-.35,2.2-.35,3.36-.55,1.28-.22,2.6-.15,4.21-.33,1.43-.16,4.59-.04,6.12.1l3.58.32c2.09.19,2.52.75,4.25.76.69,0,1.32.09,2,.2l2.74.43c1.75.27,2.69-.01,4.6.71,1.11.42,4.56.95,5.95,1.49,1,.39,1.96.7,3,.96.19.05.2.19.09.3ZM164.21,74.14c.68-.21.21-1.18-.03-1.7-.76-1.67-.57-2.42-.69-4.28-.24-.08-.47,0-.76.03-2.1.4-3.37.82-5.46,1.21-.26.05-.48.14-.65.33-.19.94.96,2.85,1.54,3.63s1.02,1.57,1.99,1.33c2.14-.55,3.15-.26,4.06-.54ZM157.77,77.33l1.27-1.49c-.11-.19-.33-.28-.53-.44-1.63-1.07-1.99-2.92-2.96-4.33-1.62-2.36-5.76-.05-8.45-.68-.19,0-.38-.02-.42.16.1,3.11,2.14,6.46,4.85,7.86.69.36,1.3.79,1.93,1.24,1.57,1.12,3.28-1.11,4.31-2.33Z"/><path class="g" d="M187.76,60.62l.78-.37.23-.05c.15-.04.28-.02.21-.14l.35-.18,1.67-.29c3.21-.56,7.11,1.14,8.91,4.05,1.17,1.89,1.51,4.63.8,6.76-.65,1.96-1.95,3.54-3.72,4.6-3.53,2.12-7.9,1.79-10.69-1.32-2.07-2.32-2.97-5.89-1.8-8.84.45-1.13,1.05-2.16,1.94-2.99l1.32-1.22ZM193.45,70.02c.2.39.4.82.82,1.13,1.2.88,3.31,1.04,4.2-.58.58-1.05.79-2.21.75-3.42-.21-1.77-1.08-3.79-2.57-4.8-1.22-.83-3.01-.74-3.75.63-1.21,2.24-1.1,4.98.55,7.04Z"/><path class="g" d="M146.15,84.31l-.22-.04c-.9-1.31-2.1-1.79-3.33-2.8-2.89-2.37-4.85-5.21-4.88-9.07-.01-1.43,1.77-2.17,2.96-2.2s2.97.1,4,.57c1.32.6.43,2,1.93,4.35.54.84,2.06,2.86,2.78,3.48,1.4,1.22,2.12,1.38,3.52,2.43-1.48,1.45-4.74,3.67-6.74,3.28Z"/><path class="g" d="M145.14,84.97c-.03.12.03.27,0,.38-3.69,1.38-8.19,2.1-11.95.23-3.28-1.63-2.49-5.49-.86-8.18,1.2-1.98,1.91-2.84,3.67-4.38.1-.09.28.07.3.18.43,3.14,2.25,6.48,4.57,8.59,1.36,1.24,2.81,2.22,4.28,3.17Z"/><path class="g" d="M140.09,96.77l-.27-.44c-.57-.29,1.1-1.09,1.57-1.25,3.27-1.09,5.66-2.08,8.05-4.68,2.66-2.89,3.71-4.43,5.91-7.63,1.37-1.99,2.76-3.86,4.3-5.71.98-1.18,2.14-1.83,3.69-1.23,1.23.47,1.6.32,2.79.07s2.14.35,2.02,1.17c-.14.98-.96,1.64-1.94,1.63-1.37,0-3.54-1.43-4.63.11l-4.29,6.08c-1.15,1.63-2.3,3.15-3.59,4.67-2.52,2.96-4.93,4.93-8.59,6.33-1.22.47-3.87,1.2-5.02.9Z"/><path class="g" d="M200.91,94.19c.06.02.14.02.2.02.29.25.48.6.58.97l-.39.35c-.69.19-1.29.19-1.93.05-2.53-.56-4.76-1.83-6.61-3.62-.66-.64-1.22-1.29-1.67-2.08l-1.86-3.24-2.27-4.02c-.72-1.28-1.35-2.45-2.77-2.9l-1.5-.47c-.98-.31-2.41-1.17-2.45-2.36-.01-.41.26-.71.67-.78.57-.09,1.09.09,1.57.38,1.57.98,2.67.24,3.88,1.23,1.07.88,1.93,1.88,2.61,3.09l3.24,5.77c1.01,1.8,1.65,3.31,3.28,4.76s3.43,2.36,5.42,2.84Z"/><path class="g" d="M186.55,97.89c.08.05.12.17.19.22-.07.03-.11.08-.06.16.12.2.16.32.3.22v.59c-.63.2-1.25.29-1.95-.16-1.87-1.19-4.06-2.97-5.16-4.9-1.29-2.26-2.14-5.71-2.66-8.3-.03-.15-.07-.25-.2-.16,0-.06,0-.13,0-.2-.02-.08-.74-3.87-.96-3.35l-.02-.2-.05-.37c-.03-.06-.08-.05-.13-.02,0-.06,0-.13-.02-.2l-.11-.39c-.02-.06-.07-.06-.12-.02l-.06-.17c-.17-.48-.33-1-.63-1.5l-.84-1.37c-.07-.11-.11-.21-.2-.11-.05-.13-.16-.24-.19-.37-.13-.58-.5-2.06.17-2.57.54-.41,1.34-.34,1.8.15.53.55.36,1.58,1.28,2.88,1.85,2.61,3,7.54,3.58,10.73s1.94,5.9,4.32,8.03c.58.52,1.12,1.01,1.74,1.36Z"/><path class="g" d="M171.47,75.09c.23.15.4.44.6.63.03.88-.12,1.74-.41,2.57-.05.14-.11.27-.17.4l-.34.78c-.03.06-.03.13-.07.19-.4.6-.73,1.27-.78,1.97l-.03.39c-1.07,3.32-1.44,5.92-2.71,9.4-1.06,2.92-3.51,5.72-6.23,7.14-.62.32-1.91.58-2.01.02-.08-.42.35-.94.77-1.26,2.66-2.05,4.79-4.83,5.58-8.15l1.02-4.28c.75-3.15,1.6-5.63,3.08-8.5.44-.85.94-1.09,1.71-1.29Z"/><path class="g" d="M186,59.78l.02.7-1.1,1.02c-1.63,1.51-1.07,3.19-2.81,3.65-.83.18-1.61.29-2.41.29l-.02-1.52-.15-.35c-.1-1.15-.29-1.53-1.2-2.37-1.12-1.03-2.35-.98-3.9-.98h-3.74s-.59,0-.59,0h-.4c-.08-.01-.16-.07-.3-.11,0-.1.07-.16.11-.22.03.08.08.12.16.07.19-.13.35-.16.25-.3l.35-.2,1.92-.86c.99-.44,2.01-.62,3.07-.84,3.72-.76,7.63.14,10.72,2.02Z"/><path class="c" d="M201.12,57.5c-1.44-.05-2.32-.15-3.76.57-.35.18-.69.34-.94.63-.18.21-.14.47.09.63,1.06.73,2.67-.46,4.43-.65-.2.29-.46.54-.84.72l-1.62.76c-.19.09-.32.17-.52.32.05.23.2.38.36.57l1.1,1.1c.41.41.89.42,1.32.44l.41.96c-1,1.51.42,1.78.53,3.55.08,1.24.06,2.5-.53,3.55-.52.92-.94,2.03-1.51,2.63-.88.94-.99,1.64-1.92,1.98-1,.37-2.18.93-3.02,1.11-2.27.46-4.7.6-6.71-.68l-1.19-.77c-.99-.63-1.13-1.59-1.87-1.98-.3-.16-.45.84-1.73,1.56-.4.22-1.58,1.14-1,1.43,2.29,1.13,3.6.47,4.96,1.81,2.57,2.51,2.25,3.29,3.79,5.61.29.44.49.92.81,1.34.99,1.31,1.61,3.67,3.05,5.18l1.06,1.1c1.65,1.72,4.23,1.93,5.03,3.21-1.98-.49-3.84-1.43-5.42-2.84s-2.27-2.96-3.28-4.76l-3.24-5.77c-.68-1.21-1.55-2.21-2.61-3.09-1.21-1-2.31-.25-3.88-1.23-.47-.3-1-.47-1.57-.38-.41.07-.68.36-.67.78.03,1.19,1.47,2.05,2.45,2.36l1.5.47c1.43.45,2.05,1.62,2.77,2.9l2.27,4.02,1.86,3.24c.45.79,1.01,1.44,1.67,2.08,1.85,1.79,4.08,3.06,6.61,3.62.64.14,1.25.14,1.93-.05.65,1.04-3.46,0-3.97-.13s-.93-.32-1.36-.59c-1.7-1.09-3.25-1.78-4.5-3.56-.67-.94-1.27-1.88-1.75-2.93-.33-.72-.74-1.32-1.15-1.99l-.96-1.58c-.43-.71-.89-1.34-1.25-2.09-.21-.44-.45-.83-.73-1.22-1.09-1.58-3.46-1.69-4.37-2.3-1.72-1.14-1.17-3.09-1.47-3.07-.87.04-1.79.19-2.65.09s.26,1.36.84,2.69l1.13,2.63c.99,2.31.47,2.07,1.24,4.23.7,1.97.22,2.48,1.13,4.77.97,2.44.62,1.38,1.68,3.42.93,1.8,2.95,2.5,3.4,4.01-.62-.36-1.16-.84-1.74-1.36-2.38-2.14-3.75-4.87-4.32-8.03s-1.73-8.12-3.58-10.73c-.92-1.3-.75-2.32-1.28-2.88-.46-.49-1.26-.56-1.8-.15-.67.51-.29,1.99-.17,2.57-.12.01-.27.09-.42.03-.1-.76-.16-1.4-.06-2.11.19-1.33,1.94-.83,2.82-1.64l1.02,1.48c.55.8,1.58.87,2.35.31.97-.7,1.5-.06,2.89-.79.59-.31,1.94-.92,1.9-1.56-.06-.92-1.57-1.93-1.52-5.32l.02-1.43c-.23-.08-.47-.02-.75,0-.78.09-1.46.13-2.14.1l-.35-1.34c-.07-.36-.08-.65-.05-1.05.09-.12.23-.09.31-.04l.02,1.52c.79,0,1.58-.12,2.41-.29,1.74-.46,1.18-2.14,2.81-3.65l1.1-1.02c-.02-.32.36.71.47.67l1-.62c.15-.1.26-.09.26.08l-1.32,1.22c-.89.82-1.49,1.85-1.94,2.99-1.17,2.95-.27,6.52,1.8,8.84,2.78,3.12,7.16,3.44,10.69,1.32,1.77-1.06,3.07-2.64,3.72-4.6.7-2.14.36-4.87-.8-6.76-1.8-2.91-5.7-4.61-8.91-4.05l-1.67.29c1.86-1.89,2.78-.41,5.17-.73,1.36-.18,1.27-1.08,2.47-1.46.89-.28,2.92-.85,3.73-.6.22.12.33.27.42.42Z"/><path class="g" d="M176.01,73.59l.21-.24c1.46-.09,2.77-1.12,3.29-2.59.19-.55.21-1.12.22-1.71l.04-2.52v-.18c.69.03,1.37-.01,2.15-.1.29-.01.52-.07.75,0l-.02,1.43c-.05,3.39,1.46,4.41,1.52,5.32.04.65-1.3,1.25-1.9,1.56-1.39.73-1.92.1-2.89.79-.78.56-1.8.48-2.35-.31l-1.02-1.48Z"/><path class="c" d="M165.79,61.56c-1-.07-1.55-.31-2.7-.4-.58-.05-2.63-.72-3.39-.96-1.95-.62-2.57-.45-4.35-.91-.95-.25-1.88-.4-2.86-.5l-4.43-.46c-.41-.04-.78-.02-1.15.05-.07.15-.08.26-.05.32s2.57.39,3.41.59c1.92.44,6.56.83,7.58,1.23,1.84.72,2.69.31,3.93.98.57.31,1.16.47,1.82.55l1.82.21c.32.04.61.12.85.31.19.16.16.4.15.58-.4-.26-.86-.46-1.43-.51l-1.09-.11c-1.64-.16-2.08-.77-4.1-1.21l-2.45-.54c-.89-.2-1.76-.32-2.66-.46l-3.74-.6c-5.11-.82-10.53-1.21-15.73-1.33-2.67-.06-5.22-.09-7.88-.29-1.06-.08-2.06-.04-3.15-.03-.21,0-.22-.39,0-.4,2.15-.09,3.9-.27,5.8-.3l5.62-.1c2.26-.04,4.43-.01,6.68.18l6.34.56c1.77.16,3.45.38,5.19.69l3.16.56c2.01.36,3.95.79,5.91,1.32.95.26,1.81.6,2.77.77.14.03.24.08.15.19Z"/><path class="c" d="M166.35,63.61c-.1.14-.29.3-.3.53,0,.32.21.55.33.77-.8-.11-1.64-.18-2.55-.2l-7.86-.16-9.22-.02c-2.34,0-4.58-.15-6.9-.34-1.12-.09-2.18-.23-3.3-.23-1.56,0-4.38-.69-3.36-.81,1.57-.18,3.1.14,4.93.14h5.49c2.18-.02,3.41-.29,5.59,0,1.44.19,2.69-.17,4.6-.13l4.45.09c2.99.06,5.29.33,8.09.36ZM158.5,64.37c.25,0,.43-.07.42-.29-.02-.39-1.51-.52-1.97-.52h-11.39c-.52,0-1,0-1.44.16-1.29.45,3.96.63,4,.63h7.06s3.31.02,3.31.02Z"/><path class="g" d="M166.5,67.5c.02.19.06.4.05.59-.09,1.87.01,3.81,2.05,4.82.63.31,1.25.51,1.86.68l-.02.22c-.19.26-.39.53-.68.81-.71.68-1.78.74-2.52.06-1.73-1.58-2.65-3.85-2.54-6.18.03-.68.57-1.14,1.2-1.1.24.01.42.06.59.1Z"/><path class="l" d="M176.98,62.8l.18.19c-.1.15,0,.27.16.2v.18c.2.62.27,1.14.26,1.74v3.18c-.02.6-.08,1.16-.28,1.7-.41,1.13-1.5,1.22-2.66,1.22h-3.18c-.49.01-.94-.04-1.4-.16-1.19-.33-1.34-1.43-1.34-2.56v-3.38c0-.5.05-.95.18-1.41.32-1.16,1.46-1.32,2.56-1.32h3.77c.67,0,1.26.12,1.75.42ZM176.97,69.67c.15-.52.2-1.03.2-1.58v-2.96c.01-.48-.05-.91-.2-1.34-.36-1.01-1.35-1.03-2.33-1.03h-2.97c-.97.02-2.09,0-2.38.99-.13.45-.18.89-.18,1.38v3.36c0,.48.08.91.24,1.34.28.76.97.79,1.71.84l2.41.17c1.29.09,3.1.23,3.5-1.17Z"/><path class="g" d="M206.18,62.39l.43.39c-.03,1.85-1.9-.03-4.91.78-.17.05-.38-.04-.55,0l-.41-.96.21-.36c1.16-.59,2.5-.79,3.82-.34l1.42.49Z"/><path class="g" d="M201.12,57.5l.36.37-.38.79-.16.02c-1.76.19-3.36,1.38-4.43.65-.23-.16-.28-.42-.09-.63.26-.3.59-.46.94-.63,1.43-.72,2.32-.62,3.76-.57Z"/><path class="c" d="M176.98,62.8c-.49-.29-1.08-.43-1.75-.43h-3.77c-1.1.01-2.24.17-2.56,1.33-.13.46-.17.92-.17,1.41v3.38c0,1.13.15,2.22,1.34,2.56.46.13.91.17,1.4.17h3.18c1.16-.01,2.25-.1,2.66-1.23.2-.54.26-1.1.26-1.7v-3.18c.02-.59-.05-1.12-.24-1.74.86.38.64,1.49.64,2.54l-.02,2.74c0,1.34-.5,2.72-1.99,2.9-1.24.15-4.55.05-5.88-.1s-1.73-1.62-1.73-2.78v-3.35c0-1.36.12-2.71,1.57-3.12.57-.16,1.14-.21,1.75-.21l3.77-.02c.86,0,1.29.17,1.54.83Z"/><path class="c" d="M186,59.78c-3.1-1.89-7.01-2.78-10.72-2.02-1.06.22-2.09.39-3.07.84l-1.92.86c.46-.79,1.96-1.33,2.94-1.55l2.91-.66c1.32-.3,2.71-.29,4.03,0l2.07.46c.84.19,1.84.7,2.88,1.06.51.18.79.57.88,1.01Z"/><path class="c" d="M186.97,99.08s.28.23.19.29c-1.48.99-4.29-1.13-5.31-2.2l-1.44-1.51c-.81-.85-.84-1.71-1.65-2.88-.91-1.32-.88-3.1-1.5-5.17-.21-.71-.27-1.39-.25-2.04.12-.09.17.01.2.16.52,2.59,1.38,6.04,2.66,8.3,1.1,1.93,3.29,3.71,5.16,4.9.7.44,1.32.36,1.95.16Z"/><path class="c" d="M179.53,63.58c-.79-1.01-.83-1.12-1.79-2.16-1.96-2.13-5.99.14-7.05-1.2h3.74c1.55.01,2.78-.03,3.9.99.92.84,1.1,1.22,1.2,2.37Z"/><path class="c" d="M170.47,73.59c-.61-.17-1.23-.37-1.86-.68-2.04-1.01-2.15-2.95-2.05-4.82,1.06.84-.02,1.8,1.25,3.46.48.63,1.06,1.1,1.83,1.34l.97.3c0,.15-.1.28-.14.4Z"/><path class="c" d="M201.69,63.56c3.01-.81,4.88,1.07,4.91-.78.12.11.36.18.43.41.36,1.27-1.92.61-3.38.66-.2,0-2.37,0-1.95-.29Z"/><path class="c" d="M206.18,62.39l-1.42-.49c-1.32-.45-2.66-.25-3.82.34.21-.36.43-.73.93-.85,1-.24,4.15-.13,4.31,1Z"/><path class="c" d="M179.76,66.54l-.04,2.52c0,.59-.03,1.16-.22,1.71-.51,1.47-1.83,2.5-3.29,2.59.25-.29.53-.55.94-.75l.79-.41c1.13-.58,1.45-2.33,1.41-3.51l-.05-1.43c0-.27.02-.45.06-.75.15-.04.29.02.4.03Z"/><path class="c" d="M177,85.36c-.68-.58-.88-2.47-.96-3.35.22-.52.95,3.27.96,3.35Z"/><path class="c" d="M171.67,78.28c.28-.83.43-1.69.41-2.57.65.62.2,1.99-.41,2.57Z"/><path class="c" d="M175.54,80.65c-.69-.25-.74-1.05-1.26-2.05-.18-.34-.31-.64-.42-.93.09-.11.13,0,.2.11l.84,1.37c.31.5.46,1.01.63,1.5Z"/><path class="c" d="M163.24,59.5s-3.13-.64-2.41-.79c.78,0,1.41.27,2.46.35.05.15-.03.31-.05.44Z"/><path class="c" d="M166.99,61.21c-1.02-.79-1.91-.89-3.16-1.53,1.7-.15,1.79.55,3.42,1.19-.05.15-.17.24-.25.34Z"/><path class="c" d="M170.3,81.62c.06-.71.39-1.38.78-1.97l-.25,1.56c-.05.32-.31.43-.54.41Z"/><path class="c" d="M171.15,79.46l.34-.78c.12-.01.1.09.1.21-.01.32-.23.47-.44.57Z"/><path class="c" d="M166.18,61.59l.8-.18c0,.16,0,.32-.06.54-.21.08-.36.12-.53.06l-.22-.43Z"/><path class="c" d="M201.1,58.67l.38-.79c.05.05.14.09.28.17.02.2-.02.36-.1.61-.22.05-.4.01-.56.01Z"/><path class="c" d="M169.94,59.65c.1.14-.06.17-.25.3-.08.06-.13.01-.16-.07,0-.13-.03-.25.03-.49.18.06.27.18.39.25Z"/><path class="c" d="M188.97,60.05c.07.12-.06.11-.21.14l-.23.05c.03-.3.04-.43.08-.53l.36.34Z"/><path class="c" d="M176.02,81.82c-.15.07-.18,0-.17-.19,0-.09,0-.16,0-.2.06-.03.11-.04.13.02l.05.37Z"/><path class="c" d="M175.83,81.23c-.16.1-.2.03-.21-.18,0-.1,0-.17-.02-.22.05-.04.11-.05.12.02l.11.39Z"/><path class="c" d="M170.1,60.22l-.28.25c-.1-.05-.12-.17-.12-.26h.4Z"/><path class="c" d="M177.32,63.19c-.17.07-.27-.05-.16-.2l.16.2Z"/><path class="g" d="M157.77,77.33c-1.03,1.21-2.74,3.45-4.31,2.33-.63-.45-1.23-.89-1.93-1.24-2.71-1.4-4.75-4.75-4.85-7.86.05-.18.23-.16.42-.16,2.69.62,6.83-1.69,8.45.68.97,1.41,1.33,3.27,2.96,4.33.2.16.41.26.53.44l-1.27,1.49Z"/><path class="g" d="M164.21,74.14c-.91.28-1.92-.01-4.06.54-.96.25-1.43-.57-1.99-1.33s-1.73-2.68-1.54-3.63c.17-.19.38-.28.65-.33,2.09-.38,3.36-.8,5.46-1.21.29-.03.52-.11.76-.03.13,1.86-.07,2.61.69,4.28.24.52.7,1.49.03,1.7Z"/><path class="l" d="M193.45,70.02l.84.55c.8.52,1.71.74,2.67.65,1.98-.42,1.96-3.76,1.7-5.37-.33-1.99-3.54-4.86-5.04-3.1-2.13,2.5-.82,4.45-.17,7.27-1.65-2.05-1.77-4.79-.55-7.04.74-1.37,2.53-1.45,3.75-.63,1.49,1.01,2.37,3.02,2.57,4.8.04,1.21-.17,2.37-.75,3.42-.89,1.62-3,1.46-4.2.58-.42-.31-.63-.74-.82-1.13Z"/><path class="d" d="M158.5,64.37l-3.31-.02h-7.06s-5.28-.18-4-.64c.44-.15.92-.15,1.44-.15h11.39c.46,0,1.95.12,1.97.51,0,.22-.17.29-.42.29Z"/><path class="e" d="M176.97,69.67c-.4,1.4-2.21,1.26-3.5,1.17l-2.41-.17c-.74-.05-1.43-.08-1.71-.84-.16-.43-.23-.86-.23-1.34v-3.36c0-.48.05-.93.18-1.38.29-1,1.41-.98,2.38-.98h2.97c.98-.02,1.97,0,2.33,1.02.15.43.22.87.21,1.34v2.96c-.01.55-.06,1.06-.21,1.58Z"/><path class="e" d="M193.45,70.02c-.65-2.82-1.97-4.77.17-7.27,1.5-1.76,4.71,1.11,5.04,3.1.27,1.61.28,4.95-1.7,5.37-.97.09-1.88-.12-2.67-.65l-.84-.55Z"/><path class="c" d="M131.51,51.07c.16-.09-.4-1.08-.54-1.32-1.2-2.07-.62-4.07-2.61-6.03-2.16-2.12-4.41.87-10.29-1.72-1.01-.45-1.69-1.36-2.6-1.13-.6.15-2.17.82-1.73,1.69.52,1.04,2.25,1.92,3.32,2.42,1.58.73,2.61.67,4.32,1.02,2.6.53,4.49-.53,5.37.86.65,1.02,1.21,2.03,1.81,3.09.66,1.17,1.51,1.24,2.94,1.12-.12.16-.26.39-.54.48-2.01.61-3.64-2.65-4.4-4.08s-2.16-.41-5.22-1.07c-.51-.11-2.03-.44-2.22-.14-.16.25.62,1.02.88,2.08.33,1.33,1.06,2.7.65,3.43-.29.52-.93.75-1.48.6-.31-.08-.34-.4-.47-.55.3.11.63.2,1.03.21.35,0,.58-.21.59-.57.01-.42-.06-.8-.2-1.2l-.77-2.25c-.4-1.18-1.08-2.04-2.42-2.02-.39,0-.6.28-.57.66.04.43.2.79.47,1.12l.79.98c.66.82.98,1.77,1.07,3.08-.92-1.02-.39-1.87-1.62-3.09s-1.31-2.13-.47-3.6c-1.23-.43-1.57-.57-2.5-1.48-.74-.72-.56-1.31-.8-2.13-1.67.3-1.73.7-3.46.83l-.97.07c-.17.01-.23.15-.15.28.77,1.15.78,1.71,1.54,3,1.15,1.94,1.66,4.91,2.47,6.95s1.71,6.25,2.4,7.59c1.03,2.01,1.39,2.7,3.05,4.23.32.29.61.55.91.86.89.95,1.77,1.24,2.41,2.14.35.48.27,1.09-.26,1.41-1.33.78-3.84-.63-4.99-1.68-.6-.54-1.19-1.02-1.71-1.64-.45-.54-.9-1.04-1.4-1.53-1.12-1.09-1.96-3.49-2.42-5.02l-1.05-3.49c-.19-.65-.49-1.22-.66-1.88-.38-1.48-.87-2.12-1.14-3.16-.3-1.16-1.52-3.84-2.11-4.96-.42-.79-1.18-2.78-.03-3.14l-.15.8c-.01.06,0,.13,0,.2.06.66.21,1.32.56,1.98,1.28,2.45,1.7,3.93,2.75,6.26v.21s.2.37.2.37l.24.79.91,2.75c.03.08.03.68.17.39.09.54.22,1.06.42,1.57l.16.2.03.39c0,.07.04.13.05.2.36,1.45.83,2.99,1.75,4.32,1.12,1.63,2.46,2.98,4,4.21.92.73,2.79,2.02,3.96,1.77.46-.1.67-.53.46-.95-.28-.56-1.47-1.24-2.27-1.97-1.24-1.13-1.51-1.15-2.52-2.55s-2.04-3.23-2.44-4.82c-.02-.08-.04-.7-.17-.39v-.2s-.08-.2-.08-.2l-.34-1.18-.04-.38c-.02-.06-.07-.05-.13-.01l-.03-.39-.17-.41-.21-.77-.06-.39-.33-.98-.2-.61c-.38-.8-.61-1.66-.79-2.53,0-.03-.02-.08,0-.19-.04-.05-.09-.03-.14,0-.1-.6-.26-1.2-.53-1.83l-.9-2.06c-.38-.87-.82-1.65-1.28-2.48-.32-.58-.77-1-1.28-1.29-.08-.04-.13-.13-.2-.18-.47.08-.93.22-1.39.37l-.18-1.13c2.59-1.35,2.43,2.02,6.47.19.91-.41,1.75-.84,2.62-1.33,1.4-.79,1.62-2.51,1.35-3.99-.51-2.85-2.39-5.11-5.06-6.18-2.12-.85-4.42-.66-6.54.11-2.23.82-2.71,1.36-4.54,2.51-.08-.17-.06-.39.15-.55,1.53-1.15,1.68-1.35,3.47-2.07,2.08-.83,3.29-.97,5.6-.85.67.03,1.27.22,1.86.48l1.81.82c.15.07.51.22.56.08.18-.48.19-.89.41-1.3.36-.66.77-1.29,1.37-1.76,2.13-1.66,4.21-2.32,6.85-2.77,2.07-.36,4.05,1.25,4.46,0s.27-1.22.99-2.38c.89-1.43,1.87-2.21,3.11-3.54.76-.81,2.14-1.64,3.24-1.38.97.23.74,1.66.02,2.48-.78.89-1.9,1.42-3.19,2.69-1.37,1.34-.92,2.26-2.31,3.17-.09.06-.21.33-.09.44.36.29.89.39,1.35.6,1.56.72,2.96-1.79,5.63-3.16,1.8-.93,3.44-1.67,5.41-2.23,2.75-.77,7.31-1.42,10.07-.86.62.12.99.57,1.04,1.19.15,1.87-2.27,1.02-4.05,1.2-1.49.15-2.7,0-3.93.41-1.35.45-2.41.44-3.34.96-1.27.71-1.89.51-2.9,1.23-1.63,1.16-2.96,1.14-4.24,2.65-.66.79-.27,1.65.45,2.27.44.38.76.79,1.09,1.27l.95,1.39c.29.43,1,2.31,1.01,2.92.01.98-.37,2.22-1.53,2.52l-2.18.56c-.75.19-1.5.21-2.28.29-2.93.32-4.3-.21-7.19-.56-1.09-.13-2.09-.39-3.08-.84-1.3-.58-1.77-.57-3.02-1.31-.21-.12-.4-.24-.62-.25-.58,1.39-.27,1.92-1.09,3.34-.61,1.06.76.52,2.35,1.79.39.31.83.51,1.32.63,1.97.47,3.79.81,5.79.49,1.06-.17,1.92-.3,2.78.36,2.95,2.26,1.96,4.03,3.32,6.33.4.69.66,1.25.24,1.8ZM130.01,22.3c1.15-1.04,3.82-2.77,4.02-3.91.07-.4-.19-.69-.59-.72-1.24-.07-2.6,1.51-3.59,2.3-.56.67-4.28,4.7-2.58,5.23.66.21,1.3-.1,1.59-.72.42-.89.32-1.43,1.16-2.18ZM127.17,38.85c2.49.26,5.94.06,8.14-1.06,2.63-1.35-.8-5.89-2.04-7.21-.34-.36-.71-.65-1-1.05-.35-.5-.31-1.05.13-1.47.32-.3.68-.52,1.02-.78,4.22-3.24,10.54-5.14,15.9-4.82.53.03,1.03.02,1.52-.13.39-.12.55-.47.37-.82-.91-1.8-7.59-.51-9.34-.09-3.59.87-6.16,2.07-9.01,4.32l-2.01,1.58c-.28.22-.62.29-.93.12l-1.31-.71c-.89-.49-1.83-.79-2.8-1.12-1.96-.68-4.66-.79-6.57.04l-1.94.84c-1.2.52-4.53,2.92-3.16,4.28l.81.81c.62.61,1.03,1.36,1.37,2.16l.7,1.67c.23.54.63.93,1.18,1.15l2.41.96c1.46.58,4.88,1.18,6.52,1.35Z"/><path class="e" d="M105.56,41.24h-.2c-.11-1.56.23-5.35-.71-6.59-.66-.87-1.64-1.37-2.72-1.54l-2.09-.33c-.03-.06.03-.16.01-.23,1.83-1.15,2.31-1.69,4.54-2.51s4.41-.97,6.54-.11c2.67,1.07,4.55,3.33,5.06,6.18.27,1.49.04,3.21-1.35,3.99-.86.49-1.71.92-2.62,1.33-4.04,1.83-3.87-1.54-6.47-.19Z"/><path class="c" d="M92.3,43.91c-.04-.59-.09-1.19-.17-1.86-.24-2.12.82-4.56-1.39-5.53-.18-.08-.4-.06-.39.16,0,.45.09.81.1,1.15v.43c-.79,1.83-.21,4.52,1.56,5.71-.2.05-.44.13-.71.07-.61-.13-.79-1.09-1.29-1.81-.08-.12-.32-.27-.39-.13-.16.34-.17.69-.38,1.01-.19.31-.52.39-.79.64-.21.19.08.58.33.68.78.3,2.44.43,3.75.77,1.68.44,3.83.07,3.55,1.61-.19,1.08-1.39,1.5-2.38,1.95-2.04.92-4.22.46-6.24-.15-.31,2.13.06,1.58-.56,3.77l-.56,1.98c-.22.76-.52,1.45-.73,2.21-.16.57-.98,1.86-1.39,2.53-.77,1.28-2.32,3.08-3.76,3.3l1.47-1.26c2.97-2.55,3.98-6.61,4.87-10.28.2-.84.41-2.02-.5-2.42-.36-.16-.72-.22-1.11-.17-.6.09-.74.78-.81,1.36-.28,2.39-1.06,5.46-2.22,7.57-.82,1.5-2.44,3.22-3.88,4.18-.52.35-.98.92-.77,1.44.36.93,2.16,0,2.95-.42-.48.96-1.55,1.43-2.69,1.13-.44-.11-.66-.48-.62-.92.15-1.81,2.05-2.05,3.17-3.68.82-1.18,1.33-1.39,1.86-2.66l.69-1.68c.53-1.28.46-2.14.86-3.64.09-.33.57-2.56-.07-2.24-.91.44-1.36,1.01-2.22.69.18-.22,3.32-1.45,2.53-2.28-.4-.41-1.13-.9-1.61-.35-.24.27-.38.57-.53.9l-.75,1.67c-1.69.29-1.26,1.24-2.62,2.62-.44.44-.72.97-1.11,1.45l-2.74,3.35c-1.16,1.42-2.4,2.48-3.78,3.67s-2.32,1.52-3.55,2.53c-.42.35-.87.61-1.39.78-1,.32-7.97,3.62-8.02,1.01-.04-2,2.77-1.67,4.19-2.89.18-.15.03-.53-.2-.49l-.88.13c-.92.13-2.09-.44-2.25-1.54s.09-2.7,1.42-3.12l1.77-.56c1.73-.55,3.34-.91,4.92.31.65.5.1,2.07.97,1.85.34-.09.6-.27.86-.5l1.15-1.02c.32-.28.6-.57.85-.92.65-.89,1.74-2.04,1.97-2.83s-2.2.34-3.85.14c-2.26-.27-3.84.08-6.15-.57l-2.43-.68c-1.33-.38-3.23-.93-3.29-2.37.32.27.64.58,1.04.87,1.74,1.25,5.61,2.06,7.8,2.21,1.6.12,4.64.09,6.15-.25,2.07-.47,2.99-4.1,4.21-5.39l.22-.22c1.3-1.32,2.31-2.91,3.43-4.57.7-1.03,1.18-1.31,2.28-1.53h.36c.76.2,1.5.49,2.23.94l1.94,1.2c.42.26.85.43,1.35.47,1.16.08,1.28-1.2,1.23-2.09-.07-1.29-.12-2.52-.11-3.82,0-1.19-.04-2.15-.96-2.92-1.65-1.37-4.14-1.94-6.27-2.18-2.27-.25-2.6-.07-4.74-.07-2.8,0-6.75,1.63-9.18,3.02-3.03,1.73-4.65,2.98-7.05,5.51-.56.59-1,1.22-1.5,1.86-.92,1.17-1.67,2.41-2.28,3.78-.38.85-.48,1.71-.4,2.55-.54.36-.4-2,.14-2.98l1.34-2.4c.3-.54.58-1.07.99-1.54l1.57-1.78c1.15-1.31,1.77-1.68,3.02-2.87.55-.53,1.15-.95,1.84-1.28s1.25-.7,1.9-1.07l1.63-.92c1.43-.81,1.93-.75,3.34-1.34,1.52-.64,3.74-1.05,5.43-1.03l2.57.02c.61,0,1.18.07,1.76.18l2.31.45c1.78.35,3.03,1.08,4.28,2.36.72.73.52,2.16.84,3.16.37,1.16-.07-1.97,1.15-1.8,2.62.35,1.56,4.08,1.77,6.35.05.54.07,1.15-.26,1.4ZM78.64,50.87l1.68-2.33c.99-1.37,1.15-2.22,1.58-3.79.21-.14,1.55.91,1.88,1.14.97.68,3.51,2.18,4.57,2.46,2.29.62,4.99.64,6.87-.98.26-.27.5-.49.6-.87-.29-.23-.57-.33-.9-.4l-2.06-.45c-2.58-.57-4.25-.46-6.33-1.72-1.01-.61-1.97-1.19-3.02-1.72-1.49-.74-2.29-.34-3.15.89l-2.41,3.48-1.86,2.65-3.95,5.66c-.54.77-1.1,1.5-1.78,2.13-1.85,1.69-3.99,3.36-6.15,4.63-1.58.93-3.26,1.51-5.01,2.06-.35.13-.67.28-.87.61-.24.4-.09.87.37,1.01.82.25,1.97-.17,2.83-.42,2.82-.82,5.39-2.09,7.73-3.85.88-.66,1.71-1.27,2.5-2.03,1.74-1.68,3.38-3.44,4.83-5.38l2.06-2.76ZM64.35,59.76l1.52-.73c.48-.23.82-.63.88-1.17.24-2.35-4.96-1.14-6.24-.7-1.2.42-1.6,1.58-1.24,2.67.73,2.16,3.73.59,5.09-.07Z"/><path class="f" d="M95.71,43.97c-.12,0-.24-.04-.36-.03-.76-.58-1.08-1.17-1.03-2.32.13-2.87-.7-5.77,1.31-6.23.98-.23,3.54-.06,5.03-.11.91-.03,1.88.07,2.22.96.42,1.09.41,5.54.02,6.61-.31.85-1.2,1.11-2.06,1.11h-5.14Z"/><path class="c" d="M97.51,59.84c-.01.09-.08.23,0,.34,1.27.4,2.76-1.03,3.53-1.89,1.33-1.47,1.96-3.58,2.11-5.55l.2-2.73c.08-1.13.05-2.2.05-3.34-.05-.25-.02-.47-.18-.64-1.17.13-1.66.51-1.83,1.63-.52,3.41.55,6.62-1.38,9.01-.37.46-.69.92-.93,1.38-.85.36-1.25.74-1.59,1.59-.32-.82.3-1.37.92-1.83.97-.73.94-1.33,1.68-2.43,1.89-2.8-.94-10.45,3.35-9.59.67-.13.23,4.29.18,4.88l-.32,3.8c-.1,1.2-.85,2.97-1.55,3.76-.74.83-1.91,1.97-2.92,2.38-.67.28-1.16,0-1.65-.54.08-.13.2-.16.3-.23Z"/><path class="c" d="M95.71,43.97h5.14c.87,0,1.75-.26,2.06-1.11.39-1.07.39-5.52-.02-6.61-.34-.89-1.31-.99-2.22-.96-1.48.05-4.05-.12-5.03.11-2.02.46-1.18,3.36-1.31,6.23-.05,1.14.27,1.74,1.03,2.32-.82.08-1.27-.71-1.36-1.56-.1-1.01.03-3.22-.04-4.75-.02-.47.02-.91.16-1.36.38-1.24,1.74-1.5,2.9-1.4,1.7.14,3.79-.05,4.77.11,2.13.34,1.89,4.16,1.74,5.84l-.18,1.99c-.04.45-.28.78-.66,1-1.36.81-3.24.43-5.46.64-.54.05-1.74-.2-1.52-.48Z"/><path class="c" d="M105.36,41.23c-.08,0-.31.08-.34-.04-.39-1.61.83-6.95-2.75-7.52l-1.52-.24c-.45-.07-.77-.32-.91-.67l2.09.33c1.07.17,2.06.67,2.72,1.54.94,1.25.6,5.03.71,6.59Z"/><path class="l" d="M81.44,49.41c-.09-.03-.27-.07-.36-.06l.75-1.67c.15-.33.29-.63.53-.9.48-.56,1.21-.07,1.61.35.79.83-2.35,2.06-2.53,2.28Z"/><path class="l" d="M82.4,40.78c1.67-.8,5.25,3.51,6.09,1.62.21-.48.31-1,.28-1.54-.09-1.64.02-3.74-.36-5.05-.35-1.22-1.69-1.71-3.03-2.29s-4.28-.89-5.86-.82c-1.78.08-3.62-.13-5,.41-1.69.66-2.6.65-4.22,1.47-1.36.69-2.36,1.01-3.52,1.82l-1.37.97c-.39.28-.75.54-1.1.86-.82.74-1.4.82-1.97,1.54-.33.41-.68.76-1.03,1.15-.32.35-.53.75-.84,1.11l-1,1.16c-.72.84-1.23,1.79-1.73,2.78-.68,1.35-1.09,3.25.41,4.21,1.17.75,3.58,1.6,4.87,1.78l2.58.36c1.54.22,4.52.07,6.07-.25.71-.15,1.25-.54,1.62-1.15l.88-1.48c.65-1.09.45-1.95,1.94-2.36-1.22,1.3-2.14,4.92-4.21,5.39-1.51.34-4.55.37-6.15.25-2.19-.16-6.06-.96-7.8-2.21-.4-.29-.72-.59-1.04-.87,0-.22-.22-.42-.24-.64-.09-.84.02-1.7.4-2.55.61-1.37,1.35-2.6,2.28-3.78.5-.63.94-1.27,1.5-1.86,2.4-2.53,4.02-3.79,7.05-5.51,2.43-1.39,6.38-3.02,9.18-3.02,2.13,0,2.47-.18,4.74.07,2.13.24,4.61.81,6.27,2.18.92.77.97,1.73.96,2.92,0,1.31.04,2.53.11,3.82.05.89-.07,2.18-1.23,2.09-.49-.04-.93-.21-1.35-.47l-1.94-1.2c-.73-.45-1.47-.74-2.23-.94Z"/><path class="l" d="M92.3,43.91c-.07.05-.21.05-.29.07-1.78-1.2-2.36-3.88-1.55-5.71.03,1.44-.23,3.88,1.02,4.52.13.07.28-.05.29-.2.08-.96.31-4.78-.47-5.13-.18-.08-.69.28-.85.38,0-.35-.09-.71-.1-1.15,0-.22.22-.24.39-.16,2.22.97,1.16,3.41,1.39,5.53.07.67.13,1.28.17,1.86Z"/><path class="l" d="M97.51,59.84v-.2c.34-.86.75-1.23,1.59-1.59-.21.41-.45.81-.92,1.12-.09.19-.04.37.14.52.42-.06.75-.25,1.1-.48l1.32-1.04c.46-.36.79-.81.99-1.36l.62-1.73c.19-.52.31-1.04.36-1.61l.26-3.07.13-2.61c.03-.55-.09-1.05-.59-1.07-1.72-.07-.14,5.81-1.48,8.83-.51,1.15-.98,2.1-1.93,2.51.24-.47.55-.92.93-1.38,1.92-2.39.86-5.61,1.38-9.01.17-1.12.66-1.5,1.83-1.63.16.16.14.39.18.64,0,1.14.04,2.21-.05,3.34l-.2,2.73c-.15,1.98-.78,4.09-2.11,5.55-.78.86-2.26,2.29-3.53,1.89-.09-.11-.02-.25,0-.34Z"/><path class="e" d="M107.12,42l.2.18c.51.29.96.71,1.28,1.29.45.83.9,1.61,1.28,2.48l.9,2.06c.27.63.44,1.23.53,1.83,0,.03,0,.08-.02.2.04.05.1.02.16,0,.18.87.41,1.73.79,2.53l.02.4c.01.18.02.28.17.21l.33.98c-.07,0-.17.03-.18.13.14.12.18.2.24.26l.21.77.02.39c.03.06.09.05.15.02l.03.39v.37c.04.06.1.05.17.02l.34,1.18c-.07,0-.13.04-.13.13.1.05.15.06.19.06v.2s.03.37.03.37c.03.06.09.05.16.02.4,1.59,1.41,3.39,2.44,4.82s1.28,1.42,2.52,2.55c.8.73,1.99,1.41,2.27,1.97.21.42,0,.85-.46.95-1.17.25-3.04-1.03-3.96-1.77-1.54-1.23-2.88-2.58-4-4.21-.92-1.33-1.38-2.87-1.75-4.32.03,0,.07-.02.14-.06-.03-.11-.11-.14-.19-.13l-.03-.39v-.19c-.02-.05-.1-.03-.16-.01-.2-.51-.33-1.03-.42-1.57v-.38c-.04-.06-.11-.04-.17-.01l-.91-2.75c.07,0,.17-.03.17-.14l-.42-.64-.18-.37s.08,0,.15-.06c-.05-.08-.11-.11-.16-.16-1.04-2.33-1.47-3.81-2.75-6.26-.34-.66-.5-1.32-.56-1.98.16-.03.16-.17,0-.2l.15-.8c.46-.15.91-.28,1.39-.37Z"/><path class="l" d="M127.17,38.85c-1.64-.17-5.06-.77-6.52-1.35l-2.41-.96c-.55-.22-.95-.6-1.18-1.15l-.7-1.67c-.34-.81-.75-1.55-1.37-2.16l-.81-.81c-1.37-1.36,1.96-3.75,3.16-4.28l1.94-.84c1.9-.83,4.61-.72,6.57-.04.97.34,1.91.64,2.8,1.12l1.31.71c.31.17.65.1.93-.12l2.01-1.58c2.85-2.25,5.42-3.46,9.01-4.32,1.74-.42,8.43-1.71,9.34.09.18.35.01.7-.37.82-.49.15-1,.16-1.52.13-5.36-.32-11.69,1.58-15.9,4.82-.35.27-.71.48-1.02.78-.44.42-.48.98-.13,1.47.29.41.66.69,1,1.05,1.24,1.32,4.68,5.87,2.04,7.21-2.2,1.13-5.65,1.32-8.14,1.06ZM133.87,37.83c1.25-.27,2.08-1.08,1.8-2.17-.39-1.52-1.27-3.09-2.32-4.2l-1.14-1.2c-.63-.66-.61-1.54-.18-2.45-.16-.13-.34-.26-.49-.39-.81.64-1.91.51-2.64.03-.64-.42-1.29-.67-1.99-.96-3.1-1.26-5.84-1.45-8.84.18l-1.9,1.03c-1.08.59-2.11,1.81-1.22,3.08.58.83,1.16,1.61,1.68,2.48.7,1.19.68,2.41,2.14,2.99l1.94.77c2.52,1,8.3,1.86,10.94,1.29l2.21-.48Z"/><path class="l" d="M131.51,51.07c-1.42.13-2.28.06-2.94-1.12-.6-1.06-1.16-2.07-1.81-3.09-.88-1.39-2.77-.34-5.37-.86-1.71-.35-2.74-.29-4.32-1.02-1.07-.49-2.8-1.38-3.32-2.42-.44-.87,1.13-1.54,1.73-1.69.9-.23,1.58.68,2.6,1.13,5.87,2.59,8.12-.41,10.29,1.72,1.99,1.95,1.41,3.96,2.61,6.03.14.24.7,1.24.54,1.32Z"/><path class="l" d="M130.01,22.3c-.83.75-.74,1.29-1.16,2.18-.29.62-.93.93-1.59.72-1.7-.53,2.02-4.55,2.58-5.23.99-.79,2.35-2.37,3.59-2.3.4.02.66.32.59.72-.2,1.14-2.87,2.87-4.02,3.91Z"/><path class="l" d="M118.7,51.81c-.08-1.31-.4-2.26-1.07-3.08l-.79-.98c-.27-.33-.43-.69-.47-1.12-.04-.38.18-.66.57-.66,1.34-.01,2.02.85,2.42,2.02l.77,2.25c.14.4.21.78.2,1.2-.01.36-.24.57-.59.57-.4,0-.73-.1-1.03-.21Z"/><path class="l" d="M112.45,53.17c-.16.08-.16-.03-.17-.21l-.02-.4.2.61Z"/><path class="j" d="M109.33,52.97l-.24-.79.42.64c0,.11-.1.15-.17.14Z"/><path class="l" d="M112.84,54.54c-.06-.06-.1-.14-.24-.26,0-.1.11-.13.18-.13l.06.39Z"/><path class="l" d="M113.22,55.72c-.06.03-.13.04-.15-.02l-.02-.39.17.41Z"/><path class="j" d="M114.01,58.47c-.06.03-.13.04-.16-.02l-.02-.37c.13-.3.15.32.17.39Z"/><path class="l" d="M110.41,56.11c-.14.29-.15-.31-.17-.39.06-.03.13-.05.16.01v.38Z"/><path class="l" d="M113.42,56.51c-.06.03-.12.04-.15-.02v-.37s.09-.04.12.01l.04.38Z"/><path class="j" d="M110.99,57.88l-.16-.2c.06-.02.14-.04.15.01v.19Z"/><path class="l" d="M113.83,57.88s-.1-.01-.19-.06c0-.09.06-.13.13-.13l.06.2Z"/><path class="l" d="M111.08,58.47c-.02-.06-.05-.13-.05-.2.08,0,.16.03.19.13-.06.05-.11.06-.14.06Z"/><path class="l" d="M107.33,42.18l-.2-.18c.07.05.12.14.2.18Z"/><path class="l" d="M108.9,51.81v-.21s.1.08.15.16c-.07.05-.12.06-.15.06Z"/><path class="j" d="M111.46,50.03c-.06.02-.12.05-.16,0,.02-.11.02-.17.02-.2.05-.03.11-.05.14,0-.01.11,0,.16,0,.19Z"/><path class="j" d="M105.59,43.36c0-.06-.01-.14,0-.2.16.03.16.17,0,.2Z"/><path class="e" d="M82.4,40.78h-.36c-.52-.75-1.86.34-2.32.89-.81.95-1.31,2.05-2.54,3.54-.43.52-.73,1.07-.86,1.67l-.22.22c-1.49.41-1.29,1.27-1.94,2.36l-.88,1.48c-.36.61-.91,1-1.62,1.15-1.55.32-4.53.47-6.07.25l-2.58-.36c-1.29-.18-3.7-1.03-4.87-1.78-1.51-.96-1.1-2.86-.41-4.21.5-.99,1.01-1.95,1.73-2.78l1-1.16c.31-.36.52-.76.84-1.11.36-.39.7-.73,1.03-1.15.57-.72,1.15-.81,1.97-1.54.36-.32.71-.59,1.1-.86l1.37-.97c1.16-.81,2.16-1.13,3.52-1.82,1.62-.82,2.53-.81,4.22-1.47,1.38-.54,3.22-.33,5-.41,1.58-.07,4.49.22,5.86.82s2.67,1.07,3.03,2.29c.38,1.31.27,3.4.36,5.05.03.54-.06,1.06-.28,1.54-.83,1.88-4.42-2.42-6.09-1.62Z"/><path class="l" d="M78.64,50.87l-2.06,2.76c-1.45,1.94-3.09,3.7-4.83,5.38-.78.76-1.62,1.37-2.5,2.03-2.34,1.76-4.91,3.04-7.73,3.85-.86.25-2.01.67-2.83.42-.46-.14-.61-.61-.37-1.01.2-.32.52-.47.87-.61,1.75-.54,3.42-1.13,5.01-2.06,2.16-1.27,4.3-2.94,6.15-4.63.69-.63,1.25-1.36,1.78-2.13l3.95-5.66,1.86-2.65,2.41-3.48c.85-1.23,1.66-1.63,3.15-.89,1.06.52,2.02,1.11,3.02,1.72,2.09,1.26,3.75,1.15,6.33,1.72l2.06.45c.33.07.61.17.9.4-.11.38-.35.6-.6.87-1.88,1.62-4.58,1.6-6.87.98-1.06-.29-3.61-1.78-4.57-2.46-.33-.23-1.67-1.28-1.88-1.14-.42,1.57-.59,2.42-1.58,3.79l-1.68,2.33Z"/><path class="l" d="M80.46,62.41c-.79.42-2.59,1.34-2.95.42-.2-.52.26-1.09.77-1.44,1.44-.96,3.06-2.68,3.88-4.18,1.16-2.1,1.95-5.17,2.22-7.57.07-.58.21-1.27.81-1.36.39-.06.75,0,1.11.17.91.4.7,1.57.5,2.42-.89,3.67-1.9,7.74-4.87,10.28l-1.47,1.26Z"/><path class="e" d="M90.45,38.26v-.43c.15-.09.66-.46.84-.38.78.36.54,4.17.47,5.13-.01.14-.17.26-.29.2-1.24-.64-.98-3.08-1.02-4.52Z"/><path class="l" d="M82.04,40.77c-1.11.22-1.58.5-2.28,1.53-1.12,1.65-2.13,3.24-3.43,4.57.13-.59.43-1.15.86-1.67,1.23-1.49,1.73-2.58,2.54-3.54.46-.54,1.8-1.63,2.32-.89Z"/><path class="e" d="M99.1,58.05c.96-.41,1.42-1.37,1.93-2.51,1.34-3.02-.24-8.9,1.48-8.83.5.02.62.53.59,1.07l-.13,2.61-.26,3.07c-.05.57-.17,1.08-.36,1.61l-.62,1.73c-.2.55-.53,1-.99,1.36l-1.32,1.04c-.34.24-.67.42-1.1.48-.19-.15-.23-.33-.14-.52.46-.31.71-.71.92-1.12Z"/><path class="e" d="M133.87,37.83l-2.21.48c-2.64.58-8.42-.29-10.94-1.29l-1.94-.77c-1.46-.58-1.44-1.81-2.14-2.99-.51-.87-1.1-1.65-1.68-2.48-.89-1.27.15-2.5,1.22-3.08l1.9-1.03c3-1.63,5.74-1.43,8.84-.18.7.28,1.35.54,1.99.96.72.48,1.82.61,2.64-.03.14.14.32.27.49.39-.44.91-.45,1.79.18,2.45l1.14,1.2c1.05,1.11,1.92,2.69,2.32,4.2.29,1.1-.55,1.9-1.8,2.17Z"/></g></svg>
