<?xml version="1.0" encoding="UTF-8"?><svg id="a" xmlns="http://www.w3.org/2000/svg" viewBox="0 0 207.4 192.84"><defs><style>.c{fill:#efeee8;}.d{fill:#25578c;}.e{fill:#e4d04f;}.f{fill:#5ea486;}.g{fill:#275990;}.h{fill:#295b90;}.i{fill:#529f9a;}.j{fill:#f4f1e9;}.k{fill:#295c96;}.l{fill:#245487;}.m{fill:#4d9aa9;}.n{fill:#214e7e;}.o{fill:#2a5f9c;}.p{fill:#121314;}.q{fill:#4073a4;}.r{fill:#83b369;}.s{fill:#4d4f55;}.t{fill:#212f40;}.u{fill:#245183;}.v{fill:#38699a;}.w{fill:#2c629f;}</style></defs><g id="b"><path class="w" d="M113.6.5c.09-.01.28.02.38.02.55.85,1.86.43,2.82.43h.42s.48,0,.48,0c.06,0,.15,0,.2,0-.03.55.83.41,1.38.47,5.08.57,9.9,1.75,14.76,3.24.42.13,1.09.18,1.44.21.1,0,.31,0,.41.02,2.14,1.18,6.58,2.63,8.79,3.46.05.02.16-.01.22,0,.44.68,1.28.9,2.1.91.07,0,.16-.01.22,0,1.19.88,3.57,2.05,4.86,2.52.09.03.3,0,.39.04.62,1.08,2.75,2.16,3.8,2.24h.18c1.39,1.42,3.24,2.41,5.04,3.47,1.19.7,1.76,1.16,1.71,2.95l.76-1.09,4.32,3.12c.94.68,1.85,1.17,2.53,2.26h-7.24c-.24-1.52.27-2.73-.27-4.16-.22,1.45-.13,2.63-.18,4.19-1.31.27-2.87.06-4.08-.53-1.13-.55-1.9.47-2.9.47l-17.49.04.03-11.63c0-.24-.25-.71-.33-.86-.06-.13-.59.14-.59.42l.06,12.06-24.5.02.07-11.81c0-.15-.13-.51-.23-.61s-.44-.07-.49.06c-.04.09-.12.46-.12.6l.05,11.76h-24.83c-.07-4.2.33-8.83-.25-12.92-.46,4.36-.19,8.55-.14,12.92h-24.84c-.04-4.05.1-7.95-.32-11.99-.68,4.02.11,7.91-.36,11.98h-21.57c-.36,0-.27-.8-.2-.77.09-.07.31-.13.39-.21l.75-.73.44-.4c.5-.15.93-.48,1.18-.93.1-.06.27-.21.37-.26,1.01-.5,2.96-1.61,3.52-2.75.08,0,.16.03.21,0,.42-.19,1.08-.78,1.35-1.2.19-.08.56-.29.7-.43.86-.2,1.67-.61,2.12-1.36l.19-.02.48-.16c.08-.03.05-.1.05-.25l.19-.02c1-.09,2.79-1.18,3.47-2.1.05-.02.14-.02.19-.04.41-.12,1.12-.53,1.43-.87l.17-.02c.32-.04.81-.41.99-.68.08-.04.25-.06.35-.08.8-.17,4.89-2.07,5.41-2.68.05-.01.14.02.19.01,1.21-.29,3.4-1.23,4.73-1.76,6.84-2.73,13.82-4.56,21.11-5.62.77-.11,1.87.31,2.09-.45.1,0,.29-.01.41-.02l.96-.03c.1,0,.3,0,.4,0,1.34.1,3.95-.34,5.39-.38l6.51-.19c2.02-.06,5.85.43,7.78.14Z"/><path class="d" d="M181.76,129.35c.54-.17,1.63-.82,1.72-1.44s-.77-1.16-1.23-1.3c1.54-3.14-.27-5.11-1.78-7.9-.63-1.15-.3-2.62-.42-4.05l-1.98-.76c-1.41-3.93,1.27-4.54-1.9-4.99l-.54-.08c-1.54-.22,1.47-.98,2.92-1.62,1.32-.59,2.85-.78,3.92-1.78,1.58-.05,3.37-.05,4.82-.8l.03,6.62c.02,5,1.31-7.65,1.64-6.37l9.13,5.78c1.02.65,2.16.66,2.27,2.28.04.51.8,1.22,1.38,1.52-.01.54-.24,1.09.14,1.67,1.09-3.12,1.74-6.15,2.33-9.22.19-.98,1.56-1.25,2.15-.81.02.24.19.72.3.93v.37s-.18.97-.18.97c-.3,1.67-.79,3.38-.94,5.07-.39.91-.92,2.55-1.22,3.47l-.68-.37c-.22-.12-.36.62-.44.85-.09.27.35.48.69.42l-.46,1.83-1.04-2.05c-.79-.06-2,.53-2.23,1.23-.56,1.67-2.03,1.4-3.05,2.22s-1.08,2.63-2.43,3.53c-.48.32-.67,1.62-.65,2.24.03,1.08-.55,1.56-1.14,2.43-.71,1.06-1.16,3.49-.56,4.6.35.64,1.7.55,1.4,1.51l-.71.7c-5.82-2.36-8.85-.83-14.15.11l-4.99.88c-4.27.76-8.55.41-12.87.6-3.13.13-6.09.41-9.22.18-1.64-.12-3.14.24-4.76.33-4.8.26-9.53.35-14.35.54l-7.63.31c-3.75.15-7.31.13-11.05-.18l-5.95-.49c.51.04-27.39.12-25.61.4-12.59-2.03-15.68.92-26.7-2.06-3.05-.83-6.46.54-9.5-.14l-7.62-1.71c-2.28-.51-4.48.77-6.73.96-1.95.17-4.76-1.13-5.41-.32-.8.98.99,1.4,1.28,3.44l-.58.1c-.44-.76-1.6-2.15-2.38-2.56-.07-.03-.15-.16-.2-.22-.1-.23-.33-.87-.53-1.12-4.74-6.01-7.82-12.7-10.76-19.45-.02-.09-.03-.28-.03-.37v-.86c0-.18-.26-.36-.46-.37,0-.06,0-.14-.01-.19l-.23-1.83c.6.07,1.88.37,2.33-.04.69-.63-.09-1.59-.5-2.47,2.61-.3,5.01-.22,7.61.16l7.42-.91c.11-.01-.07-.32-.09-.41-.02-.1.02-.14.1-.3l9.14-1.43c.83-.13,2.14.06,2.41-.82.15-.03.46-.09.61-.05.65.16,1.99-.2,2.58-.53.26-.15.84-.34,1.14-.4.47-.09,1.09-.09,1.19-.64l.63-.1.64-.61.93-.41c.62,1.54,1.07,2.84,1.56,4.28.33.96,1.05,1.58.01,2.61-.88.87.5,2.09.28,2.71-.41,1.16-1.65.4-2.27,4.05-.2,1.19-1.91,1.5-2.86,1.81-5.16,1.67-4.24-.5-13.38,4.01-.35.17-.11,1.27.01,1.6-2.03-.03-3.24,1.12-3.51,3.03-.05.38-.05,1.03.05,1.34.09.26.83.35,1.04.53,1.98,1.72,4.39,2.33,6.9,2.86l7.2,1.53c2.4.51,4.63.96,7.11,1.01l4.82.09c4.82.09,7.6,1.7,13.19,1.29,7.2-.52,7.02.65,11.05.43,1.9-.11,3.76.72,5.65.93,2.65.29,5.3.54,7.97.5l8.5-.13,13.1.19c2.23.03,4.38-.36,6.61-.05,2.44.34,4.8.02,7.25-.06l13.15-.41,9.72-.44,6.9-.45c7.86-.52,7.01.99,12.78-1.14l8.66-3.2c1.17-.43,1.95-1.69,1.54-2.68Z"/><path class="s" d="M36.82,191.25l-7.34,1.59.02-32.46c2.2-.27,4.03-.24,6.1-.13l.81,3.52c.97-.52,1.42-1.04,2.31-1.79,3.69-3.11,10.08-3.17,13.54.48,3.65,3.85,4.05,9.52,2.27,14.3-2.22,5.97-9.13,8.8-14.72,5.82-1.13-.6-1.42-2-2.99-2.4v11.07ZM46.13,176.78c1.66-2.03,1.73-4.6,1.42-7-.36-2.72-2.23-4.68-4.88-4.77-2.5-.08-4.84,1.62-5.22,4.33-.51,3.67-.76,7.91,3.6,8.94,1.93.45,3.84.02,5.09-1.5Z"/><path class="s" d="M156.16,177.81l3.84,5.36-7.08.1c-.51,0-1.13-.4-1.49-.85-.4-.18-7.97-12.93-7.96-9.1v9.89s-7.35.05-7.35.05l.02-33.45,7.33-.94v20.52c.97.07,1.45-.47,1.94-1.1l5.42-7.01c.48-.62,1.29-1.14,2.08-1.12l6.36.1-7.47,8.96c-.52.62-.83,1.63-.33,2.3l4.7,6.29Z"/><path class="g" d="M193.04,136.06l-.02.4c-.26.09-.61.57-.85.71-.47.27-1.35.82-1.69,1.35-.12.05-.31.2-.42.28l-1.2.47c-.45-.56-1.06-1.57-1.84-1.56l-6.49.14c-2.53.05-4.71.08-7.24.44-3.43.49-6.92.09-10.4.16-2.62.05-5.22.66-7.79.48-3.8-.27-7.07-.52-10.68,1.22l-15.81.26c-.28,0-.37.46-.31.44h-6.91l-.02-.34c0-.13-.5-.24-.54-.11l-.13.45h-1.15c-.39-.95-2.37-.81-3.04-.04l-.64.04-.02-.32c0-.08-.28-.22-.31-.14l-.13.46h-5.3c-.01-.21-.15-.5-.33-.51-.32-.02-.67.24-.59.51l-58.78.21h-.42l-16.1-.28c-2.03-.03-5.31.09-6.06-.84-.06-.14-.3-.37-.43-.45-.05-.12-.13-.35-.19-.46l.58-.1c-.29-2.04-2.07-2.46-1.28-3.44.65-.81,3.46.49,5.41.32,2.25-.19,4.45-1.47,6.73-.96l7.62,1.71c3.04.68,6.45-.69,9.5.14,11.01,2.98,14.11.03,26.7,2.06-1.78-.29,26.11-.36,25.61-.4l5.95.49c3.74.31,7.3.33,11.05.18l7.63-.31c4.83-.2,9.55-.28,14.35-.54,1.61-.09,3.12-.45,4.76-.33,3.13.23,6.09-.05,9.22-.18,4.32-.18,8.6.16,12.87-.6l4.99-.88c5.3-.94,8.33-2.47,14.15-.11Z"/><path class="s" d="M77.93,182.31c-4.95,2.3-11.15,2-15.4-1.52-5.39-4.47-5.49-13.08-.32-17.76,3.84-3.47,9.42-4.08,14.16-2.56,4.99,1.6,7.95,5.86,7.99,11.02.03,4.53-2.02,8.76-6.43,10.81ZM76.24,174.82c.63-2.49.57-5.16-.53-7.4-1.04-2.1-3.2-2.89-5.36-2.47-4.49.86-5.03,6.61-3.63,10.25.86,2.24,2.64,3.62,4.98,3.47,2.15-.14,3.94-1.43,4.55-3.85Z"/><path class="s" d="M120.16,178.64c3.29.76,6.4.02,9.58-1.22.76,1.32,1.06,2.97,1.04,4.47-5.89,2.95-16.03,2.83-20.15-3.12-3.28-4.74-2.68-11.56,1.42-15.69,4.13-4.16,12.08-4.58,16.81-.66,3.2,2.65,3.87,7.37,2.9,11.25l-15.78.02c.04,2.49,1.68,4.37,4.18,4.95ZM125.49,169.35c.11-1.44-.32-2.92-1.33-3.88-1.37-1.31-3.55-1.32-5.25-.55-1.58.72-2.55,2.46-2.58,4.41l9.16.02Z"/><path class="s" d="M191.69,178.1c.15,1.38.17,2.76-.07,4.2-3.09,1.36-6.46,1.85-9.68,1.01-2.56-.66-4.09-2.68-4.2-5.29l-.25-6.13c-.09-2.12-.17-3.88.44-5.99l-4.04-.1.08-4.65,4.2-.57c.28-2.64.56-4.79,1.08-7.24l5.53-.91-.03,6.67c-.01,2.42,4.76,1.32,6.76,1.42.3,1.71.31,3.55-.11,5.32l-6.65.02.07,10.62c.02,3.15,4.64,2.16,6.89,1.62Z"/><path class="s" d="M104.01,181.07c-4.12,3.67-11.9,3.26-16.59.81-.23-1.51.06-3.05.46-4.56,2.43,1.63,10.96,3.46,11.2-.22.27-4.27-11.15-2.1-11.81-9.48-.23-2.62.72-4.97,3.27-6.36,4.24-2.31,9.7-1.95,14.14.12l-.49,4.58c-2.92-1.45-6.1-1.88-9.37-1.18-.69.15-.74,1.72-.58,2.31.53,1.94,5.15,1.85,8.65,3.98,1.75,1.07,3,2.82,3.14,4.57.16,2.05-.47,4.05-2.01,5.42Z"/><path class="w" d="M196.97,56.99s0,.14.02.18l.19.47c.03.08.09.05.24.05.02.09.04.29.06.38.26.94.82,2.79,1.61,3.51.01.05,0,.15,0,.2.13.83.53,2.48,1.35,3.01,0,.05,0,.14,0,.21l2.77,8.54-15.29.08v-24.42c1.24.02,3.24-.55,4.14.25,2.28,2.04,3.07,5.8,4.9,7.54Z"/><path class="o" d="M188.42,85.23l.9.12c.4.84,1.9,1.01,2.62.91.09-.01.29-.02.37.01.03.07.13.21.22.29.06.05.25.1.33.1l.83.05c.62.7,1.81.7,2.78.82.2.02.55.09.74.1.4.21.86.28,1.33.33l1.22.11c.6.24,1.23.34,1.89.4l.59.05c.8.39,1.8.64,2.59.3.09.04.28.01.38,0,.09.31.78.43,1.2.43l.47.94.39,5.54c.02.27.43,7.52-.4,6.2,0-.57.16-1.82-.29-2.17-1.17-.94-2.55-.18-3.68.24-1.85.69-3.74.31-5.65-.05-3.1-.58-4.55,1.46-6.73-.35.6-2.18-1.35-5.31-2.77-6.45l.04-6.14c0-.65.26-1.33.62-1.75Z"/><path class="k" d="M36.61,51.24c-2.4-.67-8.19,1.52-8.55,4.09,0,0-.37-.11-.37-.02,0,.14-.02.42-.02.56,0,.85-.15,2.51-.05,3.4-1.1,1.43-3.14,1.3-4.7,2.02-3.36,1.55-4.63,5.08-6.24,8.02-.84,1.53-2.8,2.36-2.85,4.23h-1.3c.35-2.63.19-4.68.28-7.05.09-2.2,1.99-4.79,2.26-7.65.01-.12.06-.36.09-.47l.24-.26c.09-.09.11-.39.21-.47.76-.66,3.12-6.76,4.29-8.49l16.7-.04c.08.8.08,1.49.03,2.13Z"/><path class="g" d="M30.16,74.46c-.05.36-.19,1.02-.51,1.12-.46.14-1.13.03-1.8-.08-2.14-.36-5.46.34-6.97,2.07-.87.99-.9,1.58-2.34,2.06-.79.26-1.86,1.28-2.73,1.68-1.18.54-1.81,1.6-1.7,2.88l.57,6.7c.18,2.15-.83,4.17-.86,6.34-.01.75,1.25,1.34,1.98,1.36l6.3.19c2.59.08,5.15.32,7.63-.01l.03.55-10.15.04-.45,2.39-4.78,1.23c-.82.21-1.43.3-2.02,1.22-.46-.96-1.16-1.45-2-1.1l-.48-1.43c0-.11-.04-.33-.02-.44.14-.97-.09-2.84-.2-4-.66-7.39-.28-14.6.96-21.85.07-.43,1.29-1.3,1.29-.81l.03,11.97c0,.19.3.52.33.42.29-.88-.04-10.31.45-12.61,2.47-.19,4.66.05,7.06.06l10.39.05Z"/><path class="r" d="M41.01,102.33c.16.04.49.03.65.01l1.36.45c.18.06.56.05.76.07l2.44.53c.34.07.79.44.94.74l-.63.1c-.42.07-.9.34-1.19.64-.29.06-.87.25-1.14.4-.83-.19-1.77.15-2.58.53-.15-.04-.46.02-.61.05-.56.1-1.88.38-2.41.82l-9.14,1.43c-4.84.76-13.46.53-17.95.28-.12,0-.33-.05-.46-.07-.04-.23-.49-.62-.76-.67-3.42-.57-6.83-1.09-10.3-2.1,2.14-.58,9.29.49,10.32-.62h.27c1.47,0,2.9-.18,4.34-.26l3.88-.23c.34-.02.86-.14,1.22-.2.38-.07,1.01-.23,1.37-.24,1.25-.02,2.45-.15,3.65-.48.4-.11,1.02-.16,1.22-.4.16,0,.46-.01.64-.02.56-.02,1.1-.17,1.65-.29.4-.09,1.14-.16,1.54-.22.22-.03.66-.25.8-.38l1.27-.11c.14-.01.44-.15.54-.22.1,0,.29.02.38-.01l1.24-.44c.1,0,.29,0,.38-.01,3.43-.81,2.09-.05,6.3.91Z"/><rect class="s" x="163.45" y="160.2" width="7.27" height="23.03"/><path class="q" d="M156.44,14.09c2.58.2,6.77,4.38,9.08,5.86,11.92,7.65,25.54,24.39,31.45,37.05-1.83-1.74-2.62-5.5-4.9-7.54-.9-.81-2.9-.24-4.14-.25v24.42s15.29-.08,15.29-.08l-2.77-8.54c1.05.86,3.1,8.54,3.41,9.98l-.35-.04c-.16-.58-.73-.98-1.43-.96l-14.13.25c.01,2.14-.37,4.53.73,6.27-.57-.18-1.6-.85-2.13-1.15l.77.18v-5.33s-8.3.02-8.3.02c-.19,0-.28.58-.23.53-.29-.22-.73-.72-1.01-.91.63-.16,1.38-.29,2.11-.29l6.44-.02h1.01s-.03-23.27-.03-23.27c0-.64-.32-1.15-.96-1.15h-18.19c-1.61.01-3.08-.06-4.68-.26l.09,8.85c.01,1.15-.13,2.45.66,3.41h-.23s-1.59-2.3-1.59-2.3c0,.07.62,0,.61-.21-.09-2.6-.07-6.45.06-9.44l-9.11.07.42,1.03c-1.09-1.13-2.5-2.06-3.72-3.02l2.19,1.13,10.23-.03-.1-12.16c0-.41-1.13.1-1.5.02l-1.36-.29-.02.53-.34-.1c-.08-.02-.19-.14-.15-.22.07-.11.45-.36.66-.36h7.21c-.33.29-1.22.47-1.77.54-1.21-.19-2.12.59-2.13,1.79l-.09,10.22,23.84-.03-.1-6.42c-3.79-5.33-8.26-9.79-12.97-14.29-.92-.88-1.73-2.18-3.14-2.2l-7.38-.09-.11,7.27,3.19-.06c.77-.01,1.49.4,1.62,1.11s-.03,1.43-.72,1.66c.23-.51.51-2.04-.08-2.13-1.68-.27-3.92-.26-5.65-.26-.57,0-2.2.4-2.22-.19l-.31-7.67c-.05-1.19-2.54-.5-3.06.2l-17.77.08c-.15,5.69-.05,11.08.09,16.49-.34-.01-.81-.03-1.13-.07.28-1.05.15-2.13.16-3.21l.03-2.24v-2.09s.04-8.86.04-8.86l-18.71.07-5.78-.12.02,21.81c-.19.17-.51.49-.7.62l-.2-9.82c-.08-4.11.68-8.23-.33-12.54l-24.35.08-.65-.04-24.15-.06c-.95,4.59-.63,8.96-.46,13.3l.14,3.57-.2,2.8c-.08-.03-.27-.04-.34-.09-.33-2.56-.11-5.15-.36-7.71.49-2.41.11-4.97.15-7.56l.06-4.29-21.92.03c-1.38,0-2.7.79-2.7,2.4l.02,18.11c0,.79-.19,1.65.03,2.49l15.8-.1.23.22-.19.63c-.19.02-.52.06-.69.06l-14.45-.09c-1.05.79-.65,1.57-.8,2.33l-.65-.18c.05-.65.04-1.33-.03-2.13l-16.7.04c-1.16,1.73-3.53,7.83-4.29,8.49,1.13-3.79,3.2-7.21,5.14-10.75.52-.95.93-1.86,1.75-2.4-.41,1.33-1.13,2.46-2.08,3.82h16.23s-.02-20.36-.02-20.36c-1.34.96-2.31,1.88-3.4,2.87-.7,1.29-1.78,2.16-2.72,3.26-2.34,2.72-4.41,5.58-6.4,8.57-.5.75-.96,1.4-1.61,1.84,3.19-6.71,12.37-16.14,17.58-20.5-.07-.03-.16.76.2.76h21.57c.47-4.06-.32-7.95.36-11.97.42,4.04.29,7.94.32,11.99h24.84c-.05-4.37-.31-8.56.14-12.92.59,4.09.18,8.72.25,12.91h24.83s-.05-11.75-.05-11.75c0-.15.08-.52.12-.6.05-.13.39-.16.49-.06s.23.46.23.61l-.07,11.81,24.5-.02-.06-12.06c0-.28.53-.54.59-.42.07.16.33.62.33.86l-.03,11.63,17.49-.04c.99,0,1.77-1.01,2.9-.47,1.21.58,2.76.79,4.08.53.06-1.56-.04-2.73.18-4.19.54,1.44.04,2.64.27,4.17h7.24c-.69-1.1-1.59-1.59-2.53-2.26l-4.32-3.12-.76,1.09c.06-1.79-.52-2.25-1.71-2.95-1.8-1.06-3.65-2.05-5.04-3.46ZM160.83,25.67l-.83-.02c.12,2.52.09,4.58-.05,7.01,1.09.01,2.48.22,3.11-.37l-.03-6.93-2.2.31ZM191.48,48.22c-1.11-1.99-1.92-3.2-3.39-4.87l-.26,4.96c1.36.1,2.28.11,3.64-.09Z"/><path class="v" d="M13.82,73.54l22.74.02.22-9.44c.16-.05.48-.04.66-.05v8.39c.01.31.4.95.76.95l17.99.15c1.27.01,2.44.03,3.47-.47-.41.59-.88,1.15-1.4,1.64-.74-.33-1.56-.3-2.52-.3h-18.27s.02,24.17.02,24.17c2.32.25,4.35.12,6.53-.15l16.77.28c.54,0,1.19-.46,1.19-.98l-.03-11.93-4.56-1.32c-.79-.23-1.61-1.02-1.91-1.59-.46-.86-.46-1.74.03-2.47-1.41,5.03,9.06,5.36,12.2,5.39,7.06.07,12.64-1.62,18.74-4.66.07.09.26.22.37.27-7.65,3.54-15.18,5.83-24.19,4.37l-.1,12.34c0,.62,1.68.69,2.22.53,1.49-.45,1.03-2.95,2.99-3.96-.92,1.44-2.11,4.19-2.76,5.61v-.88c0-.21-.66-.18-.91-.1-1.11.36-2.23.08-3.4.08l-21.97-.09c-.19,0-.76.14-.79.32l-.17.85c-.24,0-.66-.04-.88-.01l-.21-.81c-.18-.71-4.63-.26-5.38-.15-.43-.13-1.02-.22-1.48-.22l-.03-.55c2.25-.3,4.36.62,6.92-.57,0-5.53-.03-16.67-.05-22.31,0-2.35-1.08-1.29-5.8-1.41l-.64-.02-10.39-.05c-2.4-.01-4.59-.25-7.06-.06-.48,2.3-.16,11.74-.45,12.61-.03.09-.33-.23-.33-.42l-.03-11.97c0-.5-1.22.38-1.29.81-1.23,7.25-1.62,14.46-.96,21.85.1,1.16.33,3.03.2,4-2.36-12.59-.05-30.62,5.21-42.39-.27,2.86-2.17,5.45-2.26,7.65-.09,2.37.07,4.42-.28,7.05h1.3Z"/><path class="v" d="M188.86,139.27l.02.24c-.1.05-.3.15-.4.19l-.49.2c-.08.03-.05.09-.03.26-.03.03-.14,0-.18.02-.36.13-.97.54-1.22.86-.1.02-.29,0-.4,0-6.1-.31-12.38-.34-18.47.02h-.42c-2.25-.35-4.7-.35-6.95,0h-.42c-2.02-.35-4.24-.35-6.26,0h-1.11l-24.21-.21c-.06.03.03-.43.31-.44l15.81-.26c3.61-1.74,6.89-1.49,10.68-1.22,2.57.18,5.18-.43,7.79-.48,3.48-.06,6.97.34,10.4-.16,2.53-.36,4.71-.39,7.24-.44l6.49-.14c.78-.02,1.39,1,1.84,1.56Z"/><path class="h" d="M203.44,119.65l-.02.44s.02.15.02.2c-.64.7-1.17,2.26-1.37,3.09-.04.18-.2.5-.26.67-1.02,1.41-1.56,2.88-2.69,4.53l-3.55,5.18c-.16.23-.62.6-.69.86l-1.12.74c.3-.96-1.05-.87-1.4-1.51-.61-1.11-.16-3.54.56-4.6.59-.87,1.17-1.36,1.14-2.43-.02-.62.17-1.92.65-2.24,1.34-.9,1.43-2.73,2.43-3.53s2.49-.55,3.05-2.22c.24-.7,1.44-1.28,2.23-1.23l1.04,2.05Z"/><path class="k" d="M206.88,101.9v.46l-.03,1.41c-4.74-1.55-4.94,6.17-7.63,4.02l-3.78-3.01c-1.44-1.15-4.59-1.23-5.23-3.75.18-.33.23-1.08.33-1.45,2.18,1.81,3.63-.23,6.73.35,1.9.36,3.8.73,5.65.05,1.13-.42,2.5-1.17,3.68-.24.45.36.29,1.61.29,2.17Z"/><path class="g" d="M206.85,103.77c0,.06.04.14.08.22l-.02,1.37c-.19,0-.45-.04-.48.11s-.08.48-.07.63c-.59-.44-1.96-.18-2.15.81-.6,3.07-1.25,6.1-2.33,9.22-.38-.58-.15-1.13-.14-1.67-.58-.3-1.35-1-1.38-1.52-.12-1.62-1.25-1.63-2.27-2.28l-9.13-5.78c-.33-1.28-1.62,11.37-1.64,6.37l-.03-6.62c1.17-.6,2.35-2.58,2.92-3.6.64,2.52,3.79,2.6,5.23,3.75l3.78,3.01c2.69,2.15,2.89-5.57,7.63-4.02Z"/><path class="m" d="M197.67,83.22c.73.19,7.75,2.12,8.06,1.57l.24-.42c.29,1.06.63,3.16.65,4.36l-1.4.07c-.1,0-.29.03-.38,0-.61-.26-1.88-.52-2.59-.3l-.59-.05c-.41-.54-1.24-.34-1.89-.4l-1.22-.11c-.34-.26-.93-.31-1.33-.33-.19,0-.54-.07-.74-.1-.79-.52-1.81-.76-2.78-.82l-.83-.05c-.01-.13,0-.19-.08-.22l-.48-.17c-.09-.03-.28-.03-.37-.01-.85-.36-1.73-.66-2.62-.91l-.9-.12-.9-.75c2.66.65,6.57-.45,5.74-1.78-.45-.72-2.75-.62-3.88-1.97,2.05.66,6.04,1.93,8.29,2.5Z"/><path class="s" d="M170.21,154.99c-1.55,1.27-4.46,1.26-6.07.21s-1.62-4.21-.18-5.38c1.66-1.34,4.53-1.41,6.2-.12,1.4,1.08,1.53,4.07.05,5.29Z"/><path class="k" d="M203.51,74.94l.35.04c.47,2.16,1.39,5.95,1.71,7.97.02.14,0,.46-.01.64,0,.14.14.14.35.16.01.05.01.15.02.2-.1.08-.08.12.03.22,0,.05-.02.16,0,.21l-.24.42c-.31.54-7.33-1.39-8.06-1.57.42-.06,1.62-.19,1.79-.63.78-2.09,1.88-3.95,3.14-5.7.41-.56.2-1.69.92-1.95Z"/><path class="k" d="M29.46,108.1c-.08.16-.12.2-.1.3.02.09.2.4.09.41l-7.42.91c-2.6-.39-5-.46-7.61-.16.4.88,1.18,1.84.5,2.47-.44.41-1.72.11-2.33.04l-.63-.72c0-.06-.02-.17-.03-.23l-.42-2.74c4.49.26,13.11.48,17.95-.28Z"/><polygon class="q" points="109.18 140.84 110.1 140.84 115.4 140.84 115.86 140.84 116.5 140.8 119.55 140.84 120.7 140.84 121.39 140.84 128.3 140.84 152.52 141.05 50.4 141.05 109.18 140.84"/><path class="q" d="M24.61,136.25c-4.16-4.2-9.81-14.85-11.29-20.57,2.94,6.75,6.02,13.44,10.76,19.45.19.25.42.89.53,1.12Z"/><path class="q" d="M92.16.98c-.22.77-1.32.34-2.09.45-7.29,1.06-14.26,2.89-21.11,5.62-1.34.53-3.53,1.47-4.73,1.76,6.89-4.09,20.67-7.15,27.93-7.83Z"/><path class="q" d="M113.6.5c-1.93.29-5.76-.2-7.78-.14l-6.51.19c-1.43.04-4.05.48-5.39.38-.06-.07.14-.39.25-.4,6.59-.45,13.11-.93,19.43-.04Z"/><path class="q" d="M135.47,4.88c-.35-.03-1.02-.08-1.44-.21-4.86-1.48-9.68-2.67-14.76-3.24-.55-.06-1.41.08-1.38-.47,4.49.42,13.06,1.94,17.57,3.91Z"/><path class="q" d="M49.97,141.05l-20.52.04c-.74,0-1.44-.69-1.63-1.15.75.93,4.02.81,6.06.84l16.1.28Z"/><path class="q" d="M186.16,141.04l-18.47.02c6.09-.35,12.38-.33,18.47-.02Z"/><path class="q" d="M144.67,8.36c-2.21-.82-6.65-2.28-8.79-3.46,1.44.42,8.04,2.45,8.79,3.46Z"/><path class="q" d="M195.56,133.75l3.55-5.18c1.13-1.65,1.67-3.12,2.69-4.53-1.32,3.56-3.54,7.05-6.24,9.7Z"/><path class="q" d="M203.42,120.08l.02-.44.46-1.83c.06-.24.34-.67.42-.91.29-.91.82-2.55,1.22-3.47-.14,1.64-1.08,5.78-2.12,6.65Z"/><path class="q" d="M152.06,11.8c-1.29-.47-3.67-1.64-4.86-2.52,1.31.42,3.82,1.42,4.86,2.52Z"/><path class="q" d="M27.2,139.03c.06.11.14.33.19.46-.85-.54-2.23-1.94-2.57-3.02.78.41,1.94,1.8,2.38,2.56Z"/><path class="q" d="M156.26,14.08c-1.05-.08-3.18-1.16-3.8-2.24,1.01.45,3.01,1.33,3.8,2.24Z"/><path class="q" d="M64.04,8.8c-.53.61-4.61,2.51-5.41,2.68,1.22-1.04,3.96-2.24,5.41-2.68Z"/><path class="q" d="M203.43,120.28c-.1.86-.53,2.54-1.37,3.09.2-.83.73-2.39,1.37-3.09Z"/><path class="q" d="M199.08,61.59c-.79-.72-1.35-2.57-1.61-3.51.74.77,1.35,2.57,1.61,3.51Z"/><path class="q" d="M167.26,141.05h-6.95c2.25-.35,4.7-.35,6.95,0Z"/><path class="q" d="M200.44,64.79c-.82-.52-1.22-2.17-1.35-3.01.67.65,1.23,2.18,1.35,3.01Z"/><path class="q" d="M159.89,141.05h-6.26c2.02-.35,4.24-.35,6.26,0Z"/><path class="q" d="M194.87,134.62c-.17.65-1.21,1.62-1.85,1.85l.02-.4.71-.7,1.12-.74Z"/><path class="v" d="M10.36,103.1l.24,1.14v.69s-.28,0-.28,0c-.26-.86-.45-2.43-.45-3.26l.48,1.43Z"/><path class="q" d="M116.8.96c-.96,0-2.27.42-2.82-.43.73-.05,2.23-.17,2.82.43Z"/><path class="q" d="M55.49,13.18c-.68.91-2.47,2-3.47,2.1.79-.79,2.51-1.75,3.47-2.1Z"/><path class="q" d="M12.6,112.07l.23,1.83c-.54-.73-.78-1.63-.86-2.54l.63.72Z"/><path class="q" d="M11.51,108.38l.42,2.74c-.47-.64-.74-2.08-.88-2.81.12.02.34.06.46.07Z"/><path class="q" d="M146.99,9.27c-.81-.02-1.66-.23-2.1-.91.57.11,1.6.53,2.1.91Z"/><path class="q" d="M46.73,18.72c-.57,1.14-2.51,2.24-3.52,2.75.97-1.12,2.23-2,3.52-2.75Z"/><path class="q" d="M192.17,137.17c-.27.56-1.18,1.15-1.69,1.35.34-.53,1.22-1.08,1.69-1.35Z"/><path class="k" d="M206.9,105.36c0,.44-.24,1.25-.25,1.67-.11-.21-.27-.69-.3-.93-.01-.14.04-.48.07-.63s.29-.11.48-.11Z"/><path class="q" d="M48.29,17.52c-.27.42-.93,1.01-1.35,1.2.19-.51.91-1.01,1.35-1.2Z"/><path class="q" d="M57.11,12.27c-.31.34-1.02.75-1.43.87.28-.43.96-.8,1.43-.87Z"/><path class="q" d="M206.62,88.73c0,.13.01.38.03.5h-.23c-.42,0-1.1-.12-1.2-.43l1.4-.07Z"/><path class="q" d="M42.83,21.72c-.24.45-.68.79-1.18.93.38-.34.75-.66,1.18-.93Z"/><path class="q" d="M51.11,15.72c-.45.75-1.26,1.17-2.12,1.36.46-.44,1.5-1.3,2.12-1.36Z"/><path class="q" d="M187.79,140.16c-.25.32-.85.78-1.22.86.26-.32.86-.74,1.22-.86Z"/><path class="q" d="M13.29,115.31c-.31-.11-.44-.79-.46-1.23.2,0,.45.18.45.37v.86Z"/><path class="q" d="M190.06,138.8c-.37.26-.78.5-1.18.7l-.02-.24,1.2-.47Z"/><path class="q" d="M58.28,11.56c-.19.27-.67.64-.99.68.25-.23.71-.56.99-.68Z"/><path class="m" d="M206.89,90.17l-.47-.94h.23c.04.24.22.7.24.94Z"/><path class="q" d="M41.21,23.05l-.75.73.75-.73Z"/><path class="o" d="M206.92,103.99c-.03-.08-.08-.16-.08-.22l.03-1.41c.32.38.05,1.09.04,1.63Z"/><path class="m" d="M205.91,83.74c-.22-.02-.36-.02-.35-.16,0-.18.03-.5.01-.64.11.16.27.56.34.79Z"/><path class="q" d="M197.41,57.7c-.15,0-.21.02-.24-.05l-.19-.47c.08,0,.26.09.31.2.03.07.09.25.11.33Z"/><path class="q" d="M188.48,139.69c-.09.09-.38.33-.52.45-.01-.16-.05-.22.03-.26l.49-.2Z"/><path class="q" d="M51.84,15.29c0,.15.03.23-.05.25l-.48.16c0-.08.09-.27.21-.3l.33-.11Z"/><path class="q" d="M93.53.93l-.96.03.96-.03Z"/><path class="k" d="M206.47,108.37l.18-.97-.18.97Z"/><path class="q" d="M117.7.97h-.48s.48,0,.48,0Z"/><path class="v" d="M15.15,58.37c.02-.08.2-.24.24-.26l-.24.26Z"/><path class="m" d="M205.97,84.16c-.12-.11-.13-.14-.03-.22l.03.22Z"/><path class="l" d="M64.95,100.33c-.05.11-.19.3-.26.41-.03.01-.2.17-.22.24-1.3,3.35-4.67,9.56-6.7,12.52-3.39,4.95-9.12,9-14.64,9.95-.49.08-1.11.77-1.14,1.18-.11,1.48,2.08,1.58,3.09,1.5-.35.03-1.18.44-1.13.89.18,1.56,2.53,2.36,3.89,3,1.98.94,3.32,1.1,5.44.94,2.32-.17,4.87.79,7.27.75,2.13-.03,3.94.32,6.07.73,2.62.51,5.89-.88,8.24.52,1.69,1.01,4.51.99,5.32-.21-.11.36-.22,1-.12,1.32.29.99,2.06.63,2.62.52-1.17.36,10.27,1.6,9.84,2.03.15-.15.31-.4.62-.84.52,1.07,1.75.34,2.65.51,2.74.53,5.3.81,8.1.65,3.95-.22,7.79.05,11.73.13,2.16.04,4.31-.42,6.43.11s3.9-.07,5.97-.28c1.73-.17,3.58-.12,5.34-.16,2.81-.07,5.42-.7,8.15-.96l6.32-.61c-1.77.17,9.14-2.56,9.81-2.56,2.35.02,4.16-.72,6.25-1.61,1.15-.49,2.68.31,3.77-.67,2.3-2.06,3.89-1.96,4.21-2.86.16-.45-1.32-.74-1.15-.99l.47-.69c2.07,1.25,6.17,2.41,8.29,3.04.04.09.05.13.13.15.07.02.25.06.32.06h.46c.13.06.35.19.48.22.22.06.68.11.9.04.41.99-.37,2.24-1.54,2.68l-8.66,3.2c-5.77,2.13-4.92.62-12.78,1.14l-6.9.45-9.72.44-13.15.41c-2.45.08-4.81.4-7.25.06-2.23-.31-4.38.09-6.61.05l-13.1-.19-8.5.13c-2.67.04-5.32-.22-7.97-.5-1.89-.2-3.74-1.03-5.65-.93-4.03.22-3.86-.95-11.05-.43-5.59.41-8.37-1.2-13.19-1.29l-4.82-.09c-2.48-.05-4.71-.5-7.11-1.01l-7.2-1.53c-2.51-.53-4.92-1.14-6.9-2.86-.21-.18-.95-.27-1.04-.53-.1-.31-.11-.97-.05-1.34.28-1.91,1.48-3.07,3.51-3.03-.12-.33-.36-1.43-.01-1.6,9.14-4.52,8.22-2.34,13.38-4.01.95-.31,2.66-.61,2.86-1.81.61-3.65,1.86-2.89,2.27-4.05.22-.62-1.16-1.83-.28-2.71,1.04-1.03.31-1.66-.01-2.61-.49-1.44-.94-2.74-1.56-4.28l-.93.41-1.83-.47.25-1.1c-1.04-.13-1.88.19-2.44.91-.2-.01-.58,0-.76-.07v-.6s-1.36.15-1.36.15c-.16.02-.49.02-.65-.01-.83-1.22-2.33-.33-3.3-1.83l.17-.85c.03-.17.6-.32.79-.32l21.97.09c1.17,0,2.29.29,3.4-.08.25-.08.91-.11.91.1v.88Z"/><path class="c" d="M148.64,95.01l6.73,10c3.39,5.04,7.02,9.72,11.68,13.66s9.76,6.21,15.21,7.93c.45.14,1.32.71,1.23,1.3s-1.18,1.27-1.72,1.44c-.21.07-.68.02-.9-.04-.08-.07-.35-.22-.48-.22h-.46c-.12-.06-.33-.18-.45-.22-2.12-.63-6.22-1.78-8.29-3.04-7.84-4.75-9.11-5.73-15.5-12.84-3.35-3.73-5.97-7.86-8.91-11.79l-.73-.98c-.06-.12-.19-.32-.23-.44-.74-2.29-.53-5.68-2.22-4.29-2.25,1.86-4.58,3.25-6.98,4.69-.07.02-.19.02-.26.05-1.6.8-5.05,1.5-6.95,1.64-.17-.02-.52-.03-.68.01-3.88-1.06-4.44-.63-7.55-3.66l-.19-.56s6.43-1.05,6.17-1.04c4.06-.15,7.82-.97,11.02-3.4,3.5.48,7,1.04,10.45,1.78Z"/><path class="l" d="M151.12,95.45l8.3,12.46c6.42.87,12.89.71,19.13-.71-1.44.65-4.46,1.41-2.92,1.62l.54.08c3.17.45.49,1.06,1.9,4.99l1.98.76c.12,1.44-.2,2.9.42,4.05,1.52,2.79,3.32,4.77,1.78,7.9-5.45-1.72-10.74-4.14-15.21-7.93s-8.29-8.63-11.68-13.66l-6.73-10c.78.17,1.7.32,2.49.44Z"/><path class="j" d="M175.08,99.31l.25.04,1.57.23c.66,2.92,2.77,4.94,5.57,5.84-1.07,1-2.61,1.19-3.92,1.78-6.24,1.43-12.7,1.59-19.13.71l-8.3-12.46,23.95,3.86Z"/><path class="t" d="M185.39,91.83c.07.1.39.34.55.39l1.39.48c.14.05.32.31.44.41,1.42,1.15,3.37,4.28,2.77,6.45-.1.38-.15,1.13-.33,1.45-.57,1.02-1.75,3-2.92,3.6-1.44.75-3.24.75-4.82.8-2.8-.91-4.91-2.92-5.57-5.84-.25-1.1.84-2.49.26-3.62.9-1.3,2.98-3.15,4.17-3.95.18-.12.64-.22.86-.22l3.19.05ZM187.38,98.63c0-2.03-1.64-3.67-3.67-3.67s-3.67,1.64-3.67,3.67,1.64,3.67,3.67,3.67,3.67-1.64,3.67-3.67Z"/><path class="u" d="M47.79,103.51l-.64.61c-.15-.3-.6-.67-.94-.74l-2.44-.53c.56-.73,1.4-1.05,2.44-.91l-.25,1.1,1.83.47Z"/><path class="u" d="M44.19,105.27c-.59.33-1.93.68-2.58.53.81-.38,1.75-.71,2.58-.53Z"/><path class="h" d="M204.32,116.9c-.08.24-.36.66-.42.91-.35.06-.78-.15-.69-.42.07-.23.22-.97.44-.85l.68.37Z"/><path class="u" d="M41.01,105.85c-.26.88-1.57.69-2.41.82.52-.44,1.85-.72,2.41-.82Z"/><path class="u" d="M46.52,104.23c-.1.55-.72.55-1.19.64.29-.3.76-.57,1.19-.64Z"/><path class="v" d="M119.55,140.84l-3.04-.04c.68-.77,2.65-.91,3.04.04Z"/><path class="v" d="M110.1,140.84h-.92c-.08-.27.27-.54.59-.51.18.01.32.3.33.51Z"/><path class="v" d="M121.39,140.84h-.69l.13-.45c.04-.13.53-.02.54.11l.02.34Z"/><path class="v" d="M115.86,140.84h-.46l.13-.46c.02-.08.3.06.31.14l.02.32Z"/><path class="q" d="M187.52,84.47l.9.75c-.36.42-.61,1.11-.62,1.75l-.04,6.14c-.12-.09-.3-.36-.44-.41v-6.26c0-.83-.45-1.69-.93-2.25l1.13.28Z"/><path class="q" d="M196.48,87.52c-.97-.12-2.16-.12-2.78-.82.97.06,1.99.3,2.78.82Z"/><path class="q" d="M204.84,88.79c-.8.34-1.79.09-2.59-.3.71-.22,1.98.04,2.59.3Z"/><path class="q" d="M191.95,86.25c-.72.1-2.22-.07-2.62-.91.89.25,1.77.55,2.62.91Z"/><path class="q" d="M201.66,88.45c-.65-.05-1.29-.15-1.89-.4.65.06,1.48-.15,1.89.4Z"/><path class="q" d="M198.55,87.94c-.47-.04-.93-.12-1.33-.33.4.02.99.07,1.33.33Z"/><path class="q" d="M192.87,86.65c-.08,0-.27-.05-.33-.1-.09-.07-.19-.21-.22-.29l.48.17c.08.03.06.09.08.22Z"/><path class="g" d="M27.62,59.27c.49,4.29,6.42,5.77,9.16,4.85l-.22,9.44-22.74-.02c.05-1.87,2.01-2.7,2.85-4.23,1.61-2.94,2.88-6.47,6.24-8.02,1.56-.72,3.6-.59,4.7-2.02Z"/><path class="t" d="M36.61,51.24l.65.18,1.84,1.24c.72,1.12,1.8,2.24,1.93,3.59l.22,2.27c-.59,1.01-1.14,2.12-.95,3.27-1.05.62-2.01,1.42-2.86,2.3-.17,0-.5,0-.66.05-2.74.92-8.67-.56-9.16-4.85-.1-.89.05-2.55.05-3.4.11-.05.37-.38.4-.54.36-2.58,6.15-4.76,8.55-4.09ZM38.12,57.72c0-2.04-1.65-3.69-3.69-3.69s-3.69,1.65-3.69,3.69,1.65,3.69,3.69,3.69,3.69-1.65,3.69-3.69Z"/><path class="g" d="M28.07,55.33c-.02.17-.29.49-.4.54,0-.14.02-.42.02-.56,0-.09.37.02.37.02Z"/><path class="d" d="M30.8,74.48c.16,1.9,3.86.54,5.8,1.41.02,5.64.04,16.78.05,22.31-2.57,1.19-4.67.27-6.92.57-2.48.33-5.04.09-7.63.01l-6.3-.19c-.74-.02-1.99-.61-1.98-1.36.03-2.17,1.04-4.19.86-6.34l-.57-6.7c-.11-1.28.52-2.33,1.7-2.88.87-.4,1.94-1.42,2.73-1.68,1.44-.48,1.47-1.07,2.34-2.06,1.51-1.72,4.83-2.43,6.97-2.07.67.11,1.35.22,1.8.08.32-.1.46-.76.51-1.12l.64.02Z"/><path class="d" d="M29.76,99.31c.47,0,1.06.09,1.48.22-.6.09-1.45.65-2.18.6-1.65-.12-2.86.59-4.18,1.39s-2.75,1.28-3.48,2.48c-.36,0-.99.17-1.37.24l-.64-.31c-.21-.1-.75.29-.58.51l-3.88.23c-1.4-.32-2.9-.47-4.33-.42l-.24-1.14c.83-.35,1.53.14,2,1.1.59-.92,1.2-1.01,2.02-1.22l4.78-1.23.45-2.39,10.15-.04Z"/><path class="l" d="M36.83,100.49c-.58.08-1.84.46-2.12.93-.09.02-.28.01-.38.01-.48-.17-.98,0-1.24.44-.09.03-.28.01-.38.01l-.4-.23c-.1-.06-.15.43-.14.45l-1.27.11c-.14.01-.48,0-.64,0-.14,0-.14.16-.15.38-.4.06-1.13.13-1.54.22-.46-.34-1.22-.11-1.65.29-.18,0-.47.02-.64.02l-.87-.02c-.19,0-.35.2-.34.43-1.2.33-2.41.46-3.65.48.73-1.21,2.21-1.71,3.48-2.48s2.53-1.51,4.18-1.39c.73.05,1.58-.51,2.18-.6.75-.11,5.2-.56,5.38.15l.21.81Z"/><path class="u" d="M36.83,100.49c.22-.03.65,0,.88.01.97,1.5,2.46.61,3.3,1.83-4.21-.96-2.87-1.72-6.3-.91.27-.47,1.53-.85,2.12-.93Z"/><path class="l" d="M14.93,104.67c-1.44.08-2.87.27-4.34.26v-.69c1.44-.04,2.94.1,4.34.42Z"/><polygon class="u" points="43.01 102.79 41.66 102.34 43 102.19 43.01 102.79"/><path class="u" d="M28.57,102.81c-.55.12-1.1.27-1.65.29.44-.4,1.19-.63,1.65-.29Z"/><path class="l" d="M20.04,104.24c-.36.06-.88.18-1.22.2-.16-.22.37-.61.58-.51l.64.31Z"/><path class="u" d="M26.27,103.12c-.19.24-.82.29-1.22.4,0-.23.15-.43.34-.43l.87.02Z"/><path class="u" d="M34.33,101.43l-1.24.44c.25-.44.76-.61,1.24-.44Z"/><path class="u" d="M30.9,102.21c-.14.12-.58.34-.8.38.01-.22.01-.38.15-.38.17,0,.5.01.64,0Z"/><path class="u" d="M32.72,101.89c-.1.06-.4.2-.54.22,0-.02.04-.51.14-.45l.4.23Z"/><path class="r" d="M137.57,41.74c.32.04.79.05,1.13.07.21,0,.64-.04.83.04,1.83.75,5.63,1.75,7.29,2.9,1.48,1.03,2.69,1.58,3.84,2.5,1.22.97,2.63,1.9,3.72,3.02l7.14,7.39.69.86.2.3,1.59,2.3c-.46,1.04-.96,2.02-1.69,3.28-2.89-3.71-5.59-7.31-9.16-9.97l-.64-.47c-.29-.32-.63-.64-.97-.91-2.08-1.64-4.42-2.92-6.87-3.92-.59-.24-1.43-.63-2.05-.71.73-1.07-11.9-2.02-11.15-.93h-.62s-2.04.03-2.04.03c-.1,0-.09.56-.07.48h-.46c-.41,0-.92.04-1.17.24-.81.12-2.45.5-3.04,1.07-.1,0-.3.03-.4.05-.08.01-.24.18-.25.22-2.08.61-6,2.13-7.82,3.66-.66-.07-1.64.7-2.12,1.06l-1.36,1.02c1.52-1.14-7.45,4.19-7.2,4.52-.67.09-1.96.28-2.67.44l-9.8,2.28c.4-.79.95-1.6,1.5-2.02l6.75-5.06c1.06-.79,2.14-1.43,2.91-2.38.05.02.16.01.21-.02l.55-.39c1.28-.69,3.59-2.22,4.94-3.06.35-.22.86-.79,1.21-.95.54-.26,1.61-.61,2.08-.94.19-.13.51-.45.7-.62,1.92-.61,3.71-1.54,5.72-2.37,5.94-2.46,12.23-3.81,18.53-2.98Z"/><path class="k" d="M112.43,37.89l.2,9.82c-.47.33-1.54.68-2.08.94-.82-.33-1.71-.36-2.76-.36l-20,.05.16-10.46c2-1.18.61-3.36,2.65-3.84.84-.19,1.17.8,1.81,1.12,1.02.51,3.08,1.68,4.28,1.61,3.94-.25,7.44-.06,11.35.37,1.49.16,3.19-.57,4.38.75Z"/><path class="k" d="M61.73,37.19c.24,2.56.03,5.15.36,7.71-1.76-1.26-6.64.23-7.93,1.97-.07.09-.37-.04-.48-.04s-.11.1-.09.21l.13.54c.02.1-.02.3-.07.39l-.49.29-15.8.1c-.22-.83-.03-1.7-.03-2.49.92-.49.56-1.47.62-2.38l.35-5.57c.1-1.65,2.2-2.6,3.7-2.48,4.39.36,2.28-1.31,6.24.14,1.97-1.37,3.98-1.27,6.03-.21,1.42.74,3.84.74,5.1-.27.74-.59,1.14-1.64,2-1.68l.36,3.76Z"/><path class="o" d="M119.09,25.4c.4.51,1.09.62,1.85.65l.54.02c.1,0,.18.28.09.33l-.41.28c-.41.28-.92.89-.85,1.33.08.47.86.96,1.33.99,4.17.33,1.95,2.53,5.45,3.14,1.22.21,2.76.4,3.63,1.16s0,1.99,0,2.8c-.02,1.99,1.85,2.97,3.47,3.5s2.52.09,3.54-1.08c-.01,1.08.12,2.16-.16,3.21-6.3-.83-12.59.52-18.53,2.98-2,.83-3.8,1.75-5.72,2.37l-.02-21.81,5.78.12Z"/><path class="o" d="M112.43,37.89c-1.19-1.32-2.89-.58-4.38-.75-3.91-.43-7.4-.63-11.35-.37-1.19.08-3.25-1.09-4.28-1.61-.64-.32-.97-1.32-1.81-1.12-2.05.47-.65,2.65-2.65,3.84l-.2-12.45,24.35-.08c1.01,4.31.25,8.44.33,12.54Z"/><path class="o" d="M87.1,25.39c.23,3.34-.02,6.74-.01,10.11-3.01-.74-1.14,2.39-5.16,1.52-1.9-.41-3.89-.18-5.74-.72-1.63-.48-3.21-.82-4.87-1.17-5.44-1.18-5.28,1.26-8.83,3.49-.17-4.34-.49-8.71.46-13.3l24.15.06Z"/><path class="o" d="M61.73,37.19l-.36-3.76c-.86.04-1.26,1.09-2,1.68-1.26,1.01-3.67,1.01-5.1.27-2.04-1.06-4.06-1.16-6.03.21-3.96-1.45-1.85.22-6.24-.14-1.5-.12-3.6.83-3.7,2.48l-.35,5.57c-.06.91.3,1.89-.62,2.38l-.02-18.11c0-1.6,1.32-2.4,2.7-2.4l21.92-.03-.06,4.29c-.04,2.6.34,5.16-.15,7.56Z"/><path class="w" d="M156.37,25.43l.21,7.22-6.66-.16c-.57-.01-1.18.53-1.34.98-.28.71.22,1.4.23,2.07l.05,2.04c.04,1.62.11,3.41-.88,4.75-.72.97-2.83-.72-3.65,1.03-1.32-.95-3.16-1.9-4.79-1.52-.19-.08-.62-.03-.83-.04-.14-5.42-.24-10.8-.09-16.49l17.77-.08s-.02.12-.01.19Z"/><path class="g" d="M87.1,41.49l.23,6.81-21.47-.02c-.4-1.15-2.27-2.92-3.43-3.28l.2-2.8c6.92-2.25,6.29-2.11,12.73-.52,2.6.64,5.35-.52,7.8,1.39,1.48,1.16,1.89-3.16,3.94-1.58Z"/><path class="w" d="M137.77,34.19l-1-1.52c-.84.47-1.25,1.5-.88,2.42.34.83.87,1.54,1.86,1.19l-.03,2.24c-1.02,1.17-1.97,1.59-3.54,1.08s-3.49-1.51-3.47-3.5c0-.8.86-2.05,0-2.8s-2.41-.95-3.63-1.16c-3.5-.61-1.28-2.81-5.45-3.14-.47-.04-1.25-.52-1.33-.99-.07-.44.44-1.06.85-1.33l.41-.28c.08-.05,0-.33-.09-.33l-.54-.02c-.76-.03-1.46-.14-1.85-.65l18.71-.07-.03,8.86Z"/><path class="k" d="M87.09,35.51l.02,5.99c-2.05-1.58-2.46,2.74-3.94,1.58-2.45-1.92-5.2-.75-7.8-1.39-6.44-1.59-5.81-1.73-12.73.52l-.14-3.57c3.55-2.23,3.39-4.67,8.83-3.49,1.65.36,3.24.69,4.87,1.17,1.85.54,3.83.31,5.74.72,4.02.87,2.16-2.27,5.16-1.52Z"/><path class="e" d="M167.7,35.29c-.06.12-.12.4-.22.49h-7.21c-.21.01-.59.26-.66.37-.05.08.07.19.15.22l.34.1c-.04.98-.06,2.73-.04,3.64-.63.34-.62,1.58-.01,1.94v.82c-.12,0-.17,0-.2.07l-.19.47c-.33.7-2.29,1.26-2.66.06,0-.03-.63-6.98-.11-7.62-2.82-.23-5.51.21-8.08-.31-.01-.68-.52-1.37-.23-2.07.66-.75,6.71-.51,8.28-.51l.08-6.03c0-.64-.12-1.19-.56-1.5,0-.07-.02-.16.01-.19.53-.7,3.01-1.39,3.06-.2l.31,7.67c.02.59,1.65.19,2.22.19,1.73,0,3.97-.02,5.65.26.58.1.31,1.62.08,2.13Z"/><path class="t" d="M62.09,44.9c.07.05.26.06.34.09,1.16.36,3.03,2.14,3.43,3.28.08.23.38.63.43.86.34,1.36.02,4.27-.65,5.51-.17.31-.92.77-.72,1.15-1.29-.23-1.9,1.59-2.84,1.86-2.53.73-5.32.2-7.14-1.62s-2.5-4.45-1.76-6.92l.19-.63c.04-.14.2-.38.26-.51.04-.09.09-.29.07-.39.13-.15.32-.48.44-.71,1.28-1.74,6.17-3.24,7.93-1.97ZM63.37,51.2c0-2.05-1.66-3.72-3.72-3.72s-3.72,1.66-3.72,3.72,1.66,3.72,3.72,3.72,3.72-1.66,3.72-3.72Z"/><path class="v" d="M87.75,25.43l.2,12.45-.16,10.46,20-.05c1.05,0,1.93.03,2.76.36-.35.16-.86.74-1.21.95,1.56-.66-6.81-.55-6.91-.55l-14.38.18c-.48,0-.27,1.32-.25,1.76.09,1.43.18,4.3.35,5.72.02.16,0,.5-.04.66-.16.04-.29.05-.27.15.03.12.11.33.11.44l-.18,4.52c-.06,1.52.12,2.71.44,3.99-.41-.32-1.24-.88-1.7-1.1.09.07.75.14.75-.2l.03-15.98-21-.03c-.06-.23-.35-.64-.43-.86l21.47.02-.23-6.81-.02-5.99c0-3.37.24-6.77.01-10.11l.65.04Z"/><path class="o" d="M137.77,34.19v2.09c-1.01.35-1.54-.36-1.87-1.19-.37-.91.04-1.94.88-2.42l1,1.52Z"/><path class="d" d="M58.25,74.74l-.19.43c-1.01.74-1.85,2.82-2.1,3.92-.02.1,0,.33-.05.43-.1.01-.28.09-.31.21l-.1.5c-.01.05,0,.16,0,.23-.5.73-.49,1.62-.03,2.47.31.57,1.12,1.36,1.91,1.59l4.56,1.32.03,11.93c0,.51-.65.98-1.19.98l-16.77-.28c-2.18.26-4.22.39-6.53.15l-.02-24.16h18.27c.96,0,1.77-.04,2.52.29Z"/><path class="j" d="M61.76,67.51c.16,0,.46.04.62.06,2.08.19-.5,4.5,6,7.22,2.36.99,6.33-1.19,7.59-2.9l7.85,2.58c-.87,2.19,1.45,5.27,2.62,6.71-6.1,3.04-11.68,4.74-18.74,4.66-3.14-.03-13.6-.36-12.2-5.39,0-.07,0-.18,0-.23l.4-.71c.05-.09.02-.32.05-.43.64-1.07,1.7-3.03,2.1-3.92l.19-.43c.53-.49.99-1.05,1.4-1.64,1.27-1.83,3.22-3.08,2.8-4.1-.18-.43-.75-.96-1.14-1.36.11-.04.33-.13.44-.13Z"/><path class="c" d="M88.19,95.42l-1.14.46-.91.46c-.05.03-.19-.03-.23.01l-.22.23c-.08,0-.17,0-.23.01l-.69.22c-.05.02-.19-.03-.23,0l-.23.22c-.07,0-.17,0-.23,0-1.4.13-4.14.51-5.57.91h-.64c-.56,0-1.1-.01-1.67.03-.36.03-.99.04-1.33,0-.94-.11-2.12-.6-2.58.46-.04.01-.15-.02-.19,0-.33.2-.79.76-.96,1.14-.05.12-.16.36-.25.44-.7.67-1.74,2.22-2.05,3.25l-5.35,10.07c-1.01,1.91-2.45,3.45-3.63,5.14-2.13,2.3-6.82,5.09-9.44,6.18-.12.05-.33.17-.45.24h-.23s-.93.45-.93.45c-.05.02-.18,0-.23.01l-.72.22c-.1.03-.32-.01-.42.03l-.51.2-1.09.03-.26.24-.49.04c-1.01.08-3.2-.02-3.09-1.5.03-.41.65-1.1,1.14-1.18,5.53-.94,11.25-5,14.64-9.95,2.03-2.97,5.4-9.18,6.7-12.52.28-.03.42-.03.22-.24.07-.11.21-.3.26-.41.66-1.42,1.85-4.17,2.76-5.61,0-.06-.01-.12,0-.16.61-.55,1.16-1.17,1.64-1.84.05-.02.15.02.19,0l.96-.48c.63-.21,1.58-.26,2.31-.08,3.65.91,7.33.75,10.79-.37.87-.17,1.69-.54,2.31-1.16h.21c.77,0,2.07-1.1,2.6-1.82,1.42.62,2.71,1.44,4.25,2.37-1.49,1.66-2.83,3.46-4.78,4.25Z"/><path class="d" d="M40.3,61.78l20.71,5.56.3.3c.4.4.97.93,1.14,1.36.42,1.02-1.53,2.27-2.8,4.1-1.03.49-2.2.48-3.47.47l-17.99-.15c-.36,0-.74-.63-.75-.95v-8.39c.85-.88,1.8-1.67,2.85-2.3Z"/><path class="d" d="M86.8,81.46c.11.06.36.14.48.14v6.76c.01,1-.38,1.79-1.17,2.27h-.21c-.62,0-1.76.72-2.31,1.16-3.46,1.12-7.14,1.28-10.79.37-.73-.18-1.68-.13-2.31.08-.26.08-.7.34-.96.48-.05.02-.15,0-.19,0-.6.19-1.44,1.24-1.64,1.84-.01.04,0,.11,0,.16-1.96,1.02-1.5,3.51-2.99,3.96-.54.16-2.22.09-2.22-.53l.1-12.34c9.01,1.46,16.54-.82,24.19-4.37Z"/><path class="g" d="M36.6,75.88c-1.94-.86-5.63.5-5.8-1.41,4.71.12,5.79-.95,5.8,1.41Z"/><path class="o" d="M167.49,35.78c.1-.09.16-.37.22-.49.69-.23.85-.98.72-1.66s-.85-1.12-1.62-1.11l-3.19.06.11-7.27,7.38.09c1.41.02,2.23,1.32,3.14,2.2,4.71,4.5,9.18,8.95,12.97,14.29l.1,6.42-23.84.03.09-10.22c.01-1.2.93-1.98,2.13-1.79.55-.07,1.44-.24,1.77-.55Z"/><path class="w" d="M186.34,73.54c.39-.65-.14-1.1-.52-1.65-2.01-2.96-4.7.24-6-4.48-.42-1.55-2.19-2.35-3.13-3.52-.99-1.24-2.06-2.19-3.17-3.27s-1.88-2.07-3.49-2.59c-4.27-1.39-1.44-.74-6.44-.32l-.09-8.85c1.6.2,3.07.27,4.68.27h18.19c.63-.01.96.5.96,1.14l.03,23.28h-1.01ZM186.21,67.34c-1.06,1.03-.67,2.6-.08,3.8.67-1.16.82-2.5.08-3.8Z"/><path class="k" d="M186.34,73.54l-6.44.02c-.73,0-1.48.13-2.11.29l-2.9-1.87c-3.06-1.97-5.43-4.96-7.85-7.69-.25-.66-.73-1.21-1.35-1.55-.07-.06-.2-.17-.25-.24l-.51-.69c-.14-.19-.51-.5-.67-.69-.79-.96-.65-2.27-.66-3.41,5-.42,2.17-1.08,6.44.32,1.61.52,2.36,1.5,3.49,2.59s2.18,2.03,3.17,3.27c.94,1.17,2.7,1.97,3.13,3.52,1.3,4.72,3.99,1.52,6,4.48.38.56.91,1,.52,1.65Z"/><path class="k" d="M159.66,43.41c.07-.15.4-.38.4-.54v-.82s.11-1,.11-1c1.73-.74.73-3.15,1.32-4.83.37.08,1.5-.43,1.5-.02l.1,12.16-10.23.03-2.19-1.13c-1.16-.91-2.36-1.47-3.84-2.5-1.67-1.15-5.46-2.16-7.29-2.9,1.64-.37,3.48.57,4.79,1.52.81-1.75,2.93-.06,3.65-1.03.99-1.34.92-3.14.88-4.75l-.05-2.04c2.57.51,5.27.08,8.08.31-.52.64.1,7.59.11,7.62.37,1.21,2.33.65,2.66-.06Z"/><path class="w" d="M203.51,74.94c-.72.25-.51,1.38-.92,1.95-1.25,1.74-2.36,3.61-3.14,5.7-.17.45-1.37.57-1.79.63-2.26-.57-6.24-1.84-8.29-2.5l-.69-.22c-1.1-1.74-.72-4.13-.73-6.27l14.13-.25c.7-.01,1.27.39,1.43.96Z"/><path class="i" d="M177.78,73.84c.29.19.72.69,1.01.91,1.77,1.32,3.67,2.54,5.68,3.46,0,.13,0,.2.07.23l.47.19c.09.04.29.03.39.04,0,.07.1.25.21.3l.32.13c.17.07.48.17.63.25.53.3,1.56.97,2.13,1.15l.69.22c1.13,1.35,3.43,1.25,3.88,1.97.83,1.34-3.08,2.43-5.74,1.78l-1.13-.28c-.16-.04-.49-.06-.66-.08,0-.13,0-.19-.07-.22l-.47-.19c-.09-.04-.29-.02-.39-.03,0-.13.01-.2-.06-.23l-.47-.2c-.09-.04-.29-.02-.39-.03,0-.13,0-.19-.07-.22l-.47-.2c-.09-.04-.29,0-.38-.03-.06-.11-.37-.35-.54-.43-2.98-1.42-5.67-3.35-8.44-5.12-1.16-.75-2.42-2.92-3.96-3.05l-.21-.87c1.86.73,2.35,2.71,2.8,1.71.98-2.18,1.13-1.08,2.27-3.01l2.9,1.87Z"/><path class="o" d="M162.42,58.82l-.2-.3c-.18-.27-.48-.64-.69-.86l-7.14-7.39-.42-1.03,9.11-.07c-.13,2.99-.15,6.84-.06,9.44,0,.22-.61.28-.61.21Z"/><path class="o" d="M186.55,79.35c-.15-.08-.46-.18-.63-.25.01-.19.03-.4-.11-.4l-.42-.02c-.1,0-.3,0-.39-.04,0-.13,0-.17-.07-.21l-.47-.21c-2.01-.92-3.91-2.14-5.68-3.46-.05.05.04-.53.23-.53l8.29-.02v5.33s-.76-.18-.76-.18Z"/><path class="w" d="M191.48,48.22c-1.37.21-2.28.2-3.64.09l.26-4.96c1.47,1.67,2.28,2.88,3.39,4.87Z"/><path class="w" d="M161.49,36.22c-.59,1.68.41,4.08-1.32,4.83.03-.24-.11-.7-.11-.94-.02-.91,0-2.66.04-3.64l.02-.53,1.36.29Z"/><path class="k" d="M22.49,44.49c.66-.44,1.12-1.09,1.61-1.84,1.99-2.98,4.07-5.85,6.4-8.57.95-1.1,2.02-1.97,2.72-3.26,1.09-.99,2.06-1.91,3.4-2.87l.02,20.37h-16.23c.95-1.38,1.67-2.5,2.08-3.83Z"/><path class="g" d="M53.19,49.12c-.75,2.47-.09,5.08,1.76,6.92s4.61,2.34,7.14,1.62l.36,1.11c.08.26.18.76.24,1.04.02.11-.02.34.02.45.24.72.67,2.42.1,2.92-.16.14-.24.86-.46.79l-2.94-.86c-4.2-3.91-12.78-6.2-18.39-6.87-.13-1.34-1.21-2.47-1.93-3.59l3.51,2.76c1.21-.98,2.84-1.57,3.83-2.6,1.09-1.13,1.64-1.93,3.47-1.95,1.05-.01,2.45-.63,2.59-1.69.17,0,.5-.04.69-.06Z"/><path class="k" d="M52.51,49.18c-.15,1.06-1.54,1.67-2.59,1.69-1.84.02-2.38.82-3.47,1.95-.99,1.03-2.62,1.62-3.83,2.6l-3.51-2.76-1.84-1.24c.15-.76-.26-1.54.8-2.33l14.45.09Z"/><path class="g" d="M53.65,47.98c-.06.13-.22.37-.26.51l-.23-.22.49-.29Z"/><path class="o" d="M163.06,32.29c-.81,0-1.57-.07-2.6-.28,1.12-2.13.86-4.19.37-6.35l2.2-.31.03,6.93Z"/><path class="w" d="M160.83,25.67c.49,2.16.75,4.21-.37,6.35,1.03.2,1.79.28,2.6.28-.64.6-2.02.39-3.11.37.14-2.43.17-4.49.05-7.01l.83.02Z"/><path class="u" d="M128.73,101.89c.17-.04.51-.03.68-.01,1.82.23,5.44-.14,6.95-1.64.06-.03.18-.04.26-.05l1.03-.22c.27-.06.19,1.04-.06,1.17l-1.05.55c-.31.16-.71.83-.66,1.23.04.31.29.77.5,1.05.78,4.51,1.81,9.08,4.12,13.13,2.21,3.86,5.21,6.94,9.36,8.43.42.15,1.28-.06,1.65-.17s.8-1.05.46-1.31c-9.04-6.79-9.93-11.34-11.93-22.37l-.5-.46c-.09-.08-.31-.16-.42-.21-.14-.3-.37-.8-.33-1.09.04-.33.94-.54,1.27-.55h.53c.08,0,.08.09.05.16l-.13.29.02.2c.06.07.16.19.22.24,1.26.93,3.76,2.8,5.46,3.25-.25-1.29-1.35-2.34-1.84-3.44l.13-.66,1.29.37c.04.12.16.32.23.44-.04.21-.15.52.01.6l.72.38c2.94,3.93,5.56,8.06,8.91,11.79,6.39,7.11,7.66,8.09,15.5,12.84l-.47.69c-.17.25,1.31.54,1.15.99-.32.89-1.91.8-4.21,2.86-1.09.98-2.63.18-3.77.67-2.09.89-3.9,1.63-6.25,1.61-.66,0-11.58,2.73-9.81,2.56l-6.32.61c-2.73.26-5.34.89-8.15.96-1.77.04-3.61-.01-5.34.16-2.07.21-3.85.81-5.97.28s-4.27-.07-6.43-.11c-3.95-.07-7.78-.35-11.73-.13-2.81.16-5.37-.13-8.1-.65-.89-.17-2.13.56-2.65-.51-.3.45-.46.69-.62.84.44-.43-11.01-1.66-9.84-2.03.18-.04.52-.16.69-.23.08-.03.18-.18.24-.24.11-.02.33,0,.43-.04l.46-.18c.08-.03.05-.1.05-.24.07,0,.16,0,.2,0,.65-.18,1.81-.82,2.3-1.36.85.5,1.91.43,3,.18.52-.12,1.62.56,2.13.32,1.54-.75,3.06-.03,4.59.24,3.58.63,7.57-.24,11.73-.39,2.17-.08,4.31-1.18,6.58-1.04,3.42.2,6.78-.37,10.12.11,9.47,1.35,12.83-3.81,18.32-2.26,1.04.29,3.7-.01,3.55-1.53-.13-1.32-3.02-1.86-3.89-1.24l-.55-1.63c-.28-.84-4.83-.93-4.68-.86-1.23-.57-2.19-.99-3.53-1.3-1.17-.28-2-.9-3.4-.52-.88.24-2.29-.11-2.87-.67-1.17-1.14-1.79-.22-2.91.22-.94.38-3.07.02-3.93-.52-.29-.18-.5-1.22-.83-1.3-1.03-.24-1.97,2.09-3.51.69.67.16,1.8-.15,2.11-.63.11-.18.68-.46.55-.63s-.42-.43-.59-.59l-.2-.2c0-.19.03-.44-.11-.44l-.4-.02h-.18s-.69-.7-.69-.7h-.2s-.3-.46-.3-.46h-.17s-.29-.45-.29-.45h-.19s-.7-.73-.7-.73c0-.06,0-.15-.01-.2l-.05-.53c0-.09-.43.05-.4.04l-.28-.62-.43-.74v-.22c-.03-.6-.86-1.79-.93-2.53-.38-4.03-.35-7.67,0-11.88,2.79.52,5.87-.66,8.44.44,1.68.71,5.03,2.59,6.79,2.19Z"/><path class="n" d="M90.73,121.06c-.04.09.01.3-.01.39l-.41.31c-1.06,3.5-5.83,7.81-8.52,9.63-.14.1-.37.34-.5.47-.27.25-.9.61-1.1.91-.82,1.2-3.63,1.22-5.32.21-2.35-1.4-5.62-.01-8.24-.52-2.13-.41-3.95-.77-6.07-.73-2.4.04-4.95-.92-7.27-.75-2.13.15-3.47,0-5.44-.94-1.36-.64-3.71-1.45-3.89-3-.05-.45.78-.87,1.13-.89l.49-.04c.08,0,.24-.19.26-.24l1.09-.03c.08,0,.22.13.29.17.06.04.16.05.17-.02l.05-.34c.1-.04.32,0,.42-.03l.72-.22c.05-.02.18.01.23-.01l.93-.44h.23s.45-.25.45-.25c2.61-1.09,7.31-3.88,9.44-6.18.79,1.57,7.53.83,9.39.33l.46-.12c.13-.04.12.39.13.48-.47.15-.88,1.02-.67,1.41,1.22,2.27,7.68-1.5,9.14-2.82-.47.53-.81,1.25-1.57,1.99,3.19.94,6.37,1.25,9.55,1.64,3.9.48,1.47-1.53,4.45-.34Z"/><path class="c" d="M105.24,95.94c-1.54,2.88-2.67,5.88-3.9,8.99-1.3,3.3-3.45,8.35-3.73,11.71l-.23.46c-.14.28-.32.67-.43.96-2.54,7.04-3.25,7.89-8.75,13.09l-.26.24c-.06.06-.16.16-.22.21l-.44.29c-.06.04-.15.17-.22.21-.61.35-1.74,1.09-2.32,1.59-.05.01-.13,0-.2,0l-.51.42c-.1.04-.33.02-.43.04-.08.01-.22.2-.24.24-.17.07-.51.19-.69.23-.56.11-2.33.47-2.62-.52-.1-.33.01-.96.12-1.32.2-.3.83-.66,1.1-.91l.5-.47c2.7-1.83,7.46-6.14,8.52-9.63.12,0,.16,0,.22-.04.06-.04.17-.19.19-.26.02-.1-.03-.3.01-.39,1.4-2.73,2.8-8.46,3.47-11.73.15-.1.45-.56.46-.78l.02-.41c.69-.82.69-2.05,1.07-3.12l2.35-6.61c.79-2.22,2.52-3.99,3.34-6.34.33-.97,1.88-1.54,2.64-1.33.93.25,1.81,1.17,1.86,2.27.04.96-.26,2.12-.69,2.93Z"/><path class="d" d="M180.86,129.31c-.13-.03-.35-.16-.48-.22.13,0,.4.16.48.22Z"/><path class="d" d="M179.92,129.09c-.07,0-.26-.04-.32-.06-.07-.03-.08-.06-.13-.15.12.04.33.15.45.22Z"/><path class="v" d="M64.47,100.98c.03-.07.19-.23.22-.24.2.21.06.21-.22.24Z"/><path class="p" d="M140.79,90.07l7.33,1.17,29.04,4.72c.57,1.13-.51,2.52-.26,3.62l-1.57-.23-.25-.04-23.95-3.86c-.79-.13-1.71-.27-2.49-.44-3.45-.75-6.95-1.3-10.45-1.78-1.86-.26-3.71-.57-5.54-.93-1.24-.56.09-2.68.49-3.5,2.57.25,5.1.88,7.65,1.28Z"/><path class="d" d="M121.22,92.91c-.35.85-.96,1.53-1.75,2.36,2.18.9,4.8.83,6.73-.27,3.67.23,4.84-3.04,6.45-2.72,1.83.37,3.69.68,5.54.93-3.2,2.43-6.96,3.25-11.02,3.4.26,0-6.16,1.06-6.17,1.04l.19.56c.06.17.04.62-.13.61-3.13-.25-4.18.35-7.49-.11l-.42-2.83c1.59.41,2.6.22,3.65-.45,1.57-.99,2.81-2.37,3.43-4.14l.98,1.61Z"/><path class="v" d="M116.8,95.45c-1.05.67-2.06.87-3.65.45l.42,2.83c3.31.46,4.36-.14,7.49.11.18.01.19-.44.13-.61,3.11,3.04,3.66,2.6,7.55,3.66-1.77.4-5.11-1.47-6.79-2.19-2.57-1.09-5.65.09-8.44-.44-.35,4.21-.37,7.85,0,11.88.07.74.9,1.92.92,2.53-2.1-1.23-1.65-9.88-1.91-12.68l-.43-4.59-2.57-.5c-.06,1.38-.15,2.35-.1,3.47l-.33.04-.79-.39c.24-.09.91-.28.9-.5l-.18-2.75,2.16.04c.09,0,.15-.37.12-.37,1.79.51,3.72.42,5.5,0Z"/><path class="v" d="M145.82,99.8l-1.29-.37-.13.66-.99-2.25-2.88,2,.13-.29c.03-.08.03-.17-.05-.17h-.53c-.33,0-1.23.22-1.27.55-.04.29.19.79.33,1.09-.84.21-1.97.59-2.71,1.18-.31.25-.12,1.25-.03,1.77-.21-.28-.46-.74-.5-1.05-.05-.4.34-1.07.66-1.23l1.05-.55c.25-.13.33-1.22.06-1.17l-1.03.22c2.4-1.44,4.73-2.83,6.98-4.69,1.68-1.39,1.48,2,2.22,4.29Z"/><path class="v" d="M136.37,100.24c-1.51,1.49-5.14,1.87-6.95,1.64,1.9-.14,5.35-.84,6.95-1.64Z"/><path class="v" d="M146.78,101.21l-.72-.38c-.16-.08-.05-.39-.01-.6l.73.98Z"/><path class="t" d="M175.33,99.35l-.25-.04.25.04Z"/><path class="j" d="M158.03,76.12c.81.2,2.2.8,2.97.93l.97.42s.12,0,.19,0c.76.5,2.24,1.16,3.03,1.42.05.02.16-.02.21,0,.35.23.78.52,1.15.71,5.13,2.62,11.53,7.64,14.79,12.43-1.19.81-3.27,2.65-4.17,3.95l-29.04-4.72c-.7-1.23-1.91-2.25-3.23-2.41-1.54-.19-2.96.38-4.1,1.25-2.55-.41-5.08-1.03-7.65-1.28l-.03-.46c0-.07-.1-.18-.14-.25v-1.36s-.04-.25-.04-.25c0-.05,0-.16,0-.21.11-1.11-.11-3.22-.39-4.49l1.98-2.19.95-.72.21-.19,1.14-.7s.15-.01.23-.01l.69-.5.22.02c.57-.26,1.13-.55,1.66-.87l5.04-1.42c4.35-1.22,8.98-.15,13.38.93Z"/><path class="k" d="M182.42,82.32c.05.11.38.37.54.43.09.03.29,0,.38.03.03.07.13.21.22.29.05.06.25.12.32.13.1.01.3,0,.39.03.02.07.12.23.21.3.06.05.25.12.32.13.1.01.3,0,.39.03.03.07.12.22.21.3.06.05.25.11.33.12.17.02.5.04.66.08.48.56.93,1.42.93,2.25v6.26s-1.39-.48-1.39-.48c0-.01.1-.37.01-.37l-.56-.02-3.19-.05c-.05-1.44-.88-2.55-1.79-3.74l-2.49-3.25c-2.82-3.68-6.39-4.25-3.94-7.6,2.77,1.78,5.46,3.71,8.44,5.12Z"/><path class="g" d="M170.02,74.15c1.54.13,2.79,2.3,3.96,3.05-2.45,3.35,1.12,3.92,3.94,7.6l2.49,3.25c.91,1.19,1.75,2.3,1.79,3.74-.22,0-.67.1-.86.22-3.26-4.79-9.66-9.8-14.79-12.43-.29-.23-.84-.57-1.15-.71-.05-.02-.16.02-.21,0-.79-.56-1.64-1.18-1.63-2.03,0-.78-.15-2.54.83-2.6,1.87-.11,3.87-.24,5.61-.1Z"/><circle class="q" cx="183.71" cy="98.63" r="3.67"/><path class="g" d="M185.93,92.23c-.16-.05-.48-.29-.55-.39l.56.02c.09,0,0,.36-.01.37Z"/><path class="p" d="M59.42,63.11l2.94.86c.22.06.3-.66.46-.79,0,.23-.06,1,.22,1.08l1.36.39-.91,2.86-1.1.07c-.16-.01-.46-.05-.62-.06-.03-.13-.06-.34-.16-.31-.15.04-.45.18-.58.14l-20.71-5.56c-.19-1.15.36-2.26.95-3.27l18.16,4.6Z"/><circle class="r" cx="34.43" cy="57.72" r="3.69"/><path class="c" d="M59.42,63.11l-18.16-4.6-.22-2.27c5.61.66,14.19,2.96,18.39,6.87Z"/><path class="d" d="M137.72,63.65l.02,9.88h-24.4s.01-12.29.01-12.29c0-.4-.8-.26-.88-.17-2.97,0-5.81,1.18-9.52,1.2l.65-1.44-1.32-.58c.71-.16,2-.35,2.67-.44.22-.03.59.43.77.29.16-.12.51-.44.63-.6,1.76-2.26,2.78-.03,6.11-.92-.01.6.06,1.17.16,1.97.43-.3.75-.87.74-1.29,1.04.47,2-.23,3.06-.5,4.34-1.11,8.61-.22,12.72,1.29.79.29,1.84.14,2.13,1.07.25.81.66,1.69,1.38,2.05s1.47.13,2.56-.03l-.45,1.45c.96.28,1.92-.21,2.24-1.4l.73.47Z"/><path class="l" d="M93.99,60.51c-.56.42-1.11,1.23-1.5,2.02l9.8-2.28,1.32.58-.65,1.44c3.71-.02,6.55-1.19,9.52-1.2.05,4.09.16,8.21-.13,12.28-.06,0-.12-.01-.16-.03l-.47-.2s-.13-.01-.21,0c-.12-.16-.47-.33-.73-.46-4.55-2.18-9.82-3.06-14.53-1.15-1.28-1.66-3.68-2.75-5.73-2.79-.67-.8-1.45-1.62-2.28-2.27-.31-1.27-.5-2.47-.44-3.99l.18-4.52c.04-.12.13-.44.16-.58.03-.16.06-.49.04-.66.53.72,1.48,1.07,2.4,1.41.45.17.91,1.15,1.32,1.35.75.35,1.5.71,2.11,1.05Z"/><path class="k" d="M137.81,49.38l-.05,7.64c-.38-.1-1.02-.23-1.46-.26-.39-.02-.82.77-1.19.93-1.36.61-2.52-.41-3.71-.82-2.8-.96-5.83-.93-8.6-2.07-1.16-.48-2.7-1.29-3.82-.9-.19.07-.81.01-.77-.11.05-.17.16-.46.26-.61l.36-.52c.07-.1-.2-.38-.32-.33-2.1.84-1.23,1.06-2.88.88,1.81-1.53,5.73-3.05,7.82-3.66.08-.02.19-.16.25-.22.1-.01.3-.04.4-.05,2.93-.21,11-.35,13.72.08Z"/><path class="k" d="M144.68,49.12c2.45,1,4.79,2.29,6.87,3.92.29.32.63.65.97.91l.64.47,3.47,3.95c-1.25-.56-1.93,2.4-4.28.87-1.96-1.28-3.88-1.44-6.14-1.35-5.66.23-3.26,1.2-7.54,1.32v-9.88s6.01-.22,6.01-.22Z"/><path class="g" d="M137.75,57.02l-.03,6.64-.73-.47c-.32,1.19-1.28,1.68-2.24,1.4l.45-1.45c-1.09.16-1.85.39-2.56.03s-1.13-1.24-1.38-2.05c-.28-.94-1.33-.78-2.13-1.07-4.12-1.52-8.39-2.41-12.72-1.29-1.06.27-2.02.97-3.06.5-.04-1.67-.09-3.35.15-4.98.48-.36,1.46-1.13,2.12-1.06,1.65.18.78-.04,2.88-.88.12-.05.39.22.32.33l-.36.52c-.1.14-.21.44-.26.61-.04.13.58.18.77.11,1.12-.39,2.67.42,3.82.9,2.77,1.14,5.8,1.12,8.6,2.07,1.19.41,2.35,1.43,3.71.82.37-.16.8-.95,1.19-.93.44.02,1.08.16,1.46.26Z"/><path class="k" d="M109.34,49.6c-1.35.84-3.66,2.37-4.94,3.06-.09.05-.35,0-.45-.03-.15-.03-.11.2-.09.41-.04.03-.16.04-.21.02-2.63-.99-2.08,1.31-7.19,1.25-1.37-.01-2.51,1.68-4.2,1.05-1.27-.47-3.48-6.3-4.45-4.38-.03-.44-.23-1.76.25-1.76l14.38-.18c.1,0,8.46-.1,6.91.55Z"/><path class="f" d="M164.01,61.12h.23c.16.19.53.49.67.68l.51.69c.05.07.18.17.25.24.22.69.91,1.05,1.35,1.55,2.42,2.73,4.79,5.72,7.85,7.69-1.13,1.93-1.29.83-2.27,3.01-.45,1.01-.95-.98-2.8-1.71-.06-.02-.2-.03-.26-.02,0-.08.02-.26-.03-.34-.16-.25-.65-.56-.87-.77-1.54-1.47-2.83-3.15-4.18-4.8-.51-.63-1.06-1.29-1.62-1.88-.83-.87-1.67-1.77-2.43-2.81-1.16-1.61-2.56-2.87-3.8-4.27l-3.47-3.95c3.58,2.65,6.28,6.26,9.16,9.97.73-1.26,1.23-2.24,1.69-3.28Z"/><path class="h" d="M103.65,53.07c-.77.95-1.85,1.59-2.91,2.38l-6.75,5.06c-.6-.34-1.36-.69-2.11-1.05-.41-.19-.87-1.18-1.32-1.35-.93-.34-1.88-.68-2.4-1.41-.17-1.42-.26-4.29-.35-5.72.97-1.92,3.18,3.91,4.45,4.38,1.69.63,2.84-1.07,4.2-1.05,5.11.06,4.55-2.24,7.19-1.25Z"/><path class="q" d="M127.13,48.23c.29-.04.86-.02,1.17,0,3.16.1,6.34.16,9.48-.03,1.58-.09,3.28.05,4.85.23.62.07,1.46.46,2.05.71l-6.01.22c-.23,0-.65.07-.86.04-2.72-.43-10.79-.3-13.72-.08.59-.57,2.24-.95,3.04-1.07Z"/><path class="h" d="M112.15,55.29c.61.98.33,2.16.31,3.3-3.33.89-4.35-1.34-6.11.92-.13.16-.48.48-.63.6-.17.14-.55-.32-.77-.29-.25-.33,8.72-5.66,7.2-4.52Z"/><path class="k" d="M131.48,47.48l5.88.05c.15,0,.6.12.55.26l-.13.4c-3.14.18-6.32.13-9.48.03v-.23h.46c.73,0,1.47-.16,2.1-.49h.62Z"/><path class="v" d="M142.63,48.42c-1.57-.18-3.26-.32-4.85-.23l.13-.4c.05-.14-.4-.26-.55-.26l-5.88-.05c-.76-1.09,11.88-.14,11.15.93Z"/><path class="v" d="M113.51,54.27c-.24,1.64-.19,3.32-.15,4.98.01.43-.31.99-.74,1.29-.1-.79-.17-1.37-.16-1.97.02-1.14.31-2.31-.31-3.3l1.36-1.02Z"/><path class="v" d="M130.87,47.49c-.64.34-1.37.49-2.1.49-.03.09-.03-.47.07-.48l2.04-.02Z"/><path class="f" d="M152.52,53.96c-.35-.26-.68-.59-.97-.91.34.27.68.59.97.91Z"/><path class="q" d="M162.22,58.52l-.69-.86c.22.22.51.59.69.86Z"/><path class="v" d="M128.3,47.99v.23c-.31-.01-.88-.03-1.17,0,.24-.2.76-.24,1.17-.24Z"/><path class="h" d="M104.4,52.67l-.55.39c-.02-.21-.05-.44.09-.41.1.02.36.07.45.03Z"/><path class="q" d="M123.44,49.56s.17-.21.25-.22c-.06.06-.17.19-.25.22Z"/><path class="g" d="M54.16,46.88c-.12.23-.32.56-.44.71l-.13-.54c-.03-.11-.03-.2.09-.21s.41.13.48.04Z"/><path class="q" d="M148.58,33.47c.16-.44.77-.99,1.34-.98l6.66.16-.21-7.22c.44.31.57.86.56,1.5l-.08,6.03c-1.57,0-7.62-.25-8.28.51Z"/><path class="q" d="M160.06,40.11c0,.24.14.71.11.94l-.12,1c-.61-.36-.62-1.6.01-1.94Z"/><path class="q" d="M160.06,42.87c0,.17-.32.39-.4.54l.19-.47c.03-.08.08-.06.21-.07Z"/><path class="d" d="M86.52,65.35c-3.45-1.64-7.27-2.32-11.03-1.67-1.03-1.33-3.26-2.02-4.78-2.34-1.08-2.62-2.94-4.82-5.06-6.69.66-1.24.98-4.15.65-5.51l21,.03-.03,15.98c0,.34-.66.27-.75.2Z"/><circle class="r" cx="59.65" cy="51.2" r="3.72"/><path class="p" d="M64.93,55.79l3.05,5.59c-.51.99-1.56,1.4-2.74,2.19l-1.26-2.52c-.26-.52-.71-.86-1.26-.8-.04-.11,0-.34-.02-.45.17.02.51-.38.37-.51l-.61-.53-.36-1.11c.94-.27,1.55-2.09,2.84-1.86Z"/><path class="c" d="M65.65,54.65c2.12,1.87,3.98,4.07,5.06,6.69-.78-.16-1.92.52-2.72.04l-3.05-5.59c-.2-.37.55-.84.72-1.15Z"/><path class="c" d="M86.52,65.35c.46.22,1.29.78,1.7,1.1.84.65,1.62,1.47,2.28,2.27-1.58-.03-4.35,1.31-5.33,2.53-2.74-.88-5.44-1.95-8.23-2.56.13-1.33-.62-3.93-1.46-5.02,3.76-.65,7.58.03,11.03,1.67Z"/><path class="h" d="M88.13,57.36c-.03.15-.12.46-.16.58,0-.1-.07-.32-.11-.44-.03-.1.11-.11.27-.15Z"/><path class="v" d="M58.06,75.17c-.4.89-1.45,2.86-2.1,3.92.25-1.1,1.08-3.18,2.1-3.92Z"/><path class="v" d="M55.92,79.52l-.4.71.1-.5c.02-.11.2-.19.31-.21Z"/><path class="t" d="M67.98,61.38c.8.48,1.94-.21,2.72-.04,1.52.32,3.75,1.01,4.78,2.34.85,1.09,1.59,3.68,1.46,5.02-.08.84-.48,2.53-.98,3.2-1.26,1.7-5.22,3.88-7.59,2.9-6.51-2.72-3.93-7.03-6-7.22l1.1-.07.91-2.86-1.36-.39c-.28-.08-.22-.85-.22-1.08.57-.5.13-2.2-.1-2.92.55-.06,1,.28,1.26.8l1.26,2.52c1.18-.78,2.23-1.19,2.74-2.19ZM69.59,64.5c-2.28.39-3.51,2.4-3.08,4.39s2.22,3.3,4.16,2.95,3.46-2.21,3.11-4.23c-.32-1.87-2.08-3.47-4.19-3.11Z"/><path class="t" d="M96.24,71.51c.87,1.13,1.09,3.45,1.05,4.78-.04,1.04-1.11,2.15-.99,3.26-1.43,1.98-5.23,3.08-7.18,2.71-.48-.09-1.34-.64-1.83-.66-.13,0-.37-.09-.48-.14-.1-.05-.29-.18-.37-.27-1.17-1.44-3.49-4.52-2.62-6.71.34-.85.82-2.55,1.36-3.22.98-1.23,3.75-2.57,5.33-2.53,2.04.04,4.45,1.14,5.73,2.79ZM94.22,75.56c0-2.02-1.64-3.66-3.66-3.66s-3.66,1.64-3.66,3.66,1.64,3.66,3.66,3.66,3.66-1.64,3.66-3.66Z"/><path class="p" d="M85.18,71.25c-.54.68-1.02,2.38-1.36,3.22l-7.85-2.58c.5-.68.9-2.37.98-3.2,2.79.61,5.49,1.68,8.23,2.56Z"/><path class="t" d="M61.76,67.51c-.12,0-.33.09-.44.13l-.3-.3c.13.04.44-.1.58-.14.1-.03.14.19.16.31Z"/><path class="u" d="M74.83,98.26c0,.38.34,1.09.74,1.09h5.77c.68-.02,1.45.15,2.04.31,0,.05-.02.12-.03.16-.16.17-.39.71-.4.98l-.03.4c-.11.2-.34.55-.41.76l-2.56,7.25c-1.73,4.9-5.35,8.51-10.12,9.98-.01-.09,0-.52-.13-.48l-.46.12c-1.86.5-8.59,1.24-9.39-.33,1.18-1.69,2.61-3.23,3.63-5.14l5.35-10.07c.6-1.13,1.89-1.91,2.05-3.25.09-.09.2-.33.25-.44.43-.26.77-.67.96-1.14.04-.02.15,0,.19,0,.61-.19,1.86-.32,2.54-.19Z"/><path class="d" d="M89.36,86.02c.79,1.13,1.83,2.19,3.23,2.74l6.35,2.48c1.76.69,1.98-2.69,5.2-2.22,2.5.37,3.41,2.62,3.74,4.96,1.16.54,2.3,1.14,3.42,1.46.02,0-.03.37-.12.37l-2.16-.04.18,2.75c.01.22-.66.42-.9.5l.79.39-.47.85c-.12.22-.84-.26-.94-.5-.45-1.19,1.84-2.29.19-3.88-.63-.61-1.8-.33-2.64.06.44-.82.73-1.98.69-2.93-.04-1.09-.93-2.02-1.86-2.27-.76-.2-2.31.37-2.64,1.33-.82,2.35-2.55,4.13-3.34,6.34-2.94.62-6.02.31-9.06.27l.09-.43c.65-.63,1.13-1.74,1.71-2.73-.58.07-1.39.3-1.76.62l-.83.04c-.2,0-.04-.64-.04-.76,1.95-.79,3.29-2.59,4.78-4.25-1.54-.93-2.83-1.75-4.25-2.37l-.74.18.09-5.6c.49,1.14.73,1.86,1.28,2.63Z"/><path class="h" d="M88.19,95.42c0,.11-.15.77.04.76l.83-.04c-.47.41-1.41,1.04-1.98,1.12-.1.01-.32-.06-.42-.09s-.1.23-.11.33l-1.56.51c-.08.02-.18.16-.24.21l-.19.17c-.78.18-1.64.3-2.56.3l-5.75.02c-.23,0-.68.46-.68.64-.41,0-.75-.7-.74-1.09l.04-.27c.35.04.98.03,1.33,0,.46.22,1.23.21,1.67-.03h.64c1.9.01,3.87-.05,5.57-.91.06,0,.16,0,.23,0l.23-.22s.18,0,.23,0l.69-.22c.06-.02.15-.01.23-.01l.22-.23s.18.01.23-.01l.91-.46,1.14-.46Z"/><path class="v" d="M89.12,82.26c-1.11.72-.11,2.79.24,3.76-.54-.77-.78-1.49-1.28-2.63l-.09,5.6.74-.18c-.53.72-1.83,1.82-2.6,1.82.79-.47,1.18-1.27,1.18-2.27v-6.76c.48.01,1.34.56,1.82.66Z"/><path class="q" d="M84.08,97.06c-1.7.86-3.66.92-5.57.91,1.43-.4,4.16-.79,5.57-.91Z"/><path class="q" d="M74.87,98l-.04.27c-.68-.13-1.93,0-2.54.19.46-1.06,1.64-.56,2.58-.46Z"/><path class="q" d="M70.88,100.04c-.16,1.34-1.45,2.12-2.05,3.25.31-1.03,1.35-2.58,2.05-3.25Z"/><path class="q" d="M77.88,97.97c-.44.25-1.21.25-1.67.03.57-.04,1.11-.03,1.67-.03Z"/><path class="q" d="M72.1,98.46c-.19.47-.53.88-.96,1.14.17-.38.64-.94.96-1.14Z"/><path class="v" d="M83.6,91.78c.55-.44,1.68-1.16,2.31-1.16-.62.62-1.44.98-2.31,1.16Z"/><path class="v" d="M70.51,92.23l-.96.48c.26-.14.7-.4.96-.48Z"/><path class="l" d="M47.44,125.63l-.05.34c-.01.08-.11.06-.17.02-.07-.04-.21-.17-.29-.17l.51-.2Z"/><path class="v" d="M69.36,92.72c-.48.67-1.03,1.3-1.64,1.84.19-.6,1.03-1.66,1.64-1.84Z"/><path class="l" d="M48.58,125.38l-.72.22.72-.22Z"/><path class="q" d="M85.46,96.6l-.69.22.69-.22Z"/><path class="q" d="M87.06,95.88l-.91.46.91-.46Z"/><path class="l" d="M50.42,124.68l-.45.24c.12-.07.33-.19.45-.24Z"/><path class="l" d="M49.74,124.93l-.93.44.93-.44Z"/><path class="l" d="M45.57,126.1l.26-.24s-.18.23-.26.24Z"/><path class="q" d="M84.31,97.05l.23-.22-.23.22Z"/><path class="q" d="M85.69,96.59l.22-.23-.22.23Z"/><path class="k" d="M186.21,67.34c.74,1.31.6,2.65-.08,3.8-.59-1.21-.98-2.77.08-3.8Z"/><path class="q" d="M167.03,64.28c-.44-.5-1.13-.87-1.35-1.55.62.34,1.09.89,1.35,1.55Z"/><path class="q" d="M165.43,62.49l-.51-.69.51.69Z"/><path class="v" d="M138.67,49.34v9.88s-.01,14.33-.01,14.33l24.4.02c-.03-2.84.11-5.52-.2-8.1.56.59,1.1,1.25,1.62,1.88-.94-1.81-.81,5.52-.79,5.91,1.61.65,4.45.34,5.87,0,.07-.02.2,0,.26.02l.21.87c-1.74-.14-3.74-.02-5.61.1-.99.06-.82,1.82-.83,2.6-.01.85.84,1.47,1.63,2.03-.8-.26-2.28-.91-3.03-1.42,1.31.39.86-2.29.66-3.22h-21.87c-1.36,0-2.42-.04-3.15,1.16v-.99s-22.75.03-22.75.03c-.19,0-.65-.15-.78-.17-.18-.03-.24.2-.27.45-.5-.45-1.3-.74-1.65-1.36.3-4.07.19-8.19.13-12.28.08-.09.88-.23.88.17v12.29s24.39,0,24.39,0l-.02-9.88.03-6.64.05-7.64c.21.03.64-.03.86-.04Z"/><path class="q" d="M185.73,84.12c-.08,0-.27-.07-.33-.12-.09-.07-.18-.22-.21-.3l.47.19c.08.03.06.09.07.22Z"/><path class="q" d="M185.01,78.63l-.47-.19c-.08-.03-.06-.09-.07-.23l.47.21c.07.03.06.08.07.21Z"/><path class="q" d="M185.93,79.1l-.32-.13c-.11-.04-.21-.23-.21-.3l.42.02c.14,0,.12.22.11.4Z"/><path class="q" d="M184.8,83.66c-.08-.01-.26-.08-.32-.13-.09-.07-.18-.23-.21-.3l.47.2c.08.03.06.09.06.23Z"/><path class="q" d="M182.96,82.75c-.16-.05-.49-.32-.54-.43.17.08.48.32.54.43Z"/><path class="q" d="M183.88,83.2c-.08-.01-.27-.07-.32-.13-.08-.08-.18-.23-.22-.29l.47.2c.07.03.06.09.07.22Z"/><path class="t" d="M62.69,59.8c-.05-.28-.16-.78-.24-1.04l.61.53c.15.13-.2.53-.37.51Z"/><path class="n" d="M115.01,119.34l.18.02.66.76h.21c0,.13.06.33.18.36l.53.11c.06.04.16.16.22.22,1.53,1.4,2.48-.93,3.51-.69.33.08.54,1.12.83,1.3.86.54,2.99.89,3.93.52,1.12-.45,1.73-1.36,2.91-.22.58.56,1.98.91,2.87.67,1.39-.38,2.23.24,3.4.52,1.34.32,2.3.73,3.53,1.3-.15-.07,4.4.02,4.68.86l.55,1.63c.87-.62,3.77-.08,3.89,1.24.15,1.51-2.51,1.82-3.55,1.53-5.49-1.55-8.85,3.61-18.32,2.26-3.34-.48-6.7.09-10.12-.11-2.27-.13-4.41.97-6.58,1.04-4.16.15-8.16,1.02-11.73.39-1.54-.27-3.05-.99-4.59-.24-.51.25-1.6-.44-2.13-.32-1.09.25-2.14.32-3-.18v-.23c.08-.04.17-.17.23-.21l.44-.29c.06-.04.16-.15.22-.21l.26-.24c5.5-5.19,6.22-6.04,8.75-13.09.21.01.44-.13.44-.31v-.65s.21-.46.21-.46c.22.35.6.93.91,1.15.33.24,1.19-.06,1.73-.16.79-.15,2.05.77,2.73.5,1.7-.68,2.58-.57,4.31-.28,6.28,1.08,5.58,2.54,6.93,1.09.16-.18.58.26.8.41Z"/><path class="c" d="M139.13,101.03c.11.05.33.13.42.21l.5.46c2,11.02,2.89,15.58,11.93,22.37.34.25-.11,1.19-.46,1.31s-1.23.32-1.65.17c-4.15-1.49-7.15-4.57-9.36-8.43-2.31-4.04-3.35-8.61-4.12-13.13-.09-.52-.28-1.53.03-1.77.74-.59,1.86-.96,2.71-1.18Z"/><path class="c" d="M114.43,113.68v.22c.02.21.32.61.43.74l.28.62.46.5c0,.05,0,.14.01.2l.7.72h.19s.29.45.29.45h.17s.3.46.3.46h.2s.69.69.69.69h.18s.51.47.51.47l.2.2.03,1.22c-.31.49-1.44.8-2.11.63-.06-.05-.15-.17-.22-.22l-.71-.46h-.21s-.66-.77-.66-.77l-.18-.02c-3.29-3.18-5.02-6.95-5.23-11.65l-.36-8.32c-.05-1.12.04-2.1.1-3.47l2.57.5.43,4.59c.26,2.8-.2,11.45,1.91,12.68Z"/><path class="c" d="M144.4,100.09c.48,1.1,1.59,2.15,1.84,3.44-1.7-.45-4.21-2.32-5.46-3.25l-.22-.24-.02-.2,2.88-2,.99,2.25Z"/><path class="v" d="M119.09,120.17l-.03-1.22c.17.17.46.43.59.59s-.44.45-.55.63Z"/><path class="l" d="M87.05,132.32c-.5.55-1.65,1.18-2.3,1.36.57-.5,1.7-1.25,2.32-1.59v.23Z"/><path class="v" d="M114.87,114.64c-.12-.13-.42-.53-.43-.74l.43.74Z"/><path class="v" d="M118.86,118.75l-.51-.46.4.02c.14,0,.11.26.11.44Z"/><path class="v" d="M118.17,118.28l-.69-.69.69.69Z"/><path class="v" d="M115.6,115.76l-.46-.5s.4-.13.4-.04l.05.53Z"/><path class="l" d="M84.04,134.1l.51-.42c0,.14.02.21-.05.24l-.46.18Z"/><path class="v" d="M116.8,117.12l-.29-.44.29.44Z"/><path class="v" d="M117.27,117.58l-.3-.45.3.45Z"/><path class="v" d="M140.78,100.28c-.06-.05-.16-.17-.22-.24l.22.24Z"/><path class="v" d="M140.05,101.69l-.5-.46.5.46Z"/><path class="l" d="M83.36,134.38s.16-.23.24-.24c-.06.07-.16.21-.24.24Z"/><path class="v" d="M116.31,116.67l-.7-.72.7.72Z"/><path class="u" d="M94.67,108.14l-.02.41c-.15.1-.41.56-.46.78-.67,3.27-2.08,9.01-3.47,11.73-2.98-1.19-.56.82-4.45.34-3.18-.39-6.36-.7-9.55-1.64.76-.74,1.1-1.46,1.57-1.99,2.06-2.31,3.86-4.82,5-7.86l2.82-7.54.71-.65c.97-1-.03,8.01.7,8.85.84-3.31.74-6.66.4-9.83-.08-.78.56-1.42,1.37-1.42l7.93.03c-.39,2.52-2.45,6-2.56,8.79Z"/><path class="c" d="M89.12,98.25c-1.19,1.14-2.39,2.51-3,4.12l-2.82,7.54c-1.14,3.04-2.94,5.55-5,7.86-1.46,1.32-7.91,5.09-9.14,2.82-.21-.39.2-1.26.67-1.41,4.77-1.47,8.38-5.08,10.12-9.98l2.56-7.25c.13-.11.39-.54.41-.76l.03-.4c.24,0,.37-.68.4-.98,0-.04.02-.11.03-.16.54-.24.95-.71,1.19-1.26l.19-.17.24-.21,1.56-.51c.14-.05.38-.17.53-.24.57-.08,1.51-.71,1.98-1.12.38-.33,1.18-.55,1.76-.62-.58.99-1.05,2.1-1.71,2.73Z"/><path class="l" d="M81.78,131.4l-.5.47c.13-.13.36-.37.5-.47Z"/><path class="u" d="M90.72,121.46c-.02.07-.13.22-.19.26-.06.05-.11.04-.22.04l.41-.31Z"/><path class="u" d="M109.09,99.41l.33-.04.36,8.32c.2,4.7,1.94,8.46,5.23,11.65-.22-.15-.63-.58-.8-.41-1.35,1.46-.65,0-6.93-1.09-1.72-.3-2.61-.4-4.31.28-.68.27-1.93-.66-2.73-.5-.54.11-1.4.4-1.73.16-.31-.22-.69-.81-.91-1.15.27-3.36,2.43-8.41,3.73-11.71,1.22-3.11,2.36-6.11,3.9-8.99.84-.39,2.01-.66,2.64-.06,1.65,1.6-.64,2.69-.19,3.88.09.24.81.73.94.5l.47-.85Z"/><path class="v" d="M98.09,98.41l-2.35,6.61c-.38,1.07-.38,2.3-1.07,3.12.11-2.79,2.17-6.27,2.56-8.79l-7.93-.03c-.81,0-1.45.64-1.37,1.42-.41.27-.78.61-1.1.98l-.71.65c.6-1.61,1.81-2.98,3-4.12l-.09.43c3.04.04,6.12.35,9.06-.27Z"/><path class="u" d="M96.96,118.05c.1-.29.29-.68.43-.96v.65c.02.18-.21.32-.43.31Z"/><path class="v" d="M94.66,108.55c0,.22-.31.68-.46.78.05-.22.31-.68.46-.78Z"/><path class="l" d="M87.73,131.59l-.44.29.44-.29Z"/><path class="l" d="M87.95,131.38l.26-.24-.26.24Z"/><path class="t" d="M132.93,86.25c0,.05,0,.16,0,.21l.04.25v1.36c0,.07.12.23.15.25l.03.46c-.4.83-1.73,2.94-.49,3.5-1.61-.32-2.78,2.94-6.45,2.72-1.85-.11-3.41-1.2-4.98-2.1l-.98-1.61c-.45-.73-.83-2.12-.75-2.98.09-.93.58-2.57.71-3.44.02-.13.16-.37.25-.47,1.21-1.55,4.69-3.85,7.26-2.98,2.38.81,4.15,2.18,5.22,4.81ZM129.91,88.18c0-2.02-1.64-3.66-3.66-3.66s-3.66,1.64-3.66,3.66,1.64,3.66,3.66,3.66,3.66-1.64,3.66-3.66Z"/><path class="h" d="M148.12,91.24l-7.33-1.17c1.15-.87,2.56-1.44,4.1-1.25,1.32.16,2.53,1.18,3.23,2.41Z"/><path class="j" d="M119.49,88.32c-.08.86.3,2.25.75,2.98-.63,1.78-1.87,3.15-3.43,4.14-1.78.41-3.71.5-5.5,0-1.12-.32-2.26-.92-3.42-1.46-.33-2.34-1.24-4.59-3.74-4.96-3.23-.47-3.45,2.91-5.2,2.22l-6.35-2.48c-1.4-.55-2.44-1.61-3.23-2.74-.35-.97-1.35-3.04-.24-3.76,1.95.38,5.75-.73,7.18-2.71l23.19,8.77Z"/><path class="c" d="M126.2,95.01c-1.93,1.09-4.55,1.17-6.73.27.79-.83,1.4-1.51,1.75-2.36,1.56.9,3.13,1.98,4.98,2.1Z"/><path class="d" d="M137.8,75.4l-.07,2.05-.69.5c-.08,0-.18-.01-.23.01-.29.15-.88.47-1.14.7l-.21.19c-.26.19-.75.5-.95.72l-1.98,2.19c.28,1.27.51,3.39.39,4.49-1.07-2.63-2.85-4-5.22-4.81-2.57-.87-6.05,1.42-7.26,2.98-.77-3.91-3.5-7.05-6.45-9.69.04-.25.1-.48.27-.45.13.02.59.17.78.17l22.75-.03v.99Z"/><path class="h" d="M162.16,77.45c-.07,0-.15.02-.19,0,0-.22,0-.39-.14-.39-.24,0-.65,0-.83-.02-.77-.12-2.16-.73-2.97-.93-1.2-1.41-12.41-2.02-13.38-.93l-5.04,1.42c-.67.19-1.33.2-1.66.87l-.22-.02.07-2.05c.73-1.2,1.79-1.16,3.15-1.16h21.87c.2.93.65,3.61-.66,3.22Z"/><path class="v" d="M158.03,76.12c-4.4-1.08-9.03-2.15-13.38-.93.97-1.09,12.19-.48,13.38.93Z"/><path class="v" d="M139.61,76.6c-.54.32-1.09.61-1.66.87.33-.67,1-.68,1.66-.87Z"/><path class="v" d="M161.98,77.46l-.97-.42c.18.03.59.02.83.02.13,0,.13.17.14.39Z"/><path class="v" d="M137.73,77.45l-.69.5.69-.5Z"/><path class="v" d="M166.55,79.58c-.36-.19-.8-.48-1.15-.71.31.14.86.48,1.15.71Z"/><path class="v" d="M134.51,79.56c.2-.22.68-.53.95-.72l-.95.72Z"/><path class="v" d="M136.81,77.96l-1.14.7c.26-.23.85-.55,1.14-.7Z"/><path class="d" d="M132.96,86.71l-.04-.25.04.25Z"/><path class="d" d="M133.11,88.33s-.14-.18-.14-.25c.05.07.14.18.14.25Z"/><path class="j" d="M110.77,72.66l.73.46c.07,0,.16-.01.21,0l.47.2s.11.02.16.03c.36.63,1.15.91,1.65,1.36,2.95,2.64,5.68,5.78,6.45,9.69-.08.11-.23.34-.25.47l-22.92-8.6c.05-1.33-.17-3.65-1.05-4.78,4.71-1.91,9.98-1.03,14.53,1.15Z"/><path class="v" d="M111.5,73.12l-.73-.46c.26.12.62.3.73.46Z"/><path class="v" d="M112.18,73.33l-.47-.2.47.2Z"/><path class="g" d="M156.63,58.38c1.23,1.41,2.64,2.67,3.8,4.27.75,1.05,1.6,1.94,2.43,2.81.31,2.58.17,5.25.2,8.1l-24.4-.02v-14.33c4.29-.12,1.89-1.08,7.55-1.32,2.26-.09,4.18.07,6.14,1.35,2.35,1.53,3.03-1.43,4.28-.87Z"/><path class="h" d="M164.47,67.35c1.34,1.65,2.64,3.33,4.18,4.8.23.3.54.57.87.77.04.07.03.25.03.34-1.42.34-4.26.65-5.87,0-.02-.39-.15-7.71.79-5.91Z"/><path class="i" d="M169.52,72.92c-.33-.2-.64-.47-.87-.77.22.21.71.51.87.77Z"/><path class="e" d="M69.59,64.5c2.11-.36,3.87,1.24,4.19,3.11.35,2.02-1.13,3.87-3.11,4.23s-3.76-1.03-4.16-2.95.8-4,3.08-4.39Z"/><path class="p" d="M120.2,84.89c-.13.87-.62,2.51-.71,3.44l-23.19-8.77c-.13-1.11.95-2.22.99-3.26l22.92,8.6Z"/><circle class="f" cx="90.56" cy="75.56" r="3.66"/><path class="v" d="M84.57,98.4c-.24.55-.65,1.02-1.19,1.26-.59-.16-1.35-.33-2.04-.32h-5.77c0-.16.45-.62.68-.62l5.75-.02c.92,0,1.78-.12,2.56-.3Z"/><path class="v" d="M82.52,101.96c.07-.2.29-.56.41-.76-.01.21-.27.65-.41.76Z"/><path class="v" d="M82.95,100.8c.02-.27.24-.81.4-.98-.03.3-.17.99-.4.98Z"/><path class="v" d="M87.08,97.26c-.14.07-.39.2-.53.24,0-.11,0-.36.11-.33s.31.11.42.09Z"/><path class="v" d="M84.76,98.23c.06-.05.16-.19.24-.21l-.24.21Z"/><path class="u" d="M116.77,120.59l-.53-.11c-.12-.02-.17-.22-.18-.35l.71.46Z"/><path class="u" d="M115.85,120.13l-.66-.76.66.76Z"/><path class="l" d="M86.84,101.72c.32-.38.69-.71,1.1-.98.34,3.17.44,6.52-.4,9.83-.73-.84.27-9.85-.7-8.85Z"/><circle class="m" cx="126.26" cy="88.18" r="3.66"/></g></svg>
